<svg width="33" height="15" viewBox="0 0 33 15" fill="none" xmlns="http://www.w3.org/2000/svg">
<g id="Layer_1" clip-path="url(#clip0_5114_786)">
<path id="Vector" d="M32.0006 6.71899L24.9754 0.235453C24.7347 0.0142831 24.3661 0.0343894 24.1525 0.281853C23.9374 0.527769 23.9569 0.908244 24.1976 1.12787L30.0901 6.56433H1.18134C0.85941 6.56433 0.597656 6.83344 0.597656 7.16443C0.597656 7.49541 0.85941 7.76452 1.18134 7.76452H30.0886L24.1961 13.201C23.9569 13.4222 23.9359 13.8011 24.151 14.047C24.2668 14.1785 24.4248 14.2465 24.5858 14.2465C24.7242 14.2465 24.8641 14.1955 24.9754 14.0934L32.0006 7.61141C32.124 7.4985 32.1947 7.3361 32.1947 7.16597C32.1947 6.99584 32.124 6.83344 32.0006 6.72054V6.71899Z" fill="black"/>
</g>
<defs>
<clipPath id="clip0_5114_786">
<rect width="31.597" height="14.1642" fill="white" transform="translate(0.597656 0.0820312)"/>
</clipPath>
</defs>
</svg>
