<svg width="64" height="62" viewBox="0 0 64 62" fill="none" xmlns="http://www.w3.org/2000/svg">
<path id="Vector" d="M0.459264 2.52926L57.8447 56.0749L32.0715 59.09C31.2734 59.1841 30.6974 59.9068 30.7915 60.7086C30.8856 61.5104 31.6197 62.0901 32.4103 61.9884L61.3459 58.6044C62.0536 58.5216 62.5995 57.9382 62.6334 57.223L63.9962 28.1258C64.0339 27.3202 63.4127 26.6389 62.607 26.6013C62.5844 26.6013 62.5619 26.6013 62.5355 26.6013C61.7637 26.6013 61.1162 27.2111 61.0786 27.9903L59.8626 53.9707L2.45079 0.391205C2.16844 0.127712 1.81079 -0.000271002 1.45691 -0.000270971C1.06538 -0.000270937 0.677616 0.154064 0.391499 0.462727C-0.158148 1.04994 -0.124266 1.97593 0.463028 2.5255L0.459264 2.52926Z" fill="black"/>
</svg>
