<svg width="58" height="56" viewBox="0 0 58 56" fill="none" xmlns="http://www.w3.org/2000/svg">
<path id="Vector" d="M0.356396 0.41771C0.857925 -0.112713 1.69382 -0.143315 2.22606 0.356508L54.2524 48.8665L55.3578 25.283C55.3919 24.5554 56.0197 23.9876 56.7396 24.0284C57.4697 24.0624 58.0326 24.6812 57.9985 25.4054L56.7635 51.6852C56.7328 52.3312 56.238 52.8583 55.5966 52.9331L29.3736 55.9898C29.3225 55.9966 29.2713 56 29.2167 56C28.5548 56 27.985 55.507 27.9066 54.8337C27.8213 54.1129 28.3399 53.4567 29.0666 53.3717L52.3043 50.6618L0.417809 2.28099C-0.114429 1.78457 -0.141727 0.948134 0.356396 0.41771Z" fill="#FFFDF8"/>
</svg>
