<svg width="159" height="153" viewBox="0 0 159 153" fill="none" xmlns="http://www.w3.org/2000/svg">
<g clip-path="url(#clip0_5173_1362)">
<path d="M56.7414 24.8334C64.0238 20.1498 71.5543 17.7656 78.744 17.7656C82.7397 17.7656 86.6283 18.5016 90.3146 19.9867C100.636 24.147 108.028 33.6525 111.13 46.7545C114.17 59.5969 112.718 74.4176 107.04 88.4866C101.363 102.556 92.1205 114.237 81.0161 121.377C73.8251 126.001 66.2175 128.445 59.0148 128.445C54.9943 128.445 51.1004 127.697 47.4429 126.223C37.1219 122.063 29.7285 112.557 26.6273 99.455C23.5874 86.6126 25.0394 71.7919 30.717 57.7229C36.3946 43.6539 45.6369 31.973 56.7414 24.8321V24.8334ZM93.9604 103.464C97.6636 98.5024 100.771 92.9418 103.195 86.9363C104.835 82.8726 106.12 78.6823 107.016 74.4841L107.087 74.1448L78.7192 64.424L78.8171 65.0635C79.2519 67.9057 78.7139 71.1564 77.3011 74.2192C75.6636 77.7701 73.0612 80.5862 70.161 81.946L69.6256 82.1966L93.7031 103.806L93.9591 103.463L93.9604 103.464ZM72.7256 62.3608L72.7125 62.3543C72.3665 62.1964 71.9787 62.1168 71.5569 62.1168C69.5277 62.1168 66.4499 64.056 64.486 68.3142C63.444 70.5731 63.0092 73.0225 63.2952 75.0361C63.5341 76.7156 64.2614 77.9541 65.2904 78.4343L65.3113 78.4434C65.6613 78.6027 66.053 78.6823 66.4735 78.6823C68.6776 78.6823 71.6757 76.516 73.5365 72.4836C75.7537 67.6786 74.9076 63.3709 72.7256 62.3595V62.3608ZM30.6621 98.501C33.4448 110.256 39.9555 118.737 48.9941 122.38C52.1685 123.66 55.5335 124.293 59.003 124.293C65.4105 124.293 72.1772 122.133 78.7727 117.892C83.1053 115.106 87.1663 111.552 90.8447 107.328L91.0981 107.037L63.2508 82.0439L63.209 82.0217C61.0701 80.8746 59.6063 78.5413 59.1898 75.6182C58.7889 72.7968 59.3321 69.5865 60.7201 66.5785C63.7182 60.081 69.6805 56.5432 74.2925 58.5268L74.32 58.5372L107.82 70.0159L107.885 69.5461C109.343 59.1427 108.353 49.3162 105.024 41.1261C101.608 32.722 95.9856 26.74 88.762 23.8286C85.6137 22.5601 82.2461 21.9168 78.7531 21.9168C72.3299 21.9168 65.4941 24.13 58.9821 28.3177C48.5933 34.9979 39.9202 45.9924 34.5599 59.2745C29.201 72.5554 27.8155 86.4874 30.6595 98.5024L30.6621 98.501Z" fill="#FFFDF8"/>
<path d="M18.6299 52.8518C26.1486 34.2219 38.3786 18.7591 53.0675 9.31367C62.665 3.1424 72.5786 0 82.0364 0C87.2766 0 92.3757 0.963078 97.2058 2.91011C110.104 8.10917 119.612 19.8214 123.977 35.891L123.993 35.9432C123.998 35.9627 124.005 35.981 124.01 36.0006L124.024 36.058C124.236 36.8423 124.403 37.4987 124.55 38.1238C124.605 38.3561 124.657 38.5897 124.708 38.8233L124.763 39.0725C127.392 49.3427 131.004 59.0388 135.503 67.9022C138.943 74.679 141.678 78.5261 142.192 79.2282L142.216 79.2582C143.684 80.8933 144.936 82.7451 145.938 84.7639L145.976 84.8409L146.042 84.8944C148.418 86.8088 160.138 97.0294 157.689 110.189C156.341 117.43 153.21 122.575 148.384 125.477C146.268 126.749 143.791 127.591 141.022 127.98L140.733 128.02L140.69 128.309C140.269 131.084 137.838 145.204 131.299 150.519L131.252 150.557L131.219 150.608C130.641 151.486 129.364 152.545 126.56 152.603C126.479 152.605 126.397 152.606 126.313 152.606C124.408 152.606 122.131 152.151 119.899 151.325C117.56 150.459 115.47 149.264 114.013 147.959C111.413 145.631 111.602 143.66 111.947 142.692L111.964 142.645C111.968 142.633 111.976 142.618 111.982 142.602C111.991 142.583 111.999 142.563 112.007 142.543C112.01 142.538 112.015 142.524 112.021 142.508C112.025 142.499 112.029 142.49 112.033 142.481L112.04 142.466C112.213 142.062 112.452 141.702 112.75 141.395L112.777 141.368L112.798 141.335C115.815 136.661 116.624 129.411 116.838 125.506L116.859 125.127L116.482 125.094C112.502 124.745 108.624 124.95 104.956 125.704C99.901 126.743 95.4143 128.81 91.617 131.846C89.3632 133.689 87.035 135.387 84.6924 136.893C75.2176 142.986 65.1996 146.206 55.7248 146.206C50.4507 146.206 45.3463 145.226 40.5541 143.295C27.0039 137.834 17.2927 125.328 13.2095 108.081C9.18769 91.0931 11.1137 71.4779 18.6325 52.8479L18.6299 52.8518ZM146.246 121.929C150.066 119.632 152.476 115.545 153.613 109.433C154.508 104.63 153.035 99.4293 149.354 94.3947L148.535 93.275L148.647 94.6583C149.02 99.2388 148.286 103.967 146.526 108.331C143.937 114.742 139.329 120.013 133.55 123.171L132.463 123.765L133.694 123.903C134.908 124.04 136.07 124.108 137.177 124.108C140.796 124.108 143.836 123.378 146.246 121.929ZM130.417 145.474L130.69 145.085C133.52 141.049 135.51 133.962 136.429 128.675L136.506 128.233L136.057 128.217C132.266 128.085 127.973 127.291 123.298 125.855L123.245 125.838H123.188C122.569 125.829 121.965 125.797 121.39 125.739L120.986 125.699L120.961 126.104C120.784 129 120.206 134.591 118.313 139.498L118.128 139.975L118.638 140.029C120.207 140.192 121.936 140.612 123.638 141.241C126.335 142.239 128.627 143.623 130.088 145.134L130.419 145.476L130.417 145.474ZM115.969 144.138L116.678 144.787C117.191 145.256 118.672 146.454 121.339 147.442C123.758 148.336 125.555 148.465 126.386 148.465C126.47 148.465 126.543 148.465 126.607 148.463L127.571 148.433L126.859 147.782C126.346 147.312 124.865 146.114 122.197 145.126C119.526 144.137 117.623 144.083 116.93 144.107L115.97 144.138H115.969ZM102.716 121.966C109.248 120.38 115.268 120.691 119.168 121.233L119.224 121.241C119.68 121.305 120.12 121.373 120.523 121.443C121.518 121.614 122.529 121.696 123.527 121.698C123.555 121.698 123.579 121.698 123.604 121.698C125.891 121.679 128.062 121.206 130.065 120.292C135.643 117.747 140.241 112.822 142.68 106.78C145.31 100.263 145.243 93.1171 142.5 87.1729L142.489 87.152C142.458 87.0946 142.431 87.0359 142.407 86.9798L142.399 86.9641C141.518 85.1084 140.395 83.4224 139.062 81.9517C139.02 81.906 138.981 81.8577 138.943 81.8081C138.701 81.4884 132.969 73.8255 127.277 59.9275L126.599 58.2727L126.523 60.0593C126.051 71.1673 123.563 82.3719 119.129 93.3585C114.902 103.834 109.249 113.245 102.327 121.332L101.538 122.253L102.718 121.966H102.716ZM17.2431 107.131C21.0077 123.033 29.8362 134.512 42.1028 139.457C46.3857 141.184 50.9639 142.059 55.7078 142.059H55.7104C64.407 142.059 73.652 139.068 82.4478 133.412C84.4469 132.127 86.4487 130.684 88.3996 129.12L88.41 129.111C88.4205 129.102 88.4296 129.094 88.4387 129.085C88.5719 128.974 88.7143 128.862 88.8553 128.75L89.042 128.601C100.179 119.476 109.252 106.754 115.283 91.8069C122.274 74.4832 124.236 56.203 120.807 40.3331L120.803 40.3188C120.502 39.1495 120.231 38.0442 119.974 36.9415L119.97 36.9219C119.967 36.9062 119.964 36.8893 119.961 36.8736L119.954 36.8475C115.915 22.1286 107.285 11.4395 95.6545 6.75199C91.3715 5.02549 86.7934 4.14985 82.0469 4.14985C73.3516 4.14985 64.1053 7.13957 55.3095 12.7967C41.335 21.7828 29.6742 36.5591 22.4741 54.4009C15.274 72.2426 13.4158 90.9691 17.2405 107.13L17.2431 107.131Z" fill="#FFFDF8"/>
<path d="M32.018 71.3817C32.8857 71.5876 33.767 71.0805 34.0246 70.2269L36.7453 61.1929L45.1899 65.5009C45.3145 65.5639 45.4465 65.6127 45.5799 65.6444C46.3168 65.8192 47.0859 65.4679 47.4492 64.791C47.815 64.1092 47.6793 63.2951 47.1117 62.7634L33.9485 50.4688C33.7342 50.2691 33.47 50.1272 33.1854 50.0597C32.4205 49.8782 31.6392 50.2414 31.286 50.9435L27.5899 58.2855L15.3363 51.8747C15.211 51.8087 15.079 51.76 14.9418 51.7274C14.5085 51.6246 14.0423 51.7004 13.6616 51.936C13.2775 52.1748 13.009 52.5483 12.907 52.9895L10.3104 64.2043C10.1046 65.0943 10.6575 65.9994 11.5428 66.2215C11.5428 66.2215 32.0116 71.3802 32.0167 71.3814L32.018 71.3817Z" fill="#FFFDF8"/>
<path d="M32.9134 51.2028C32.6924 51.1503 32.4475 51.2491 32.3355 51.472L28.3363 59.4127C28.2271 59.6295 27.9845 59.7356 27.7597 59.6822C27.719 59.6726 27.6783 59.6576 27.64 59.6377L14.7907 52.9152C14.7512 52.8951 14.7105 52.8801 14.6698 52.8705C14.4017 52.8068 14.1174 52.9701 14.0512 53.2548L11.4546 64.4695C11.3914 64.7416 11.5587 65.0146 11.8297 65.083L32.2807 70.2374C32.2807 70.2374 32.2858 70.2386 32.2884 70.2392C32.5526 70.3019 32.82 70.1481 32.8991 69.8879L35.8481 60.0953C35.9288 59.8288 36.201 59.6828 36.4577 59.7437C36.497 59.753 36.5352 59.7674 36.5738 59.786L45.7246 64.4546C45.7676 64.4769 45.8096 64.4922 45.8515 64.5022C46.328 64.6152 46.7084 63.996 46.3086 63.6222L33.1455 51.3276C33.0776 51.2632 32.9973 51.2227 32.9147 51.2031M33.4557 48.9172C33.9385 49.0318 34.3861 49.2721 34.7497 49.6119L47.9116 61.9062C48.8752 62.8055 49.1039 64.1889 48.4829 65.3465C47.8675 66.4921 46.562 67.085 45.308 66.7874C45.0831 66.734 44.8633 66.6537 44.6551 66.5467L37.4639 62.8781L35.1487 70.5652C34.7125 72.0135 33.2173 72.8738 31.746 72.5247L31.7105 72.5163L11.2556 67.3609C9.75363 66.9831 8.81619 65.4476 9.16462 63.9396L11.7613 52.7248C11.9346 51.9773 12.3887 51.342 13.0412 50.9389C13.6847 50.5404 14.4762 50.4117 15.2118 50.5862C15.4431 50.6411 15.6686 50.7255 15.88 50.836L27.076 56.6927L30.2359 50.4172C30.8349 49.2275 32.1592 48.6123 33.4564 48.9201L33.4557 48.9172Z" fill="black"/>
<path d="M56.3142 54.7973C56.796 54.8849 57.2969 54.7359 57.6541 54.3989C58.0126 54.0622 58.1827 53.5865 58.1236 53.0943L56.2572 37.7006C56.1756 37.0252 55.6703 36.4903 55.0009 36.3686C54.7247 36.3184 54.4399 36.3449 54.1776 36.4444L48.5401 38.5882L45.104 27.2583C44.9357 26.7024 44.4753 26.2925 43.9036 26.1885C43.5529 26.1247 43.1875 26.1856 42.8758 26.3598L37.5252 29.3489L34.4475 14.3398C34.4375 14.2929 34.4259 14.247 34.4103 14.2017C34.231 13.6691 33.7769 13.2761 33.2232 13.1754C32.7543 13.0902 32.2701 13.2276 31.9164 13.5453L15.8409 26.9649C15.819 26.9835 15.7968 27.0033 15.7759 27.0234C15.2214 27.5619 15.1518 28.434 15.6153 29.0528C15.6389 29.0836 15.6627 29.1131 15.6894 29.1418L30.9427 45.8009C31.1746 46.0804 31.495 46.2673 31.8534 46.3325C32.226 46.4002 32.6079 46.3291 32.9302 46.133L37.665 43.3477L41.28 48.2334C41.501 48.6383 41.8977 48.9306 42.359 49.0145C42.5915 49.0567 42.8326 49.0449 43.0594 48.98L49.8887 47.4495L55.3924 54.2464C55.6254 54.5341 55.9524 54.7289 56.3134 54.7945L56.3142 54.7973Z" fill="#FFFDF8"/>
<path d="M33.0115 14.3326C32.901 14.3125 32.7814 14.3425 32.6898 14.4306L16.5924 27.8688C16.4602 27.9973 16.4439 28.2039 16.5551 28.3514L31.8351 45.0392C31.8928 45.116 31.9756 45.1642 32.0629 45.1801C32.1503 45.196 32.2435 45.1798 32.3243 45.1295L37.6997 41.9671C37.7808 41.9156 37.8737 41.9006 37.9598 41.9163C38.0831 41.9387 38.1927 42.0223 38.2395 42.1515L42.2903 47.6258C42.3363 47.7522 42.4454 47.8383 42.57 47.861C42.6304 47.872 42.6962 47.868 42.7585 47.8462L50.0789 46.206C50.1413 46.1842 50.2057 46.18 50.2674 46.1912C50.3522 46.2066 50.4303 46.2513 50.4866 46.3213L56.308 53.5102C56.3687 53.5849 56.4461 53.6268 56.5244 53.641C56.7467 53.6814 56.99 53.5042 56.958 53.2344L55.0917 37.8407C55.0715 37.6739 54.9439 37.5512 54.7923 37.5237C54.7293 37.5122 54.6621 37.5172 54.5964 37.5424L48.1491 39.9939C48.0835 40.0191 48.0162 40.0241 47.9533 40.0127C47.8222 39.9889 47.7092 39.8954 47.6678 39.7579L43.9802 27.5997C43.9378 27.4607 43.8232 27.3682 43.6935 27.3446C43.6138 27.3301 43.5267 27.3421 43.4498 27.3852L37.133 30.9149C37.0547 30.959 36.9691 30.97 36.8894 30.9555C36.7635 30.9326 36.6508 30.8444 36.6059 30.7116L33.2976 14.5769C33.2519 14.4413 33.1387 14.3557 33.0154 14.3333M33.4317 12.0215C34.4055 12.1986 35.2074 12.8908 35.5226 13.8288C35.5526 13.9192 35.5783 14.0114 35.5971 14.105L38.3517 27.5406L42.3003 25.3352C42.8498 25.0279 43.4931 24.9207 44.1124 25.0333C45.1196 25.2164 45.9307 25.9382 46.2277 26.918L49.299 37.0422L53.7588 35.3462C54.2221 35.1705 54.7243 35.1238 55.2112 35.2123C56.3906 35.4268 57.2796 36.3696 57.423 37.5589L59.2894 52.9526C59.3928 53.8071 59.0827 54.6659 58.4597 55.2529C57.8319 55.8444 56.9509 56.106 56.103 55.9519C55.4657 55.836 54.8896 55.4939 54.4788 54.9868L49.4348 48.7563L43.3455 50.1215C42.9561 50.2271 42.5468 50.2443 42.1486 50.1718C41.3674 50.0298 40.6915 49.5501 40.2945 48.8798L37.3486 44.8983L33.5309 47.1434C32.9645 47.4848 32.2956 47.6085 31.6417 47.4897C30.9878 47.3708 30.4628 47.0538 30.0573 46.5756L14.8204 29.9354C14.7684 29.8782 14.7195 29.8189 14.6736 29.7575C13.8565 28.6672 13.9781 27.1295 14.9549 26.181C14.9969 26.1396 15.0411 26.1012 15.0852 26.0628L31.1478 12.6554C31.7689 12.1078 32.6123 11.8712 33.4319 12.0202L33.4317 12.0215Z" fill="black"/>
</g>
<defs>
<clipPath id="clip0_5173_1362">
<rect width="158.027" height="152.609" fill="white" transform="matrix(-1 0 0 1 158.027 0)"/>
</clipPath>
</defs>
</svg>
