<svg width="163" height="163" viewBox="0 0 163 163" fill="none" xmlns="http://www.w3.org/2000/svg">
<path d="M142.091 84.3879L142.248 82.527L156.454 89.1422L156.299 90.9746L141.188 95.1243L141.345 93.2633L154.053 89.9206L154.062 89.8061L142.091 84.3879ZM147.759 85.5566L147.129 93.0577L145.554 92.9253L146.185 85.4242L147.759 85.5566Z" fill="black"/>
<path d="M149.837 114.975L136.373 109.05L137.055 107.498L150.52 113.424L149.837 114.975Z" fill="black"/>
<path d="M128.112 122.541L138.5 127.553L137.292 128.862L129.467 124.886L129.389 124.97L133.999 132.43L132.771 133.76L125.007 129.761L124.929 129.846L129.498 137.308L128.29 138.617L122.462 128.664L123.592 127.439L131.457 131.414L131.574 131.287L126.982 123.765L128.112 122.541Z" fill="black"/>
<path d="M109.765 137.38C110.381 137.048 111.002 136.863 111.628 136.824C112.257 136.789 112.838 136.914 113.372 137.197C113.908 137.484 114.347 137.944 114.688 138.576C114.988 139.133 115.122 139.643 115.089 140.107C115.058 140.575 114.913 141.007 114.654 141.402C114.394 141.798 114.069 142.164 113.679 142.5C113.287 142.842 112.881 143.164 112.462 143.467C111.913 143.861 111.465 144.176 111.119 144.411C110.771 144.654 110.539 144.869 110.422 145.057C110.302 145.247 110.307 145.462 110.436 145.702L110.463 145.753C110.8 146.376 111.232 146.769 111.76 146.93C112.284 147.094 112.889 146.991 113.576 146.62C114.288 146.236 114.762 145.778 114.998 145.248C115.235 144.718 115.34 144.232 115.313 143.789L117.002 143.531C117.067 144.257 116.978 144.898 116.734 145.454C116.488 146.017 116.149 146.499 115.718 146.9C115.286 147.308 114.825 147.644 114.336 147.907C114.024 148.076 113.645 148.231 113.2 148.373C112.752 148.522 112.278 148.585 111.776 148.563C111.269 148.542 110.766 148.37 110.265 148.047C109.764 147.724 109.306 147.177 108.89 146.406L105.438 140.009L106.93 139.204L107.639 140.519L107.715 140.478C107.703 140.213 107.749 139.896 107.856 139.529C107.962 139.161 108.166 138.787 108.467 138.407C108.768 138.027 109.201 137.685 109.765 137.38ZM110.261 138.843C109.671 139.161 109.236 139.546 108.957 139.996C108.673 140.448 108.527 140.913 108.518 141.391C108.505 141.872 108.608 142.314 108.826 142.719L109.563 144.084C109.585 143.974 109.687 143.829 109.868 143.65C110.046 143.478 110.262 143.293 110.516 143.097C110.767 142.907 111.014 142.724 111.257 142.55C111.498 142.381 111.693 142.244 111.842 142.136C112.202 141.876 112.52 141.599 112.796 141.303C113.07 141.014 113.25 140.702 113.336 140.367C113.42 140.039 113.36 139.685 113.155 139.306C112.875 138.787 112.472 138.499 111.945 138.44C111.417 138.388 110.855 138.522 110.261 138.843Z" fill="black"/>
<path d="M92.0081 139.968C92.2915 139.921 92.5482 139.903 92.778 139.913C93.0071 139.919 93.1677 139.936 93.2598 139.965L93.0787 141.509C92.6552 141.472 92.2899 141.494 91.9828 141.574C91.6757 141.654 91.4224 141.839 91.2229 142.13C91.018 142.416 90.8597 142.852 90.7481 143.439L90.5771 144.341L96.4141 154.615L94.6 154.916L90.159 146.74L90.0456 146.758L88.4774 155.93L86.6633 156.23L89.2181 142.993C89.3329 142.396 89.5133 141.888 89.7594 141.469C90.0046 141.045 90.3155 140.71 90.6921 140.463C91.0639 140.217 91.5026 140.052 92.0081 139.968Z" fill="black"/>
<path d="M64.2061 152.225L65.7792 152.052C65.8316 152.318 65.93 152.585 66.0744 152.852C66.2134 153.123 66.4256 153.363 66.7111 153.571C66.9965 153.779 67.3825 153.924 67.8689 154.006C68.5347 154.118 69.1154 154.058 69.6109 153.825C70.1009 153.597 70.3851 153.249 70.4637 152.781C70.5336 152.366 70.4377 152.012 70.176 151.721C69.9142 151.429 69.4757 151.149 68.8605 150.88L67.3122 150.212C66.3791 149.812 65.715 149.329 65.3198 148.763C64.9238 148.201 64.7898 147.54 64.9176 146.78C65.0224 146.156 65.2955 145.629 65.737 145.198C66.1738 144.767 66.7347 144.463 67.4198 144.287C68.105 144.111 68.8702 144.094 69.7155 144.236C70.8252 144.422 71.7032 144.818 72.3494 145.422C72.9957 146.025 73.3378 146.807 73.3758 147.765L71.7224 147.895C71.6698 147.284 71.4579 146.796 71.0868 146.433C70.7111 146.069 70.1808 145.829 69.4961 145.714C68.7169 145.583 68.0705 145.644 67.5569 145.898C67.0377 146.155 66.7388 146.518 66.6602 146.985C66.5967 147.363 66.6758 147.702 66.8973 148.001C67.1181 148.305 67.4917 148.567 68.018 148.787L69.7599 149.517C70.7166 149.92 71.387 150.409 71.7711 150.984C72.1498 151.562 72.276 152.227 72.1497 152.978C72.0465 153.591 71.7828 154.105 71.3587 154.52C70.9299 154.933 70.393 155.224 69.748 155.392C69.0983 155.56 68.3909 155.579 67.6259 155.451C66.5492 155.27 65.7436 154.892 65.2092 154.316C64.6699 153.74 64.3356 153.043 64.2061 152.225Z" fill="black"/>
<path d="M23.6485 128.651C23.3992 129.095 23.2208 129.541 23.1136 129.991C22.9996 130.44 22.9619 130.888 23.0005 131.333C23.0359 131.775 23.1513 132.209 23.3467 132.634C23.5421 133.059 23.8196 133.468 24.1791 133.859C24.7685 134.501 25.4703 134.933 26.2845 135.154C27.0986 135.375 27.9709 135.344 28.9014 135.062C29.8318 134.779 30.7662 134.207 31.7043 133.346C32.6425 132.484 33.2902 131.6 33.6474 130.694C34.0046 129.787 34.1028 128.913 33.942 128.073C33.7813 127.232 33.3932 126.477 32.7778 125.807C32.2078 125.186 31.5735 124.761 30.8749 124.531C30.1696 124.301 29.4522 124.277 28.7225 124.46C27.9861 124.642 27.2864 125.038 26.6233 125.646L26.3387 125.167L29.3314 128.426L28.1675 129.494L24.378 125.368L25.542 124.299C26.4343 123.48 27.3851 122.957 28.3945 122.733C29.4006 122.504 30.3914 122.557 31.3668 122.89C32.3355 123.223 33.2149 123.819 34.0052 124.68C34.8862 125.639 35.4345 126.689 35.6503 127.83C35.8628 128.968 35.7391 130.122 35.2792 131.292C34.816 132.458 34.0131 133.566 32.8703 134.616C32.0133 135.403 31.1373 135.996 30.2426 136.395C29.341 136.794 28.4543 137.003 27.5825 137.024C26.7106 137.044 25.8804 136.883 25.0917 136.541C24.3031 136.199 23.5897 135.681 22.9517 134.986C22.427 134.415 22.0243 133.803 21.7437 133.15C21.4563 132.498 21.2914 131.833 21.2491 131.157C21.1999 130.48 21.2724 129.812 21.4666 129.153C21.6572 128.497 21.9699 127.878 22.4048 127.297L23.6485 128.651Z" fill="black"/>
<path d="M23.9857 110.16L13.8767 114.579L13.2207 113.079L14.7476 112.411L14.7015 112.306C14.1208 112.34 13.5692 112.184 13.0466 111.838C12.5241 111.491 12.1305 111.016 11.8658 110.41C11.8159 110.296 11.7558 110.152 11.6854 109.979C11.615 109.806 11.565 109.674 11.5354 109.582L13.1149 108.892C13.1248 108.95 13.1578 109.08 13.2139 109.28C13.2638 109.477 13.3338 109.679 13.4239 109.886C13.6387 110.377 13.9337 110.771 14.3087 111.067C14.6774 111.36 15.0905 111.54 15.5482 111.607C15.9995 111.671 16.4533 111.603 16.9096 111.403L23.3066 108.607L23.9857 110.16Z" fill="black"/>
<path d="M18.3212 88.0263C18.4077 89.0858 18.2484 90.0189 17.8434 90.8254C17.4332 91.6276 16.8227 92.2708 16.0119 92.755C15.1958 93.2348 14.2246 93.5207 13.0983 93.6126C11.9719 93.7045 10.9625 93.5803 10.0699 93.24C9.17215 92.8953 8.45206 92.3727 7.90964 91.6723C7.36206 90.9675 7.04775 90.1188 6.96672 89.1261C6.91997 88.5533 6.96926 87.98 7.11458 87.406C7.25991 86.832 7.52864 86.2984 7.92078 85.8052C8.30815 85.3123 8.84152 84.9012 9.5209 84.5719C10.2003 84.2426 11.053 84.0361 12.0791 83.9523L12.795 83.8939L13.4869 92.3701L12.0265 92.4894L11.4749 85.7313C10.8544 85.7819 10.3109 85.9512 9.84436 86.2391C9.37742 86.5222 9.02165 86.902 8.77708 87.3784C8.53211 87.85 8.43456 88.3913 8.48442 89.0022C8.53935 89.6751 8.75392 90.2437 9.12814 90.7081C9.49719 91.168 9.95731 91.5076 10.5085 91.7268C11.0597 91.9461 11.6384 92.031 12.2445 91.9815L13.2181 91.902C14.0485 91.8342 14.7408 91.6336 15.2949 91.3001C15.8439 90.9622 16.2477 90.5233 16.5063 89.9833C16.7601 89.4437 16.8592 88.8327 16.8035 88.1502C16.7672 87.7063 16.6725 87.3105 16.5192 86.9626C16.3607 86.6104 16.1443 86.3134 15.8699 86.0716C15.5907 85.8301 15.2544 85.6534 14.8609 85.5414L15.1859 83.8717C15.7535 83.9983 16.2639 84.2473 16.717 84.6187C17.1653 84.9905 17.5308 85.4652 17.8133 86.0426C18.0911 86.6205 18.2604 87.2817 18.3212 88.0263Z" fill="black"/>
<path d="M19.9359 68.5951C19.7634 69.2727 19.4793 69.8551 19.0835 70.3423C18.6831 70.8284 18.1979 71.1718 17.6279 71.3726C17.0533 71.5723 16.418 71.5835 15.7219 71.4063C15.1094 71.2504 14.6435 71.0034 14.3244 70.6652C14.0007 70.3258 13.7812 69.9265 13.6658 69.4673C13.5505 69.008 13.5015 68.5212 13.5187 68.0068C13.5326 67.4865 13.5702 66.9699 13.6316 66.4568C13.7135 65.7859 13.7849 65.2432 13.8459 64.8288C13.9034 64.4087 13.9025 64.0922 13.843 63.8794C13.7847 63.662 13.6233 63.5196 13.3588 63.4522L13.3031 63.4381C12.6163 63.2632 12.0348 63.3154 11.5586 63.5944C11.0835 63.8688 10.7498 64.3842 10.5572 65.1406C10.3576 65.9248 10.3728 66.5834 10.6028 67.1163C10.8328 67.6492 11.1197 68.0558 11.4634 68.336L10.5096 69.7535C9.93084 69.3097 9.51951 68.8097 9.27567 68.2535C9.02837 67.6914 8.90307 67.116 8.89978 66.5272C8.89303 65.9325 8.95816 65.366 9.09519 64.8277C9.1826 64.4843 9.32476 64.1005 9.52169 63.6763C9.71516 63.2462 9.99034 62.8543 10.3472 62.5004C10.7053 62.1419 11.1727 61.8878 11.7494 61.7381C12.3261 61.5884 13.0391 61.6217 13.8883 61.8378L20.9327 63.6309L20.5145 65.2737L19.0666 64.9051L19.0454 64.9887C19.2491 65.1591 19.4501 65.4079 19.6484 65.7351C19.8468 66.0623 19.9839 66.4653 20.0596 66.9442C20.1354 67.423 20.0942 67.9733 19.9359 68.5951ZM18.524 67.9689C18.6893 67.3192 18.7011 66.7392 18.5593 66.2287C18.4186 65.7136 18.1754 65.291 17.8295 64.9608C17.4848 64.626 17.0898 64.4019 16.6443 64.2885L15.1407 63.9058C15.2065 63.9967 15.2441 64.1693 15.2535 64.4237C15.2594 64.6723 15.2489 64.9562 15.222 65.2755C15.1916 65.5889 15.1584 65.8942 15.1223 66.1914C15.0827 66.4827 15.0521 66.7195 15.0304 66.9018C14.9774 67.3429 14.9663 67.765 14.9971 68.1681C15.0244 68.5655 15.1321 68.9091 15.3202 69.1991C15.5048 69.4833 15.806 69.6785 16.2236 69.7848C16.7944 69.9301 17.2797 69.8288 17.6796 69.4809C18.0759 69.1272 18.3574 68.6232 18.524 67.9689Z" fill="black"/>
<path d="M20.473 40.7302L21.6747 41.5174L18.5417 46.3001L17.34 45.5129L20.473 40.7302ZM16.0421 42.6705L16.971 41.2525L25.7672 47.0148C26.1678 47.2772 26.5062 47.416 26.7826 47.431C27.0576 47.4394 27.2895 47.3738 27.4783 47.2341C27.6657 47.0879 27.8277 46.9106 27.9641 46.7023C28.0664 46.5461 28.1424 46.4126 28.192 46.302C28.2375 46.1888 28.274 46.0981 28.3013 46.0302L29.7641 46.5762C29.7371 46.696 29.6853 46.8538 29.6085 47.0496C29.5357 47.2481 29.4127 47.4795 29.2395 47.7439C28.9771 48.1445 28.6339 48.4806 28.2097 48.7523C27.7882 49.02 27.3185 49.1646 26.8007 49.186C26.2856 49.2034 25.7596 49.0363 25.2229 48.6847L16.0421 42.6705Z" fill="black"/>
<path d="M55.3193 26.1491L46.7539 13.5312L48.4666 12.9456L55.2518 23.2875L55.3877 23.241L54.4747 10.8913L56.3777 10.2406L63.2173 20.5639L63.3532 20.5174L62.3858 8.18627L64.0985 7.60064L65.0519 22.8212L63.312 23.4161L56.4473 13.3747L56.3386 13.4119L57.0592 25.5541L55.3193 26.1491Z" fill="black"/>
<path d="M80.0126 21.4886C79.0165 21.4874 78.1429 21.2493 77.3917 20.7743C76.6453 20.2993 76.0619 19.6354 75.6416 18.7825C75.226 17.9296 75.0189 16.9334 75.0203 15.7937C75.0217 14.6444 75.2313 13.6415 75.6489 12.7849C76.0714 11.9282 76.6564 11.2633 77.404 10.7902C78.1564 10.317 79.0306 10.0811 80.0266 10.0823C81.0226 10.0835 81.8938 10.3216 82.6402 10.7966C83.3915 11.2716 83.9748 11.9379 84.3904 12.7956C84.8107 13.6533 85.0202 14.6567 85.0188 15.806C85.0174 16.9456 84.8055 17.9414 84.383 18.7932C83.9654 19.6451 83.3804 20.3076 82.628 20.7807C81.8804 21.2539 81.0086 21.4898 80.0126 21.4886ZM80.0144 19.9658C80.771 19.9668 81.3938 19.7736 81.8827 19.3863C82.3716 18.9991 82.7337 18.4895 82.9692 17.8577C83.2046 17.2259 83.3227 16.5413 83.3236 15.8039C83.3245 15.0664 83.2081 14.3791 82.9742 13.742C82.7404 13.1048 82.3795 12.5896 81.8915 12.1963C81.4036 11.8031 80.7813 11.606 80.0247 11.6051C79.2681 11.6041 78.6454 11.7997 78.1565 12.1918C77.6675 12.5838 77.3054 13.0981 77.07 13.7347C76.8345 14.3713 76.7164 15.0583 76.7155 15.7958C76.7146 16.5332 76.831 17.2181 77.0649 17.8505C77.2988 18.4829 77.6597 18.9933 78.1476 19.3817C78.6356 19.7702 79.2578 19.9649 80.0144 19.9658Z" fill="black"/>
<path d="M98.0557 23.9217L101.651 13.4911L103.199 14.0248L102.656 15.6002L102.765 15.6377C103.133 15.1871 103.621 14.8869 104.23 14.7371C104.839 14.5874 105.456 14.6201 106.08 14.8355C106.198 14.876 106.344 14.929 106.519 14.9944C106.694 15.0598 106.826 15.1126 106.913 15.1529L106.351 16.7826C106.302 16.7503 106.184 16.6871 105.999 16.5928C105.82 16.4956 105.624 16.4103 105.411 16.3369C104.904 16.1622 104.414 16.1125 103.943 16.188C103.477 16.2605 103.065 16.4426 102.706 16.7342C102.353 17.0229 102.096 17.4026 101.933 17.8735L99.6583 24.4741L98.0557 23.9217Z" fill="black"/>
<path d="M118.968 29.9629L120.235 28.2916L120.507 28.5037L127.335 27.5998L128.988 28.89L121.735 29.8261L121.621 29.7377L118.968 29.9629ZM115.247 32.1619L124.297 20.5645L125.633 21.6073L116.584 33.2047L115.247 32.1619ZM120.774 36.4746L120.735 29.5196L122.411 29.3333L122.473 37.8002L120.774 36.4746Z" fill="black"/>
</svg>
