<svg width="467" height="100" viewBox="0 0 467 100" fill="none" xmlns="http://www.w3.org/2000/svg">
<mask id="path-1-outside-1_6715_1866" maskUnits="userSpaceOnUse" x="-0.117188" y="0.585938" width="467" height="99" fill="black">
<rect fill="white" x="-0.117188" y="0.585938" width="467" height="99"/>
<path d="M36.6134 4.86917C42.6426 4.86917 47.6533 5.72465 51.6455 7.43562C55.6378 9.10586 58.632 11.5501 60.6281 14.7684C62.665 17.9866 63.6834 21.9178 63.6834 26.5619C63.6834 31.043 62.7669 34.8519 60.9337 37.9887C59.1412 41.0847 56.8599 43.4679 54.0898 45.1381C51.3196 46.8084 48.468 47.7453 45.5349 47.949C48.631 48.0305 51.727 48.7841 54.823 50.2099C57.9598 51.6357 60.567 53.917 62.6446 57.0538C64.7222 60.1906 65.7611 64.4069 65.7611 69.7028C65.7611 74.7135 64.763 79.1335 62.7669 82.9628C60.7707 86.7514 57.5932 89.7049 53.2343 91.8232C48.9161 93.9416 43.274 95.0008 36.3079 95.0008H2.88281V4.86917H36.6134ZM18.2816 46.7269L12.9653 42.0217H31.1139C36.4912 42.0217 40.5649 40.9014 43.3351 38.6609C46.146 36.3796 47.5514 33.2224 47.5514 29.1894C47.5514 26.46 46.9607 24.2602 45.7793 22.59C44.6387 20.9197 42.9277 19.6976 40.6464 18.9236C38.4059 18.1088 35.6968 17.7015 32.5193 17.7015H11.0099L18.2816 9.69655V46.7269ZM33.1304 82.1685C38.3448 82.1685 42.3574 80.9871 45.1683 78.6243C47.9792 76.2615 49.3846 72.9618 49.3846 68.7251C49.3846 66.2809 48.9365 64.1829 48.0403 62.4312C47.1848 60.6387 45.9627 59.1925 44.3739 58.0926C42.8259 56.952 40.9927 56.1169 38.8743 55.5873C36.7967 55.0577 34.5154 54.7929 32.0305 54.7929H12.9653L18.2816 50.0266V90.1734L11.0099 82.1685H33.1304ZM79.8623 95.0008V4.86917H114.571C123.655 4.86917 130.479 6.94678 135.041 11.102C139.604 15.2572 141.885 21.3678 141.885 29.4338C141.885 34.1594 140.989 38.172 139.196 41.4718C137.404 44.7715 135.224 47.3176 132.658 49.11C130.092 50.9025 127.647 51.9209 125.325 52.1653C127.688 52.3283 129.969 52.9393 132.169 53.9985C134.369 55.0577 136.161 56.7279 137.546 59.0092C138.972 61.2498 139.685 64.2847 139.685 68.114C139.685 71.1694 139.685 74.2247 139.685 77.28C139.685 80.2945 139.685 83.3295 139.685 86.3848C139.685 88.2994 139.848 90.0715 140.174 91.701C140.5 93.2898 140.907 94.3897 141.396 95.0008H125.203C124.796 94.2675 124.429 93.1472 124.103 91.6399C123.818 90.0919 123.675 88.3402 123.675 86.3848C123.675 83.6146 123.675 80.9056 123.675 78.2577C123.675 75.569 123.675 72.8192 123.675 70.0083C123.675 66.3012 122.637 63.4903 120.559 61.5757C118.481 59.661 115.345 58.7037 111.149 58.7037H91.2891L95.5665 53.2652V95.0008H79.8623ZM95.5665 51.9209L91.2891 45.8714H111.271C113.919 45.8714 116.302 45.2603 118.42 44.0382C120.539 42.7754 122.209 41.0236 123.431 38.7831C124.694 36.5425 125.325 33.915 125.325 30.9004C125.325 26.5007 124.062 23.201 121.537 21.0012C119.011 18.8014 115.426 17.7015 110.782 17.7015H90.8614L95.5665 12.0186V51.9209ZM151.973 95.0008L175.255 4.74695H200.675L223.773 95.0008H207.213L187.904 14.7073H188.026L168.533 95.0008H151.973ZM167.005 73.0636V60.1702H208.924V73.0636H167.005ZM250.538 95.0008H234.895V4.86917H260.132L293.068 88.4624L290.685 89.1346V4.86917H306.389V95.0008H280.786L247.972 11.5908L250.538 10.9798V95.0008ZM322.139 95.0008V4.86917H349.086C355.075 4.86917 360.513 5.94871 365.402 8.10779C370.29 10.2261 374.486 13.2611 377.99 17.2126C381.493 21.1641 384.202 25.9101 386.117 31.4503C388.031 36.9499 388.989 43.0809 388.989 49.8433C388.989 56.6057 388.031 62.7571 386.117 68.2974C384.202 73.7969 381.493 78.5428 377.99 82.5351C374.486 86.5274 370.29 89.603 365.402 91.7621C360.513 93.9212 355.075 95.0008 349.086 95.0008H322.139ZM338.271 90.1734L330.999 82.1685H347.009C351.897 82.1685 356.256 80.8649 360.086 78.2577C363.956 75.6097 367.011 71.8823 369.251 67.0752C371.492 62.2275 372.612 56.4835 372.612 49.8433C372.612 43.1624 371.492 37.4184 369.251 32.6114C367.011 27.8043 363.956 24.1176 360.086 21.5511C356.256 18.9847 351.897 17.7015 347.009 17.7015H330.999L338.271 9.69655V90.1734ZM431.613 96.3451C425.217 96.3451 419.636 95.3267 414.87 93.2898C410.104 91.2529 406.397 88.1976 403.749 84.1239C401.101 80.0094 399.777 74.9172 399.777 68.8473C399.777 68.1548 399.777 67.5437 399.777 67.0141C399.777 66.4438 399.777 65.8124 399.777 65.1198H415.848C415.848 65.7309 415.848 66.3012 415.848 66.8308C415.848 67.3197 415.848 67.89 415.848 68.5418C415.848 73.4303 417.172 77.0966 419.82 79.5409C422.508 81.9444 426.46 83.1462 431.674 83.1462C436.929 83.1462 440.942 82.2703 443.712 80.5186C446.523 78.7669 447.929 75.956 447.929 72.0859C447.929 69.2751 446.971 66.8919 445.057 64.9365C443.183 62.9404 440.596 61.1887 437.296 59.6814C433.996 58.1741 430.248 56.7687 426.053 55.4651C421.327 53.9985 417.029 52.1042 413.159 49.7822C409.289 47.4602 406.193 44.5271 403.871 40.9829C401.549 37.4387 400.388 33.0798 400.388 27.9062C400.388 22.7325 401.712 18.3329 404.36 14.7073C407.049 11.0816 410.715 8.33185 415.359 6.45792C420.044 4.54327 425.36 3.58594 431.308 3.58594C437.54 3.58594 443.02 4.56364 447.745 6.51903C452.511 8.47443 456.239 11.3872 458.928 15.2572C461.616 19.1273 462.961 23.9547 462.961 29.7394C462.961 30.5134 462.961 31.1856 462.961 31.7559C462.961 32.3262 462.961 32.978 462.961 33.7113H446.829C446.829 33.1817 446.829 32.6521 446.829 32.1225C446.829 31.5522 446.829 31.0022 446.829 30.4727C446.829 25.8286 445.566 22.4066 443.04 20.2068C440.514 17.9663 436.685 16.846 431.552 16.846C426.541 16.846 422.692 17.7218 420.003 19.4735C417.314 21.2252 415.97 24.0158 415.97 27.8451C415.97 30.6967 416.887 33.0798 418.72 34.9945C420.553 36.9092 423.058 38.5794 426.236 40.0052C429.454 41.3903 433.1 42.7957 437.174 44.2215C442.592 46.014 447.277 48.0509 451.228 50.3322C455.18 52.5727 458.235 55.3836 460.394 58.7648C462.553 62.1053 463.633 66.3623 463.633 71.536C463.633 76.8319 462.288 81.3333 459.6 85.0405C456.952 88.7068 453.224 91.5177 448.417 93.4731C443.651 95.3878 438.05 96.3451 431.613 96.3451Z"/>
</mask>
<path d="M36.6134 4.86917C42.6426 4.86917 47.6533 5.72465 51.6455 7.43562C55.6378 9.10586 58.632 11.5501 60.6281 14.7684C62.665 17.9866 63.6834 21.9178 63.6834 26.5619C63.6834 31.043 62.7669 34.8519 60.9337 37.9887C59.1412 41.0847 56.8599 43.4679 54.0898 45.1381C51.3196 46.8084 48.468 47.7453 45.5349 47.949C48.631 48.0305 51.727 48.7841 54.823 50.2099C57.9598 51.6357 60.567 53.917 62.6446 57.0538C64.7222 60.1906 65.7611 64.4069 65.7611 69.7028C65.7611 74.7135 64.763 79.1335 62.7669 82.9628C60.7707 86.7514 57.5932 89.7049 53.2343 91.8232C48.9161 93.9416 43.274 95.0008 36.3079 95.0008H2.88281V4.86917H36.6134ZM18.2816 46.7269L12.9653 42.0217H31.1139C36.4912 42.0217 40.5649 40.9014 43.3351 38.6609C46.146 36.3796 47.5514 33.2224 47.5514 29.1894C47.5514 26.46 46.9607 24.2602 45.7793 22.59C44.6387 20.9197 42.9277 19.6976 40.6464 18.9236C38.4059 18.1088 35.6968 17.7015 32.5193 17.7015H11.0099L18.2816 9.69655V46.7269ZM33.1304 82.1685C38.3448 82.1685 42.3574 80.9871 45.1683 78.6243C47.9792 76.2615 49.3846 72.9618 49.3846 68.7251C49.3846 66.2809 48.9365 64.1829 48.0403 62.4312C47.1848 60.6387 45.9627 59.1925 44.3739 58.0926C42.8259 56.952 40.9927 56.1169 38.8743 55.5873C36.7967 55.0577 34.5154 54.7929 32.0305 54.7929H12.9653L18.2816 50.0266V90.1734L11.0099 82.1685H33.1304ZM79.8623 95.0008V4.86917H114.571C123.655 4.86917 130.479 6.94678 135.041 11.102C139.604 15.2572 141.885 21.3678 141.885 29.4338C141.885 34.1594 140.989 38.172 139.196 41.4718C137.404 44.7715 135.224 47.3176 132.658 49.11C130.092 50.9025 127.647 51.9209 125.325 52.1653C127.688 52.3283 129.969 52.9393 132.169 53.9985C134.369 55.0577 136.161 56.7279 137.546 59.0092C138.972 61.2498 139.685 64.2847 139.685 68.114C139.685 71.1694 139.685 74.2247 139.685 77.28C139.685 80.2945 139.685 83.3295 139.685 86.3848C139.685 88.2994 139.848 90.0715 140.174 91.701C140.5 93.2898 140.907 94.3897 141.396 95.0008H125.203C124.796 94.2675 124.429 93.1472 124.103 91.6399C123.818 90.0919 123.675 88.3402 123.675 86.3848C123.675 83.6146 123.675 80.9056 123.675 78.2577C123.675 75.569 123.675 72.8192 123.675 70.0083C123.675 66.3012 122.637 63.4903 120.559 61.5757C118.481 59.661 115.345 58.7037 111.149 58.7037H91.2891L95.5665 53.2652V95.0008H79.8623ZM95.5665 51.9209L91.2891 45.8714H111.271C113.919 45.8714 116.302 45.2603 118.42 44.0382C120.539 42.7754 122.209 41.0236 123.431 38.7831C124.694 36.5425 125.325 33.915 125.325 30.9004C125.325 26.5007 124.062 23.201 121.537 21.0012C119.011 18.8014 115.426 17.7015 110.782 17.7015H90.8614L95.5665 12.0186V51.9209ZM151.973 95.0008L175.255 4.74695H200.675L223.773 95.0008H207.213L187.904 14.7073H188.026L168.533 95.0008H151.973ZM167.005 73.0636V60.1702H208.924V73.0636H167.005ZM250.538 95.0008H234.895V4.86917H260.132L293.068 88.4624L290.685 89.1346V4.86917H306.389V95.0008H280.786L247.972 11.5908L250.538 10.9798V95.0008ZM322.139 95.0008V4.86917H349.086C355.075 4.86917 360.513 5.94871 365.402 8.10779C370.29 10.2261 374.486 13.2611 377.99 17.2126C381.493 21.1641 384.202 25.9101 386.117 31.4503C388.031 36.9499 388.989 43.0809 388.989 49.8433C388.989 56.6057 388.031 62.7571 386.117 68.2974C384.202 73.7969 381.493 78.5428 377.99 82.5351C374.486 86.5274 370.29 89.603 365.402 91.7621C360.513 93.9212 355.075 95.0008 349.086 95.0008H322.139ZM338.271 90.1734L330.999 82.1685H347.009C351.897 82.1685 356.256 80.8649 360.086 78.2577C363.956 75.6097 367.011 71.8823 369.251 67.0752C371.492 62.2275 372.612 56.4835 372.612 49.8433C372.612 43.1624 371.492 37.4184 369.251 32.6114C367.011 27.8043 363.956 24.1176 360.086 21.5511C356.256 18.9847 351.897 17.7015 347.009 17.7015H330.999L338.271 9.69655V90.1734ZM431.613 96.3451C425.217 96.3451 419.636 95.3267 414.87 93.2898C410.104 91.2529 406.397 88.1976 403.749 84.1239C401.101 80.0094 399.777 74.9172 399.777 68.8473C399.777 68.1548 399.777 67.5437 399.777 67.0141C399.777 66.4438 399.777 65.8124 399.777 65.1198H415.848C415.848 65.7309 415.848 66.3012 415.848 66.8308C415.848 67.3197 415.848 67.89 415.848 68.5418C415.848 73.4303 417.172 77.0966 419.82 79.5409C422.508 81.9444 426.46 83.1462 431.674 83.1462C436.929 83.1462 440.942 82.2703 443.712 80.5186C446.523 78.7669 447.929 75.956 447.929 72.0859C447.929 69.2751 446.971 66.8919 445.057 64.9365C443.183 62.9404 440.596 61.1887 437.296 59.6814C433.996 58.1741 430.248 56.7687 426.053 55.4651C421.327 53.9985 417.029 52.1042 413.159 49.7822C409.289 47.4602 406.193 44.5271 403.871 40.9829C401.549 37.4387 400.388 33.0798 400.388 27.9062C400.388 22.7325 401.712 18.3329 404.36 14.7073C407.049 11.0816 410.715 8.33185 415.359 6.45792C420.044 4.54327 425.36 3.58594 431.308 3.58594C437.54 3.58594 443.02 4.56364 447.745 6.51903C452.511 8.47443 456.239 11.3872 458.928 15.2572C461.616 19.1273 462.961 23.9547 462.961 29.7394C462.961 30.5134 462.961 31.1856 462.961 31.7559C462.961 32.3262 462.961 32.978 462.961 33.7113H446.829C446.829 33.1817 446.829 32.6521 446.829 32.1225C446.829 31.5522 446.829 31.0022 446.829 30.4727C446.829 25.8286 445.566 22.4066 443.04 20.2068C440.514 17.9663 436.685 16.846 431.552 16.846C426.541 16.846 422.692 17.7218 420.003 19.4735C417.314 21.2252 415.97 24.0158 415.97 27.8451C415.97 30.6967 416.887 33.0798 418.72 34.9945C420.553 36.9092 423.058 38.5794 426.236 40.0052C429.454 41.3903 433.1 42.7957 437.174 44.2215C442.592 46.014 447.277 48.0509 451.228 50.3322C455.18 52.5727 458.235 55.3836 460.394 58.7648C462.553 62.1053 463.633 66.3623 463.633 71.536C463.633 76.8319 462.288 81.3333 459.6 85.0405C456.952 88.7068 453.224 91.5177 448.417 93.4731C443.651 95.3878 438.05 96.3451 431.613 96.3451Z" stroke="black" stroke-width="5.51534" mask="url(#path-1-outside-1_6715_1866)"/>
</svg>
