<svg width="503" height="163" viewBox="0 0 503 163" fill="none" xmlns="http://www.w3.org/2000/svg">
<rect x="2.40347" y="25.2083" width="340.327" height="68.4803" rx="34.2402" transform="rotate(-3.73723 2.40347 25.2083)" fill="#FFFDF8" stroke="black" stroke-width="4.52182"/>
<path d="M65.6614 38.1028C67.6519 37.9728 69.3335 38.1426 70.7061 38.6121C72.0918 39.0667 73.1685 39.8212 73.9363 40.8753C74.7032 41.9156 75.1399 43.2501 75.2462 44.8786C75.3481 46.4377 75.1139 47.774 74.5436 48.8876C73.9863 49.9864 73.2317 50.8465 72.2798 51.4678C71.3417 52.0883 70.36 52.4669 69.3345 52.6038C70.4499 52.5589 71.5668 52.7515 72.6853 53.1817C73.8167 53.5971 74.7733 54.3314 75.5551 55.3847C76.3359 56.424 76.7859 57.8555 76.905 59.6789C77.0195 61.4328 76.7641 62.9802 76.1388 64.3211C75.5265 65.6472 74.5122 66.7059 73.0961 67.4974C71.68 68.2888 69.8236 68.7596 67.5269 68.9096L56.7948 69.6106L54.7832 38.8134L65.6614 38.1028ZM60.0853 52.8934L58.4684 51.5732L64.7322 51.164C66.7645 51.0313 68.3031 50.5114 69.3482 49.6044C70.3933 48.6974 70.865 47.4644 70.7631 45.9054C70.694 44.8475 70.4094 44.0204 69.9091 43.424C69.4079 42.8137 68.7167 42.3975 67.8355 42.1755C66.9673 41.9386 65.9486 41.8584 64.7794 41.9348L57.3463 42.4203L59.237 39.9064L60.0853 52.8934ZM66.4045 65.2086C68.3532 65.0813 69.8423 64.5506 70.8716 63.6167C71.914 62.6679 72.3815 61.3723 72.2742 59.7298C72.2097 58.7415 71.9746 57.9251 71.5691 57.2806C71.1765 56.6213 70.6608 56.1098 70.022 55.7461C69.3832 55.3824 68.6542 55.1365 67.835 55.0083C67.015 54.8661 66.1456 54.8251 65.2269 54.8851L58.7125 55.3106L60.144 53.7912L61.0686 67.9475L58.867 65.7009L66.4045 65.2086ZM83.3481 40.7219L85.2388 38.208L86.1225 51.7379L84.9427 50.3681L96.6143 49.6057L96.8598 53.364L85.1882 54.1264L86.1798 52.6148L87.0704 66.2491L84.8687 64.0025L99.8184 63.026L100.064 66.7843L82.6087 67.9244L80.597 37.1272L98.0523 35.9871L98.2977 39.7454L83.3481 40.7219ZM122.987 38.1327L113.654 38.7423L114.918 36.2693L116.84 65.6885L112.309 65.9844L110.387 36.5653L112.109 38.8432L102.65 39.4611L102.405 35.7028L122.742 34.3744L122.987 38.1327ZM146.395 36.6037L137.062 37.2133L138.326 34.7403L140.248 64.1595L135.717 64.4554L133.795 35.0363L135.517 37.3143L126.058 37.9321L125.813 34.1738L146.149 32.8454L146.395 36.6037ZM153.245 36.1562L155.136 33.6423L156.02 47.1722L154.84 45.8024L166.512 45.0401L166.757 48.7984L155.085 49.5607L156.077 48.0491L156.968 61.6834L154.766 59.4368L169.716 58.4603L169.961 62.2186L152.506 63.3588L150.494 32.5616L167.949 31.4214L168.195 35.1797L153.245 36.1562ZM175.588 61.8511L173.576 31.0539L184.851 30.3174C187.816 30.1238 190.102 30.6664 191.709 31.9453C193.316 33.2243 194.21 35.2418 194.39 37.9979C194.495 39.6126 194.272 41.0111 193.72 42.1934C193.182 43.3748 192.495 44.3073 191.659 44.991C190.836 45.6598 190.045 46.061 189.285 46.1945C190.068 46.1993 190.84 46.3586 191.602 46.6723C192.363 46.986 193.012 47.5028 193.548 48.2226C194.084 48.9425 194.394 49.9427 194.478 51.2233C194.549 52.309 194.621 53.4087 194.693 54.5222C194.766 55.6358 194.838 56.7424 194.91 57.8421C194.951 58.4684 195.037 59.036 195.168 59.5446C195.312 60.0385 195.467 60.3709 195.632 60.5418L191.059 60.8405C190.92 60.6399 190.786 60.2992 190.657 59.8183C190.528 59.3375 190.442 58.777 190.4 58.1367C190.335 57.1344 190.269 56.1253 190.203 55.1091C190.136 54.093 190.07 53.0769 190.003 52.0607C189.917 50.7384 189.456 49.776 188.62 49.1736C187.796 48.5564 186.633 48.2968 185.13 48.395L177.947 48.8642L179.074 47.176L180.014 61.562L175.588 61.8511ZM179.05 46.8002L177.702 45.1059L184.926 44.634C185.901 44.5704 186.762 44.2834 187.512 43.7732C188.261 43.249 188.837 42.5543 189.242 41.6891C189.66 40.8091 189.832 39.8053 189.758 38.6778C189.647 36.9797 189.1 35.7713 188.117 35.0527C187.133 34.3341 185.771 34.0316 184.031 34.1453L176.911 34.6104L178.135 32.7901L179.05 46.8002ZM234.231 47.075C234.314 48.3556 234.163 49.6725 233.776 51.0258C233.389 52.3791 232.752 53.6508 231.865 54.8411C230.978 56.0313 229.827 57.0221 228.411 57.8136C226.994 58.5911 225.297 59.0444 223.32 59.1735C220.634 59.349 218.3 58.8235 216.319 57.5969C214.351 56.3556 212.795 54.577 211.651 52.2613C210.507 49.9456 209.835 47.2496 209.634 44.1734C209.432 41.0832 209.748 38.3227 210.582 35.8918C211.414 33.447 212.726 31.4881 214.517 30.0152C216.322 28.5413 218.568 27.7166 221.254 27.5412C223.495 27.3948 225.431 27.7087 227.061 28.4829C228.705 29.2562 230.039 30.3014 231.061 31.6185C232.098 32.9347 232.818 34.3275 233.221 35.7969C233.455 36.5924 233.596 37.3521 233.643 38.0759L229.091 38.3732C229.066 37.9835 229.003 37.5612 228.904 37.1064C228.678 36.0029 228.235 35.0043 227.576 34.1108C226.93 33.2164 226.095 32.523 225.07 32.0308C224.059 31.5377 222.872 31.3356 221.508 31.4247C219.921 31.5284 218.551 32.0652 217.398 33.0352C216.245 33.9912 215.385 35.3754 214.818 37.1877C214.265 38.9992 214.075 41.2273 214.248 43.872C214.42 46.5028 214.898 48.6872 215.683 50.4253C216.48 52.1486 217.514 53.423 218.784 54.2487C220.053 55.0604 221.481 55.4145 223.068 55.3108C224.223 55.2354 225.226 54.9602 226.076 54.4853C226.925 54.0105 227.626 53.3985 228.178 52.6495C228.731 51.9005 229.131 51.0706 229.379 50.1597C229.641 49.248 229.741 48.3188 229.679 47.3723L234.231 47.075ZM237.032 57.8376L243.243 26.4404L250.362 25.9753L260.521 56.3033L255.865 56.6074L246.958 29.0704L247 29.0677L241.709 57.5321L237.032 57.8376ZM241.281 49.6968L241.035 45.9385L255.066 45.022L255.312 48.7803L241.281 49.6968ZM264.529 56.0415L262.517 25.2443L267.048 24.9483L268.97 54.3675L266.763 52.0374L280.731 51.1249L280.982 54.9668L264.529 56.0415ZM285.531 54.6696L283.519 23.8724L288.05 23.5765L289.972 52.9956L287.765 50.6655L301.733 49.7531L301.984 53.5949L285.531 54.6696Z" fill="black"/>
<path d="M477.365 157.022C473.068 157.022 469.217 156.341 465.811 154.978C462.404 153.59 459.706 151.533 457.715 148.808C455.75 146.083 454.767 142.703 454.767 138.668C454.767 138.328 454.767 137.987 454.767 137.647C454.767 137.306 454.767 136.965 454.767 136.625H470.605C470.605 136.913 470.605 137.201 470.605 137.489C470.605 137.778 470.605 138.066 470.605 138.354C470.605 140.188 471.168 141.721 472.295 142.952C473.448 144.184 475.19 144.799 477.522 144.799C479.775 144.799 481.544 144.472 482.828 143.817C484.138 143.136 484.793 142.035 484.793 140.516C484.793 139.389 484.177 138.341 482.946 137.371C481.74 136.402 480.103 135.485 478.033 134.62C475.989 133.756 473.71 132.93 471.195 132.144C468.47 131.28 465.876 130.114 463.413 128.647C460.977 127.179 458.985 125.28 457.439 122.948C455.894 120.59 455.121 117.669 455.121 114.184C455.121 110.595 456.116 107.529 458.108 104.988C460.099 102.42 462.771 100.455 466.125 99.0926C469.505 97.7302 473.251 97.049 477.365 97.049C481.636 97.049 485.448 97.7171 488.801 99.0533C492.181 100.39 494.854 102.355 496.819 104.948C498.784 107.542 499.766 110.752 499.766 114.577C499.766 114.918 499.766 115.245 499.766 115.56C499.766 115.874 499.766 116.201 499.766 116.542H483.928C483.928 116.411 483.928 116.215 483.928 115.953C483.928 115.664 483.928 115.455 483.928 115.324C483.928 113.621 483.443 112.18 482.474 111.001C481.531 109.822 479.893 109.232 477.561 109.232C475.256 109.232 473.474 109.651 472.217 110.49C470.985 111.328 470.369 112.547 470.369 114.145C470.369 115.271 470.893 116.267 471.941 117.132C472.989 117.97 474.43 118.756 476.264 119.49C478.125 120.223 480.221 121.009 482.553 121.848C486.063 123.079 489.142 124.442 491.788 125.935C494.435 127.402 496.491 129.249 497.958 131.476C499.452 133.703 500.199 136.559 500.199 140.044C500.199 143.686 499.216 146.777 497.251 149.319C495.286 151.834 492.574 153.747 489.116 155.057C485.684 156.367 481.767 157.022 477.365 157.022Z" fill="black"/>
<path d="M149.586 75.7772H124.835C123.054 75.7772 121.452 77.1983 121.452 79.1524V116.634H120.917L102.398 77.5536C101.864 76.3102 100.618 75.5996 99.3713 75.5996H65.0044C63.2237 75.5996 61.6211 77.0207 61.6211 78.9747V151.984C61.6211 153.76 63.0456 155.359 65.0044 155.359H89.7557C91.5364 155.359 93.139 153.938 93.139 151.984V114.325H93.6732L113.439 153.582C113.973 154.648 115.219 155.359 116.466 155.359H149.586C151.367 155.359 152.97 153.938 152.97 151.984V78.9747C152.97 77.1983 151.545 75.7772 149.586 75.7772Z" fill="black"/>
<path d="M244.237 132.598H197.583V120.341H241.744C242.812 120.341 243.703 119.453 243.703 118.387V112.525C243.703 111.459 242.812 110.571 241.744 110.571H197.583V99.3796H243.881C245.662 99.3796 247.264 97.9585 247.264 96.0044V78.9513C247.264 77.1749 245.84 75.5762 243.881 75.5762H166.778C164.997 75.5762 163.395 76.9973 163.395 78.9513V152.138C163.395 153.914 164.819 155.513 166.778 155.513H244.237C246.018 155.513 247.62 154.092 247.62 152.138V136.15C247.62 134.196 246.196 132.598 244.237 132.598Z" fill="black"/>
<path d="M349.198 107.219C349.198 79.5076 333.35 75.5996 312.16 75.5996H261.055C259.274 75.5996 257.672 77.0207 257.672 78.9747V151.984C257.672 153.76 259.096 155.359 261.055 155.359H288.477C290.258 155.359 291.861 153.938 291.861 151.984V137.95H297.559C299.34 146.654 306.462 153.582 315.366 155.003C316.434 155.181 317.502 155.359 318.749 155.359H345.637C347.418 155.359 349.02 153.938 349.02 151.984V137.95C349.02 136.174 347.596 134.575 345.637 134.575H334.597C344.213 130.845 349.198 123.029 349.198 107.219ZM305.038 117.7H292.039V99.2253H307.353C311.092 99.2253 314.297 102.068 314.653 105.976C315.188 114.502 312.517 117.522 305.038 117.7Z" fill="black"/>
<path d="M408.237 75.5762H363.008C361.228 75.5762 359.625 76.9973 359.625 78.9513V151.605C359.625 153.736 361.406 155.335 363.364 155.335H408.059C435.304 155.335 449.371 144.855 449.371 115.9C449.371 115.722 449.371 115.545 449.371 115.367C449.371 115.189 449.371 115.012 449.371 114.834C449.549 86.0568 435.482 75.5762 408.237 75.5762ZM402.361 130.821H393.102V121.939V100.09H402.361C412.511 100.09 415.182 105.597 415.36 115.545C415.36 125.315 412.511 130.821 402.361 130.821Z" fill="black"/>
</svg>
