<svg width="24" height="25" viewBox="0 0 24 25" fill="none" xmlns="http://www.w3.org/2000/svg">
<g id="Layer_1" clip-path="url(#clip0_4416_902)">
<path id="Vector" d="M23.2361 9.632C22.7007 9.62023 22.1641 9.64378 21.6297 9.61915C21.4851 9.61273 21.272 9.526 21.2185 9.41465C20.9904 8.93818 20.8094 8.43923 20.5952 7.90709C21.0718 7.44454 21.5451 6.98413 22.0185 6.52587C22.3548 6.1993 22.3387 5.87166 22.0185 5.55045C20.9979 4.52685 19.9751 3.50539 18.9523 2.48286C18.63 2.16058 18.3087 2.14238 17.9788 2.47965C17.5794 2.88759 17.211 3.3405 16.759 3.67992C16.1475 4.13818 15.732 3.3662 15.1815 3.31266C15.068 3.30196 14.8988 3.06426 14.8881 2.92078C14.8527 2.40577 14.8774 1.88648 14.872 1.36932C14.8656 0.686208 14.6921 0.50847 14.0249 0.507399C12.9004 0.505258 11.7759 0.511682 10.6514 0.505258C9.20991 0.496692 9.04605 0.37249 9.14244 2.02995C9.1917 2.8726 9.05462 3.46363 8.11218 3.62103C7.89264 3.65743 7.69023 3.80412 7.40964 3.93154C6.9759 3.47862 6.5411 3.00858 6.08809 2.5546C5.65649 2.1231 5.42731 2.11775 5.00535 2.53533C4.00294 3.52681 3.00482 4.52257 2.01419 5.52582C1.62222 5.92306 1.63186 6.16183 2.02918 6.57191C2.38902 6.94345 2.77671 7.29036 3.12155 7.67474C3.71807 8.34073 2.8324 8.7583 2.7992 9.33113C2.79277 9.43928 2.48005 9.59988 2.30013 9.6138C1.78501 9.65235 1.2656 9.61808 0.748327 9.63093C0.202142 9.64378 0.00615796 9.84079 0.00401606 10.3794C-0.00133869 11.7895 -0.00133869 13.1996 0.00401606 14.6087C0.00615796 15.1719 0.203213 15.3625 0.787952 15.3721C1.32343 15.3817 1.85997 15.3592 2.39438 15.3849C2.5336 15.3914 2.73387 15.4952 2.78956 15.6109C3.01232 16.0745 3.19009 16.5595 3.40535 17.0863C2.94806 17.5339 2.48112 17.9996 2.00455 18.4547C1.64578 18.7973 1.65756 19.1281 1.9992 19.4686C3.0091 20.4772 4.01473 21.4923 5.03106 22.4945C5.42624 22.8842 5.66399 22.8767 6.07416 22.4656C6.52717 22.0116 6.96091 21.5394 7.37751 21.1015C8.54342 21.4991 9.12673 22.2614 9.12744 23.3885C9.12744 23.5138 9.12316 23.6391 9.12851 23.7633C9.15422 24.3008 9.34699 24.4913 9.89317 24.4935C11.3036 24.4988 12.713 24.4988 14.1234 24.4935C14.6621 24.4913 14.8592 24.2954 14.872 23.7493C14.8849 23.1968 14.8602 22.6422 14.887 22.0897C14.8934 21.9538 15.0091 21.761 15.128 21.7043C15.5896 21.4826 16.0726 21.3038 16.5748 21.0983C17.0021 21.5298 17.4262 21.9634 17.8557 22.3906C18.359 22.8917 18.5647 22.8971 19.0552 22.4099C20.0169 21.4537 20.9764 20.4944 21.9317 19.5318C22.3922 19.0671 22.3912 18.8412 21.9146 18.369C21.4723 17.93 21.0139 17.5082 20.5855 17.1013C20.8008 16.5756 20.9604 16.1205 21.1756 15.6933C21.2495 15.5466 21.4594 15.3892 21.6169 15.3774C22.1491 15.3378 22.6867 15.3699 23.2222 15.3592C23.807 15.3475 23.9944 15.1612 23.9965 14.5883C24.0008 13.1964 24.0008 11.8045 23.9965 10.4126C23.9944 9.83544 23.807 9.6395 23.2361 9.62665V9.632ZM22.8056 14.2147C22.2273 14.2147 21.6447 14.2318 21.0643 14.2093C20.5941 14.1911 20.3671 14.3902 20.2225 14.8389C20.0212 15.462 19.7705 16.0777 19.4643 16.6559C19.2286 17.1024 19.2801 17.4161 19.6399 17.7362C20.0651 18.1153 20.4731 18.5125 20.8597 18.8755C20.0104 19.7256 19.2233 20.5136 18.3697 21.3681C17.996 20.9687 17.5901 20.5436 17.196 20.1089C16.9036 19.7866 16.6112 19.7406 16.2021 19.9419C15.566 20.2545 14.8977 20.5029 14.2337 20.7524C13.89 20.882 13.7036 21.0758 13.7111 21.458C13.724 22.0608 13.7143 22.6647 13.7143 23.3018H10.2884C10.2884 22.7375 10.2712 22.1572 10.2937 21.5779C10.3119 21.1143 10.1309 20.8755 9.67898 20.7246C9.02356 20.5062 8.38742 20.2224 7.76519 19.9215C7.40428 19.747 7.12584 19.7674 6.85489 20.0543C6.43936 20.4944 6.02062 20.9312 5.59652 21.3756C4.73976 20.5222 3.95796 19.7427 3.11727 18.9033C3.54351 18.4986 3.97938 18.0778 4.42169 17.6656C4.72584 17.3818 4.75368 17.0981 4.56734 16.7126C4.25783 16.0755 3.99973 15.4117 3.75448 14.7457C3.6174 14.3742 3.4075 14.1964 3.00589 14.2082C2.42008 14.2254 1.8332 14.2125 1.20669 14.2125V10.7873C1.81606 10.7873 2.41687 10.7766 3.01767 10.7916C3.42142 10.8012 3.62383 10.6106 3.75877 10.2434C4.00402 9.5774 4.2664 8.9157 4.57483 8.27755C4.76118 7.89103 4.72477 7.60729 4.42062 7.32569C3.97831 6.91561 3.54565 6.49696 3.12369 6.09437C3.97082 5.24744 4.75261 4.46689 5.61687 3.60176C5.99705 4.01291 6.39866 4.43798 6.78849 4.87376C7.09264 5.21425 7.39357 5.26778 7.8241 5.04829C8.43882 4.73564 9.0921 4.49259 9.74217 4.25703C10.1106 4.12319 10.3033 3.92404 10.2926 3.51931C10.2776 2.93256 10.2884 2.34474 10.2884 1.71195H13.7143C13.7143 2.28585 13.7293 2.86939 13.709 3.45079C13.694 3.89192 13.8696 4.12426 14.2969 4.26988C14.9513 4.49366 15.5928 4.76348 16.2139 5.06756C16.5963 5.25493 16.8822 5.23566 17.1681 4.92944C17.5805 4.48723 18.0013 4.05253 18.404 3.62852C19.2404 4.46903 20.0179 5.25065 20.9122 6.14898C20.4988 6.51837 20.0543 6.91989 19.6046 7.31712C19.2747 7.60836 19.2458 7.90388 19.4493 8.30968C19.7588 8.9264 20.0126 9.57526 20.2428 10.2273C20.3831 10.6235 20.5973 10.8109 21.0214 10.7969C21.6051 10.7777 22.1909 10.7927 22.8056 10.7927V14.2147Z" fill="#FFFDF8"/>
<path id="Vector_2" d="M12.0492 7.36136C9.17798 7.35172 6.86045 9.64412 6.85938 12.4954C6.85723 15.3275 9.15764 17.6402 11.9817 17.6445C14.8187 17.6488 17.1373 15.3553 17.1448 12.5372C17.1523 9.69551 14.8647 7.37099 12.0503 7.36136H12.0492ZM11.9849 16.4817C9.76701 16.4753 8.02136 14.7214 8.02243 12.4997C8.02243 10.279 9.77129 8.52843 11.9914 8.52415C14.2361 8.51987 15.9924 10.2844 15.9817 12.5318C15.971 14.745 14.2082 16.487 11.986 16.4817H11.9849Z" fill="#FFFDF8"/>
</g>
<defs>
<clipPath id="clip0_4416_902">
<rect width="24" height="24" fill="white" transform="translate(0 0.5)"/>
</clipPath>
</defs>
</svg>
