<svg width="18" height="19" viewBox="0 0 18 19" fill="none" xmlns="http://www.w3.org/2000/svg">
<g id="Capa_1" clip-path="url(#clip0_6315_37)">
<path id="Vector" d="M9.56884 11.5145V19H8.44322V11.5449C8.40153 11.5246 8.35984 11.5032 8.31816 11.4829C6.89084 13.4935 5.46242 15.5041 4.01097 17.5507C3.68952 17.314 3.41305 17.11 3.08722 16.8689C4.53977 14.8098 5.97038 12.7835 7.49424 10.6231C5.04333 11.439 2.74054 12.2042 0.378497 12.9909C0.254525 12.6314 0.142622 12.3068 0 11.8954C2.3412 11.1099 4.6396 10.3379 6.93801 9.56706C6.9424 9.5231 6.94569 9.48028 6.95008 9.43633C4.65825 8.66772 2.36643 7.8991 0.0230389 7.11359C0.137137 6.73492 0.236972 6.40358 0.357652 6.00125C2.70433 6.78338 5.00494 7.54974 7.30554 8.31609C7.33297 8.28566 7.36039 8.25636 7.38782 8.22593C5.96379 6.20861 4.54087 4.19017 3.0938 2.13904C3.40208 1.90124 3.67526 1.69049 4.00439 1.43692C5.45036 3.47678 6.87658 5.48846 8.40373 7.6444V0H9.55129V7.4607C9.59846 7.47761 9.64454 7.49564 9.69171 7.51255C11.1124 5.50988 12.5321 3.50608 13.9912 1.44931C14.3072 1.68148 14.5935 1.8911 14.9194 2.13002C13.4712 4.18115 12.0494 6.19622 10.6264 8.21015C10.6462 8.24509 10.6648 8.28003 10.6846 8.31497C12.9918 7.54861 15.299 6.78113 17.661 5.99561C17.7751 6.39006 17.8716 6.72252 17.9835 7.11134C15.6434 7.89572 13.3406 8.66772 11.0389 9.43971L11.0367 9.55353C13.3395 10.3267 15.6423 11.0986 17.9989 11.8898C17.8826 12.264 17.7806 12.5953 17.6566 12.9965C15.2979 12.2132 12.9819 11.4435 10.5112 10.6231C12.0351 12.7812 13.4602 14.7997 14.9128 16.8565C14.6242 17.0819 14.3522 17.2937 14.0066 17.562C12.5562 15.5187 11.1234 13.4991 9.68952 11.4796C9.64893 11.4908 9.60943 11.5032 9.56884 11.5145ZM8.98848 10.7628C9.61711 10.8327 10.2293 10.1982 10.2512 9.48817C10.2721 8.83 9.66868 8.25185 9.017 8.24735C8.33461 8.24284 7.73011 8.84803 7.75096 9.51634C7.77071 10.1677 8.35875 10.7605 8.98848 10.7639V10.7628Z" fill="#FFFDF8"/>
</g>
<defs>
<clipPath id="clip0_6315_37">
<rect width="18" height="19" fill="white"/>
</clipPath>
</defs>
</svg>
