<svg width="95" height="65" viewBox="0 0 95 65" fill="none" xmlns="http://www.w3.org/2000/svg">
<g id="Capa_1" clip-path="url(#clip0_6204_82)">
<path id="Vector" d="M72.8313 15.4725C60.8215 12.6416 48.7959 20.0793 45.965 32.0891C43.1341 44.0989 50.5718 56.1245 62.5816 58.9554C74.5914 61.7863 86.617 54.3486 89.4479 42.3388C92.2788 30.329 84.8411 18.3034 72.8313 15.4725ZM63.2501 56.1196C52.8236 53.6619 46.3431 43.184 48.8008 32.7576C51.2585 22.3311 61.7364 15.8506 72.1628 18.3083C82.5893 20.766 89.0697 31.2439 86.6121 41.6703C84.1544 52.0968 73.6765 58.5772 63.2501 56.1196Z" fill="black"/>
<path id="Vector_2" d="M32.1829 5.89047C20.1731 3.05955 8.14748 10.4973 5.31656 22.5071C2.48564 34.5169 9.92338 46.5424 21.9332 49.3734C33.943 52.2043 45.9685 44.7665 48.7995 32.7568C51.6304 20.747 44.1926 8.72139 32.1829 5.89047ZM22.6016 46.5375C12.1752 44.0798 5.69471 33.602 8.1524 23.1755C10.6101 12.7491 21.088 6.26861 31.5144 8.72631C41.9408 11.184 48.4213 21.6619 45.9636 32.0883C43.5059 42.5147 33.0281 48.9952 22.6016 46.5375Z" fill="black"/>
<path id="Vector 38" d="M11.99 41.9994L42.99 13.9994C38.8233 8.99944 27.09 1.49944 13.49 11.4994C-0.110048 21.4994 6.82329 35.9994 11.99 41.9994Z" fill="black"/>
<path id="Vector 39" d="M53.4196 51.4291L84.4196 23.4291C80.253 18.4291 68.5196 10.9291 54.9196 20.9291C41.3196 30.9291 48.253 45.4291 53.4196 51.4291Z" fill="black"/>
</g>
<defs>
<clipPath id="clip0_6204_82">
<rect width="86.4356" height="44.6746" fill="white" transform="translate(10.4414 0.765625) rotate(13.2635)"/>
</clipPath>
</defs>
</svg>
