<svg width="215" height="111" viewBox="0 0 215 111" fill="none" xmlns="http://www.w3.org/2000/svg">
<circle cx="161.788" cy="55.4212" r="50.7097" transform="rotate(-90 161.788 55.4212)" fill="#FFFDF8"/>
<circle cx="55.5378" cy="55.4212" r="50.7097" transform="rotate(-90 55.5378 55.4212)" fill="#FFFDF8"/>
<path d="M-0.00390383 55.5835C-0.00390517 86.1724 24.3323 110.959 54.3654 110.959C84.3986 110.959 108.735 86.1724 108.735 55.5835C108.735 24.9945 84.3986 0.207935 54.3654 0.207934C24.3323 0.207933 -0.00390249 24.9945 -0.00390383 55.5835ZM101.643 55.5835C101.643 82.1396 80.4391 103.736 54.3654 103.736C28.2918 103.736 7.08775 82.1396 7.08775 55.5835C7.08775 29.0273 28.2918 7.43083 54.3654 7.43083C80.4391 7.43083 101.643 29.0273 101.643 55.5835Z" fill="black"/>
<path d="M106.246 55.5835C106.246 86.1724 130.582 110.959 160.615 110.959C190.649 110.959 214.985 86.1724 214.985 55.5835C214.985 24.9945 190.649 0.207935 160.615 0.207934C130.582 0.207933 106.246 24.9945 106.246 55.5835ZM207.893 55.5835C207.893 82.1396 186.689 103.736 160.615 103.736C134.542 103.736 113.338 82.1396 113.338 55.5835C113.338 29.0273 134.542 7.43083 160.615 7.43083C186.689 7.43084 207.893 29.0273 207.893 55.5835Z" fill="black"/>
<path d="M131.871 12.8884L183.664 102.602L189.806 99.0559L138.013 9.34276L131.871 12.8884Z" fill="black"/>
<path d="M24.8324 12.8884L76.625 102.602L82.7666 99.0559L30.9741 9.34276L24.8324 12.8884Z" fill="black"/>
<path d="M134.742 10.3843C140.744 6.91936 147.369 4.67043 154.239 3.76591C161.11 2.86139 168.091 3.31897 174.785 5.11254C181.479 6.90612 187.754 10.0005 193.251 14.2192C198.749 18.4378 203.362 23.698 206.827 29.6994C210.292 35.7008 212.541 42.3259 213.445 49.1964C214.35 56.067 213.892 63.0484 212.099 69.7421C210.305 76.4358 207.211 82.7107 202.992 88.2085C198.774 93.7063 193.513 98.3194 187.512 101.784L134.742 10.3843Z" fill="black"/>
<path d="M27.6992 10.3843C33.7006 6.91936 40.3257 4.67043 47.1963 3.76591C54.0668 2.86139 61.0483 3.31897 67.742 5.11254C74.4357 6.90612 80.7106 10.0005 86.2084 14.2192C91.7062 18.4378 96.3192 23.698 99.7842 29.6994C103.249 35.7008 105.498 42.3259 106.403 49.1964C107.307 56.067 106.849 63.0484 105.056 69.7421C103.262 76.4358 100.168 82.7107 95.9493 88.2085C91.7307 93.7063 86.4705 98.3194 80.4691 101.784L27.6992 10.3843Z" fill="black"/>
</svg>
