<svg width="217" height="109" viewBox="0 0 217 109" fill="none" xmlns="http://www.w3.org/2000/svg">
<circle cx="55.5417" cy="55.5378" r="50.7097" fill="#FFFDF8"/>
<circle cx="161.792" cy="55.5378" r="50.7097" fill="#FFFDF8"/>
<path d="M161.626 0C131.037 0 106.25 24.3362 106.25 54.3693C106.25 84.4025 131.037 108.739 161.626 108.739C192.214 108.739 217.001 84.4025 217.001 54.3693C217.001 24.3362 192.214 0 161.626 0ZM161.626 101.647C135.069 101.647 113.473 80.443 113.473 54.3693C113.473 28.2957 135.069 7.09165 161.626 7.09165C188.182 7.09165 209.778 28.2957 209.778 54.3693C209.778 80.443 188.182 101.647 161.626 101.647Z" fill="black"/>
<path d="M55.3755 0C24.7866 0 0 24.3362 0 54.3694C0 84.4025 24.7866 108.739 55.3755 108.739C85.9645 108.739 110.751 84.4025 110.751 54.3694C110.751 24.3362 85.9645 0 55.3755 0ZM55.3755 101.647C28.8194 101.647 7.22289 80.443 7.22289 54.3694C7.22289 28.2957 28.8194 7.09165 55.3755 7.09165C81.9317 7.09165 103.528 28.2957 103.528 54.3694C103.528 80.443 81.9317 101.647 55.3755 101.647Z" fill="black"/>
<path d="M209.77 50.8242H113.465V57.9159H209.77V50.8242Z" fill="black"/>
<path d="M103.52 50.8242H7.21484V57.9159H103.52V50.8242Z" fill="black"/>
<path d="M215.301 54.8812C215.301 61.811 213.936 68.673 211.285 75.0753C208.633 81.4776 204.746 87.2949 199.845 92.1951C194.945 97.0952 189.128 100.982 182.726 103.634C176.323 106.286 169.461 107.651 162.532 107.651C155.602 107.651 148.74 106.286 142.337 103.634C135.935 100.982 130.118 97.0952 125.218 92.1951C120.318 87.2949 116.431 81.4776 113.779 75.0753C111.127 68.673 109.762 61.811 109.762 54.8812L162.532 54.8812H215.301Z" fill="black"/>
<path d="M107.649 54.8812C107.649 61.811 106.284 68.673 103.632 75.0753C100.98 81.4776 97.0933 87.2949 92.1931 92.1951C87.293 97.0952 81.4757 100.982 75.0734 103.634C68.671 106.286 61.809 107.651 54.8792 107.651C47.9494 107.651 41.0874 106.286 34.6851 103.634C28.2827 100.982 22.4654 97.0952 17.5653 92.1951C12.6652 87.2949 8.77817 81.4776 6.12624 75.0753C3.47431 68.673 2.10937 61.811 2.10938 54.8812L54.8792 54.8812H107.649Z" fill="black"/>
</svg>
