<svg width="217" height="109" viewBox="0 0 217 109" fill="none" xmlns="http://www.w3.org/2000/svg">
<circle cx="50.7097" cy="50.7097" r="50.7097" transform="matrix(-1 0 0 1 212.168 4.82812)" fill="#FFFDF8"/>
<circle cx="50.7097" cy="50.7097" r="50.7097" transform="matrix(-1 0 0 1 105.918 4.82812)" fill="#FFFDF8"/>
<path d="M55.3745 0C85.9634 0 110.75 24.3362 110.75 54.3693C110.75 84.4025 85.9634 108.739 55.3745 108.739C24.7855 108.739 -0.00105524 84.4025 -0.00105524 54.3693C-0.00105524 24.3362 24.7855 0 55.3745 0ZM55.3745 101.647C81.9306 101.647 103.527 80.443 103.527 54.3693C103.527 28.2957 81.9306 7.09165 55.3745 7.09165C28.8183 7.09165 7.22184 28.2957 7.22184 54.3693C7.22184 80.443 28.8183 101.647 55.3745 101.647Z" fill="black"/>
<path d="M161.624 0C192.213 0 217 24.3362 217 54.3693C217 84.4025 192.213 108.739 161.624 108.739C131.036 108.739 106.249 84.4025 106.249 54.3693C106.249 24.3362 131.036 0 161.624 0ZM161.624 101.647C188.181 101.647 209.777 80.443 209.777 54.3693C209.777 28.2957 188.181 7.09165 161.624 7.09165C135.068 7.09165 113.472 28.2957 113.472 54.3693C113.472 80.443 135.068 101.647 161.624 101.647Z" fill="black"/>
<path d="M7.22987 50.8242H103.535V57.9159H7.22987V50.8242Z" fill="black"/>
<path d="M113.48 50.8242H209.785V57.9159H113.48V50.8242Z" fill="black"/>
<path d="M211.152 52.7695C211.529 61.8731 209.431 70.9103 205.077 78.9429C200.722 86.9755 194.269 93.7106 186.389 98.449C178.508 103.187 169.486 105.756 160.26 105.889C151.034 106.021 141.941 103.712 133.923 99.2024L154.81 52.7695L211.152 52.7695Z" fill="black"/>
<path d="M105.613 50.6582C105.99 59.7617 103.892 68.799 99.5378 76.8316C95.1832 84.8642 88.7304 91.5993 80.8495 96.3376C72.9686 101.076 63.9468 103.645 54.721 103.777C45.4951 103.91 36.4015 101.601 28.3844 97.0911L49.2705 50.6582L105.613 50.6582Z" fill="black"/>
</svg>
