<svg width="216" height="111" viewBox="0 0 216 111" fill="none" xmlns="http://www.w3.org/2000/svg">
<circle cx="50.7097" cy="50.7097" r="50.7097" transform="matrix(-4.37114e-08 -1 -1 4.37114e-08 104.133 106.131)" fill="#FFFDF8"/>
<circle cx="50.7097" cy="50.7097" r="50.7097" transform="matrix(-4.37114e-08 -1 -1 4.37114e-08 210.383 106.131)" fill="#FFFDF8"/>
<path d="M215.215 55.5835C215.215 86.1724 190.879 110.959 160.845 110.959C130.812 110.959 106.476 86.1724 106.476 55.5835C106.476 24.9945 130.812 0.207935 160.845 0.207934C190.879 0.207933 215.215 24.9945 215.215 55.5835ZM113.568 55.5835C113.568 82.1396 134.772 103.736 160.845 103.736C186.919 103.736 208.123 82.1396 208.123 55.5835C208.123 29.0273 186.919 7.43083 160.845 7.43083C134.772 7.43083 113.568 29.0273 113.568 55.5835Z" fill="black"/>
<path d="M108.965 55.5835C108.965 86.1724 84.6286 110.959 54.5955 110.959C24.5623 110.959 0.226142 86.1724 0.22614 55.5835C0.226139 24.9945 24.5623 0.207935 54.5955 0.207934C84.6286 0.207933 108.965 24.9945 108.965 55.5835ZM7.31779 55.5835C7.31779 82.1396 28.5218 103.736 54.5955 103.736C80.6691 103.736 101.873 82.1396 101.873 55.5835C101.873 29.0273 80.6691 7.43083 54.5955 7.43083C28.5218 7.43084 7.31779 29.0273 7.31779 55.5835Z" fill="black"/>
<path d="M83.3395 12.8884L31.5469 102.602L25.4052 99.0559L77.1978 9.34276L83.3395 12.8884Z" fill="black"/>
<path d="M190.379 12.8884L138.586 102.602L132.444 99.0559L184.237 9.34276L190.379 12.8884Z" fill="black"/>
<path d="M80.4712 10.3843C74.4698 6.91936 67.8446 4.67043 60.9741 3.76591C54.1035 2.86139 47.1221 3.31897 40.4284 5.11254C33.7347 6.90612 27.4598 10.0005 21.962 14.2192C16.4642 18.4378 11.8511 23.698 8.38622 29.6994C4.92131 35.7008 2.67238 42.3259 1.76786 49.1964C0.863338 56.067 1.32092 63.0484 3.1145 69.7421C4.90807 76.4358 8.0025 82.7107 12.2211 88.2085C16.4397 93.7063 21.6999 98.3194 27.7013 101.784L80.4712 10.3843Z" fill="black"/>
<path d="M187.51 10.3843C181.509 6.91936 174.884 4.67043 168.013 3.76591C161.143 2.86139 154.161 3.31897 147.467 5.11254C140.774 6.90612 134.499 10.0005 129.001 14.2192C123.503 18.4378 118.89 23.698 115.425 29.6994C111.96 35.7008 109.711 42.3259 108.807 49.1964C107.902 56.067 108.36 63.0484 110.154 69.7421C111.947 76.4358 115.042 82.7107 119.26 88.2085C123.479 93.7063 128.739 98.3194 134.74 101.784L187.51 10.3843Z" fill="black"/>
</svg>
