<svg width="217" height="109" viewBox="0 0 217 109" fill="none" xmlns="http://www.w3.org/2000/svg">
<circle cx="55.5417" cy="55.5378" r="50.7097" fill="#FFFDF8"/>
<circle cx="161.792" cy="55.5378" r="50.7097" fill="#FFFDF8"/>
<path d="M161.626 0C131.037 0 106.25 24.3362 106.25 54.3693C106.25 84.4025 131.037 108.739 161.626 108.739C192.214 108.739 217.001 84.4025 217.001 54.3693C217.001 24.3362 192.214 0 161.626 0ZM161.626 101.647C135.069 101.647 113.473 80.443 113.473 54.3693C113.473 28.2957 135.069 7.09165 161.626 7.09165C188.182 7.09165 209.778 28.2957 209.778 54.3693C209.778 80.443 188.182 101.647 161.626 101.647Z" fill="black"/>
<path d="M55.3755 0C24.7866 0 0 24.3362 0 54.3693C0 84.4025 24.7866 108.739 55.3755 108.739C85.9645 108.739 110.751 84.4025 110.751 54.3693C110.751 24.3362 85.9645 0 55.3755 0ZM55.3755 101.647C28.8194 101.647 7.22289 80.443 7.22289 54.3693C7.22289 28.2957 28.8194 7.09165 55.3755 7.09165C81.9317 7.09165 103.528 28.2957 103.528 54.3693C103.528 80.443 81.9317 101.647 55.3755 101.647Z" fill="black"/>
<path d="M209.77 50.8242H113.465V57.9159H209.77V50.8242Z" fill="black"/>
<path d="M103.52 50.8242H7.21484V57.9159H103.52V50.8242Z" fill="black"/>
<path d="M5.84786 52.7695C5.47084 61.8731 7.56854 70.9103 11.9231 78.9429C16.2778 86.9755 22.7305 93.7106 30.6114 98.449C38.4924 103.187 47.5141 105.756 56.74 105.889C65.9658 106.021 75.0594 103.712 83.0766 99.2024L62.1904 52.7695L5.84786 52.7695Z" fill="black"/>
<path d="M111.387 50.6582C111.01 59.7617 113.108 68.799 117.462 76.8316C121.817 84.8642 128.27 91.5993 136.151 96.3376C144.031 101.076 153.053 103.645 162.279 103.777C171.505 103.91 180.598 101.601 188.616 97.0911L167.729 50.6582L111.387 50.6582Z" fill="black"/>
</svg>
