<svg width="116" height="55" viewBox="0 0 116 55" fill="none" xmlns="http://www.w3.org/2000/svg">
<path d="M9.17136 54.999C14.2291 54.999 18.3349 50.8932 18.3349 45.8354V36.6719H9.17136C4.11362 36.6719 0.0078125 40.7777 0.0078125 45.8354C0.0078125 50.8932 4.11362 54.999 9.17136 54.999Z" fill="black"/>
<path d="M0 27.4995C0 22.4417 4.10581 18.3359 9.16355 18.3359H18.3271V36.6727H9.16355C4.10581 36.6727 0 32.5668 0 27.5091V27.4995Z" fill="#252327"/>
<path d="M0 9.16355C0 4.10581 4.10581 0 9.16355 0H18.3271V18.3367H9.16355C4.10581 18.3367 0 14.2309 0 9.17317V9.16355Z" fill="#C4C4C4"/>
<path d="M18.25 0H27.4136C32.4713 0 36.5771 4.10581 36.5771 9.16355C36.5771 14.2213 32.4713 18.3271 27.4136 18.3271H18.25V0Z" fill="black"/>
<path d="M36.6733 27.4995C36.6733 32.5572 32.5675 36.663 27.5097 36.663C22.452 36.663 18.25 32.5572 18.25 27.4995C18.25 22.4417 22.3558 18.3359 27.4136 18.3359C32.4713 18.3359 36.5771 22.4417 36.5771 27.4995H36.6733Z" fill="#737474"/>
<path d="M46.6914 15.1914V34.4031H49.1626V25.23H55.105V22.8453H49.1626V17.5953H56.8838V15.1914H46.6914ZM61.355 19.0953C62.2493 19.0953 62.9704 18.3741 62.9704 17.4799C62.9704 16.5857 62.2396 15.9606 61.355 15.9606C60.4704 15.9606 59.7396 16.6818 59.7396 17.576C59.7396 18.0087 59.9127 18.4126 60.2204 18.7299C60.5281 19.0472 60.9319 19.2107 61.3742 19.2107L61.355 19.0953ZM60.105 21.5184V34.4031H62.48V21.5184H60.0281H60.105ZM71.759 21.1338C68.4705 21.1338 66.182 24.0184 66.182 27.2108C66.182 30.4031 68.4897 33.2685 71.759 33.2685C72.4392 33.2804 73.1145 33.1506 73.7419 32.8874C74.3693 32.6242 74.9351 32.2333 75.4032 31.7396V33.4512C75.3963 34.4795 74.9974 35.4665 74.2878 36.2108C73.9294 36.5766 73.5014 36.867 73.0292 37.0652C72.557 37.2633 72.0499 37.3651 71.5378 37.3647C70.7515 37.3399 69.9895 37.0859 69.3455 36.6339L68.0955 38.7782C69.0554 39.3955 70.1641 39.7426 71.3047 39.7828C72.4453 39.823 73.5757 39.5548 74.5767 39.0066C75.5777 38.4583 76.4124 37.6503 76.9927 36.6675C77.5731 35.6848 77.8777 34.5637 77.8744 33.4224V21.4992H75.4032V22.653C74.9351 22.1593 74.3693 21.7684 73.7419 21.5052C73.1145 21.242 72.4392 21.1219 71.759 21.1338ZM68.6628 27.2108C68.6065 26.5856 68.7261 25.9572 69.0082 25.3965C69.2902 24.8358 69.7235 24.3651 70.2589 24.0376C71.3551 23.3646 72.7301 23.3646 73.8167 24.0376C74.9032 24.7107 75.5186 25.9415 75.4128 27.2108C75.4692 27.8359 75.3495 28.4643 75.0675 29.025C74.7854 29.5858 74.3522 30.0564 73.8167 30.3839C72.7205 31.057 71.3455 31.057 70.2589 30.3839C69.1724 29.7108 68.557 28.48 68.6628 27.2108Z" fill="black"/>
<path d="M86.7867 23.6533C86.076 23.6559 85.3951 23.9393 84.8925 24.4419C84.39 24.9444 84.1065 25.6253 84.104 26.336V34.49H81.6328V21.6052H84.104V22.6918C84.854 21.6918 86.0463 21.1148 87.2963 21.1341C88.8733 21.0956 90.3444 21.9418 91.1233 23.3168C92.0848 21.9706 93.4695 21.1533 94.9695 21.1341C97.7868 21.1341 99.5368 23.4033 99.5464 26.211V34.413H97.0753V26.2399C97.1477 25.7308 97.0728 25.2115 96.8594 24.7436C96.6461 24.2757 96.3032 23.8787 95.8713 23.5996C95.4394 23.3204 94.9366 23.1708 94.4224 23.1684C93.9081 23.166 93.4039 23.3109 92.9695 23.586C92.5374 23.8677 92.1953 24.2676 91.984 24.738C91.7726 25.2085 91.7008 25.7298 91.7771 26.2399V34.3938H89.4021V26.2495C89.3996 25.5388 89.1161 24.8579 88.6136 24.3553C88.111 23.8528 87.4301 23.5693 86.7194 23.5668L86.7867 23.6533ZM112.748 22.9802C112.186 22.3933 111.509 21.9276 110.76 21.6118C110.011 21.296 109.206 21.1367 108.393 21.1437C104.71 21.1437 102.143 24.2591 102.143 27.8745C102.143 31.4899 104.739 34.6054 108.393 34.6054C109.206 34.6124 110.011 34.4531 110.76 34.1373C111.509 33.8214 112.186 33.3557 112.748 32.7688V34.2304H115.22V21.3456H112.748V22.9802ZM104.575 27.9803C104.45 26.4418 105.2 24.961 106.518 24.1533C107.835 23.3456 109.402 23.3456 110.806 24.1533C111.449 24.5524 111.97 25.1203 112.313 25.7951C112.655 26.4699 112.806 27.2257 112.748 27.9803C112.873 29.5188 112.123 30.9996 110.806 31.8073C109.489 32.615 107.922 32.615 106.518 31.8073C105.875 31.4082 105.354 30.8403 105.011 30.1655C104.669 29.4907 104.518 28.7349 104.575 27.9803Z" fill="black"/>
</svg>
