<svg width="84" height="85" viewBox="0 0 84 85" fill="none" xmlns="http://www.w3.org/2000/svg">
<path d="M35.0427 25.7227H49.0583C54.3976 25.7227 58.7357 30.0608 58.7357 35.4001V49.4157C58.7357 51.9823 57.7162 54.4438 55.9013 56.2587C54.0864 58.0736 51.6249 59.0932 49.0583 59.0932H35.0427C29.7034 59.0932 25.3652 54.755 25.3652 49.4157V35.4001C25.3652 32.8335 26.3848 30.372 28.1997 28.5571C30.0146 26.7422 32.4761 25.7227 35.0427 25.7227ZM34.709 29.0597C33.1159 29.0597 31.5881 29.6926 30.4616 30.819C29.3351 31.9455 28.7023 33.4733 28.7023 35.0664V49.7494C28.7023 53.0698 31.3886 55.7561 34.709 55.7561H49.392C50.9851 55.7561 52.5129 55.1233 53.6394 53.9968C54.7658 52.8703 55.3987 51.3425 55.3987 49.7494V35.0664C55.3987 31.746 52.7124 29.0597 49.392 29.0597H34.709ZM50.8102 31.5625C51.3634 31.5625 51.8939 31.7822 52.285 32.1734C52.6762 32.5645 52.8959 33.095 52.8959 33.6482C52.8959 34.2013 52.6762 34.7318 52.285 35.1229C51.8939 35.5141 51.3634 35.7338 50.8102 35.7338C50.2571 35.7338 49.7266 35.5141 49.3355 35.1229C48.9443 34.7318 48.7246 34.2013 48.7246 33.6482C48.7246 33.095 48.9443 32.5645 49.3355 32.1734C49.7266 31.7822 50.2571 31.5625 50.8102 31.5625ZM42.0505 34.0653C44.2631 34.0653 46.3851 34.9442 47.9496 36.5088C49.5142 38.0733 50.3931 40.1953 50.3931 42.4079C50.3931 44.6205 49.5142 46.7425 47.9496 48.307C46.3851 49.8716 44.2631 50.7505 42.0505 50.7505C39.8379 50.7505 37.7159 49.8716 36.1514 48.307C34.5868 46.7425 33.7079 44.6205 33.7079 42.4079C33.7079 40.1953 34.5868 38.0733 36.1514 36.5088C37.7159 34.9442 39.8379 34.0653 42.0505 34.0653ZM42.0505 37.4023C40.7229 37.4023 39.4497 37.9297 38.511 38.8684C37.5723 39.8072 37.0449 41.0803 37.0449 42.4079C37.0449 43.7355 37.5723 45.0087 38.511 45.9474C39.4497 46.8861 40.7229 47.4135 42.0505 47.4135C43.378 47.4135 44.6512 46.8861 45.59 45.9474C46.5287 45.0087 47.0561 43.7355 47.0561 42.4079C47.0561 41.0803 46.5287 39.8072 45.59 38.8684C44.6512 37.9297 43.378 37.4023 42.0505 37.4023Z" fill="black"/>
<circle cx="42.0452" cy="42.4065" r="40.6584" stroke="black" stroke-width="2.10949"/>
</svg>
