<svg width="44" height="44" viewBox="0 0 44 44" fill="none" xmlns="http://www.w3.org/2000/svg">
<path d="M18.2547 13.0039H25.5369C28.3111 13.0039 30.5651 15.2579 30.5651 18.0321V25.3143C30.5651 26.6478 30.0354 27.9268 29.0924 28.8697C28.1494 29.8127 26.8705 30.3425 25.5369 30.3425H18.2547C15.4806 30.3425 13.2266 28.0884 13.2266 25.3143V18.0321C13.2266 16.6985 13.7563 15.4196 14.6993 14.4766C15.6422 13.5337 16.9212 13.0039 18.2547 13.0039ZM18.0814 14.7378C17.2536 14.7378 16.4598 15.0666 15.8745 15.6519C15.2892 16.2372 14.9604 17.031 14.9604 17.8587V25.4877C14.9604 27.2128 16.3562 28.6086 18.0814 28.6086H25.7103C26.538 28.6086 27.3319 28.2798 27.9172 27.6945C28.5024 27.1092 28.8313 26.3154 28.8313 25.4877V17.8587C28.8313 16.1335 27.4355 14.7378 25.7103 14.7378H18.0814ZM26.4472 16.0382C26.7346 16.0382 27.0102 16.1523 27.2135 16.3555C27.4167 16.5588 27.5309 16.8344 27.5309 17.1218C27.5309 17.4092 27.4167 17.6848 27.2135 17.8881C27.0102 18.0913 26.7346 18.2055 26.4472 18.2055C26.1598 18.2055 25.8842 18.0913 25.6809 17.8881C25.4777 17.6848 25.3635 17.4092 25.3635 17.1218C25.3635 16.8344 25.4777 16.5588 25.6809 16.3555C25.8842 16.1523 26.1598 16.0382 26.4472 16.0382ZM21.8958 17.3385C23.0455 17.3385 24.148 17.7952 24.9609 18.6081C25.7738 19.421 26.2305 20.5236 26.2305 21.6732C26.2305 22.8228 25.7738 23.9253 24.9609 24.7382C24.148 25.5511 23.0455 26.0078 21.8958 26.0078C20.7462 26.0078 19.6437 25.5511 18.8308 24.7382C18.0179 23.9253 17.5612 22.8228 17.5612 21.6732C17.5612 20.5236 18.0179 19.421 18.8308 18.6081C19.6437 17.7952 20.7462 17.3385 21.8958 17.3385ZM21.8958 19.0724C21.2061 19.0724 20.5445 19.3464 20.0568 19.8341C19.5691 20.3219 19.2951 20.9834 19.2951 21.6732C19.2951 22.3629 19.5691 23.0245 20.0568 23.5122C20.5445 24 21.2061 24.274 21.8958 24.274C22.5856 24.274 23.2471 24 23.7349 23.5122C24.2226 23.0245 24.4966 22.3629 24.4966 21.6732C24.4966 20.9834 24.2226 20.3219 23.7349 19.8341C23.2471 19.3464 22.5856 19.0724 21.8958 19.0724Z" fill="#FFFDF8"/>
<circle cx="21.8958" cy="21.6732" r="21.2397" stroke="#FFFDF8" stroke-width="0.866927"/>
</svg>
