<svg width="270" height="270" viewBox="0 0 270 270" fill="none" xmlns="http://www.w3.org/2000/svg">
<g clip-path="url(#clip0_5173_1303)">
<path d="M108.078 2.57422L112.417 19.8848L110.41 20.3882L108.217 11.6312L109.372 12.4024L99.8328 14.7933L100.488 13.5704L102.681 22.3273L100.675 22.8307L96.3359 5.52008L98.3424 5.01674L100.559 13.8672L99.3908 13.038L108.93 10.6471L108.291 11.9313L106.075 3.08079L108.081 2.57745L108.078 2.57422Z" fill="#FFFDF8"/>
<path d="M114.324 19.5055L117.034 1.14628L120.228 0.755859L127.234 17.9277L125.121 18.1858L118.782 2.28526H118.805L116.437 19.2474L114.324 19.5055ZM116.273 14.5043L116.053 12.7039L123.953 11.7391L124.173 13.5396L116.273 14.5043Z" fill="#FFFDF8"/>
<path d="M134.846 -0.000172987C135.95 -0.0195325 136.892 0.11921 137.666 0.406376C138.44 0.693541 139.037 1.15172 139.453 1.77444C139.869 2.39717 140.085 3.19091 140.101 4.15889C140.118 5.07846 139.94 5.84961 139.576 6.47234C139.211 7.09507 138.737 7.5726 138.159 7.89849C137.579 8.2276 136.976 8.41151 136.347 8.45346C137.03 8.45991 137.701 8.60188 138.35 8.88582C138.998 9.16976 139.537 9.62793 139.963 10.2636C140.389 10.8992 140.611 11.7478 140.627 12.8126C140.643 13.8515 140.45 14.7453 140.047 15.4906C139.643 16.236 139.024 16.8071 138.192 17.2104C137.359 17.6105 136.305 17.8234 135.034 17.8428L129.204 17.9364L128.914 0.0901712L134.846 -0.000172987ZM131.05 8.41151L130.337 7.72103L134.001 7.66295C135.292 7.64359 136.292 7.3661 137.001 6.83372C137.711 6.30133 138.056 5.52695 138.04 4.51058C138.03 3.833 137.872 3.29739 137.566 2.90375C137.259 2.5101 136.834 2.22939 136.288 2.05838C135.74 1.8906 135.105 1.80994 134.379 1.82284L130.011 1.89383L130.924 0.706447L131.05 8.41151ZM134.608 16.0391C135.834 16.0198 136.798 15.7326 137.498 15.1809C138.198 14.6291 138.54 13.816 138.524 12.7448C138.514 12.093 138.388 11.551 138.147 11.1218C137.905 10.6927 137.582 10.3571 137.176 10.1151C136.769 9.87315 136.305 9.69892 135.782 9.59889C135.259 9.49887 134.714 9.4537 134.14 9.46338L130.366 9.52468L131.056 8.81161L131.195 17.2685L130.243 16.1101L134.611 16.0391H134.608Z" fill="#FFFDF8"/>
<path d="M143.433 18.0665L145.32 0.320312L147.378 0.53972L145.559 17.6503L144.756 16.3854L152.682 17.2308L152.488 19.0345L143.43 18.0697L143.433 18.0665Z" fill="#FFFDF8"/>
<path d="M154.031 19.1889L162.673 2.76562L165.815 3.45611L166.731 21.9799L164.65 21.5217L163.94 4.41763L163.963 4.42409L156.108 19.6439L154.027 19.1857L154.031 19.1889ZM157.527 15.1137L157.918 13.3423L165.692 15.0524L165.302 16.8238L157.527 15.1137Z" fill="#FFFDF8"/>
<path d="M188.807 23.7195C188.529 24.3809 188.123 25.0101 187.587 25.6038C187.052 26.1975 186.413 26.6879 185.671 27.0719C184.929 27.4559 184.107 27.6753 183.203 27.7269C182.3 27.7785 181.342 27.5914 180.329 27.1687C178.939 26.5879 177.906 25.7329 177.232 24.5971C176.558 23.4614 176.235 22.1546 176.255 20.6704C176.274 19.1861 176.629 17.6212 177.31 15.9854C177.997 14.3398 178.858 12.9879 179.897 11.9328C180.935 10.8777 182.094 10.1904 183.371 9.87423C184.648 9.55803 185.981 9.69032 187.374 10.2711C188.536 10.7551 189.426 11.4069 190.045 12.2232C190.665 13.0427 191.065 13.9204 191.239 14.8593C191.416 15.7982 191.416 16.6888 191.239 17.5341C191.155 17.9633 191.042 18.3537 190.897 18.7021L188.987 17.9052C189.071 17.7051 189.149 17.4664 189.22 17.1889C189.391 16.5274 189.42 15.8595 189.3 15.1852C189.184 14.5108 188.91 13.8945 188.481 13.3364C188.049 12.7749 187.439 12.3329 186.652 12.0038C185.729 11.6198 184.816 11.5359 183.919 11.7553C183.019 11.9747 182.171 12.5039 181.371 13.3396C180.571 14.1785 179.864 15.3304 179.255 16.7952C178.642 18.2633 178.319 19.5765 178.287 20.7381C178.252 21.8997 178.474 22.8773 178.948 23.6743C179.423 24.4713 180.123 25.0617 181.045 25.4489C181.706 25.7264 182.342 25.849 182.948 25.8168C183.555 25.7845 184.116 25.6393 184.632 25.3779C185.148 25.1166 185.6 24.7713 185.987 24.3454C186.374 23.9163 186.678 23.442 186.897 22.9225L188.807 23.7195Z" fill="#FFFDF8"/>
<path d="M194.16 34.0948C193.263 33.5689 192.544 32.9074 192.005 32.1137C191.466 31.3199 191.118 30.4229 190.963 29.4195C190.808 28.416 190.866 27.3351 191.141 26.1768C191.415 25.0184 191.918 23.8117 192.654 22.5598C193.389 21.3079 194.192 20.2818 195.07 19.4816C195.947 18.6814 196.857 18.1071 197.805 17.7619C198.754 17.4166 199.702 17.2875 200.657 17.3811C201.612 17.4747 202.534 17.7812 203.425 18.3039C204.322 18.8299 205.044 19.4881 205.593 20.2786C206.141 21.0659 206.493 21.9596 206.651 22.9566C206.809 23.9537 206.754 25.0281 206.483 26.1832C206.212 27.3383 205.709 28.5418 204.973 29.7938C204.238 31.0457 203.431 32.075 202.554 32.8784C201.676 33.6818 200.76 34.2593 199.809 34.6143C198.857 34.9692 197.902 35.1015 196.944 35.0144C195.986 34.9272 195.057 34.6207 194.16 34.0948ZM195.105 32.488C195.96 32.9913 196.854 33.201 197.779 33.1171C198.705 33.0365 199.628 32.6332 200.547 31.9136C201.463 31.1941 202.334 30.1326 203.16 28.7258C203.989 27.3125 204.489 26.0348 204.66 24.8926C204.831 23.7504 204.722 22.7598 204.334 21.9241C203.947 21.0885 203.328 20.4206 202.48 19.9237C201.638 19.43 200.757 19.217 199.834 19.2816C198.912 19.3493 197.992 19.7333 197.079 20.4399C196.163 21.1465 195.292 22.2049 194.463 23.6181C193.634 25.0313 193.131 26.3123 192.954 27.4674C192.776 28.6225 192.879 29.6228 193.266 30.4713C193.654 31.3199 194.267 31.9911 195.108 32.4847L195.105 32.488Z" fill="#FFFDF8"/>
<path d="M203.96 40.1327L202.383 38.8905L213.412 24.8613L216.064 26.9489L211.722 44.7274L211.538 44.7048L221.893 31.5307L223.47 32.7729L212.441 46.8021L209.751 44.6854L214.096 26.9392L214.29 26.9844L203.957 40.1295L203.96 40.1327Z" fill="#FFFDF8"/>
<path d="M231.819 57.6205C230.086 59.1531 228.441 59.8856 226.89 59.8178C225.338 59.7501 223.922 58.9918 222.644 57.5495C221.373 56.1105 220.796 54.6166 220.918 53.0678C221.038 51.5191 221.967 49.9768 223.699 48.4409C223.964 48.2054 224.248 47.9569 224.548 47.6923C224.848 47.4278 225.16 47.1471 225.493 46.8534L232.135 40.9746L233.506 42.5234L226.728 48.5216C226.415 48.7991 226.122 49.0572 225.851 49.2992C225.58 49.5412 225.328 49.7606 225.099 49.9639C223.757 51.1512 223.028 52.2547 222.906 53.2808C222.783 54.3036 223.164 55.3135 224.044 56.3105C224.931 57.314 225.893 57.8173 226.925 57.8238C227.957 57.8303 229.148 57.2398 230.486 56.0524L238.893 48.6119L240.254 50.151L231.819 57.6173V57.6205Z" fill="#FFFDF8"/>
<path d="M229.794 65.9123L228.672 64.2474L243.463 54.2676L245.35 57.065L235.775 72.6623L235.608 72.5849L249.498 63.2117L250.621 64.8766L235.83 74.8564L233.914 72.017L243.482 56.452L243.653 56.5552L229.794 65.9058V65.9123Z" fill="#FFFDF8"/>
<path d="M241.396 85.6202L239.957 82.2484L256.37 75.25L258.657 80.6158L245.835 92.5832L245.444 92.0669L260.758 85.5363L262.19 88.8984L245.777 95.8969L243.476 90.4988L256.254 78.5508L256.664 79.1122L241.396 85.6234V85.6202Z" fill="#FFFDF8"/>
<path d="M261.41 96.2188L263.59 97.3707L256.471 99.355L257.268 98.2548L259.035 104.595L256.239 105.376L254.471 99.0356L255.722 99.5648L248.545 101.565L249.816 99.4518L252.171 107.902L249.374 108.683L246.461 98.229L263.648 93.4375L266.561 103.892L263.765 104.672L261.41 96.222V96.2188Z" fill="#FFFDF8"/>
<path d="M249.933 111.076L267.575 108.395L268.662 115.548C268.943 117.397 268.733 118.842 268.03 119.884C267.327 120.927 266.188 121.565 264.607 121.804C263.698 121.943 262.898 121.888 262.201 121.636C261.507 121.388 260.946 121.036 260.517 120.581C260.088 120.13 259.82 119.668 259.707 119.204C259.749 119.694 259.698 120.175 259.553 120.639C259.407 121.107 259.13 121.514 258.717 121.862C258.304 122.211 257.717 122.443 256.949 122.559C256.381 122.646 255.827 122.73 255.275 122.814C254.723 122.898 254.162 122.982 253.588 123.069C253.197 123.127 252.839 123.214 252.52 123.324C252.197 123.434 251.975 123.559 251.849 123.701L251.285 119.981C251.43 119.852 251.656 119.733 251.968 119.62C252.281 119.507 252.633 119.42 253.023 119.362C253.533 119.284 254.023 119.21 254.488 119.139C254.956 119.068 255.443 118.994 255.952 118.916C256.646 118.81 257.156 118.549 257.478 118.132C257.801 117.716 257.904 117.113 257.785 116.322L257.23 112.663L258.565 113.476L250.481 114.706L249.93 111.069L249.933 111.076ZM258.907 113.431L260.107 112.234L260.672 115.941C260.746 116.419 260.917 116.829 261.188 117.171C261.459 117.513 261.814 117.765 262.243 117.923C262.675 118.081 263.159 118.119 263.691 118.039C264.44 117.926 264.988 117.61 265.333 117.097C265.678 116.584 265.791 115.919 265.669 115.106L265.104 111.386L266.475 112.279L258.904 113.428L258.907 113.431Z" fill="#FFFDF8"/>
<path d="M252.038 125.829L269.878 125.455L270 131.224C270.026 132.418 269.832 133.509 269.423 134.499C269.013 135.487 268.419 136.345 267.648 137.064C266.877 137.787 265.952 138.348 264.871 138.752C263.79 139.155 262.593 139.368 261.277 139.397C259.964 139.426 258.755 139.262 257.648 138.903C256.545 138.549 255.587 138.026 254.777 137.335C253.967 136.645 253.335 135.816 252.88 134.844C252.425 133.873 252.184 132.792 252.158 131.598L252.035 125.829H252.038ZM253.229 129.579L254.984 127.846L255.051 131.053C255.071 131.924 255.329 132.708 255.832 133.402C256.335 134.099 257.045 134.641 257.958 135.035C258.874 135.428 259.951 135.609 261.193 135.583C262.442 135.557 263.51 135.328 264.39 134.899C265.271 134.47 265.945 133.896 266.41 133.18C266.874 132.463 267.097 131.669 267.081 130.798L267.013 127.591L268.839 129.246L253.226 129.575L253.229 129.579Z" fill="#FFFDF8"/>
<path d="M264.025 175.407L246.773 170.845L247.302 168.844L256.028 171.151L254.796 171.79L257.309 162.281L258.064 163.446L249.338 161.139L249.867 159.139L267.119 163.701L266.59 165.702L257.77 163.369L259.061 162.746L256.548 172.255L255.735 171.077L264.555 173.41L264.025 175.41V175.407Z" fill="#FFFDF8"/>
<path d="M246.19 172.699L260.948 183.944L259.745 186.928L241.328 184.763L242.125 182.789L259.106 184.925L259.096 184.947L245.393 174.674L246.19 172.699ZM249.625 176.823L251.309 177.5L248.335 184.886L246.651 184.208L249.625 176.823Z" fill="#FFFDF8"/>
<path d="M253.196 200.329C252.664 201.297 252.077 202.046 251.442 202.575C250.806 203.104 250.113 203.395 249.364 203.446C248.616 203.498 247.819 203.291 246.97 202.823C246.164 202.378 245.583 201.843 245.225 201.217C244.867 200.591 244.69 199.945 244.693 199.277C244.696 198.613 244.835 197.996 245.112 197.429C244.767 198.022 244.309 198.529 243.741 198.952C243.17 199.374 242.506 199.613 241.745 199.668C240.983 199.723 240.135 199.49 239.203 198.977C238.293 198.474 237.612 197.864 237.167 197.145C236.722 196.425 236.532 195.602 236.599 194.683C236.664 193.76 237.006 192.744 237.622 191.627L240.438 186.52L256.064 195.138L253.203 200.329H253.196ZM239.399 192.15C238.809 193.224 238.577 194.202 238.706 195.083C238.835 195.964 239.37 196.667 240.309 197.183C240.88 197.5 241.412 197.658 241.903 197.661C242.393 197.664 242.845 197.551 243.261 197.319C243.674 197.087 244.054 196.767 244.399 196.367C244.745 195.967 245.058 195.512 245.335 195.009L247.158 191.701L247.432 192.653L240.028 188.568L241.506 188.32L239.396 192.143L239.399 192.15ZM247.783 192.853L248.735 192.579L246.964 195.789C246.341 196.919 246.083 197.925 246.193 198.803C246.303 199.684 246.803 200.368 247.69 200.858C248.283 201.184 248.825 201.313 249.319 201.246C249.812 201.178 250.267 200.949 250.687 200.555C251.106 200.165 251.49 199.652 251.838 199.016L253.948 195.193L254.526 196.577L247.777 192.853H247.783Z" fill="#FFFDF8"/>
<path d="M233.359 198.861L247.95 209.134L246.76 210.825L232.695 200.919L234.192 200.832L229.601 207.353L228.117 206.308L233.359 198.857V198.861Z" fill="#FFFDF8"/>
<path d="M227.224 207.578L237.385 223.104L235.256 225.518L218.617 217.329L220.027 215.732L235.324 223.411L235.308 223.43L225.814 209.175L227.224 207.578ZM229.088 212.615L230.45 213.815L225.182 219.784L223.821 218.584L229.088 212.615Z" fill="#FFFDF8"/>
<path d="M206.422 235.824C205.977 235.262 205.622 234.601 205.361 233.846C205.099 233.091 204.98 232.294 205.003 231.458C205.025 230.622 205.232 229.796 205.622 228.98C206.016 228.164 206.638 227.415 207.5 226.731C208.68 225.792 209.929 225.302 211.245 225.263C212.561 225.221 213.864 225.57 215.155 226.305C216.445 227.041 217.642 228.106 218.745 229.493C219.855 230.89 220.619 232.297 221.042 233.717C221.464 235.136 221.506 236.482 221.164 237.753C220.822 239.024 220.064 240.128 218.88 241.067C217.897 241.851 216.897 242.316 215.88 242.464C214.864 242.612 213.903 242.535 212.996 242.238C212.09 241.938 211.309 241.509 210.658 240.944C210.322 240.664 210.038 240.376 209.8 240.08L211.419 238.792C211.554 238.963 211.725 239.147 211.932 239.341C212.429 239.812 213 240.157 213.648 240.38C214.293 240.602 214.967 240.66 215.664 240.554C216.361 240.447 217.045 240.128 217.716 239.596C218.5 238.973 219.013 238.215 219.255 237.321C219.497 236.427 219.445 235.427 219.1 234.323C218.751 233.22 218.084 232.045 217.097 230.8C216.109 229.554 215.113 228.638 214.116 228.048C213.116 227.457 212.151 227.176 211.225 227.209C210.296 227.241 209.442 227.567 208.661 228.19C208.1 228.635 207.683 229.132 207.419 229.68C207.151 230.226 207.009 230.79 206.99 231.368C206.97 231.945 207.054 232.507 207.241 233.055C207.429 233.601 207.696 234.098 208.048 234.54L206.429 235.827L206.422 235.824Z" fill="#FFFDF8"/>
<path d="M194.754 235.507C195.647 234.975 196.573 234.665 197.528 234.575C198.483 234.484 199.438 234.613 200.389 234.962C201.341 235.31 202.26 235.885 203.144 236.682C204.028 237.479 204.838 238.505 205.58 239.75C206.322 240.999 206.831 242.199 207.109 243.351C207.386 244.503 207.447 245.581 207.296 246.578C207.141 247.575 206.796 248.468 206.251 249.262C205.709 250.053 204.993 250.714 204.105 251.24C203.212 251.772 202.286 252.089 201.331 252.185C200.376 252.285 199.425 252.163 198.476 251.821C197.528 251.479 196.612 250.911 195.731 250.117C194.85 249.323 194.041 248.301 193.299 247.052C192.557 245.803 192.047 244.603 191.766 243.445C191.486 242.286 191.421 241.209 191.57 240.205C191.718 239.202 192.063 238.301 192.602 237.501C193.141 236.701 193.857 236.036 194.75 235.504L194.754 235.507ZM195.705 237.108C194.854 237.614 194.237 238.295 193.863 239.147C193.489 239.999 193.392 240.999 193.579 242.151C193.766 243.303 194.276 244.577 195.108 245.977C195.944 247.384 196.825 248.439 197.741 249.14C198.66 249.84 199.579 250.224 200.499 250.285C201.418 250.35 202.302 250.127 203.147 249.627C203.986 249.127 204.599 248.459 204.986 247.617C205.373 246.778 205.48 245.784 205.302 244.642C205.125 243.499 204.618 242.225 203.78 240.815C202.944 239.408 202.063 238.347 201.138 237.637C200.212 236.924 199.286 236.533 198.357 236.462C197.428 236.391 196.544 236.604 195.705 237.104V237.108Z" fill="#FFFDF8"/>
<path d="M184.736 241.181L186.584 240.396L193.536 256.833L190.426 258.149L176.961 245.756L177.068 245.604L183.597 261.037L181.749 261.821L174.797 245.385L177.949 244.049L191.381 256.429L191.246 256.578L184.733 241.177L184.736 241.181Z" fill="#FFFDF8"/>
<path d="M155.945 257.088C155.445 254.826 155.603 253.035 156.416 251.712C157.229 250.389 158.578 249.518 160.462 249.102C162.336 248.686 163.92 248.908 165.216 249.767C166.513 250.625 167.41 252.183 167.91 254.442C167.987 254.787 168.068 255.158 168.155 255.545C168.242 255.936 168.333 256.346 168.429 256.781L170.346 265.441L168.326 265.887L166.371 257.049C166.281 256.639 166.197 256.258 166.116 255.904C166.039 255.549 165.965 255.223 165.9 254.923C165.513 253.174 164.904 251.999 164.068 251.393C163.233 250.789 162.165 250.631 160.865 250.918C159.558 251.209 158.652 251.803 158.142 252.703C157.636 253.603 157.574 254.929 157.961 256.678L160.387 267.642L158.381 268.087L155.948 257.088H155.945Z" fill="#FFFDF8"/>
<path d="M149.682 251.284L151.682 251.109L153.218 268.891L149.856 269.181L140.879 253.232L141.027 253.123L142.469 269.82L140.469 269.995L138.934 252.213L142.343 251.919L151.295 267.846L151.121 267.946L149.682 251.287V251.284Z" fill="#FFFDF8"/>
<path d="M126.822 251.874L130.467 252.245L128.658 270.001L122.857 269.41L118.583 252.397L119.225 252.303L117.538 268.865L113.902 268.494L115.712 250.738L121.548 251.332L125.825 268.297L125.135 268.384L126.819 251.871L126.822 251.874Z" fill="#FFFDF8"/>
<path d="M107.867 264.269L105.805 265.621L107.506 258.426L108.083 259.658L101.68 258.142L102.347 255.315L108.751 256.832L107.683 257.674L109.399 250.421L110.635 252.553L102.099 250.533L102.767 247.707L113.325 250.204L109.218 267.573L98.6602 265.076L99.3279 262.249L107.864 264.269H107.867Z" fill="#FFFDF8"/>
<path d="M100.406 247.049L94.2289 263.791L87.4417 261.288C85.6868 260.639 84.5222 259.755 83.9512 258.639C83.3803 257.519 83.3706 256.212 83.9222 254.715C84.2416 253.853 84.6771 253.176 85.2319 252.689C85.7868 252.201 86.3642 251.879 86.9674 251.724C87.5707 251.569 88.103 251.553 88.5643 251.682C88.1126 251.482 87.7191 251.204 87.3804 250.853C87.0416 250.501 86.8191 250.059 86.7158 249.53C86.6094 249.001 86.69 248.372 86.961 247.646C87.1578 247.107 87.3546 246.578 87.5481 246.055C87.7417 245.532 87.9384 245 88.1384 244.454C88.2739 244.083 88.3739 243.732 88.432 243.396C88.4901 243.061 88.4901 242.806 88.4255 242.625L91.9547 243.929C91.9966 244.116 91.9934 244.374 91.9385 244.703C91.8869 245.032 91.7901 245.38 91.6547 245.752C91.4772 246.236 91.3063 246.7 91.1417 247.142C90.9772 247.584 90.8063 248.049 90.6288 248.533C90.3869 249.191 90.3675 249.762 90.5772 250.249C90.7837 250.733 91.2643 251.114 92.0127 251.392L95.487 252.673L94.1289 253.45L96.9612 245.777L100.41 247.052L100.406 247.049ZM94.0096 253.766L94.4773 255.396L90.9579 254.095C90.503 253.928 90.0611 253.879 89.632 253.954C89.1998 254.028 88.8127 254.215 88.4643 254.515C88.1159 254.815 87.8481 255.222 87.661 255.728C87.3997 256.438 87.4094 257.07 87.69 257.622C87.9739 258.174 88.4997 258.59 89.2707 258.877L92.7998 260.181L91.3547 260.949L94.0063 253.763L94.0096 253.766Z" fill="#FFFDF8"/>
<path d="M86.4897 241.77L78.1766 257.561L73.07 254.87C72.0152 254.315 71.1539 253.615 70.4861 252.779C69.8216 251.94 69.3571 251.008 69.099 249.985C68.8409 248.959 68.799 247.878 68.97 246.739C69.1409 245.6 69.5345 244.448 70.1474 243.283C70.7603 242.118 71.4894 241.141 72.3345 240.347C73.1797 239.553 74.1023 238.969 75.0959 238.595C76.0895 238.221 77.1218 238.069 78.1928 238.14C79.2637 238.211 80.3251 238.524 81.3832 239.082L86.4897 241.773V241.77ZM82.6316 240.996L83.2961 243.37L80.4605 241.876C79.6896 241.47 78.8799 241.318 78.0282 241.421C77.1766 241.525 76.3572 241.883 75.5701 242.493C74.783 243.102 74.1023 243.958 73.5217 245.058C72.9378 246.165 72.6217 247.207 72.57 248.188C72.5184 249.168 72.6926 250.036 73.0926 250.788C73.4926 251.543 74.0797 252.121 74.8507 252.527L77.6863 254.021L75.354 254.815L82.6316 240.996Z" fill="#FFFDF8"/>
<path d="M37.3359 228.203L49.6878 215.322L51.1814 216.755L44.9361 223.269L44.9748 221.882L52.0718 228.69L50.6879 228.787L56.9332 222.272L58.4268 223.705L46.0749 236.585L44.5813 235.153L50.8943 228.567L50.8137 229.997L43.7167 223.189L45.1426 223.047L38.8295 229.632L37.3359 228.2V228.203Z" fill="#FFFDF8"/>
<path d="M48.3422 213.902L31.3643 221.388L29.332 218.89L40.1323 203.812L41.4775 205.465L31.3998 219.3L31.3837 219.281L46.997 212.247L48.3422 213.899V213.902ZM43.0711 214.915L41.6646 216.061L36.6387 209.885L38.0451 208.739L43.0711 214.915Z" fill="#FFFDF8"/>
<path d="M20.7747 206.708C20.1844 205.773 19.8134 204.901 19.6553 204.088C19.5005 203.275 19.5779 202.53 19.894 201.849C20.2069 201.168 20.7747 200.571 21.5941 200.052C22.3715 199.561 23.1199 199.31 23.8425 199.297C24.5651 199.284 25.2167 199.442 25.7974 199.765C26.3781 200.091 26.8523 200.51 27.2136 201.023C26.8619 200.436 26.6361 199.791 26.5426 199.087C26.4458 198.384 26.5587 197.687 26.8813 196.993C27.2007 196.299 27.8103 195.667 28.7104 195.099C29.591 194.544 30.4523 194.244 31.2975 194.202C32.1427 194.16 32.9524 194.389 33.7298 194.893C34.5041 195.396 35.2331 196.186 35.9138 197.264L39.0267 202.194L23.9393 211.722L20.7747 206.708ZM29.9298 205.576L29.7104 206.544L27.7523 203.443C27.0619 202.352 26.3071 201.643 25.4845 201.314C24.6619 200.984 23.8199 201.091 22.9618 201.633C22.3876 201.994 22.0134 202.407 21.836 202.875C21.6586 203.34 21.6392 203.85 21.7812 204.405C21.9231 204.96 22.1844 205.544 22.5747 206.157L24.907 209.851L23.4167 209.69L29.933 205.576H29.9298ZM34.5912 198.568C33.9363 197.532 33.1911 196.858 32.3556 196.545C31.5201 196.232 30.6491 196.364 29.7426 196.935C29.191 197.284 28.7942 197.674 28.5555 198.1C28.3168 198.526 28.1974 198.981 28.2007 199.455C28.2039 199.929 28.3007 200.417 28.4846 200.913C28.6684 201.41 28.9168 201.904 29.2233 202.388L31.2395 205.579L30.2717 205.36L37.4203 200.842L36.9267 202.256L34.5944 198.561L34.5912 198.568Z" fill="#FFFDF8"/>
<path d="M31.637 190.035L15.5979 197.857L14.6914 195.998L30.1531 188.458L29.5079 189.81L26.0143 182.643L27.6466 181.85L31.637 190.039V190.035Z" fill="#FFFDF8"/>
<path d="M26.9639 180.456L8.46348 181.84L7.38281 178.807L22.5961 168.201L23.3122 170.208L9.19253 179.881L9.18286 179.859L26.2478 178.446L26.9639 180.452V180.456ZM21.6573 179.652L19.9476 180.262L17.2734 172.764L18.9831 172.154L21.6573 179.652Z" fill="#FFFDF8"/>
<path d="M12.3481 148.564C13.0578 148.448 13.803 148.458 14.5901 148.597C15.3772 148.735 16.1321 149.019 16.8515 149.442C17.5708 149.868 18.1934 150.449 18.716 151.188C19.2386 151.927 19.5902 152.836 19.7677 153.921C20.0128 155.408 19.8354 156.737 19.2322 157.909C18.6289 159.08 17.6934 160.051 16.4224 160.822C15.1514 161.593 13.6417 162.123 11.89 162.413C10.1319 162.703 8.52867 162.69 7.08348 162.368C5.63828 162.048 4.44148 161.429 3.49629 160.516C2.55111 159.603 1.95755 158.399 1.70915 156.912C1.5027 155.669 1.58334 154.569 1.94787 153.611C2.31239 152.653 2.84467 151.846 3.54791 151.201C4.25115 150.552 5.00601 150.081 5.8157 149.784C6.22217 149.626 6.6125 149.516 6.9867 149.455L7.32542 151.497C7.10928 151.533 6.86734 151.594 6.59637 151.678C5.94474 151.885 5.36408 152.217 4.85439 152.672C4.3447 153.127 3.96727 153.688 3.72211 154.35C3.47694 155.011 3.4221 155.766 3.56404 156.608C3.72856 157.596 4.14147 158.412 4.80278 159.057C5.46731 159.703 6.3641 160.145 7.49962 160.377C8.63513 160.609 9.98355 160.596 11.5513 160.338C13.1191 160.08 14.403 159.654 15.4063 159.067C16.4095 158.48 17.1224 157.773 17.545 156.947C17.9676 156.121 18.0966 155.214 17.9353 154.227C17.8192 153.52 17.587 152.917 17.2386 152.417C16.8902 151.92 16.4676 151.52 15.974 151.223C15.4805 150.926 14.9482 150.726 14.3772 150.623C13.8094 150.52 13.2449 150.517 12.6901 150.607L12.3513 148.564H12.3481Z" fill="#FFFDF8"/>
<path d="M18.2978 138.52C18.33 139.559 18.1526 140.521 17.7655 141.398C17.3816 142.276 16.8042 143.05 16.0364 143.715C15.2687 144.38 14.3235 144.902 13.1976 145.29C12.0718 145.674 10.7815 145.887 9.33304 145.932C7.88462 145.977 6.58458 145.838 5.44262 145.522C4.30066 145.206 3.32967 144.738 2.53287 144.118C1.73608 143.502 1.12316 142.763 0.694121 141.905C0.265078 141.047 0.0360407 140.101 0.00378187 139.069C-0.028477 138.03 0.145721 137.068 0.523149 136.184C0.900577 135.3 1.46833 134.529 2.22642 133.864C2.9845 133.2 3.92646 132.677 5.04906 132.293C6.17167 131.909 7.4588 131.696 8.90722 131.651C10.3556 131.606 11.6557 131.744 12.8041 132.061C13.9525 132.377 14.9267 132.845 15.7332 133.461C16.5397 134.077 17.159 134.816 17.5945 135.674C18.03 136.533 18.2655 137.481 18.2978 138.524V138.52ZM16.4364 138.575C16.4074 137.585 16.1106 136.717 15.5493 135.975C14.988 135.232 14.1557 134.665 13.0589 134.268C11.9621 133.874 10.6008 133.7 8.97174 133.748C7.33622 133.797 5.9878 134.051 4.92971 134.516C3.87162 134.981 3.09095 135.597 2.58771 136.371C2.0877 137.146 1.84899 138.023 1.87802 139.008C1.90705 139.982 2.19416 140.843 2.74256 141.592C3.28773 142.337 4.10388 142.912 5.191 143.312C6.2749 143.712 7.63622 143.886 9.27175 143.838C10.9073 143.789 12.2621 143.534 13.3331 143.07C14.4041 142.605 15.1977 141.986 15.7106 141.208C16.2235 140.43 16.4655 139.553 16.4364 138.578V138.575Z" fill="#FFFDF8"/>
<path d="M18.1896 126.998L17.98 128.995L0.234375 127.136L0.585996 123.778L17.9412 117.979L18.0219 118.147L1.36021 116.402L1.56989 114.404L19.3155 116.263L18.9574 119.667L1.62796 125.442L1.56344 125.252L18.1896 126.994V126.998Z" fill="#FFFDF8"/>
<path d="M18.175 94.1007C20.3944 94.7557 21.888 95.7591 22.6558 97.111C23.4235 98.463 23.5332 100.063 22.988 101.912C22.4461 103.755 21.488 105.036 20.1105 105.758C18.7331 106.481 16.9363 106.513 14.7136 105.858C14.3717 105.758 14.0104 105.652 13.6297 105.539C13.2459 105.426 12.8426 105.307 12.4168 105.181L3.91016 102.677L4.49404 100.693L13.1749 103.248C13.5781 103.367 13.9523 103.477 14.3007 103.58C14.6491 103.684 14.9685 103.777 15.2653 103.864C16.9814 104.371 18.3073 104.403 19.2396 103.961C20.1718 103.522 20.8267 102.664 21.2009 101.386C21.5783 100.102 21.4977 99.0212 20.9525 98.1403C20.4073 97.2627 19.2783 96.569 17.5589 96.0624L6.79087 92.8907L7.37153 90.916L18.175 94.0974V94.1007Z" fill="#FFFDF8"/>
<path d="M26.2806 91.4158L25.4645 93.2517L9.16406 85.9952L10.5351 82.9106L28.8323 82.7654L28.8581 82.9493L13.5513 76.1348L14.3674 74.2988L30.6678 81.5554L29.2774 84.6852L11.0125 84.8207V84.6207L26.2838 91.419L26.2806 91.4158Z" fill="#FFFDF8"/>
<path d="M36.8381 71.136L34.7413 74.1432L20.1055 63.9343L23.441 59.1493L40.3834 63.6794L40.1511 64.286L26.4992 54.7612L28.5895 51.7637L43.2254 61.9726L39.8705 66.7866L22.9668 62.2823L23.2249 61.637L36.8381 71.1328V71.136Z" fill="#FFFDF8"/>
<path d="M35.2034 48.5527L35.0195 46.0941L40.4841 51.0727L39.126 50.9823L43.5552 46.1167L45.7004 48.072L41.2712 52.9377L41.0551 51.5954L46.5649 56.6127L44.1003 56.6611L50.0037 50.1757L52.1489 52.131L44.8423 60.1555L31.6484 48.1397L38.9551 40.1152L41.1003 42.0705L35.1969 48.556L35.2034 48.5527Z" fill="#FFFDF8"/>
<path d="M53.8803 50.3724L42.2188 36.8659L47.6931 32.1358C49.1092 30.9129 50.4448 30.3224 51.6996 30.3612C52.9545 30.4031 54.1029 31.0258 55.1481 32.2358C55.7481 32.9327 56.1288 33.6394 56.2868 34.3621C56.4449 35.0816 56.4481 35.7463 56.2901 36.3497C56.1352 36.9531 55.89 37.4241 55.5546 37.7662C55.9481 37.4693 56.3804 37.2564 56.8546 37.1305C57.3256 37.0047 57.8191 37.024 58.3353 37.1886C58.8482 37.3532 59.3579 37.7274 59.8643 38.3114C60.2385 38.7438 60.6063 39.1729 60.9708 39.5924C61.3353 40.0151 61.7063 40.4442 62.087 40.883C62.345 41.1831 62.6063 41.438 62.8709 41.651C63.1354 41.8639 63.3612 41.9865 63.5483 42.0188L60.6998 44.4774C60.516 44.4226 60.2901 44.2935 60.0289 44.0902C59.7676 43.8837 59.5063 43.6321 59.2482 43.3352C58.9095 42.9448 58.5869 42.5705 58.2804 42.2124C57.9707 41.8542 57.6482 41.4799 57.3127 41.0895C56.8546 40.5571 56.361 40.2668 55.8384 40.2151C55.3126 40.1635 54.7481 40.3958 54.1448 40.9185L51.3448 43.3385L51.3222 41.7768L56.6675 47.9686L53.8835 50.3724H53.8803ZM51.0996 41.5219L49.4447 41.1444L52.2835 38.6922C52.6513 38.376 52.9061 38.0114 53.0513 37.5984C53.1964 37.1854 53.219 36.753 53.1255 36.3045C53.0287 35.8528 52.8061 35.4237 52.4513 35.0171C51.9545 34.4428 51.3996 34.1459 50.7802 34.1266C50.1609 34.1072 49.5415 34.3653 48.9189 34.9042L46.0705 37.3628L46.0963 35.727L51.1028 41.5251L51.0996 41.5219Z" fill="#FFFDF8"/>
<path d="M65.2389 40.7347L55.4258 25.8279L60.2452 22.6529C61.242 21.9979 62.2679 21.5785 63.3227 21.401C64.3776 21.2236 65.4163 21.2687 66.4389 21.5365C67.4616 21.8043 68.4293 22.2915 69.3455 22.9917C70.2616 23.6919 71.081 24.5921 71.8036 25.6891C72.5262 26.7862 73.0327 27.8993 73.3165 29.0222C73.6036 30.1483 73.6714 31.2356 73.5165 32.2875C73.3649 33.3393 72.9972 34.317 72.4197 35.2204C71.8423 36.1239 71.052 36.9015 70.0552 37.5597L65.2357 40.7347H65.2389ZM67.7777 37.7307L65.3776 37.1661L68.0551 35.4011C68.7809 34.9236 69.3068 34.2847 69.6293 33.4878C69.9519 32.6908 70.0326 31.8035 69.8777 30.8194C69.7229 29.8353 69.3035 28.8254 68.6196 27.7864C67.9325 26.741 67.1712 25.9602 66.3389 25.4439C65.5067 24.9244 64.6615 24.6599 63.8098 24.6469C62.955 24.634 62.1647 24.8664 61.4388 25.3471L58.7613 27.1121L59.1904 24.6857L67.7777 37.7307Z" fill="#FFFDF8"/>
<path d="M87.2796 17.159L82.1914 19.5723L84.5998 24.6706L89.688 22.2574L87.2796 17.159Z" fill="#FFFDF8"/>
<path d="M61.0747 234.137L57.7969 238.723L62.3736 242.007L65.6514 237.421L61.0747 234.137Z" fill="#FFFDF8"/>
<path d="M259.06 147.851L258.039 153.398L263.575 154.422L264.596 148.874L259.06 147.851Z" fill="#FFFDF8"/>
</g>
<defs>
<clipPath id="clip0_5173_1303">
<rect width="270" height="270" fill="white"/>
</clipPath>
</defs>
</svg>
