<svg width="138" height="65" viewBox="0 0 138 65" fill="none" xmlns="http://www.w3.org/2000/svg">
<path d="M54.5559 22.8041C54.7825 22.8985 55.028 22.9552 55.2829 22.9835C55.5379 23.0118 55.7551 23.0213 55.9439 23.0213C56.1611 23.0213 56.3877 23.0024 56.6049 22.9646C56.822 22.9269 57.0109 22.8985 57.1809 22.8702V19.9808C57.0015 19.9525 56.8126 19.9242 56.6049 19.9053C56.3971 19.8864 56.2177 19.877 56.0572 19.877C55.349 19.877 54.7825 20.0091 54.3576 20.2641C53.9421 20.519 53.7344 20.9251 53.7344 21.5011C53.7344 21.8882 53.8194 22.1715 53.9799 22.3792C54.1404 22.5586 54.3292 22.7097 54.5559 22.8041Z" fill="black"/>
<path d="M45.9179 16.591C45.5591 16.1566 45.0587 15.9395 44.426 15.9395C43.6895 15.9395 43.1419 16.1377 42.7642 16.5532C42.3865 16.9592 42.1598 17.5352 42.0938 18.2717H46.5128C46.4656 17.5824 46.2767 17.0253 45.9179 16.591Z" fill="black"/>
<path d="M60.8092 2.03956C56.9473 0.0944244 51.3385 2.01124 51.3385 2.01124C28.6294 9.4141 28.9788 9.22525 23.3511 11.1515C23.2189 11.1893 22.9168 11.2837 22.794 11.2931C22.5202 11.312 22.2936 11.0665 22.2936 10.7833C22.2936 10.6416 22.3597 10.5 22.473 10.415C22.558 10.3395 22.6335 10.2922 22.6335 10.2922C22.6335 10.2922 26.7221 7.7239 30.5935 5.41995C31.4527 4.90062 32.1515 4.51348 32.9352 4.0508C33.5678 3.6731 35.6074 2.63444 35.6074 1.44469C35.6074 0.689297 35.022 0.0755394 34.2855 0.0188849C34.2477 0.0188849 34.0211 0 33.9644 0H32.8974H18.4127H13.6349C10.2734 0 7.78056 0.991455 6.10925 1.99235C2.43615 4.3624 0 8.49818 0 13.2005C0 16.6753 1.32194 19.8385 3.50314 22.2086V22.218L44.1717 60.7054C46.5701 62.9999 49.8088 64.4068 53.3875 64.4068C60.762 64.4068 66.7296 58.4297 66.7296 51.0646L66.7674 11.2459C66.758 7.43119 64.284 4.07913 60.8092 2.03956ZM51.2818 19.848C51.584 19.3759 51.9711 18.9982 52.4338 18.7149C52.9059 18.4316 53.4347 18.2239 54.0201 18.1011C54.6056 17.9784 55.191 17.9123 55.767 17.9123C56.1919 17.9123 56.6546 17.9406 57.1645 17.9784V17.714C57.1645 17.3646 57.1078 17.0814 56.9851 16.8642C56.8717 16.647 56.7112 16.4676 56.5035 16.3448C56.3052 16.2221 56.0503 16.1371 55.7481 16.0899C55.4648 16.0521 55.1343 16.0332 54.7661 16.0332C53.9824 16.0332 53.142 16.1843 52.245 16.4959C52.0372 16.1182 51.8861 15.7594 51.7917 15.4195C51.6973 15.089 51.6406 14.683 51.6406 14.2203C52.2827 14.0031 52.9154 13.8426 53.5669 13.7387C54.209 13.6349 54.8039 13.5877 55.361 13.5877C56.8717 13.5877 58.0615 13.9465 58.9113 14.683C59.7706 15.41 60.1955 16.5809 60.1955 18.1767V24.7392C59.6856 24.8997 59.0624 25.0508 58.3353 25.2018C57.6083 25.3529 56.7773 25.419 55.8614 25.419C55.1155 25.419 54.4356 25.3529 53.8218 25.2207C53.1986 25.0885 52.6699 24.8714 52.2261 24.5598C51.7823 24.2576 51.4424 23.861 51.1968 23.3794C50.9608 22.8979 50.838 22.303 50.838 21.6043C50.8286 20.9055 50.9797 20.3201 51.2818 19.848ZM19.2248 24.7769C19.2248 24.8714 19.2153 24.9752 19.1776 25.098C18.951 25.1735 18.6582 25.2207 18.3372 25.249C18.0162 25.2774 17.7046 25.2868 17.4307 25.2868C16.3071 25.2868 15.41 24.9752 14.7302 24.3615C14.0503 23.7477 13.7104 22.7374 13.7104 21.3399V9.1686C14.2392 9.08361 14.7491 9.0364 15.2684 9.0364C15.7594 9.0364 16.2693 9.08361 16.7981 9.1686V20.6506C16.7981 21.1038 16.8264 21.4626 16.8736 21.7459C16.9208 22.0197 17.0058 22.2369 17.1097 22.388C17.223 22.5391 17.3646 22.6524 17.5346 22.709C17.714 22.7657 17.9312 22.794 18.1956 22.794C18.3089 22.794 18.4316 22.7846 18.5733 22.7751C18.7149 22.7562 18.8471 22.7374 18.9793 22.709C19.1398 23.3039 19.2248 23.8893 19.2248 24.4559C19.2248 24.5692 19.2248 24.6731 19.2248 24.7769ZM24.3615 25.1546C23.8421 25.2396 23.3228 25.2868 22.8318 25.2868C22.3502 25.2868 21.8498 25.249 21.321 25.1546V16.2126H19.8574C19.8102 16.0238 19.7724 15.8255 19.7536 15.6178C19.7252 15.41 19.7252 15.2023 19.7252 15.0135C19.7252 14.6169 19.763 14.2297 19.8574 13.852H24.3615V25.1546ZM37.2504 25.1546C36.7216 25.2396 36.2023 25.2868 35.6924 25.2868C35.1825 25.2868 34.6632 25.249 34.1438 25.1546V18.7621C34.1438 17.9784 34.0211 17.3646 33.785 16.9492C33.5395 16.5242 33.124 16.3071 32.5292 16.3071C32.2837 16.3071 32.0287 16.3448 31.7643 16.4204C31.4999 16.4959 31.2639 16.6376 31.0561 16.8453C30.8484 17.053 30.6784 17.3552 30.5463 17.7329C30.4141 18.1106 30.348 18.611 30.348 19.2153V25.1452C29.8192 25.2302 29.3093 25.2774 28.79 25.2774C28.2801 25.2774 27.7607 25.2396 27.2414 25.1452V13.852C27.4397 13.8143 27.6474 13.7765 27.8552 13.7576C28.0629 13.7387 28.2801 13.7198 28.535 13.7198C28.7805 13.7198 28.9977 13.7293 29.196 13.7576C29.3848 13.7765 29.5831 13.8143 29.7909 13.852C29.8286 13.9276 29.8758 14.0314 29.9042 14.1636C29.9419 14.3053 29.9703 14.4469 30.008 14.6074C30.0364 14.7585 30.0647 14.9096 30.0836 15.0607C30.1025 15.2023 30.1213 15.3251 30.1402 15.4289C30.2819 15.2117 30.4613 14.9946 30.6596 14.7774C30.8673 14.5602 31.1034 14.3619 31.3677 14.192C31.6416 14.0126 31.9437 13.8709 32.2837 13.7671C32.6141 13.6537 32.9918 13.6065 33.3979 13.6065C34.682 13.6065 35.6452 13.9559 36.2967 14.6546C36.9482 15.3534 37.2693 16.4581 37.2693 17.9595V25.1546H37.2504ZM42.2265 24.9752C41.4711 24.6825 40.8574 24.2859 40.3853 23.7666C39.9131 23.2473 39.5638 22.6335 39.3372 21.9159C39.1105 21.2077 38.9972 20.424 38.9972 19.5836C38.9972 18.7527 39.1105 17.9689 39.3466 17.2419C39.5732 16.5148 39.9226 15.8822 40.3853 15.3439C40.8479 14.8057 41.4145 14.3808 42.0943 14.0598C42.7742 13.7482 43.5579 13.5971 44.4644 13.5971C45.2576 13.5971 45.9563 13.7293 46.5606 14.0031C47.1744 14.2864 47.6937 14.6641 48.1281 15.1457C48.553 15.6272 48.8835 16.1938 49.1006 16.8642C49.3178 17.5251 49.4311 18.2428 49.4311 18.9982C49.4311 19.272 49.4217 19.5458 49.4028 19.8102C49.3839 20.084 49.3556 20.3012 49.3178 20.4617H42.0566C42.1132 21.3399 42.4248 21.9725 42.9819 22.3597C43.5296 22.7562 44.2661 22.9545 45.1631 22.9545C45.6541 22.9545 46.164 22.9073 46.6834 22.8129C47.2027 22.7185 47.6937 22.5863 48.1564 22.4163C48.3169 22.709 48.4585 23.0584 48.5718 23.4644C48.6852 23.8705 48.7513 24.3048 48.7701 24.7769C47.6371 25.2113 46.3529 25.4379 44.9176 25.4379C43.879 25.419 42.9819 25.2679 42.2265 24.9752ZM60.2049 53.2931C60.2049 56.8245 57.2117 56.9567 57.2117 56.9567H54.8039H51.8956V38.7989H49.7144H46.8156V34.8898C47.9581 34.8898 49.1478 34.5121 50.3848 33.7567C51.6029 33.0013 52.4527 31.7549 52.9248 30.0364H53.548H54.4923H55.8236H57.3911H57.816V30.0647C58.4203 30.1402 58.9396 30.3952 59.3834 30.8201C59.9311 31.3394 60.2049 31.9909 60.2049 32.7747V53.2931Z" fill="black"/>
<path d="M80.8735 30.1218C81.2984 30.0557 81.7139 30.0273 82.101 30.0273C82.5165 30.0273 82.9319 30.0557 83.3285 30.1218L85.963 36.7126L88.6824 30.1218C89.0129 30.0557 89.3811 30.0273 89.7871 30.0273C90.1932 30.0273 90.5803 30.0557 90.958 30.1218L91.4962 41.6226C91.0902 41.6887 90.7125 41.7171 90.3442 41.7171C89.9854 41.7171 89.6266 41.6887 89.2772 41.6226L88.994 33.8232L86.6617 39.2243C86.5106 39.2432 86.3595 39.262 86.199 39.2809C86.0385 39.2998 85.878 39.3092 85.7174 39.3092C85.5853 39.3092 85.4436 39.3092 85.302 39.2904C85.1698 39.2809 85.0187 39.262 84.8771 39.2243L82.7053 33.7099L82.4787 41.6226C82.1388 41.6887 81.8083 41.7171 81.4872 41.7171C81.1473 41.7171 80.7979 41.6887 80.4297 41.6226L80.8735 30.1218Z" fill="black"/>
<path d="M95.4175 38.1838C95.4648 38.8259 95.6819 39.2886 96.088 39.5813C96.494 39.8646 97.0228 40.0157 97.6932 40.0157C98.0614 40.0157 98.4202 39.9779 98.7979 39.9118C99.1756 39.8457 99.5344 39.7418 99.8744 39.6191C99.9971 39.8268 100.092 40.0912 100.177 40.3839C100.262 40.6767 100.309 41.0071 100.318 41.3471C99.4872 41.6681 98.5524 41.8286 97.5043 41.8286C96.7395 41.8286 96.0785 41.7248 95.5308 41.5076C94.9832 41.2998 94.5394 40.9977 94.19 40.62C93.8407 40.2423 93.5857 39.7891 93.4252 39.2697C93.2552 38.7504 93.1797 38.1838 93.1797 37.5606C93.1797 36.9563 93.2647 36.3898 93.4346 35.8516C93.6046 35.3228 93.8595 34.8507 94.1995 34.4541C94.53 34.0575 94.9549 33.7459 95.4459 33.5193C95.9369 33.2927 96.5129 33.1699 97.1833 33.1699C97.7593 33.1699 98.2692 33.2738 98.7129 33.4721C99.1662 33.6704 99.5439 33.9536 99.8555 34.303C100.167 34.6524 100.403 35.0773 100.564 35.5589C100.724 36.0499 100.8 36.5692 100.8 37.1169C100.8 37.3246 100.79 37.5229 100.771 37.7212C100.762 37.9195 100.743 38.0705 100.715 38.1933H95.4175V38.1838ZM98.6657 36.5975C98.6468 36.0876 98.5052 35.6722 98.2408 35.3606C97.9859 35.049 97.6176 34.8884 97.1455 34.8884C96.6167 34.8884 96.2107 35.0395 95.9369 35.3322C95.663 35.6344 95.4931 36.0499 95.4364 36.5975H98.6657Z" fill="black"/>
<path d="M102.819 35.0772H101.78L101.695 34.7561L104.689 30.9414H105.057V33.3587H106.993C107.03 33.5192 107.049 33.6608 107.059 33.793C107.068 33.9252 107.068 34.0574 107.068 34.199C107.068 34.3501 107.068 34.4918 107.059 34.6334C107.049 34.775 107.021 34.9261 106.993 35.0961H105.057V38.3443C105.057 38.6748 105.085 38.9391 105.142 39.1469C105.189 39.3452 105.274 39.5057 105.368 39.6284C105.472 39.7417 105.595 39.8267 105.746 39.8645C105.897 39.9117 106.077 39.9306 106.275 39.9306C106.435 39.9306 106.596 39.9117 106.747 39.8928C106.898 39.8645 107.03 39.8362 107.153 39.8173C107.229 40.0156 107.285 40.2328 107.314 40.4499C107.342 40.6671 107.361 40.8654 107.361 41.0354C107.361 41.1581 107.361 41.2525 107.351 41.3281C107.342 41.4036 107.342 41.4886 107.323 41.5547C106.832 41.6774 106.322 41.7341 105.803 41.7341C104.84 41.7341 104.094 41.5075 103.584 41.0542C103.064 40.601 102.819 39.8645 102.819 38.8447V35.0772Z" fill="black"/>
<path d="M108.714 33.3601C108.875 33.3223 109.026 33.3034 109.167 33.2845C109.309 33.2656 109.47 33.2656 109.64 33.2656C109.8 33.2656 109.951 33.2751 110.112 33.294C110.263 33.3128 110.423 33.3412 110.565 33.3695C110.593 33.4167 110.631 33.5017 110.65 33.6056C110.678 33.7094 110.697 33.8133 110.725 33.9266C110.744 34.0399 110.763 34.1532 110.782 34.2665C110.792 34.3798 110.81 34.4743 110.82 34.5498C111.056 34.2193 111.339 33.9266 111.679 33.6622C112.019 33.3978 112.444 33.2751 112.954 33.2751C113.058 33.2751 113.18 33.2845 113.322 33.294C113.454 33.3034 113.558 33.3223 113.624 33.3412C113.643 33.445 113.662 33.5678 113.671 33.7094C113.681 33.8511 113.69 33.9927 113.69 34.1438C113.69 34.3232 113.681 34.5215 113.671 34.7386C113.653 34.9558 113.624 35.1541 113.577 35.3524C113.464 35.3241 113.332 35.3241 113.19 35.3241H112.926C112.737 35.3241 112.538 35.343 112.312 35.3807C112.095 35.4185 111.877 35.5224 111.67 35.6734C111.471 35.834 111.301 36.0795 111.169 36.3911C111.037 36.7121 110.971 37.1653 110.971 37.7413V41.6694C110.773 41.7072 110.584 41.726 110.395 41.7355C110.206 41.7449 110.017 41.7544 109.838 41.7544C109.658 41.7544 109.479 41.7449 109.281 41.7355C109.092 41.726 108.903 41.7072 108.695 41.6694V33.3601H108.714Z" fill="black"/>
<path d="M118.402 41.811C117.731 41.811 117.146 41.6977 116.655 41.4806C116.154 41.2634 115.748 40.9518 115.427 40.5646C115.106 40.1775 114.861 39.7243 114.691 39.1955C114.53 38.6762 114.445 38.1096 114.445 37.4959C114.445 36.8915 114.521 36.3156 114.691 35.7868C114.861 35.258 115.106 34.7953 115.427 34.4082C115.758 34.021 116.164 33.7094 116.655 33.4923C117.155 33.2657 117.731 33.1523 118.402 33.1523C119.072 33.1523 119.658 33.2657 120.158 33.4923C120.658 33.7189 121.074 34.021 121.404 34.4082C121.735 34.7953 121.98 35.258 122.141 35.7868C122.301 36.325 122.386 36.8915 122.386 37.4959C122.386 38.1096 122.301 38.6667 122.141 39.1955C121.98 39.7148 121.735 40.1681 121.404 40.5646C121.074 40.9518 120.658 41.2634 120.158 41.4806C119.658 41.7072 119.072 41.811 118.402 41.811ZM118.402 40.0831C118.997 40.0831 119.431 39.8659 119.686 39.4221C119.941 38.9783 120.073 38.3457 120.073 37.5053C120.073 36.6744 119.941 36.0417 119.686 35.5979C119.421 35.1541 118.997 34.937 118.402 34.937C117.816 34.937 117.391 35.1636 117.127 35.5979C116.872 36.0417 116.74 36.6838 116.74 37.5053C116.74 38.3362 116.872 38.9783 117.127 39.4221C117.391 39.8659 117.816 40.0831 118.402 40.0831Z" fill="black"/>
<path d="M85.6726 44.9346C85.8709 44.8968 86.0692 44.8779 86.258 44.8685C86.4469 44.8591 86.6357 44.8496 86.8246 44.8496C87.0134 44.8496 87.2117 44.8591 87.4006 44.8685C87.5988 44.8779 87.7971 44.8968 87.9954 44.9346V56.6904C87.4761 56.8509 86.9568 56.9642 86.428 57.0398C85.8992 57.1248 85.2477 57.1625 84.4923 57.1625C83.9069 57.1625 83.3498 57.087 82.821 56.9265C82.2922 56.766 81.8201 56.511 81.4141 56.1711C81.008 55.8312 80.687 55.3779 80.4509 54.8303C80.2149 54.2826 80.1016 53.6122 80.1016 52.819C80.1016 52.1958 80.2054 51.6009 80.4037 51.0533C80.6115 50.4962 80.8947 50.0146 81.2819 49.618C81.6596 49.212 82.1128 48.891 82.651 48.6549C83.1892 48.4188 83.7841 48.2961 84.4451 48.2961C84.6434 48.2961 84.8417 48.3055 85.0683 48.3244C85.276 48.3339 85.4837 48.3716 85.682 48.4283V44.9346H85.6726ZM85.6726 50.2223C85.4554 50.1657 85.2855 50.1374 85.1438 50.1185C85.0116 50.0996 84.8322 50.0902 84.6245 50.0902C84.2657 50.0902 83.9446 50.1657 83.6802 50.3073C83.4064 50.4584 83.1892 50.6567 83.0193 50.9022C82.8399 51.1477 82.7077 51.4404 82.6321 51.7804C82.5472 52.1108 82.5094 52.4602 82.5094 52.8285C82.5094 53.2817 82.566 53.6594 82.6793 53.971C82.7832 54.2826 82.9343 54.5375 83.1326 54.7169C83.3309 54.9058 83.548 55.038 83.8124 55.123C84.0768 55.1985 84.3601 55.2457 84.6717 55.2457C84.8511 55.2457 85.0305 55.2363 85.1816 55.2174C85.3327 55.1985 85.5121 55.1702 85.6915 55.1135V50.2223H85.6726Z" fill="black"/>
<path d="M92.1031 53.4362C92.1503 54.0971 92.3769 54.5787 92.7924 54.8714C93.2079 55.1641 93.7555 55.3152 94.4354 55.3152C94.8131 55.3152 95.1908 55.2774 95.5779 55.2019C95.9651 55.1358 96.3428 55.0319 96.6921 54.8997C96.8149 55.1169 96.9187 55.3813 97.0037 55.6929C97.0887 56.0045 97.1359 56.3255 97.1548 56.6844C96.2955 57.0148 95.3324 57.1754 94.2654 57.1754C93.4723 57.1754 92.7924 57.0715 92.2353 56.8449C91.6688 56.6277 91.2061 56.3161 90.8473 55.929C90.4884 55.5418 90.2241 55.0791 90.0635 54.5409C89.8936 54.0027 89.8086 53.4173 89.8086 52.7752C89.8086 52.152 89.903 51.5571 90.073 51.0095C90.2524 50.4618 90.5073 49.9802 90.8567 49.5742C91.2061 49.1682 91.631 48.8471 92.1409 48.6111C92.6508 48.375 93.2456 48.2617 93.9255 48.2617C94.5204 48.2617 95.0491 48.3656 95.5118 48.5733C95.9651 48.7811 96.3616 49.0643 96.6827 49.4326C97.0037 49.7914 97.2492 50.2257 97.4097 50.7262C97.5797 51.2266 97.6552 51.7649 97.6552 52.3314C97.6552 52.5391 97.6458 52.7469 97.6269 52.9452C97.608 53.1435 97.5892 53.304 97.5703 53.4267H92.1031V53.4362ZM95.4457 51.8026C95.4268 51.2739 95.2758 50.8489 95.0114 50.5279C94.7375 50.1974 94.3693 50.0369 93.8877 50.0369C93.3401 50.0369 92.9246 50.1974 92.6319 50.4996C92.3486 50.8017 92.1786 51.2455 92.122 51.8026H95.4457Z" fill="black"/>
<path d="M103.113 45.1335C103.519 45.0674 103.906 45.0391 104.284 45.0391C104.662 45.0391 105.068 45.0674 105.483 45.1335V54.897H109.581C109.619 55.0858 109.638 55.2652 109.647 55.4352C109.657 55.6051 109.666 55.7657 109.666 55.9167C109.666 56.0961 109.657 56.2661 109.647 56.4361C109.638 56.606 109.619 56.7854 109.581 56.9648H103.113V45.1335Z" fill="black"/>
<path d="M111.519 50.2422H110.415C110.386 50.1006 110.358 49.9495 110.339 49.789C110.33 49.6285 110.32 49.4774 110.32 49.3358C110.32 49.0336 110.358 48.7503 110.415 48.4576H113.805V56.9747C113.417 57.0408 113.03 57.0786 112.653 57.0786C112.294 57.0786 111.907 57.0408 111.519 56.9747V50.2422ZM111.17 47.0224C111.104 46.6447 111.076 46.2859 111.076 45.9176C111.076 45.5682 111.104 45.2 111.17 44.8129C111.359 44.7751 111.557 44.7562 111.774 44.7373C111.992 44.7184 112.18 44.709 112.36 44.709C112.539 44.709 112.747 44.7184 112.964 44.7373C113.191 44.7562 113.389 44.7751 113.569 44.8129C113.606 45.0017 113.625 45.1811 113.635 45.3605C113.644 45.5494 113.653 45.7288 113.653 45.9082C113.653 46.0876 113.653 46.267 113.635 46.4558C113.625 46.6352 113.606 46.8241 113.569 47.0129C113.38 47.0507 113.181 47.0696 112.964 47.079C112.756 47.0885 112.558 47.0979 112.369 47.0979C112.199 47.0979 112.001 47.0885 111.774 47.079C111.567 47.079 111.359 47.0601 111.17 47.0224Z" fill="black"/>
<path d="M116.105 48.4584C116.257 48.4301 116.408 48.4017 116.568 48.3828C116.719 48.364 116.889 48.3545 117.078 48.3545C117.267 48.3545 117.427 48.364 117.578 48.3828C117.72 48.4017 117.871 48.4206 118.022 48.4584C118.06 48.515 118.079 48.5906 118.117 48.6944C118.145 48.7983 118.164 48.9116 118.192 49.0249C118.221 49.1382 118.23 49.2515 118.258 49.3649C118.277 49.4687 118.287 49.5631 118.296 49.6481C118.391 49.4876 118.504 49.3176 118.645 49.1571C118.787 48.9872 118.957 48.8455 119.155 48.7133C119.354 48.5811 119.58 48.4773 119.816 48.3923C120.062 48.3073 120.345 48.2695 120.647 48.2695C121.969 48.2695 122.828 48.7794 123.197 49.7803C123.423 49.3743 123.726 49.0249 124.132 48.7228C124.528 48.4206 125.038 48.2695 125.652 48.2695C126.624 48.2695 127.333 48.5339 127.786 49.0721C128.239 49.6104 128.466 50.4413 128.466 51.5649V56.9849C128.069 57.051 127.682 57.0888 127.295 57.0888C126.908 57.0888 126.52 57.051 126.124 56.9849V52.1787C126.124 51.5933 126.048 51.1306 125.897 50.819C125.746 50.4979 125.444 50.3374 125 50.3374C124.821 50.3374 124.632 50.3658 124.453 50.413C124.273 50.4696 124.103 50.5735 123.962 50.7246C123.81 50.8662 123.688 51.0739 123.603 51.3478C123.508 51.6216 123.461 51.9615 123.461 52.3864V56.9849C123.065 57.051 122.677 57.0888 122.29 57.0888C121.913 57.0888 121.516 57.051 121.119 56.9849V52.1787C121.119 51.5933 121.044 51.1306 120.893 50.819C120.751 50.4979 120.449 50.3374 119.996 50.3374C119.807 50.3374 119.618 50.3658 119.439 50.413C119.25 50.4696 119.089 50.5829 118.938 50.734C118.787 50.8945 118.674 51.1211 118.579 51.4044C118.485 51.6877 118.447 52.0559 118.447 52.5186V56.9849C118.051 57.051 117.663 57.0888 117.276 57.0888C116.889 57.0888 116.502 57.051 116.105 56.9849V48.4584Z" fill="black"/>
<path d="M134.814 51.3761C134.814 51.1117 134.766 50.904 134.681 50.734C134.587 50.5735 134.474 50.4413 134.323 50.3469C134.172 50.2524 133.973 50.1863 133.756 50.158C133.529 50.1202 133.284 50.1108 133.01 50.1108C132.415 50.1108 131.783 50.2241 131.122 50.4602C130.971 50.1769 130.848 49.9031 130.772 49.6576C130.697 49.4026 130.659 49.1005 130.659 48.7511C131.141 48.5811 131.622 48.4678 132.104 48.3828C132.585 48.3073 133.039 48.2695 133.454 48.2695C134.597 48.2695 135.484 48.5434 136.126 49.091C136.768 49.6387 137.089 50.5168 137.089 51.7255V56.6638C136.702 56.7866 136.239 56.8999 135.692 57.0132C135.144 57.1265 134.521 57.1737 133.832 57.1737C133.275 57.1737 132.765 57.1265 132.293 57.0227C131.83 56.9282 131.424 56.7583 131.093 56.5317C130.763 56.305 130.498 56.0029 130.319 55.6441C130.14 55.2853 130.055 54.8415 130.055 54.3127C130.055 53.7839 130.168 53.3401 130.385 52.9813C130.612 52.6225 130.905 52.3392 131.263 52.1315C131.622 51.9143 132.019 51.7632 132.453 51.6688C132.897 51.5744 133.331 51.5272 133.766 51.5272C134.087 51.5272 134.436 51.5461 134.823 51.5744V51.3761H134.814ZM134.814 53.0663C134.681 53.0474 134.54 53.0285 134.379 53.0096C134.228 52.9907 134.087 52.9813 133.973 52.9813C133.435 52.9813 133.01 53.0757 132.699 53.274C132.387 53.4723 132.226 53.7745 132.226 54.1994C132.226 54.4827 132.283 54.7093 132.415 54.8603C132.529 55.0114 132.67 55.1247 132.85 55.1908C133.02 55.2664 133.199 55.3041 133.388 55.323C133.586 55.3419 133.747 55.3514 133.888 55.3514C134.058 55.3514 134.219 55.3325 134.379 55.3041C134.549 55.2758 134.691 55.2569 134.814 55.2286V53.0663Z" fill="black"/>
</svg>
