<svg width="44" height="44" viewBox="0 0 44 44" fill="none" xmlns="http://www.w3.org/2000/svg">
<path d="M17.7216 15.6039C17.7214 16.0637 17.5385 16.5046 17.2132 16.8296C16.8878 17.1546 16.4467 17.3371 15.9869 17.3368C15.527 17.3366 15.0861 17.1537 14.7611 16.8284C14.4361 16.5031 14.2537 16.062 14.2539 15.6021C14.2541 15.1423 14.437 14.7014 14.7624 14.3764C15.0877 14.0514 15.5288 13.8689 15.9886 13.8691C16.4485 13.8694 16.8894 14.0523 17.2144 14.3776C17.5394 14.7029 17.7218 15.144 17.7216 15.6039ZM17.7736 18.6208H14.3059V29.4747H17.7736V18.6208ZM23.2526 18.6208H19.8022V29.4747H23.2179V23.779C23.2179 20.606 27.3532 20.3113 27.3532 23.779V29.4747H30.7775V22.6C30.7775 17.251 24.657 17.4504 23.2179 20.0772L23.2526 18.6208Z" fill="#FFFDF8"/>
<circle cx="22.1068" cy="21.6732" r="21.2397" stroke="#FFFDF8" stroke-width="0.866927"/>
</svg>
