<svg width="84" height="85" viewBox="0 0 84 85" fill="none" xmlns="http://www.w3.org/2000/svg">
<path d="M33.719 30.7333C33.7186 31.6183 33.3666 32.4669 32.7404 33.0924C32.1143 33.7179 31.2653 34.0691 30.3803 34.0686C29.4953 34.0682 28.6466 33.7162 28.0211 33.0901C27.3956 32.4639 27.0445 31.615 27.0449 30.7299C27.0454 29.8449 27.3974 28.9963 28.0235 28.3708C28.6496 27.7452 29.4986 27.3941 30.3836 27.3945C31.2687 27.395 32.1173 27.747 32.7428 28.3731C33.3683 28.9992 33.7195 29.8482 33.719 30.7333ZM33.8191 36.5397H27.145V57.4297H33.8191V36.5397ZM44.3642 36.5397H37.7235V57.4297H44.2975V46.4674C44.2975 40.3606 52.2563 39.7933 52.2563 46.4674V57.4297H58.847V44.1983C58.847 33.9034 47.0672 34.2872 44.2975 39.3428L44.3642 36.5397Z" fill="black"/>
<circle cx="42.1643" cy="42.4065" r="40.6584" stroke="black" stroke-width="2.10949"/>
</svg>
