<svg width="65" height="52" viewBox="0 0 65 52" fill="none" xmlns="http://www.w3.org/2000/svg">
<path d="M54.502 8.89336C49.7635 3.57426 44.0077 0.763672 37.8771 0.763672C31.8134 0.763672 25.9103 3.65306 21.2521 8.89336C19.8734 10.43 18.6285 12.0848 17.5309 13.8447C16.4333 12.098 15.2018 10.4431 13.8231 8.89336C11.7082 6.51618 9.129 4.47232 6.59911 3.10643V1.13639H0V7.61124H6.59911V6.38982C8.31248 7.49304 10.142 9.05096 11.6546 10.7583C13.2743 12.5839 14.6932 14.5802 15.8979 16.721C12.953 22.5129 11.4271 29.211 11.4271 36.5264C11.4271 45.6149 13.8097 51.4856 17.5041 51.4856C21.1986 51.4856 23.5812 45.6149 23.5812 36.5264C23.5812 29.2241 22.0552 22.5129 19.1238 16.721C20.3285 14.5802 21.7474 12.5839 23.3804 10.7583C27.5434 6.06964 32.5362 3.58739 37.8369 3.58739C43.1109 3.58739 48.1171 6.06964 52.2934 10.7583C58.2366 17.4302 61.3822 26.3348 61.3822 36.5264C61.3822 44.8662 57.2327 48.6618 53.3776 48.6618C49.5226 48.6618 45.373 44.8662 45.373 36.5264C45.373 33.3087 45.7077 30.196 46.3368 27.2278L50.3123 28.6463L49.5895 14.0943L39.5101 24.7981L43.6061 26.256C42.8833 29.5262 42.4951 32.9541 42.4951 36.5133C42.4951 41.0181 43.6195 44.8268 45.7478 47.5324C47.7021 50.0409 50.4863 51.4724 53.3776 51.4724C58.6114 51.4724 64.2468 46.7969 64.2468 36.5133C64.3137 25.6387 60.9137 16.0906 54.502 8.89336ZM20.7568 36.5264C20.7568 45.6805 18.3742 48.6618 17.5443 48.6618C16.7144 48.6618 14.3317 45.6674 14.3317 36.5264C14.3317 30.5112 15.4294 24.9426 17.5443 20.0175C19.6592 24.9295 20.7568 30.4981 20.7568 36.5264Z" fill="black"/>
</svg>
