<svg width="19" height="17" viewBox="0 0 19 17" fill="none" xmlns="http://www.w3.org/2000/svg">
<g id="Modo_de_aislamiento" clip-path="url(#clip0_5041_1449)">
<path id="Vector" d="M1.4105 9.79783H2.80537V11.1716H4.20024V12.5454H5.59511V13.9191H6.98998V15.2929H8.38485V16.6666H9.77972V15.2929H11.1746V13.9191H12.5695V12.5454H13.9643V11.1716H15.3592V9.79783H16.7541V8.42406H18.1489V2.93007H16.7541V1.5563H15.3592V0.183594H11.1757V1.55736H9.78079V2.93112H8.38592V1.55736H6.99105V0.183594H2.8043V1.55736H1.40942V2.93112H0.015625V8.42512H1.4105V9.79888V9.79783ZM12.5662 1.55736H13.9611V2.93112H15.356V4.30488H13.9611V2.93112H12.5662V1.55736Z" fill="#FFFDF8"/>
</g>
<defs>
<clipPath id="clip0_5041_1449">
<rect width="18.129" height="16.4809" fill="white" transform="translate(0.015625 0.183594)"/>
</clipPath>
</defs>
</svg>
