<svg width="170" height="44" viewBox="0 0 170 44" fill="none" xmlns="http://www.w3.org/2000/svg">
<path d="M165.827 0H4.06604C1.07327 0 0 1.05911 0 3.98885V39.7166C0 42.5776 1.10768 43.6848 3.96973 43.6848H165.854C168.833 43.6848 169.92 42.6188 169.92 39.6822C169.934 27.8119 169.92 15.9485 169.92 4.07826C169.927 1.03848 168.882 0 165.827 0ZM166.054 38.3274C166.054 39.4346 165.834 39.7854 164.637 39.7716C111.496 39.7372 58.3555 39.7372 5.20811 39.7648C4.23804 39.7648 3.88029 39.5928 3.88029 38.5062C3.93533 27.3855 3.93533 16.2649 3.88029 5.13049C3.88029 4.02324 4.25867 3.89257 5.22186 3.89257C31.8128 3.9132 58.4037 3.90633 85.0015 3.90633C111.469 3.90633 137.936 3.92696 164.389 3.87194C165.813 3.87194 166.068 4.29146 166.061 5.60503C165.999 16.5194 166.013 27.4199 166.054 38.3274Z" fill="black"/>
<path d="M36.095 12.8899C36.0812 18.9832 36.0743 25.0697 36.095 31.163C36.1087 31.837 35.9161 32.0846 35.2212 32.0502C33.9416 32.0089 32.6757 31.9883 31.4098 32.0571C30.5429 32.1121 30.2883 31.8439 30.3021 30.9704C30.3571 27.518 30.3227 24.0518 30.3227 20.5857V19.5541C30.2402 19.5678 30.1507 19.5678 30.0682 19.5678C29.0431 23.3091 27.9836 27.0435 27.0135 30.7916C26.7727 31.7613 26.3599 32.0914 25.3348 32.0708C22.1563 31.9952 22.1563 32.0364 21.31 28.9347C20.4363 25.7437 19.5694 22.5526 18.4893 19.3546C18.4686 19.6641 18.4342 19.9667 18.4342 20.2762C18.4342 23.8661 18.4136 27.4561 18.4686 31.0461C18.4824 31.8714 18.2347 32.1052 17.4366 32.0571C16.1707 31.9814 14.8911 32.002 13.6252 32.0502C12.9716 32.0708 12.6964 31.9264 12.7033 31.1974C12.7239 25.1041 12.7239 19.0176 12.7033 12.9243C12.7033 12.3191 12.8477 12.0784 13.5082 12.0921C15.8749 12.1265 18.2416 12.1472 20.6083 12.0784C21.4614 12.044 21.482 12.5873 21.6128 13.1237C22.4177 16.4386 23.2089 19.7535 24.0138 23.0753C24.0964 23.4466 24.2134 23.8043 24.4129 24.5332C25.1972 21.3422 25.8921 18.5156 26.6076 15.6821C26.9034 14.513 26.8002 12.9037 27.6533 12.2916C28.4445 11.7208 29.9237 12.1128 31.107 12.099C32.5037 12.0853 33.9072 12.1334 35.3107 12.0784C35.9436 12.0509 36.1019 12.2778 36.095 12.8899Z" fill="black"/>
<path d="M147.809 11.3364C141.514 11.2195 137.393 15.3253 137.276 21.8244C137.152 28.3509 141.026 32.5668 147.238 32.6699C153.396 32.7662 157.579 28.5229 157.71 22.0444C157.813 15.8342 153.754 11.4327 147.809 11.3364ZM150.727 25.71C149.901 27.0718 148.718 27.7389 147.115 27.5876C145.518 27.45 144.39 26.6591 143.84 25.1599C143.076 23.1242 143.069 21.0403 143.854 19.0046C144.507 17.2716 145.842 16.3637 147.541 16.3981C149.296 16.4188 150.603 17.4435 151.229 19.2316C151.559 20.1532 151.607 21.1022 151.607 22.0719C151.566 23.3442 151.408 24.589 150.727 25.71Z" fill="black"/>
<path d="M132.019 24.799C131.723 24.3038 131.648 24.0838 132.232 23.6986C134.971 21.9105 135.879 19.3797 134.991 16.3399C134.159 13.5064 132.329 12.1791 128.951 12.1241C125.621 12.0622 122.298 12.1103 118.968 12.0691C118.239 12.0553 117.998 12.241 118.005 13.0113C118.039 19.0083 118.025 25.0053 118.005 31.0092C117.991 31.7795 118.149 32.0959 119.009 32.0546C120.365 31.9789 121.727 31.9789 123.075 32.0546C123.949 32.1096 124.087 31.7382 124.059 30.9886C124.004 29.4137 124.004 27.8319 124.073 26.257C124.093 25.8444 123.632 25.1085 124.527 25.0122C125.215 24.9297 125.827 24.9159 126.226 25.7825C127.079 27.6393 128.104 29.4343 129.047 31.2499C129.281 31.6901 129.467 32.0615 130.093 32.0546C132.06 32.0133 134.021 32.034 136.23 32.034C134.737 29.4756 133.395 27.1235 132.019 24.799ZM129.384 19.0977C129.212 20.0055 128.675 20.5901 127.767 20.7551C127.334 20.8377 126.894 20.8583 126.46 20.8789C124.052 20.9615 124.052 20.9546 124.052 18.5131C124.052 16.1886 124.052 16.1886 126.701 16.2711C128.737 16.3399 129.707 17.3508 129.384 19.0977Z" fill="black"/>
<path d="M95.5784 30.378C92.8609 32.5513 89.7649 32.847 86.5038 32.4619C83.8069 32.1317 81.5159 30.942 79.6445 28.9544C79.1148 28.3973 79.0941 28.0535 79.8028 27.6959C80.2362 27.4827 80.6352 27.2076 81.0205 26.9256C82.4859 25.8596 83.7037 24.773 85.5131 26.8224C86.7102 28.1773 88.8017 28.081 90.618 27.5377C91.2509 27.3451 91.8564 26.9806 91.822 26.176C91.7876 25.447 91.2441 25.1306 90.6042 24.9793C88.9875 24.6079 87.35 24.3053 85.747 23.8996C81.9837 22.9367 80.2775 21.0799 80.25 18.0263C80.2362 14.849 82.1488 12.5657 85.8158 11.7129C89.6823 10.812 93.2874 11.4378 96.4453 14.0031C97.1195 14.5533 97.2915 14.9659 96.4659 15.578C95.4202 16.362 94.4776 17.2767 93.4525 18.1639C92.4205 16.9053 91.1202 16.1488 89.531 15.9219C89.1526 15.8668 88.7398 15.8462 88.3683 15.9219C87.4601 16.1007 86.3593 16.2795 86.3387 17.4211C86.3043 18.5421 87.4051 18.6453 88.2513 18.8172C90.0607 19.1748 91.8564 19.5118 93.6176 20.0551C99.0734 21.7126 98.4267 28.081 95.5784 30.378Z" fill="black"/>
<path d="M52.5284 12.6944C52.3151 12.103 51.923 12.0686 51.407 12.0823C49.7489 12.103 48.0771 12.158 46.419 12.0617C45.5728 12.0204 45.2907 12.3918 45.0362 13.0864C44.1831 15.5554 43.2612 18.0175 42.3599 20.4796C40.977 24.2827 39.5942 28.0928 38.1562 32.0335C39.8556 32.0335 41.4311 31.9166 42.9722 32.0679C44.3551 32.2054 44.9811 31.6965 45.1256 30.3967C45.2288 29.4682 45.7035 29.09 46.7011 29.1794C47.8707 29.2825 49.0678 29.3169 50.2374 29.1794C51.6753 29.0075 52.4114 29.4957 52.6041 30.94C52.666 31.4695 52.7279 32.0679 53.5742 32.0472C55.4524 31.9922 57.3375 32.0266 59.1951 32.0266C59.2157 31.8753 59.257 31.7859 59.2363 31.7102C57.0072 25.3693 54.7575 19.0422 52.5284 12.6944ZM50.1755 24.7779H46.7837C47.4717 22.4465 48.0909 20.3214 48.8201 17.8524C49.5081 20.2045 50.0998 22.247 50.6915 24.2965C50.8291 24.7641 50.4919 24.7779 50.1755 24.7779Z" fill="black"/>
<path d="M73.9424 32.0344C70.2204 32.0344 66.4915 31.9794 62.7763 32.0688C61.648 32.0894 61.4141 31.7318 61.4485 30.6727C61.5242 27.7911 61.4691 24.8957 61.4691 22.0141C61.4691 19.0362 61.5035 16.0583 61.4485 13.0805C61.4347 12.2483 61.6893 12.0695 62.4805 12.0764C66.8148 12.1176 71.156 12.1176 75.4835 12.0764C76.3297 12.0764 76.605 12.1726 76.316 13.1217C76.1027 13.8507 76.1027 14.7379 76.316 15.4669C76.6256 16.4779 76.199 16.4916 75.4422 16.4779C73.1581 16.4435 70.8877 16.4916 68.6036 16.4435C67.7986 16.4297 67.4547 16.5879 67.4753 17.5026C67.5166 19.4351 67.4615 19.4351 69.4223 19.4351C71.39 19.4351 73.3645 19.4695 75.3253 19.4145C76.1509 19.3938 76.4674 19.5589 76.4674 20.4805C76.4536 23.7334 76.5017 23.7334 73.2269 23.7334C71.6101 23.7334 69.9865 23.7678 68.3697 23.7197C67.6954 23.6991 67.4822 23.8916 67.4615 24.5862C67.3446 27.6673 67.3239 27.6673 70.358 27.6673C72.3325 27.6673 74.3002 27.7017 76.2747 27.6466C77.0384 27.626 77.3205 27.7842 77.3342 28.637C77.3411 32.0344 77.3755 32.0344 73.9424 32.0344Z" fill="black"/>
<path d="M115.329 16.7622C114.717 17.615 112.976 17.0235 111.724 17.0029C110.733 16.9822 110.486 17.278 110.499 18.2477C110.561 22.4497 110.486 26.6518 110.554 30.8469C110.575 31.8579 110.279 32.1261 109.309 32.0505C108.14 31.968 106.942 31.968 105.773 32.0505C104.803 32.1261 104.514 31.851 104.528 30.8332C104.589 26.638 104.514 22.436 104.583 18.2339C104.603 17.2298 104.321 16.9272 103.337 17.0166C102.388 17.0992 101.418 16.996 100.455 17.051C99.7873 17.0854 99.5052 16.8997 99.5465 16.1845C99.6222 14.8778 99.1337 13.241 99.7667 12.3607C100.372 11.5079 102.12 12.1475 103.358 12.0993C104.762 12.0443 106.158 12.0856 107.562 12.0856C109.928 12.0856 112.281 12.1062 114.648 12.0649C115.322 12.0512 115.597 12.2162 115.556 12.9315C115.48 14.2382 115.955 15.8887 115.329 16.7622Z" fill="black"/>
</svg>
