<svg width="50" height="33" viewBox="0 0 50 33" fill="none" xmlns="http://www.w3.org/2000/svg">
<g id="_&#195;&#131;&#226;&#128;&#152;&#195;&#131;&#194;&#171;&#195;&#131;&#194;&#174;&#195;&#131;&#194;&#169;_1">
<path id="Vector" d="M25.012 2.00032C31.1064 2.00032 37.1988 2.00032 43.2932 2.00032C45.8957 2.00032 46.997 3.11454 46.997 5.74467C46.997 12.975 46.999 20.2053 46.997 27.4336C46.997 29.8054 45.8457 30.9922 43.5171 30.9943C31.1624 31.0003 18.8097 31.0003 6.45496 30.9943C4.1823 30.9943 3.003 29.7933 3.003 27.5083C2.999 20.177 2.999 12.8458 3.003 5.51658C3.003 3.18115 4.1803 2.00638 6.53091 2.00436C12.6913 1.9983 18.8516 2.00032 25.012 2.00032ZM18.0061 15.5163C14.1864 20.1407 10.4286 24.6945 6.59887 29.331H43.4071C39.5434 24.6561 35.7796 20.0983 31.9959 15.5183C30.6826 16.5801 29.4914 17.551 28.2921 18.5098C26.1473 20.2235 23.8667 20.2255 21.7159 18.5138C20.5147 17.557 19.3254 16.5841 18.0061 15.5163ZM44.1867 3.66358H5.86331C6.26507 4.00673 6.53291 4.24693 6.81075 4.473C12.0616 8.71794 17.3125 12.9629 22.5674 17.2058C24.2544 18.5683 25.7396 18.5683 27.4366 17.1997C30.8725 14.4303 34.3005 11.6529 37.7325 8.8774C39.8292 7.18185 41.926 5.48832 44.1867 3.66358ZM4.96384 28.8647C8.90751 24.095 12.8232 19.3555 16.8008 14.5434C12.7652 11.2855 8.7576 8.04577 4.694 4.76367C4.29623 6.94367 4.50011 28.0755 4.96384 28.8647ZM33.1992 14.5474C37.1748 19.3636 41.0865 24.1031 45.0282 28.8768C45.5119 28.0614 45.6458 5.92432 45.2221 4.83432C41.2364 8.05385 37.2648 11.2633 33.1992 14.5474Z" fill="black" stroke="black"/>
</g>
</svg>
