<svg width="101" height="88" viewBox="0 0 101 88" fill="none" xmlns="http://www.w3.org/2000/svg">
<g clip-path="url(#clip0_5279_897)">
<path d="M59.9144 52.6836C59.9144 55.0707 59.8831 57.2817 59.9223 59.4926C59.9536 61.2966 59.0535 62.1693 57.3239 62.181C53.0232 62.2123 48.7186 62.2045 44.4141 62.1889C42.5709 62.181 41.6944 61.2497 41.7413 59.3674C41.7961 57.1604 41.7531 54.9494 41.7531 52.6406C35.1436 51.1653 28.6672 49.7213 22.1947 48.2734C16.9862 47.1111 11.7737 45.9607 6.56912 44.771C2.77328 43.9023 0.773612 41.4213 0.750133 37.555C0.72274 32.9922 0.714914 28.4293 0.750133 23.8626C0.789265 19.4171 3.4894 16.6309 7.97006 16.627C36.525 16.5957 65.0799 16.5957 93.6348 16.627C98.2133 16.6309 100.894 19.4132 100.925 23.9917C100.957 28.488 100.949 32.9883 100.925 37.4885C100.902 41.4722 98.9373 43.9023 94.9732 44.7945C83.9887 47.2716 72.9964 49.7174 62.0041 52.1749C61.3702 52.3158 60.744 52.4801 59.9105 52.6875L59.9144 52.6836ZM41.6592 48.019C41.7922 45.9763 41.6435 43.9806 44.2302 43.9688C48.6639 43.9532 53.0936 43.9492 57.5273 43.9766C58.9831 43.9845 59.8283 44.7436 59.9066 46.2541C59.934 46.7629 59.9966 47.2677 60.0514 47.8429C60.3958 47.8429 60.6619 47.8899 60.9006 47.8351C72.0181 45.358 83.1317 42.8731 94.2453 40.3921C95.7597 40.0517 96.3584 39.0773 96.3467 37.5589C96.3154 33.0626 96.3584 28.5663 96.3271 24.0661C96.3115 21.8277 95.6697 21.2407 93.3335 21.2368C64.9821 21.229 36.6306 21.229 8.27921 21.2368C5.99779 21.2368 5.3795 21.8512 5.36384 24.1443C5.33254 28.5115 5.40689 32.8787 5.32863 37.2459C5.29341 39.2534 6.16606 40.1338 8.09137 40.5408C14.3291 41.8596 20.5394 43.3192 26.7614 44.7162C31.6413 45.808 36.525 46.8842 41.6631 48.0229L41.6592 48.019ZM46.4294 48.6451V57.4852H55.2459V48.6451H46.4294Z" fill="black"/>
<path d="M50.836 87.2496C37.6014 87.2496 24.3668 87.2417 11.1322 87.2535C8.63951 87.2535 6.15852 86.9756 4.6754 84.7607C3.8184 83.4811 3.14532 81.7984 3.12575 80.284C2.98879 70.6379 3.05923 60.9878 3.04358 51.3377C3.04358 49.7607 3.5249 48.6024 5.31717 48.5946C7.16031 48.5867 7.56728 49.8468 7.56728 51.3651C7.57511 60.4908 7.56728 69.6204 7.57511 78.7461C7.57511 82.2445 8.01339 82.6711 11.5275 82.6711C37.7345 82.6711 63.9454 82.6711 90.1523 82.6711C93.6625 82.6711 94.0969 82.2445 94.0969 78.7343C94.1008 69.7378 94.0969 60.7413 94.1047 51.7447C94.1047 50.422 94.0891 49.0446 95.7874 48.6415C97.4466 48.2463 98.5971 49.2207 98.6128 51.1499C98.6519 55.9749 98.6284 60.8 98.6284 65.625C98.6284 70.2544 98.6402 74.8837 98.6284 79.5131C98.6089 84.6942 96.0457 87.23 90.7354 87.2417C77.4343 87.2652 64.1371 87.2496 50.836 87.2496Z" fill="black"/>
<path d="M69.0888 8.85174C69.0653 9.05914 69.2179 9.93962 68.8501 10.4366C68.3413 11.1253 67.4256 11.9471 66.7095 11.9236C65.9856 11.9002 65.242 10.9688 64.6159 10.3309C64.4085 10.1196 64.5259 9.5796 64.5142 9.18828C64.4164 5.5607 64.0916 5.25156 60.3818 5.25156C53.7958 5.25156 47.2098 5.24373 40.6238 5.25156C37.7985 5.25156 37.2115 5.85419 37.1724 8.69521C37.1645 9.15306 37.3289 9.74787 37.1019 10.0374C36.5189 10.7731 35.8575 11.7201 35.0514 11.9471C33.8735 12.2758 32.9069 11.5323 32.7191 10.1979C31.9678 4.8524 34.2961 0.735674 39.9312 0.696542C47.1707 0.64567 54.4063 0.62219 61.6458 0.704368C66.4943 0.759154 69.0066 3.43581 69.0888 8.85565V8.85174Z" fill="black"/>
</g>
<defs>
<clipPath id="clip0_5279_897">
<rect width="100.222" height="86.6079" fill="white" transform="translate(0.726562 0.648438)"/>
</clipPath>
</defs>
</svg>
