<svg width="87" height="111" viewBox="0 0 87 111" fill="none" xmlns="http://www.w3.org/2000/svg">
<g clip-path="url(#clip0_5279_164)">
<path d="M69.8914 37.2452C68.3255 38.9031 66.7899 40.5955 65.1765 42.2102C63.6883 43.6997 61.9671 43.8335 60.8196 42.6592C59.6291 41.4417 59.793 39.9004 61.3546 38.3203C64.4863 35.1513 67.6353 31.9954 70.8059 28.861C72.6306 27.0563 73.9463 27.052 75.7797 28.861C78.9546 31.991 82.1036 35.1427 85.2354 38.3116C86.7322 39.827 86.8746 41.5367 85.6883 42.6635C84.4718 43.8206 82.893 43.6435 81.353 42.1195C79.7224 40.5048 78.135 38.847 75.9997 36.6667C75.9997 39.5378 76.0169 41.7612 75.9997 43.9889C75.9522 48.6646 74.5503 52.8956 71.7204 56.6172C67.5965 62.0354 62.0663 64.8374 55.3067 65.2518C53.2404 65.377 51.8514 64.302 51.791 62.6355C51.7349 61.0079 52.8953 59.9415 54.8926 59.7861C64.4216 59.0435 70.422 52.6538 70.5212 43.1427C70.5385 41.2863 70.5212 39.4298 70.5212 37.5734C70.3099 37.4611 70.1028 37.3532 69.8914 37.2409V37.2452Z" fill="black"/>
<path d="M83.8052 10.7195C83.8268 16.5479 79.086 21.3574 73.3099 21.3574C67.5813 21.3574 62.7111 16.4529 62.7542 10.7238C62.8016 5.05511 67.5726 0.245586 73.2021 0.193777C78.9825 0.141969 83.788 4.91263 83.8095 10.7195H83.8052ZM78.344 10.9008C78.4044 8.07293 76.213 5.78905 73.4048 5.74156C70.5577 5.69407 68.2973 7.85706 68.2456 10.6849C68.1938 13.5041 70.3938 15.8053 73.1977 15.8571C76.0319 15.9089 78.2836 13.7416 78.344 10.9008Z" fill="black"/>
<path d="M21.7016 100.463C21.5765 106.257 16.6761 110.911 10.8742 110.743C5.21887 110.579 0.624749 105.709 0.728279 99.9798C0.831808 94.16 5.67182 89.4757 11.4652 89.5879C17.2154 89.7002 21.8267 94.6003 21.7016 100.463ZM11.1373 105.217C13.9369 105.256 16.2232 103.049 16.3009 100.239C16.3742 97.4757 14.1052 95.1443 11.3055 95.1098C8.48868 95.0753 6.19809 97.2771 6.14633 100.079C6.09025 102.859 8.34202 105.178 11.1373 105.217Z" fill="black"/>
<path d="M31.4978 41.2335C29.6731 43.1504 28.0856 44.8946 26.4162 46.5611C24.9193 48.0549 23.1852 48.206 22.0507 47.0576C20.8515 45.8444 20.9938 44.2729 22.5597 42.7101C24.2335 41.0349 25.9762 39.4332 28.0425 37.4645C26.0539 35.6253 24.2335 34.0236 22.508 32.3225C20.9637 30.7985 20.8731 29.1579 22.1111 27.9793C23.2327 26.9086 24.9237 27.0554 26.317 28.424C28.008 30.0818 29.6515 31.7872 31.5323 33.6954C33.2707 31.9685 34.9186 30.3106 36.5837 28.6744C38.2272 27.0597 39.8923 26.8352 41.0958 28.0397C42.3339 29.2788 42.1398 30.8633 40.4574 32.5298C38.8268 34.1444 37.1401 35.703 35.1256 37.6199C36.6009 38.9496 37.908 40.0463 39.1201 41.2378C42.1053 44.1736 42.5711 45.6717 41.0527 47.0922C39.5774 48.4694 38.0892 47.947 35.1645 45.0069C34.0515 43.8887 32.9645 42.7446 31.5021 41.2378L31.4978 41.2335Z" fill="black"/>
<path d="M40.9669 98.9695C39.1896 100.856 37.7014 102.505 36.1398 104.077C34.3928 105.838 32.6889 106.054 31.4724 104.772C30.2732 103.503 30.4975 101.992 32.223 100.278C33.8406 98.6673 35.51 97.1044 37.4598 95.2307C35.4712 93.3742 33.6767 91.7336 31.9167 90.0456C30.6139 88.7935 30.1955 87.3645 31.4853 85.8664C32.6026 84.5669 34.2763 84.7093 35.8077 86.2333C37.4857 87.9042 39.0904 89.6441 41.243 91.8848C42.9642 89.9376 44.4653 88.133 46.083 86.4363C47.7222 84.718 49.3312 84.5496 50.5606 85.8102C51.7987 87.0709 51.6132 88.6252 49.9006 90.3132C48.2701 91.9236 46.5575 93.4519 44.5732 95.3041C46.6265 97.2383 48.3865 98.8961 50.1422 100.558C51.4622 101.81 51.8979 103.222 50.621 104.729C49.5297 106.011 47.7783 105.877 46.2814 104.409C44.5948 102.756 42.9728 101.029 40.9712 98.9695H40.9669Z" fill="black"/>
<path d="M73.3115 84.8647C71.4005 86.8679 69.8087 88.6208 68.1307 90.2873C66.595 91.8113 64.9429 91.9365 63.7738 90.7449C62.6221 89.5706 62.7817 87.9127 64.3174 86.406C65.9997 84.7524 67.7683 83.1809 69.8734 81.2295C67.764 79.2824 65.9738 77.6504 64.2052 75.9926C62.8766 74.7448 62.4883 73.3158 63.748 71.8177C64.8178 70.5484 66.5907 70.6865 68.0746 72.1674C69.7484 73.8382 71.3401 75.591 73.3072 77.6677C75.1319 75.7421 76.715 74.0109 78.3629 72.3444C79.9676 70.7211 81.6758 70.5354 82.8578 71.7659C84.0743 73.0309 83.8672 74.5721 82.1546 76.2645C80.5284 77.8749 78.8374 79.4205 76.8358 81.3115C78.859 83.1852 80.6578 84.8215 82.4221 86.501C83.7292 87.7444 84.1476 89.1864 82.8707 90.6758C81.7664 91.971 80.0452 91.8199 78.5354 90.3218C76.8617 88.651 75.2613 86.9111 73.3072 84.8647H73.3115Z" fill="black"/>
<path d="M46.4145 62.544C46.4275 63.9946 45.1075 65.3934 43.6883 65.2726C42.1655 65.143 41.1777 64.2709 41.0396 62.6908C40.9145 61.2574 42.2087 59.8888 43.6451 59.8413C45.073 59.7895 46.4059 61.0891 46.4189 62.544H46.4145Z" fill="black"/>
<path d="M30.2426 62.5797C30.2383 61.1506 31.5669 59.8166 32.9775 59.8381C34.401 59.8597 35.7426 61.2283 35.6218 62.6617C35.4924 64.2332 34.5348 65.1355 32.9991 65.2823C31.6057 65.4162 30.2426 64.0087 30.2383 62.584L30.2426 62.5797Z" fill="black"/>
<path d="M13.8792 81.0145C13.8749 82.7933 12.6239 84.0712 11.1227 83.9331C9.55682 83.7863 8.62505 82.8926 8.59054 81.2606C8.55603 79.7064 9.8027 78.4716 11.3341 78.6011C12.9129 78.735 13.7929 79.6416 13.8835 81.0145H13.8792Z" fill="black"/>
<path d="M25.0815 64.2618C24.952 65.665 24.2058 66.7616 22.4587 66.7961C20.8669 66.8307 19.9007 65.9715 19.7238 64.387C19.5513 62.876 20.7332 61.5592 22.2128 61.4858C23.7485 61.4124 25.0211 62.5435 25.0815 64.2575V64.2618Z" fill="black"/>
<path d="M14.4922 68.3984C15.8209 68.4546 16.744 69.2835 16.8907 70.8939C17.033 72.4611 15.8899 73.7174 14.324 73.7045C12.715 73.6915 11.766 72.8539 11.6279 71.2263C11.4942 69.6591 12.6201 68.4589 14.4922 68.3984Z" fill="black"/>
</g>
<defs>
<clipPath id="clip0_5279_164">
<rect width="85.757" height="110.554" fill="white" transform="translate(0.726562 0.193359)"/>
</clipPath>
</defs>
</svg>
