<svg width="110" height="111" viewBox="0 0 110 111" fill="none" xmlns="http://www.w3.org/2000/svg">
<g clip-path="url(#clip0_5279_610)">
<path d="M30.6685 76.2517C29.0197 76.2517 27.3666 76.2949 25.7221 76.2431C19.9191 76.0576 15.2569 71.588 14.8307 65.7809C14.7145 64.2062 14.6887 62.6142 14.7662 61.0395C14.9125 58.0022 13.7287 55.789 11.4213 53.7569C2.35084 45.7582 -1.14904 35.6368 1.68789 23.8674C4.43872 12.4647 11.8474 5.02678 23.1779 1.98519C36.6437 -1.6302 50.6432 4.70752 57.0661 16.9602C63.5622 29.3552 60.7683 44.4207 50.0663 53.58C47.5351 55.7458 46.2996 58.1359 46.5062 61.4148C46.6052 62.9852 46.5535 64.5815 46.4115 66.1519C45.925 71.5966 41.3016 75.9929 35.8343 76.2301C34.1167 76.3035 32.3947 76.2431 30.6728 76.2431V76.2517H30.6685ZM33.2514 52.1347C36.8417 52.1347 40.1909 52.1477 43.5358 52.1132C43.8501 52.1132 44.2203 51.8888 44.4657 51.6645C46.0025 50.2623 47.6169 48.9249 49.0116 47.3933C55.8823 39.8691 57.2684 28.5743 52.5158 19.4754C47.703 10.2644 37.5434 4.8197 27.4398 6.40305C17.1726 8.01228 10.0695 13.8237 7.07331 23.8544C4.0771 33.8852 6.89681 42.5526 14.5337 49.6497C15.4722 50.5212 16.4537 51.8974 17.5084 51.988C20.9566 52.2857 24.4479 52.1002 28.0339 52.1002C28.0339 47.0913 28.0769 42.4189 27.9779 37.7508C27.965 37.1511 27.3063 36.4177 26.7596 35.9992C24.6545 34.3986 23.5309 32.332 23.7031 29.696C23.9184 26.3697 26.3593 23.8113 29.6611 23.2591C32.6186 22.7629 35.7439 24.5188 36.9967 27.3835C38.3226 30.4251 37.3927 33.773 34.7108 35.8568C34.1425 36.3012 33.3289 36.944 33.316 37.5092C33.204 42.3024 33.2514 47.0999 33.2514 52.139V52.1347ZM20.1645 65.5436C20.4917 68.6844 22.6226 70.9063 25.6016 71.0142C28.968 71.1393 32.3431 71.1393 35.7095 71.0142C38.6842 70.8977 40.8323 68.6327 41.1035 65.5479H20.1645V65.5436ZM20.0311 60.1464H41.2499C41.3575 59.2447 41.4565 58.4207 41.5685 57.4715H19.7125C19.8244 58.4293 19.9234 59.2577 20.0311 60.1464ZM30.5867 32.7074C31.4433 31.4864 32.356 30.753 32.2699 30.162C32.1752 29.5062 31.2324 28.6519 30.5393 28.5182C30.1045 28.4362 29.0326 29.4975 28.9982 30.0886C28.9637 30.753 29.7774 31.4606 30.5867 32.7074Z" fill="black"/>
<path d="M105.244 66.3386C104.392 67.6804 103.647 68.8841 102.872 70.0662C101.633 71.9559 101.964 72.9007 104.173 73.3106C109.02 74.2036 109.304 74.1518 109.196 79.6353C109.162 81.4344 109.128 83.2335 109.205 85.0282C109.3 87.2415 108.258 88.4495 106.136 88.6566C101.435 89.1139 101.163 90.3391 103.919 93.8424C105.542 95.9046 105.339 96.7631 103.454 98.6787C101.637 100.521 99.7687 102.311 97.9864 104.184C96.6046 105.638 95.1452 105.823 93.6256 104.555C89.8674 101.427 88.8084 101.837 88.1885 106.759C87.9345 108.761 86.8583 109.65 84.8737 109.624C82.1487 109.585 79.4194 109.594 76.6944 109.624C74.8519 109.646 73.8015 108.899 73.3925 106.988C72.3034 101.876 72.2345 101.858 67.7746 104.693C66.2679 105.651 64.998 105.62 63.7367 104.335C61.722 102.285 59.6857 100.258 57.6452 98.2343C56.3624 96.9573 56.3925 95.663 57.3525 94.1746C60.2195 89.7394 60.1937 89.7006 55.157 88.635C53.2585 88.2338 52.3071 87.2242 52.3631 85.2008C52.4363 82.5432 52.4492 79.8769 52.3631 77.2193C52.2899 75.0837 53.293 73.893 55.3034 73.7204C60.2454 73.2976 60.3444 71.8653 57.529 68.4009C56.2246 66.796 56.3538 65.3118 57.8906 63.8536C59.8192 62.0243 61.6918 60.1347 63.5214 58.2062C64.9808 56.6659 66.4401 56.5969 68.0631 57.8783C71.7481 60.7775 72.6995 60.6179 73.3581 55.6435C73.6379 53.5251 74.7787 52.6752 76.8451 52.7184C79.4969 52.7788 82.153 52.7658 84.8091 52.7184C86.7722 52.6838 87.9216 53.4906 88.1799 55.514C88.8428 60.7085 89.9147 60.7645 93.5739 57.8222C95.2141 56.502 96.6777 56.7479 98.107 58.2622C99.9796 60.2468 101.981 62.1106 103.858 64.0909C104.414 64.6776 104.741 65.4844 105.253 66.33L105.244 66.3386ZM57.6667 83.8936C60.8136 84.0187 62.7767 84.9635 64.2188 88.1129C65.7815 91.5213 64.1499 93.4929 62.8326 95.4041C64.081 96.9185 65.1228 98.1825 66.1173 99.3906C69.0216 97.6102 71.9963 97.2952 75.0413 98.4457C75.1102 98.4716 75.1963 98.4802 75.2393 98.5277C76.0357 99.4294 77.2239 100.219 77.5468 101.267C78.5154 104.434 78.3862 104.477 81.7096 104.412C82.2004 104.404 82.6911 104.356 83.3498 104.318C83.7889 101.522 84.2323 99.1921 87.5471 97.8331C90.892 96.4611 92.954 97.5354 95.1237 99.3474C96.4367 98.0229 97.6205 96.8279 98.8302 95.6026C98.5547 95.1798 98.2835 94.7613 98.0037 94.3471C95.2055 90.2183 97.19 84.916 102.05 84.1783C104.414 83.8202 103.91 82.4267 104.031 80.9943C104.168 79.3463 103.88 78.3842 101.895 78.1383C100.643 77.983 98.9938 77.2323 98.3997 76.227C96.6089 73.2113 95.3992 69.9497 98.6838 66.9685C98.7742 66.8865 98.7785 66.7053 98.7312 66.852C97.5387 65.4715 96.441 64.1944 95.27 62.8354C92.8894 64.9624 90.8575 65.808 87.5858 64.5396C84.1505 63.2064 83.8621 60.6696 83.2852 58.0422H78.1021C77.8395 60.9199 77.2583 63.159 73.9694 64.5396C70.6202 65.9417 68.5667 64.7294 66.2852 62.9692C64.9937 64.2505 63.8443 65.3938 62.6045 66.6277C64.236 68.9272 65.6437 70.8298 64.2532 74.1993C62.8585 77.5774 60.5898 78.1814 57.6711 78.5568V83.8849L57.6667 83.8936Z" fill="black"/>
<path d="M68.6514 15.2915C70.2098 17.0172 71.639 18.6912 73.1673 20.2702C74.3812 21.5257 74.9021 22.8545 73.6021 24.2351C72.3192 25.5984 70.8986 25.2791 69.6243 24.0754C66.3913 21.0123 63.1412 17.9664 59.9469 14.8601C58.3928 13.3501 58.3584 12.0471 59.8651 10.576C63.1024 7.41357 66.4043 4.31589 69.6889 1.20096C70.8943 0.053352 72.2503 -0.240021 73.503 0.998186C74.8376 2.32268 74.5233 3.72914 73.2577 4.96304C71.639 6.53776 69.9946 8.0866 67.8808 10.0971C69.224 10.0971 69.9042 10.0971 70.5886 10.0971C75.8277 10.0971 81.0667 10.0496 86.3058 10.1143C93.9685 10.2049 99.9825 16.0767 100.107 23.7734C100.241 32.044 100.155 40.3188 100.137 48.5937C100.133 50.7681 99.0225 52.1486 97.3995 51.9631C95.4193 51.7388 94.9371 50.3625 94.9458 48.5591C94.9802 40.7157 94.9716 32.8766 94.9587 25.0332C94.9458 18.7645 91.4846 15.3088 85.221 15.3001C79.6978 15.2915 74.1746 15.3001 68.6557 15.3001L68.6514 15.2915Z" fill="black"/>
<path d="M42.5756 100.534C36.7167 100.534 30.8577 100.555 24.9944 100.516C23.4963 100.508 21.9595 100.486 20.513 100.15C14.4044 98.726 10.0736 93.4668 9.84116 87.155C9.70341 83.4231 9.80673 79.6783 9.80673 75.9421C9.80673 74.2077 10.517 72.9825 12.3552 72.8142C13.9437 72.6675 14.964 73.9359 14.9812 76.0111C15.0113 79.3159 14.9726 82.625 14.9941 85.9297C15.0372 91.6678 18.5285 95.2659 24.1937 95.3177C30.0613 95.3694 35.9289 95.3306 42.1279 94.8431C40.7503 93.5661 39.3599 92.3063 38.0038 91.0034C36.2689 89.338 36.0279 88.0092 37.1773 86.7451C38.3611 85.4336 39.8377 85.6105 41.6415 87.3103C44.6678 90.1707 47.6941 93.0311 50.6861 95.926C52.5027 97.6819 52.4984 98.8985 50.6774 100.663C47.5822 103.657 44.4569 106.621 41.3186 109.572C39.7774 111.017 38.2492 111.134 37.1945 109.87C35.8901 108.308 36.5057 106.971 37.8187 105.745C39.489 104.188 41.1292 102.592 42.7823 101.013C42.7134 100.853 42.6488 100.689 42.5799 100.529L42.5756 100.534Z" fill="black"/>
<path d="M68.1877 81.2702C68.1447 74.2896 73.6808 68.6034 80.6246 68.4955C87.4909 68.392 93.281 74.0696 93.3542 80.9855C93.4274 88.0739 87.8181 93.8292 80.8054 93.855C73.8831 93.8853 68.2351 88.2464 68.1877 81.2702ZM88.1711 81.1321C88.1582 77.0465 84.8348 73.7029 80.7839 73.6943C76.733 73.6856 73.4096 77.0163 73.3795 81.1106C73.3493 85.3084 76.7459 88.7296 80.87 88.6563C84.9338 88.583 88.1883 85.2351 88.1754 81.1321H88.1711Z" fill="black"/>
</g>
<defs>
<clipPath id="clip0_5279_610">
<rect width="108.488" height="110.554" fill="white" transform="translate(0.726562 0.191406)"/>
</clipPath>
</defs>
</svg>
