<svg width="49" height="67" viewBox="0 0 49 67" fill="none" xmlns="http://www.w3.org/2000/svg">
<g id="Layer_1" clip-path="url(#clip0_5295_143)">
<path id="Vector" d="M23.6216 60.8449C24.0706 61.3486 24.9351 61.3486 25.3841 60.8449L37.5134 47.2593C37.9502 46.771 37.9105 46.0184 37.4218 45.5792C36.9361 45.14 36.1847 45.1799 35.7479 45.6713L25.6865 56.944L25.6865 1.19204C25.6865 0.534724 25.158 0.000273545 24.5013 0.000273488C23.8446 0.00027343 23.3162 0.534724 23.3162 1.19204L23.3162 56.9409L13.2517 45.6683C13.0165 45.4041 12.6958 45.272 12.372 45.272C12.091 45.272 11.8069 45.3734 11.5809 45.5761C11.0921 46.0153 11.0524 46.7679 11.4892 47.2563L23.6186 60.8418L23.6216 60.8449Z" fill="black"/>
</g>
<defs>
<clipPath id="clip0_5295_143">
<rect width="49" height="67" fill="white" transform="translate(49 67) rotate(-180)"/>
</clipPath>
</defs>
</svg>
