<svg width="442" height="88" viewBox="0 0 442 88" fill="none" xmlns="http://www.w3.org/2000/svg">
<path d="M416.365 82.0218C412.068 82.0218 408.217 81.3406 404.811 79.9782C401.404 78.5896 398.706 76.5328 396.715 73.808C394.75 71.0831 393.767 67.7033 393.767 63.6684C393.767 63.3278 393.767 62.9872 393.767 62.6466C393.767 62.306 393.767 61.9654 393.767 61.6248H409.605C409.605 61.913 409.605 62.2012 409.605 62.4894C409.605 62.7776 409.605 63.0658 409.605 63.354C409.605 65.188 410.168 66.7207 411.295 67.9522C412.448 69.1836 414.19 69.7993 416.522 69.7993C418.775 69.7993 420.544 69.4718 421.828 68.8168C423.138 68.1356 423.793 67.0352 423.793 65.5155C423.793 64.3889 423.177 63.3409 421.946 62.3715C420.74 61.4021 419.103 60.485 417.033 59.6204C414.989 58.7558 412.71 57.9305 410.195 57.1445C407.47 56.2799 404.876 55.1139 402.413 53.6467C399.977 52.1795 397.985 50.28 396.439 47.9481C394.894 45.5901 394.121 42.6687 394.121 39.1841C394.121 35.5946 395.116 32.5291 397.108 29.9877C399.099 27.4201 401.771 25.455 405.125 24.0926C408.505 22.7302 412.251 22.049 416.365 22.049C420.636 22.049 424.448 22.7171 427.801 24.0533C431.181 25.3895 433.854 27.3545 435.819 29.9484C437.784 32.5422 438.766 35.7518 438.766 39.5771C438.766 39.9177 438.766 40.2452 438.766 40.5596C438.766 40.874 438.766 41.2015 438.766 41.5421H422.928C422.928 41.4111 422.928 41.2146 422.928 40.9526C422.928 40.6644 422.928 40.4548 422.928 40.3238C422.928 38.6208 422.443 37.1797 421.474 36.0007C420.531 34.8217 418.893 34.2322 416.561 34.2322C414.256 34.2322 412.474 34.6514 411.217 35.4898C409.985 36.3282 409.369 37.5465 409.369 39.1448C409.369 40.2714 409.893 41.267 410.941 42.1316C411.989 42.97 413.43 43.756 415.264 44.4897C417.125 45.2233 419.221 46.0093 421.553 46.8477C425.063 48.0791 428.142 49.4415 430.788 50.935C433.435 52.4022 435.491 54.2493 436.958 56.4764C438.452 58.7034 439.199 61.5593 439.199 65.0439C439.199 68.6858 438.216 71.7774 436.251 74.3189C434.286 76.8341 431.574 78.7468 428.116 80.0568C424.684 81.3668 420.767 82.0218 416.365 82.0218Z" fill="black"/>
<path d="M88.5863 0.777247H63.8349C62.0543 0.777247 60.4516 2.19834 60.4516 4.15235V41.6338H59.9174L41.3985 2.55362C40.8643 1.31016 39.6178 0.599609 38.3713 0.599609H4.00437C2.2237 0.599609 0.621094 2.02071 0.621094 3.97472V76.9836C0.621094 78.76 2.04563 80.3587 4.00437 80.3587H28.7557C30.5364 80.3587 32.139 78.9376 32.139 76.9836V39.3245H32.6732L52.4386 78.5823C52.9728 79.6481 54.2193 80.3587 55.4658 80.3587H88.5863C90.3669 80.3587 91.9695 78.9376 91.9695 76.9836V3.97472C91.9695 2.19835 90.545 0.777247 88.5863 0.777247Z" fill="black"/>
<path d="M183.237 57.5977H136.583V45.3407H180.744C181.812 45.3407 182.703 44.4525 182.703 43.3867V37.5247C182.703 36.4589 181.812 35.5707 180.744 35.5707H136.583V24.3796H182.881C184.662 24.3796 186.264 22.9585 186.264 21.0044V3.95128C186.264 2.17491 184.84 0.576172 182.881 0.576172H105.778C103.997 0.576172 102.395 1.99727 102.395 3.95128V77.1378C102.395 78.9142 103.819 80.5129 105.778 80.5129H183.237C185.018 80.5129 186.62 79.0918 186.62 77.1378V61.1504C186.62 59.1964 185.196 57.5977 183.237 57.5977Z" fill="black"/>
<path d="M288.198 32.219C288.198 4.50762 272.35 0.599609 251.16 0.599609H200.055C198.274 0.599609 196.672 2.02071 196.672 3.97472V76.9836C196.672 78.76 198.096 80.3587 200.055 80.3587H227.477C229.258 80.3587 230.861 78.9376 230.861 76.9836V62.9502H236.559C238.34 71.6545 245.462 78.5823 254.366 80.0034C255.434 80.181 256.502 80.3587 257.749 80.3587H284.637C286.418 80.3587 288.02 78.9376 288.02 76.9836V62.9502C288.02 61.1739 286.596 59.5751 284.637 59.5751H273.597C283.213 55.8448 288.198 48.0287 288.198 32.219ZM244.038 42.6996H231.039V24.2253H246.353C250.092 24.2253 253.297 27.0675 253.653 30.9756C254.188 39.5021 251.517 42.522 244.038 42.6996Z" fill="black"/>
<path d="M347.237 0.576172H302.008C300.228 0.576172 298.625 1.99727 298.625 3.95128V76.6049C298.625 78.7365 300.406 80.3352 302.364 80.3352H347.059C374.304 80.3352 388.371 69.8546 388.371 40.8998C388.371 40.7222 388.371 40.5445 388.371 40.3669C388.371 40.1893 388.371 40.0116 388.371 39.834C388.549 11.0568 374.482 0.576172 347.237 0.576172ZM341.361 55.8213H332.102V46.9395V25.0901H341.361C351.511 25.0901 354.182 30.5968 354.36 40.5445C354.36 50.3146 351.511 55.8213 341.361 55.8213Z" fill="black"/>
</svg>
