<svg width="789" height="191" viewBox="0 0 789 191" fill="none" xmlns="http://www.w3.org/2000/svg">
<path d="M121.834 97.64H120.591L83.0874 4.61481C82.0514 1.70018 79.565 0 76.8714 0H6.83759C3.10798 0 0 3.64329 0 8.01523V182.65C0 187.022 3.10798 190.665 6.83759 190.665H57.1873C60.9169 190.665 64.025 187.022 64.025 182.65V92.2965H65.2682L105.465 186.293C106.708 188.965 108.987 190.665 111.474 190.665H179.021C182.751 190.665 185.859 187.022 185.859 182.65V8.01523C185.859 3.64329 182.751 0 179.021 0H128.672C124.942 0 121.834 3.64329 121.834 8.01523V97.64Z" fill="#FFFDF8"/>
<path d="M366.129 107.104C368.408 107.104 370.066 104.918 370.066 102.489V88.4019C370.066 85.7302 368.201 83.7871 366.129 83.7871H276.204V56.8268H370.273C374.003 56.8268 377.111 53.1836 377.111 48.8116V8.24971C377.111 3.87777 374.003 0.234517 370.273 0.234517H213.629C209.9 0.234517 206.792 3.87777 206.792 8.24971V183.127C206.792 187.499 209.9 190.9 213.422 190.9H371.102C374.831 190.9 377.94 187.256 377.94 182.884V144.751C377.94 140.38 374.831 136.736 371.102 136.736H275.997V107.104H366.129Z" fill="#FFFDF8"/>
<path d="M585.132 75.5374C585.132 9.22966 552.808 0 509.918 0H406.11C402.381 0 399.273 3.64329 399.273 8.01523V182.65C399.273 187.022 402.381 190.665 406.11 190.665H461.847C465.577 190.665 468.685 187.022 468.685 182.65V148.889H480.495C484.225 169.777 498.522 186.05 516.755 189.694C518.827 190.179 521.107 190.665 523.593 190.665H578.501C582.231 190.665 585.339 187.022 585.339 182.65V148.889C585.339 144.517 582.231 140.874 578.501 140.874H556.124C574.772 131.887 585.132 113.185 585.132 75.5374ZM468.478 56.1066H499.765C507.431 56.1066 513.855 63.1502 514.476 72.137C515.927 93.0252 510.332 100.069 494.999 100.555H468.478V56.1066Z" fill="#FFFDF8"/>
<path d="M788.812 94.2396C788.812 25.0172 760.218 0 704.896 0H613.106C609.376 0 606.268 3.64329 606.268 8.01523V181.678C606.268 186.779 609.791 190.665 613.935 190.665H704.896C760.425 190.665 788.812 165.648 788.812 96.4256C788.812 95.9398 788.812 95.6969 788.812 95.454C788.812 94.9683 788.812 94.7254 788.812 94.2396ZM693.085 132.13H674.437V58.5354H693.085C713.805 58.5354 719.193 71.8941 719.4 95.2111C719.193 119.014 713.805 132.13 693.085 132.13Z" fill="#FFFDF8"/>
<path d="M585.132 75.5374C585.132 9.22966 552.808 0 509.918 0H406.11C402.381 0 399.273 3.64329 399.273 8.01523V182.65C399.273 187.022 402.381 190.665 406.11 190.665H461.847C465.577 190.665 468.685 187.022 468.685 182.65V148.889H480.495C484.225 169.777 498.522 186.05 516.755 189.694C518.827 190.179 521.107 190.665 523.593 190.665H578.501C582.231 190.665 585.339 187.022 585.339 182.65V148.889C585.339 144.517 582.231 140.874 578.501 140.874H556.124C574.772 131.887 585.132 113.185 585.132 75.5374ZM468.478 56.1066H499.765C507.431 56.1066 513.855 63.1502 514.476 72.137C515.927 93.0252 510.332 100.069 494.999 100.555H468.478V56.1066Z" fill="#FFFDF8"/>
</svg>
