<svg width="128" height="27" viewBox="0 0 128 27" fill="none" xmlns="http://www.w3.org/2000/svg">
<path d="M20.3142 13.9175H20.1135L14.0587 1.07647C13.8915 0.674143 13.4901 0.439453 13.0552 0.439453L1.74844 0.439453C1.14631 0.439453 0.644531 0.942365 0.644531 1.54586V25.6521C0.644531 26.2556 1.14631 26.7585 1.74844 26.7585H9.87725C10.4794 26.7585 10.9812 26.2556 10.9812 25.6521V13.1799H11.1819L17.6716 26.155C17.8723 26.5238 18.2402 26.7585 18.6416 26.7585H29.547C30.1491 26.7585 30.6509 26.2556 30.6509 25.6521V1.54586C30.6509 0.942365 30.1491 0.439453 29.547 0.439453L21.4182 0.439453C20.816 0.439453 20.3142 0.942365 20.3142 1.54586V13.9175Z" fill="black"/>
<path d="M45.2376 15.2247H59.7557C60.1237 15.2247 60.3913 14.923 60.3913 14.5877V12.6431C60.3913 12.2743 60.0903 12.0061 59.7557 12.0061H45.2376V8.28454H60.4248C61.0269 8.28454 61.5287 7.78163 61.5287 7.17814V1.57906C61.5287 0.975563 61.0269 0.472656 60.4248 0.472656H35.1351C34.533 0.472656 34.0312 0.975563 34.0312 1.57906V25.7188C34.0312 26.3223 34.533 26.7917 35.1017 26.7917H60.5586C61.1607 26.7917 61.6625 26.2887 61.6625 25.6853V20.4215C61.6625 19.818 61.1607 19.315 60.5586 19.315H45.2042V15.2247H45.2376Z" fill="black"/>
<path d="M95.1118 10.8665C95.1118 1.7135 89.8933 0.439453 82.9688 0.439453H66.2094C65.6073 0.439453 65.1055 0.942365 65.1055 1.54586V25.6521C65.1055 26.2556 65.6073 26.7585 66.2094 26.7585H75.208C75.8101 26.7585 76.3119 26.2556 76.3119 25.6521V20.9917H78.2186C78.8208 23.8751 81.129 26.1214 84.0727 26.6244C84.4072 26.6914 84.7752 26.7585 85.1766 26.7585H94.0414C94.6435 26.7585 95.1453 26.2556 95.1453 25.6521V20.9917C95.1453 20.3882 94.6435 19.8853 94.0414 19.8853H90.4286C93.4393 18.6448 95.1118 16.0632 95.1118 10.8665ZM76.2784 8.18428H81.3296C82.5674 8.18428 83.6044 9.15658 83.7048 10.3971C83.9389 13.2804 83.0357 14.2527 80.5603 14.3198H76.2784V8.18428Z" fill="black"/>
<path d="M127.997 13.4481C127.997 3.89278 123.38 0.439453 114.448 0.439453H99.6293C99.0272 0.439453 98.5254 0.942365 98.5254 1.54586V25.5179C98.5254 26.222 99.0941 26.7585 99.7631 26.7585H114.448C123.414 26.7585 127.997 23.3051 127.997 13.7498C127.997 13.6828 127.997 13.6492 127.997 13.6157C127.997 13.5487 127.997 13.5151 127.997 13.4481ZM112.542 18.6784H109.531V15.7279V8.51956H112.542C115.887 8.51956 116.757 10.3636 116.79 13.5822C116.757 16.8679 115.887 18.6784 112.542 18.6784Z" fill="black"/>
</svg>
