<svg width="127" height="27" viewBox="0 0 127 27" fill="none" xmlns="http://www.w3.org/2000/svg">
<g id="logo">
<path id="Vector" d="M19.4955 13.7903H19.2965L13.2954 1.06302C13.1296 0.664251 12.7317 0.431641 12.3007 0.431641H1.09413C0.497329 0.431641 0 0.930097 0 1.52824V25.4209C0 26.019 0.497329 26.5175 1.09413 26.5175H9.15093C9.74773 26.5175 10.2451 26.019 10.2451 25.4209V13.0592H10.444L16.8762 25.9193C17.0751 26.2849 17.4398 26.5175 17.8377 26.5175H28.6464C29.2432 26.5175 29.7405 26.019 29.7405 25.4209V1.52824C29.7405 0.930097 29.2432 0.431641 28.6464 0.431641H20.5896C19.9928 0.431641 19.4955 0.930097 19.4955 1.52824V13.7903Z" fill="#FFFDF8"/>
<path id="Vector_2" d="M44.2009 15.0862H58.5903C58.9551 15.0862 59.2203 14.7871 59.2203 14.4548V12.5275C59.2203 12.1619 58.9219 11.8961 58.5903 11.8961H44.2009V8.20752H59.2535C59.8503 8.20752 60.3476 7.70907 60.3476 7.11092V1.56144C60.3476 0.963295 59.8503 0.464844 59.2535 0.464844H34.1879C33.5911 0.464844 33.0938 0.963295 33.0938 1.56144V25.4873C33.0938 26.0855 33.5911 26.5507 34.1547 26.5507H59.3861C59.9829 26.5507 60.4802 26.0522 60.4802 25.4541V20.2369C60.4802 19.6388 59.9829 19.1403 59.3861 19.1403H44.1677V15.0862H44.2009Z" fill="#FFFDF8"/>
<path id="Vector_3" d="M93.6312 10.7663C93.6312 1.6944 88.4589 0.431641 81.5957 0.431641H64.9848C64.388 0.431641 63.8906 0.930097 63.8906 1.52824V25.4209C63.8906 26.019 64.388 26.5175 64.9848 26.5175H73.9036C74.5004 26.5175 74.9977 26.019 74.9977 25.4209V20.8019H76.8876C77.4844 23.6597 79.7722 25.8861 82.6899 26.3846C83.0214 26.451 83.3861 26.5175 83.784 26.5175H92.5702C93.167 26.5175 93.6643 26.019 93.6643 25.4209V20.8019C93.6643 20.2037 93.167 19.7053 92.5702 19.7053H88.9894C91.9734 18.4757 93.6312 15.917 93.6312 10.7663ZM74.9646 8.10786H79.9711C81.1978 8.10786 82.2257 9.07154 82.3251 10.3011C82.5572 13.1589 81.662 14.1226 79.2085 14.189H74.9646V8.10786Z" fill="#FFFDF8"/>
<path id="Vector_4" d="M126.226 13.325C126.226 3.85437 121.65 0.431641 112.798 0.431641H98.1098C97.513 0.431641 97.0156 0.930097 97.0156 1.52824V25.288C97.0156 25.9858 97.5793 26.5175 98.2424 26.5175H112.798C121.683 26.5175 126.226 23.0948 126.226 13.6241C126.226 13.5576 126.226 13.5244 126.226 13.4912C126.226 13.4247 126.226 13.3915 126.226 13.325ZM110.908 18.509H107.924V15.5847V8.44017H110.908C114.223 8.44017 115.085 10.2678 115.119 13.458C115.085 16.7145 114.223 18.509 110.908 18.509Z" fill="#FFFDF8"/>
</g>
</svg>
