<svg width="389" height="81" viewBox="0 0 389 81" fill="none" xmlns="http://www.w3.org/2000/svg">
<path d="M88.5863 0.777247H63.8349C62.0543 0.777247 60.4516 2.19834 60.4516 4.15235V41.6338H59.9174L41.3985 2.55362C40.8643 1.31016 39.6178 0.599609 38.3713 0.599609H4.00437C2.2237 0.599609 0.621094 2.02071 0.621094 3.97472V76.9836C0.621094 78.76 2.04563 80.3587 4.00437 80.3587H28.7557C30.5364 80.3587 32.139 78.9376 32.139 76.9836V39.3245H32.6732L52.4386 78.5823C52.9728 79.6481 54.2193 80.3587 55.4658 80.3587H88.5863C90.3669 80.3587 91.9695 78.9376 91.9695 76.9836V3.97472C91.9695 2.19835 90.545 0.777247 88.5863 0.777247Z" fill="black"/>
<path d="M183.237 57.5977H136.583V45.3407H180.744C181.812 45.3407 182.703 44.4525 182.703 43.3867V37.5247C182.703 36.4589 181.812 35.5707 180.744 35.5707H136.583V24.3796H182.881C184.662 24.3796 186.264 22.9585 186.264 21.0044V3.95128C186.264 2.17491 184.84 0.576172 182.881 0.576172H105.778C103.997 0.576172 102.395 1.99727 102.395 3.95128V77.1378C102.395 78.9142 103.819 80.5129 105.778 80.5129H183.237C185.018 80.5129 186.62 79.0918 186.62 77.1378V61.1504C186.62 59.1964 185.196 57.5977 183.237 57.5977Z" fill="black"/>
<path d="M288.198 32.219C288.198 4.50762 272.35 0.599609 251.16 0.599609H200.055C198.274 0.599609 196.672 2.02071 196.672 3.97472V76.9836C196.672 78.76 198.096 80.3587 200.055 80.3587H227.477C229.258 80.3587 230.861 78.9376 230.861 76.9836V62.9502H236.559C238.34 71.6545 245.462 78.5823 254.366 80.0034C255.434 80.181 256.502 80.3587 257.749 80.3587H284.637C286.418 80.3587 288.02 78.9376 288.02 76.9836V62.9502C288.02 61.1739 286.596 59.5751 284.637 59.5751H273.597C283.213 55.8448 288.198 48.0287 288.198 32.219ZM244.038 42.6996H231.039V24.2253H246.353C250.092 24.2253 253.297 27.0675 253.653 30.9756C254.188 39.5021 251.517 42.522 244.038 42.6996Z" fill="black"/>
<path d="M347.237 0.576172H302.008C300.228 0.576172 298.625 1.99727 298.625 3.95128V76.6049C298.625 78.7365 300.406 80.3352 302.364 80.3352H347.059C374.304 80.3352 388.371 69.8546 388.371 40.8998C388.371 40.7222 388.371 40.5445 388.371 40.3669C388.371 40.1893 388.371 40.0116 388.371 39.834C388.549 11.0568 374.482 0.576172 347.237 0.576172ZM341.361 55.8213H332.102V46.9395V25.0901H341.361C351.511 25.0901 354.182 30.5968 354.36 40.5445C354.36 50.3146 351.511 55.8213 341.361 55.8213Z" fill="black"/>
</svg>
