<svg width="289" height="60" viewBox="0 0 289 60" fill="none" xmlns="http://www.w3.org/2000/svg">
<path d="M44.558 30.3816H44.1037L30.3997 1.43594C30.0212 0.529028 29.1126 0 28.1283 0H2.53756C1.17474 0 0.0390625 1.13364 0.0390625 2.49401V56.8332C0.0390625 58.1936 1.17474 59.3272 2.53756 59.3272H20.9357C22.2985 59.3272 23.4342 58.1936 23.4342 56.8332V28.7189H23.8885L38.5767 57.9668C39.031 58.7982 39.8638 59.3272 40.7723 59.3272H65.4546C66.8174 59.3272 67.9531 58.1936 67.9531 56.8332V2.49401C67.9531 1.13364 66.8174 0 65.4546 0H47.0565C45.6936 0 44.558 1.13364 44.558 2.49401V30.3816Z" fill="black"/>
<path d="M133.825 33.3264C134.658 33.3264 135.263 32.6462 135.263 31.8905V27.5071C135.263 26.6757 134.582 26.0711 133.825 26.0711H100.966V17.6822H135.339C136.702 17.6822 137.838 16.5486 137.838 15.1882V2.56697C137.838 1.2066 136.702 0.0729722 135.339 0.0729722H78.1006C76.7378 0.0729722 75.6021 1.2066 75.6021 2.56697V56.9817C75.6021 58.3421 76.7378 59.4002 78.0249 59.4002H135.642C137.005 59.4002 138.141 58.2665 138.141 56.9062V45.0407C138.141 43.6804 137.005 42.5467 135.642 42.5467H100.89V33.3264H133.825Z" fill="black"/>
<path d="M213.85 23.5042C213.85 2.87189 202.039 0 186.366 0H148.434C147.072 0 145.936 1.13364 145.936 2.49401V56.8332C145.936 58.1936 147.072 59.3272 148.434 59.3272H168.801C170.164 59.3272 171.299 58.1936 171.299 56.8332V46.3281H175.615C176.978 52.8276 182.202 57.8913 188.865 59.0249C189.622 59.1761 190.455 59.3272 191.363 59.3272H211.427C212.79 59.3272 213.926 58.1936 213.926 56.8332V46.3281C213.926 44.9677 212.79 43.8341 211.427 43.8341H203.25C210.064 41.0378 213.85 35.2184 213.85 23.5042ZM171.224 17.4581H182.656C185.458 17.4581 187.805 19.6498 188.032 22.4461C188.562 28.9456 186.518 31.1373 180.915 31.2885H171.224V17.4581Z" fill="black"/>
<path d="M288.276 29.3235C288.276 7.78434 277.828 0 257.612 0H224.072C222.709 0 221.573 1.13364 221.573 2.49401V56.5309C221.573 58.118 222.86 59.3272 224.375 59.3272H257.612C277.903 59.3272 288.276 51.5429 288.276 30.0037C288.276 29.8525 288.276 29.777 288.276 29.7014C288.276 29.5502 288.276 29.4747 288.276 29.3235ZM253.297 41.1134H246.483V18.2138H253.297C260.868 18.2138 262.837 22.3705 262.912 29.6258C262.837 37.0323 260.868 41.1134 253.297 41.1134Z" fill="black"/>
<path d="M213.85 23.5042C213.85 2.87189 202.039 0 186.366 0H148.434C147.072 0 145.936 1.13364 145.936 2.49401V56.8332C145.936 58.1936 147.072 59.3272 148.434 59.3272H168.801C170.164 59.3272 171.299 58.1936 171.299 56.8332V46.3281H175.615C176.978 52.8276 182.202 57.8913 188.865 59.0249C189.622 59.1761 190.455 59.3272 191.363 59.3272H211.427C212.79 59.3272 213.926 58.1936 213.926 56.8332V46.3281C213.926 44.9677 212.79 43.8341 211.427 43.8341H203.25C210.064 41.0378 213.85 35.2184 213.85 23.5042ZM171.224 17.4581H182.656C185.458 17.4581 187.805 19.6498 188.032 22.4461C188.562 28.9456 186.518 31.1373 180.915 31.2885H171.224V17.4581Z" fill="black"/>
</svg>
