<svg width="152" height="55" viewBox="0 0 152 55" fill="none" xmlns="http://www.w3.org/2000/svg">
<g id="Group 1597425">
<path id="Vector" d="M68.7364 37.5111V23.0034H68.9922L79.4436 37.5111H82.7325V16.2063H79.0781V30.6775H78.8223L68.3709 16.2063H65.082V37.5111H68.7364ZM93.0743 37.84C97.898 37.84 100.858 34.6973 100.858 29.435C100.858 24.2093 97.898 21.0301 93.0743 21.0301C88.2871 21.0301 85.2905 24.2093 85.2905 29.435C85.3271 34.6973 88.2505 37.84 93.0743 37.84ZM93.0743 34.7704C90.5162 34.7704 89.0545 32.8336 89.0545 29.435C89.0545 26.073 90.5162 24.0997 93.0743 24.0997C95.6323 24.0997 97.094 26.073 97.094 29.435C97.094 32.8336 95.6323 34.7704 93.0743 34.7704ZM104.183 17.4123V21.4686H101.625V24.392H104.183V33.199C104.183 36.3417 105.645 37.5842 109.373 37.5842C110.067 37.5842 110.761 37.5111 111.309 37.4015V34.5511C110.871 34.5877 110.579 34.6242 110.067 34.6242C108.532 34.6242 107.838 33.9299 107.838 32.322V24.392H111.309V21.4686H107.838V17.4123H104.183ZM113.502 37.5111H117.156V21.3589H113.502V37.5111ZM115.329 18.6913C116.535 18.6913 117.522 17.7046 117.522 16.4987C117.522 15.2562 116.535 14.2695 115.329 14.2695C114.123 14.2695 113.137 15.2562 113.137 16.4987C113.137 17.7046 114.123 18.6913 115.329 18.6913ZM127.169 37.84C131.993 37.84 134.953 34.6973 134.953 29.435C134.953 24.2093 131.993 21.0301 127.169 21.0301C122.382 21.0301 119.385 24.2093 119.385 29.435C119.385 34.6973 122.309 37.84 127.169 37.84ZM127.169 34.7704C124.611 34.7704 123.149 32.8336 123.149 29.435C123.149 26.073 124.611 24.0997 127.169 24.0997C129.691 24.0997 131.189 26.073 131.189 29.435C131.152 32.8336 129.691 34.7704 127.169 34.7704ZM137.109 37.5111H140.763V28.1195C140.763 25.7442 142.152 24.2459 144.308 24.2459C146.537 24.2459 147.56 25.4883 147.56 27.9368V37.5111H151.215V27.0597C151.215 23.1861 149.241 21.0301 145.66 21.0301C143.248 21.0301 141.64 22.1264 140.873 23.9535H140.617V21.3589H137.072C137.109 21.3589 137.109 37.5111 137.109 37.5111Z" fill="black"/>
<g id="Group">
<path id="Vector_2" fill-rule="evenodd" clip-rule="evenodd" d="M9.0993 9.63035C10.8168 11.019 11.4381 10.9094 14.6539 10.6901L44.9484 8.86293C45.6061 8.86293 45.058 8.20515 44.8387 8.13207L39.7957 4.51427C38.8456 3.7834 37.5301 2.90636 35.0816 3.12562L5.77385 5.28168C4.7141 5.39131 4.49484 5.93946 4.93336 6.34144L9.0993 9.63035ZM10.9265 16.6832V48.549C10.9265 50.2666 11.767 50.8878 13.7038 50.7782L46.9948 48.8414C48.9316 48.7318 49.1508 47.5624 49.1508 46.1737V14.5272C49.1508 13.1385 48.6027 12.3711 47.4333 12.4807L12.644 14.5272C11.365 14.6368 10.9265 15.2946 10.9265 16.6832ZM43.779 18.4008C43.9982 19.3509 43.779 20.3376 42.8288 20.4472L41.2209 20.7761V44.31C39.8323 45.0409 38.5533 45.4794 37.457 45.4794C35.7394 45.4794 35.3009 44.9313 34.0219 43.3233L23.5339 26.8423V42.7752L26.8594 43.5061C26.8594 43.5061 26.8594 45.4429 24.1917 45.4429L16.81 45.8814C16.5907 45.4429 16.81 44.3831 17.5408 44.1638L19.4776 43.6157V22.5667L16.81 22.3474C16.5907 21.3973 17.1388 20.0087 18.6371 19.899L26.567 19.3509L37.4935 36.0147V21.2877L34.7162 20.9588C34.497 19.7894 35.374 18.9124 36.4338 18.8027L43.779 18.4008ZM3.32545 2.35821L33.8392 0.129064C37.5666 -0.199827 38.5533 0.0194342 40.892 1.73697L50.6126 8.57059C52.2205 9.73997 52.7686 10.0689 52.7686 11.3479V48.8779C52.7686 51.2167 51.9281 52.6054 48.9316 52.8246L13.5211 54.9807C11.2554 55.0903 10.1956 54.7614 9.02622 53.2631L1.82717 43.9446C0.548151 42.227 0 40.948 0 39.4497V6.08563C0 4.14883 0.877041 2.57747 3.32545 2.35821Z" fill="black"/>
</g>
</g>
</svg>
