<svg width="103" height="52" viewBox="0 0 103 52" fill="none" xmlns="http://www.w3.org/2000/svg">
<circle cx="26.3118" cy="26.3119" r="24.024" fill="#FFFDF8"/>
<circle cx="76.6478" cy="26.3119" r="24.024" fill="#FFFDF8"/>
<path d="M76.5704 0C62.0787 0 50.3359 11.5294 50.3359 25.7578C50.3359 39.9862 62.0787 51.5156 76.5704 51.5156C91.0621 51.5156 102.805 39.9862 102.805 25.7578C102.805 11.5294 91.0621 0 76.5704 0ZM76.5704 48.1558C63.9893 48.1558 53.7578 38.1103 53.7578 25.7578C53.7578 13.4052 63.9893 3.35971 76.5704 3.35971C89.1515 3.35971 99.383 13.4052 99.383 25.7578C99.383 38.1103 89.1515 48.1558 76.5704 48.1558Z" fill="black"/>
<path d="M26.2345 0C11.7428 0 0 11.5294 0 25.7578C0 39.9862 11.7428 51.5156 26.2345 51.5156C40.7261 51.5156 52.4689 39.9862 52.4689 25.7578C52.4689 11.5294 40.7261 0 26.2345 0ZM26.2345 48.1558C13.6533 48.1558 3.42189 38.1103 3.42189 25.7578C3.42189 13.4052 13.6533 3.35971 26.2345 3.35971C38.8156 3.35971 49.047 13.4052 49.047 25.7578C49.047 38.1103 38.8156 48.1558 26.2345 48.1558Z" fill="black"/>
<path d="M99.3808 24.0789H53.7556V27.4386H99.3808V24.0789Z" fill="black"/>
<path d="M49.0448 24.0789H3.41968V27.4386H49.0448V24.0789Z" fill="black"/>
<path d="M2.77241 25C2.59379 29.3129 3.58759 33.5943 5.65061 37.3998C7.71363 41.2053 10.7707 44.3961 14.5043 46.6409C18.2379 48.8857 22.512 50.1027 26.8828 50.1654C31.2536 50.2282 35.5618 49.1345 39.3599 46.9978L29.465 25L2.77241 25Z" fill="black"/>
<path d="M52.7724 24C52.5938 28.3129 53.5876 32.5943 55.6506 36.3998C57.7136 40.2053 60.7707 43.3961 64.5043 45.6409C68.2379 47.8857 72.512 49.1027 76.8828 49.1654C81.2536 49.2282 85.5618 48.1345 89.3599 45.9978L79.465 24L52.7724 24Z" fill="black"/>
</svg>
