<svg width="103" height="52" viewBox="0 0 103 52" fill="none" xmlns="http://www.w3.org/2000/svg">
<circle cx="26.3118" cy="26.3119" r="24.024" fill="#FFFDF8"/>
<circle cx="76.6478" cy="26.3119" r="24.024" fill="#FFFDF8"/>
<path d="M76.5704 0C62.0787 0 50.3359 11.5294 50.3359 25.7578C50.3359 39.9862 62.0787 51.5156 76.5704 51.5156C91.0621 51.5156 102.805 39.9862 102.805 25.7578C102.805 11.5294 91.0621 0 76.5704 0ZM76.5704 48.1558C63.9893 48.1558 53.7578 38.1103 53.7578 25.7578C53.7578 13.4052 63.9893 3.35971 76.5704 3.35971C89.1515 3.35971 99.383 13.4052 99.383 25.7578C99.383 38.1103 89.1515 48.1558 76.5704 48.1558Z" fill="black"/>
<path d="M26.2345 0C11.7428 0 0 11.5294 0 25.7578C0 39.9862 11.7428 51.5156 26.2345 51.5156C40.7261 51.5156 52.4689 39.9862 52.4689 25.7578C52.4689 11.5294 40.7261 0 26.2345 0ZM26.2345 48.1558C13.6533 48.1558 3.42189 38.1103 3.42189 25.7578C3.42189 13.4052 13.6533 3.35971 26.2345 3.35971C38.8156 3.35971 49.047 13.4052 49.047 25.7578C49.047 38.1103 38.8156 48.1558 26.2345 48.1558Z" fill="black"/>
<path d="M99.3808 24.0789H53.7556V27.4386H99.3808V24.0789Z" fill="black"/>
<path d="M49.0448 24.0789H3.41968V27.4386H49.0448V24.0789Z" fill="black"/>
<path d="M102 26C102 29.283 101.353 32.5339 100.097 35.5671C98.8406 38.6002 96.9991 41.3562 94.6777 43.6777C92.3562 45.9991 89.6002 47.8406 86.5671 49.097C83.5339 50.3534 80.283 51 77 51C73.717 51 70.4661 50.3534 67.4329 49.097C64.3998 47.8406 61.6438 45.9991 59.3223 43.6777C57.0009 41.3562 55.1594 38.6002 53.903 35.5671C52.6466 32.5339 52 29.283 52 26L77 26H102Z" fill="black"/>
<path d="M51 26C51 29.283 50.3534 32.5339 49.097 35.5671C47.8406 38.6002 45.9991 41.3562 43.6777 43.6777C41.3562 45.9991 38.6002 47.8406 35.5671 49.097C32.5339 50.3534 29.283 51 26 51C22.717 51 19.4661 50.3534 16.4329 49.097C13.3998 47.8406 10.6438 45.9991 8.32233 43.6777C6.00086 41.3562 4.15938 38.6002 2.90301 35.5671C1.64664 32.5339 1 29.283 1 26L26 26H51Z" fill="black"/>
</svg>
