<svg width="103" height="52" viewBox="0 0 103 52" fill="none" xmlns="http://www.w3.org/2000/svg">
<circle cx="24.024" cy="24.024" r="24.024" transform="matrix(-1 0 0 1 100.517 2.28796)" fill="#FFFDF8"/>
<circle cx="24.024" cy="24.024" r="24.024" transform="matrix(-1 0 0 1 50.1812 2.28796)" fill="#FFFDF8"/>
<path d="M26.2345 0C40.7262 0 52.469 11.5294 52.469 25.7578C52.469 39.9862 40.7262 51.5156 26.2345 51.5156C11.7428 51.5156 7.41482e-05 39.9862 7.41482e-05 25.7578C7.41482e-05 11.5294 11.7428 0 26.2345 0ZM26.2345 48.1558C38.8157 48.1558 49.0471 38.1103 49.0471 25.7578C49.0471 13.4052 38.8157 3.35971 26.2345 3.35971C13.6534 3.35971 3.42196 13.4052 3.42196 25.7578C3.42196 38.1103 13.6534 48.1558 26.2345 48.1558Z" fill="black"/>
<path d="M76.5705 0C91.0622 0 102.805 11.5294 102.805 25.7578C102.805 39.9862 91.0622 51.5156 76.5705 51.5156C62.0788 51.5156 50.336 39.9862 50.336 25.7578C50.336 11.5294 62.0788 0 76.5705 0ZM76.5705 48.1558C89.1516 48.1558 99.383 38.1103 99.383 25.7578C99.383 13.4052 89.1516 3.35971 76.5705 3.35971C63.9893 3.35971 53.7579 13.4052 53.7579 25.7578C53.7579 38.1103 63.9893 48.1558 76.5705 48.1558Z" fill="black"/>
<path d="M3.42416 24.0789H49.0493V27.4386H3.42416V24.0789Z" fill="black"/>
<path d="M53.7601 24.0789H99.3853V27.4386H53.7601V24.0789Z" fill="black"/>
<path d="M100.033 25C100.211 29.3129 99.2173 33.5943 97.1543 37.3998C95.0913 41.2053 92.0343 44.3961 88.3006 46.6409C84.567 48.8857 80.2929 50.1027 75.9221 50.1654C71.5513 50.2282 67.2432 49.1345 63.445 46.9978L73.3399 25L100.033 25Z" fill="black"/>
<path d="M50.0325 24C50.2111 28.3129 49.2173 32.5943 47.1543 36.3998C45.0913 40.2053 42.0343 43.3961 38.3006 45.6409C34.567 47.8857 30.2929 49.1027 25.9221 49.1654C21.5513 49.2282 17.2432 48.1345 13.445 45.9978L23.3399 24L50.0325 24Z" fill="black"/>
</svg>
