<svg width="103" height="53" viewBox="0 0 103 53" fill="none" xmlns="http://www.w3.org/2000/svg">
<g id="Capa_1" clip-path="url(#clip0_5052_1272)">
<path id="Vector" d="M76.474 0.615234C61.8392 0.615234 49.9805 12.275 49.9805 26.6644C49.9805 41.0537 61.8392 52.7135 76.474 52.7135C91.1088 52.7135 102.968 41.0537 102.968 26.6644C102.968 12.275 91.1088 0.615234 76.474 0.615234ZM76.474 49.3158C63.7686 49.3158 53.4361 39.1566 53.4361 26.6644C53.4361 14.1721 63.7686 4.01295 76.474 4.01295C89.1794 4.01295 99.5119 14.1721 99.5119 26.6644C99.5119 39.1566 89.1794 49.3158 76.474 49.3158Z" fill="black"/>
<path id="Vector_2" d="M99.5093 24.9668H53.4336V28.3645H99.5093V24.9668Z" fill="black"/>
<path id="Vector_3" d="M80.1169 26.6641L89.718 47.0503L79.3509 51.5806L63.8004 48.1829L54.0093 36.2909L52.7422 26.6641H80.1169Z" fill="black"/>
<path id="Vector_4" d="M26.9389 0.615234C12.3041 0.615234 0.445312 12.275 0.445312 26.6644C0.445312 41.0537 12.3041 52.7135 26.9389 52.7135C41.5737 52.7135 53.4324 41.0537 53.4324 26.6644C53.4324 12.275 41.5737 0.615234 26.9389 0.615234ZM26.9389 49.3158C14.2335 49.3158 3.90099 39.1566 3.90099 26.6644C3.90099 14.1721 14.2335 4.01295 26.9389 4.01295C39.6442 4.01295 49.9767 14.1721 49.9767 26.6644C49.9767 39.1566 39.6442 49.3158 26.9389 49.3158Z" fill="black"/>
<path id="Vector_5" d="M49.9781 24.9668H3.90234V28.3645H49.9781V24.9668Z" fill="black"/>
<path id="Vector_6" d="M30.5857 26.6641L40.1867 47.0503L29.8197 51.5806L14.2691 48.1829L4.47802 36.2909L3.21094 26.6641H30.5857Z" fill="black"/>
</g>
<defs>
<clipPath id="clip0_5052_1272">
<rect width="102.519" height="52.0982" fill="white" transform="translate(0.445312 0.615234)"/>
</clipPath>
</defs>
</svg>
