<svg width="68" height="35" viewBox="0 0 68 35" fill="none" xmlns="http://www.w3.org/2000/svg">
<g id="Capa_1" clip-path="url(#clip0_5119_781)">
<path id="Vector 32" d="M22.1881 32.7254L12.6193 1.91066L4.47189 8.17754L1.62676 18.3069C3.49661 33.0128 16.1134 34.0467 22.1881 32.7254Z" fill="black"/>
<path id="Vector 33" d="M54.302 32.6678L44.1937 2.02588L36.1576 8.43483L33.4907 18.6126C35.6185 33.2834 48.2515 34.0956 54.302 32.6678Z" fill="black"/>
<path id="Vector" d="M49.8221 0.1875C40.26 0.1875 32.5117 7.93579 32.5117 17.4979C32.5117 27.06 40.26 34.8083 49.8221 34.8083C59.3843 34.8083 67.1326 27.06 67.1326 17.4979C67.1326 7.93579 59.3843 0.1875 49.8221 0.1875ZM49.8221 32.5505C41.5207 32.5505 34.7696 25.7994 34.7696 17.4979C34.7696 9.19644 41.5207 2.44538 49.8221 2.44538C58.1236 2.44538 64.8747 9.19644 64.8747 17.4979C64.8747 25.7994 58.1236 32.5505 49.8221 32.5505Z" fill="black"/>
<path id="Vector_2" d="M17.4589 0.1875C7.89673 0.1875 0.148438 7.93579 0.148438 17.4979C0.148438 27.06 7.89673 34.8083 17.4589 34.8083C27.021 34.8083 34.7693 27.06 34.7693 17.4979C34.7693 7.93579 27.021 0.1875 17.4589 0.1875ZM17.4589 32.5505C9.15738 32.5505 2.40632 25.7994 2.40632 17.4979C2.40632 9.19644 9.15738 2.44538 17.4589 2.44538C25.7603 2.44538 32.5114 9.19644 32.5114 17.4979C32.5114 25.7994 25.7603 32.5505 17.4589 32.5505Z" fill="black"/>
</g>
<defs>
<clipPath id="clip0_5119_781">
<rect width="66.9838" height="34.6208" fill="white" transform="translate(0.148438 0.1875)"/>
</clipPath>
</defs>
</svg>
