<svg width="100" height="46" viewBox="0 0 100 46" fill="none" xmlns="http://www.w3.org/2000/svg">
<path fill-rule="evenodd" clip-rule="evenodd" d="M0.105469 3.31423C0.105469 1.62153 1.51878 0.210938 3.21475 0.210938H96.38C98.076 0.210938 99.4893 1.62153 99.4893 3.31423V42.8671C99.4893 44.5598 98.076 45.9704 96.38 45.9704H3.21475C1.51878 45.9704 0.105469 44.5598 0.105469 42.8671V3.31423Z" fill="black"/>
<path fill-rule="evenodd" clip-rule="evenodd" d="M0.105469 4.50195H99.4893V41.6815H0.105469V4.50195Z" fill="white"/>
<path fill-rule="evenodd" clip-rule="evenodd" d="M84.8318 14.5117C80.3263 14.5117 76.6094 18.2287 76.6094 22.7341C76.6094 27.2396 80.3263 30.9565 84.8318 30.9565C89.3372 30.9565 93.0542 27.2396 93.0542 22.7341C93.0542 18.2287 89.3935 14.5117 84.8318 14.5117Z" fill="black"/>
<path fill-rule="evenodd" clip-rule="evenodd" d="M16.9099 14.5117C12.4045 14.5117 8.6875 18.2287 8.6875 22.7341C8.6875 27.2396 12.4045 30.9565 16.9099 30.9565C21.4153 30.9565 25.1323 27.2396 25.1323 22.7341C25.1323 18.2287 21.4716 14.5117 16.9099 14.5117Z" fill="black"/>
<path fill-rule="evenodd" clip-rule="evenodd" d="M83.6603 6.65083C76.0284 6.47775 72.4103 11.4971 67.2094 17.6126L62.291 23.4396L70.0925 32.959C71.9581 35.9014 68.3965 38.7861 66.1918 36.1322L59.0122 27.3628L52.0022 35.6706C49.7409 38.3245 46.2924 35.3822 48.158 32.4398L55.7898 23.3819L50.815 17.3241L54.0373 13.2856L59.1252 19.5165L63.4782 14.3241C65.6264 11.7855 67.8312 8.38163 70.6578 6.65083H0.105469V39.5361H16.6129C24.2448 39.5361 27.6933 34.8629 32.7812 28.5743L37.5864 22.6319L29.5588 13.2856C27.6367 10.4009 31.0852 7.40085 33.3465 10.0547L40.7522 18.6511L47.5926 10.1701C49.7409 7.45854 53.3024 10.3432 51.4934 13.2856L44.0876 22.5165L49.2321 28.459L46.0097 32.3821L40.9218 26.4974L36.6819 31.8052C34.5902 34.4014 32.4985 37.6899 29.6719 39.5361H99.4893V6.65083H83.6603ZM29.3327 22.4588C29.3327 29.7859 23.4533 35.786 16.2737 35.786C9.09411 35.786 3.21475 29.7859 3.21475 22.4588C3.21475 15.1318 9.09411 9.13165 16.2737 9.13165C23.4533 9.18934 29.3327 15.1318 29.3327 22.4588ZM84.2821 35.786C77.1025 35.786 71.2231 29.7859 71.2231 22.4588C71.2231 15.1318 77.1025 9.13165 84.2821 9.13165C91.4617 9.13165 97.3411 15.1318 97.3411 22.4588C97.3411 29.7859 91.4617 35.786 84.2821 35.786Z" fill="black"/>
</svg>
