<svg width="30" height="29" viewBox="0 0 30 29" fill="none" xmlns="http://www.w3.org/2000/svg">
<g id="_&#195;&#131;&#226;&#128;&#152;&#195;&#131;&#194;&#171;&#195;&#131;&#194;&#174;&#195;&#131;&#194;&#169;_1" clip-path="url(#clip0_5071_652)">
<path id="Vector" d="M14.9628 28.6429C6.91214 28.6444 0.371094 22.2291 0.371094 14.3296C0.371094 6.38994 6.90759 -0.00596216 15.0205 4.17081e-06C23.0347 0.0059705 29.5408 6.45408 29.5362 14.3863C29.5302 22.2261 22.9739 28.6429 14.9643 28.6429H14.9628ZM1.87461 15.0903C2.03559 17.8423 3.003 20.2274 4.69332 22.3469C5.71844 21.7861 6.69952 21.2491 7.5667 20.7748C7.1764 18.8223 6.80432 16.9608 6.43071 15.0889H1.87461V15.0903ZM25.2186 22.3469C26.8998 20.2214 27.8733 17.8393 28.0312 15.1008H23.4797C23.0878 17.0324 22.7112 18.8954 22.3315 20.7748C23.2443 21.2715 24.2117 21.798 25.2186 22.3454V22.3469ZM6.40642 13.5466C6.76635 11.8611 7.11413 10.2904 7.42546 8.71383C7.46647 8.5065 7.40268 8.14554 7.25993 8.06052C6.3806 7.53399 5.4633 7.06414 4.49589 6.54209C2.92859 8.59599 2.02952 10.902 1.87157 13.5466H6.40642ZM25.4054 6.54507C24.441 7.06563 23.5283 7.54145 22.6413 8.05604C22.5077 8.1336 22.3999 8.4185 22.4318 8.5766C22.7674 10.2188 23.1364 11.8551 23.507 13.5466H28.0342C27.8687 10.905 26.9833 8.5945 25.4069 6.54507H25.4054ZM8.93354 20.1528C10.797 19.8231 12.4721 19.5278 14.1655 19.2295V15.1082H7.91904C8.27138 16.8594 8.6055 18.521 8.93354 20.1528ZM21.9807 15.1053H15.7419V19.2295C17.4535 19.5308 19.1088 19.8231 20.9708 20.1513C21.2958 18.527 21.6314 16.8519 21.9807 15.1053ZM7.93423 13.5361H14.1655V9.77882C12.4068 9.4626 10.7028 9.15534 8.83482 8.81973C8.54475 10.3411 8.25012 11.8864 7.93423 13.5361ZM21.9807 13.554C21.6587 11.8894 21.3565 10.3292 21.0634 8.81824C19.162 9.15981 17.461 9.46559 15.7404 9.77434V13.5525H21.9807V13.554ZM9.48179 7.48178C11.1205 7.77264 12.6133 8.03665 14.1427 8.30812V2.01066C12.0393 3.37844 10.6087 5.14596 9.48179 7.48178ZM20.4225 7.47731C19.2911 5.14447 17.8681 3.35905 15.754 2.01513V8.31856C17.3122 8.03814 18.7899 7.77115 20.4225 7.47731ZM14.1503 26.6367V20.6868C12.6285 20.9597 11.1888 21.2178 9.64277 21.4952C10.759 23.6804 12.1456 25.336 14.1503 26.6367ZM15.7388 26.6531C17.7739 25.3092 19.1878 23.6565 20.2555 21.4698C18.6699 21.2014 17.2256 20.9552 15.7388 20.7032V26.6516V26.6531ZM11.5989 1.86896C9.35877 2.42233 7.30549 3.58726 5.47697 5.41892C6.40793 5.93203 7.25081 6.39591 7.94334 6.77775C9.23576 5.04304 10.4477 3.41573 11.5989 1.86896ZM18.3146 1.87343C19.4764 3.44109 20.6989 5.08779 21.967 6.79715C22.7066 6.3795 23.5283 5.91711 24.4273 5.40997C22.5958 3.59173 20.5486 2.41786 18.3161 1.87343H18.3146ZM18.2857 26.7769C20.4499 26.2474 22.4318 25.1466 24.2208 23.4298C23.2883 22.942 22.4652 22.511 21.7969 22.1604C20.5592 23.7878 19.4217 25.2838 18.2857 26.7769ZM5.70477 23.4372C7.48014 25.1585 9.46508 26.2489 11.6307 26.7769C10.5008 25.2958 9.33144 23.7609 8.09977 22.147C7.40117 22.5229 6.59473 22.9584 5.70477 23.4357V23.4372Z" fill="black"/>
</g>
<defs>
<clipPath id="clip0_5071_652">
<rect width="29.1636" height="28.6429" fill="white" transform="translate(0.371094)"/>
</clipPath>
</defs>
</svg>
