<svg width="18" height="18" viewBox="0 0 18 18" fill="none" xmlns="http://www.w3.org/2000/svg">
<path id="Vector" d="M9.00562 18C4.03697 18.0009 0 13.9694 0 9.00516C0 4.01562 4.03416 -0.00374679 9.04124 2.62105e-06C13.9874 0.00375203 18.0028 4.05593 18 9.04078C17.9963 13.9675 13.9499 18 9.00656 18H9.00562ZM0.927932 9.48321C1.02729 11.2126 1.62435 12.7115 2.66757 14.0434C3.30025 13.691 3.90575 13.3535 4.44095 13.0555C4.20006 11.8285 3.97042 10.6586 3.73985 9.48227H0.927932V9.48321ZM15.3352 14.0434C16.3728 12.7077 16.9737 11.2107 17.0711 9.48977H14.262C14.0202 10.7036 13.7878 11.8744 13.5534 13.0555C14.1167 13.3676 14.7138 13.6985 15.3352 14.0425V14.0434ZM3.72485 8.51305C3.94699 7.45384 4.16163 6.4668 4.35378 5.47602C4.37909 5.34573 4.33972 5.11889 4.25161 5.06546C3.70891 4.73457 3.14278 4.43931 2.54572 4.11123C1.57842 5.40197 1.02354 6.85112 0.926057 8.51305H3.72485ZM15.4505 4.11311C14.8553 4.44025 14.292 4.73926 13.7446 5.06265C13.6622 5.11139 13.5956 5.29042 13.6153 5.38978C13.8224 6.42181 14.0502 7.45009 14.2789 8.51305H17.073C16.9708 6.85299 16.4244 5.40103 15.4515 4.11311H15.4505ZM5.28452 12.6646C6.4346 12.4574 7.46844 12.2718 8.51354 12.0844V9.49446H4.6584C4.87586 10.5949 5.08207 11.6391 5.28452 12.6646ZM13.3369 9.49258H9.48646V12.0844C10.5428 12.2737 11.5645 12.4574 12.7136 12.6636C12.9142 11.6429 13.1213 10.5902 13.3369 9.49258ZM4.66778 8.50648H8.51354V6.14529C7.42814 5.94657 6.37648 5.75348 5.2236 5.54257C5.04457 6.49867 4.86274 7.46977 4.66778 8.50648ZM13.3369 8.51773C13.1382 7.47165 12.9517 6.49117 12.7708 5.54164C11.5973 5.75629 10.5475 5.94845 9.48552 6.14248V8.5168H13.3369V8.51773ZM5.62289 4.70177C6.63424 4.88455 7.55561 5.05046 8.49948 5.22106V1.26355C7.20131 2.12311 6.31837 3.23387 5.62289 4.70177ZM12.3752 4.69896C11.6769 3.23293 10.7987 2.11092 9.49396 1.26637V5.22762C10.4556 5.0514 11.3676 4.88361 12.3752 4.69896ZM8.50417 16.7393V13.0002C7.56499 13.1717 6.67642 13.3339 5.72225 13.5082C6.41116 14.8814 7.26692 15.9219 8.50417 16.7393ZM9.48459 16.7496C10.7406 15.905 11.6132 14.8664 12.2721 13.4923C11.2936 13.3235 10.4022 13.1689 9.48459 13.0105V16.7486V16.7496ZM6.92949 1.17451C5.54697 1.52226 4.27973 2.25434 3.15122 3.40541C3.72579 3.72786 4.24599 4.01937 4.6734 4.25934C5.47105 3.16919 6.21902 2.14654 6.92949 1.17451ZM11.0743 1.17732C11.7913 2.16248 12.5458 3.19731 13.3285 4.27152C13.7849 4.00906 14.292 3.71848 14.8469 3.39978C13.7165 2.25715 12.453 1.51945 11.0752 1.17732H11.0743ZM11.0564 16.8274C12.3921 16.4946 13.6153 15.8028 14.7194 14.7239C14.1439 14.4174 13.6359 14.1465 13.2235 13.9263C12.4596 14.9489 11.7576 15.8891 11.0564 16.8274ZM3.29181 14.7286C4.38752 15.8103 5.61258 16.4955 6.94918 16.8274C6.25182 15.8966 5.5301 14.932 4.76994 13.9178C4.33878 14.154 3.84107 14.4277 3.29181 14.7277V14.7286Z" fill="#FFFDF8"/>
</svg>
