<svg width="128" height="46" viewBox="0 0 128 46" fill="none" xmlns="http://www.w3.org/2000/svg">
<path d="M108.914 26.9008C108.914 21.9188 105.396 18.332 100.674 18.332C95.9576 18.332 92.1719 22.1864 92.1719 26.9008C92.1719 31.6089 95.9895 35.4633 100.712 35.4633C103.038 35.4633 105.568 34.737 107.455 33.0296C107.997 32.5391 108.207 31.2458 107.429 30.4176C106.671 29.6212 105.473 29.704 104.632 30.3347C103.65 31.0674 102.477 31.6471 100.903 31.6471C98.6981 31.6471 97.0857 30.2965 96.8626 28.3534H107.308C108.169 28.3534 108.914 27.7545 108.914 26.9008ZM104.46 25.1743H96.9327C97.3406 23.3077 98.6917 22.1482 100.674 22.1482C102.662 22.1482 104.084 23.416 104.46 25.1743Z" fill="black"/>
<path d="M125.373 1.80496C124.015 1.3144 121.364 0.925781 118.611 0.925781C108.694 0.925781 96.9417 8.2268 89.0198 19.8281C84.96 25.7722 83.9658 28.7219 83.9658 28.7219C83.9658 28.7219 84.1761 23.4914 83.4942 20.1339C83.0544 17.9615 82.296 17.369 81.1615 17.0823C79.4662 16.6555 77.8666 17.5601 76.9297 18.5986C77.994 19.5861 78.8735 21.5547 79.1221 23.7207C79.4344 26.473 79.479 28.9958 79.5236 34.0543C79.53 34.9016 79.3643 35.2202 80.0143 35.2202H83.6917C84.4629 35.2202 84.9728 34.9207 85.1767 34.4302C86.5979 30.9772 90.6513 22.6186 95.5524 17.5346C103.774 8.97219 110.804 6.02248 118.324 6.02248C121.899 6.02248 124.328 6.50029 125.889 7.526C127.508 7.08641 129.222 3.1747 125.373 1.80496Z" fill="black"/>
<path d="M127.493 33.2526V26.6842C127.493 21.9698 124.064 18.332 118.914 18.332C114.192 18.332 110.336 22.1864 110.336 26.9008C110.336 31.8638 113.497 35.4633 118.354 35.4633C120.527 35.4633 122.585 34.1127 123.076 33.0296C123.076 34.514 124.083 35.4633 125.281 35.4633C126.518 35.4633 127.493 34.342 127.493 33.1061V33.2526ZM122.961 26.9008C122.961 29.4046 121.355 31.4242 118.768 31.4242C116.187 31.4242 114.874 29.4046 114.874 26.9008C114.874 24.3907 116.333 22.3712 118.921 22.3712C121.502 22.3712 122.961 24.3907 122.961 26.9008Z" fill="black"/>
<path d="M24.09 33.2129V12.0425C24.09 10.8129 23.0766 9.76172 21.8402 9.76172C20.6038 9.76172 19.5586 10.8065 19.5586 12.0425V33.2129C19.5586 34.4552 20.6038 35.4618 21.8402 35.4618C23.0766 35.4618 24.09 34.4552 24.09 33.2129Z" fill="black"/>
<path d="M43.0084 33.2526V26.6842C43.0084 21.9698 39.5796 18.332 34.43 18.332C29.7138 18.332 25.8516 22.1864 25.8516 26.9008C25.8516 31.8638 29.0127 35.4633 33.8628 35.4633C36.036 35.4633 38.0946 34.1127 38.5853 33.0296C38.5853 34.514 39.5987 35.4633 40.7969 35.4633C42.0333 35.4633 43.0084 34.342 43.0084 33.1061V33.2526ZM38.477 26.9008C38.477 29.4046 36.8646 31.4242 34.2834 31.4242C31.6958 31.4242 30.3893 29.4046 30.3893 26.9008C30.3893 24.3907 31.8488 22.3712 34.4364 22.3712C37.0175 22.3712 38.477 24.3907 38.477 26.9008Z" fill="black"/>
<path d="M59.3544 33.2968C59.3544 32.2902 58.4941 31.4237 57.4807 31.4237H50.8907L58.7171 21.8738C59.0167 21.4979 59.2079 21.052 59.2079 20.5614C59.2079 19.4784 58.3475 18.5801 57.2576 18.5801H46.6589C45.6455 18.5801 44.7852 19.4401 44.7852 20.4467C44.7852 21.4597 45.6455 22.3198 46.6589 22.3198H53.1023L45.2759 31.8761C44.9381 32.2838 44.7915 32.7744 44.7915 33.2968C44.7915 34.2333 45.7284 35.1316 46.6653 35.1635C47.7169 35.2017 48.8003 35.1635 49.8901 35.1635H57.4935C58.4941 35.1635 59.3544 34.3034 59.3544 33.2968Z" fill="black"/>
<path d="M77.1178 33.2526V26.6842C77.1178 21.9698 73.6889 18.332 68.5393 18.332C63.8168 18.332 59.9609 22.1864 59.9609 26.9008C59.9609 31.8638 63.1221 35.4633 67.9721 35.4633C70.1454 35.4633 72.204 34.1127 72.6947 33.0296C72.6947 34.514 73.7081 35.4633 74.9062 35.4633C76.1427 35.4633 77.1178 34.342 77.1178 33.1061V33.2526ZM72.5864 26.9008C72.5864 29.4046 70.9739 31.4242 68.3928 31.4242C65.8116 31.4242 64.4987 29.4046 64.4987 26.9008C64.4987 24.3907 65.9582 22.3712 68.5457 22.3712C71.1269 22.3712 72.5864 24.3907 72.5864 26.9008Z" fill="black"/>
<path d="M17.7627 26.893C17.7627 22.185 14.2447 18.3242 9.64317 18.3242C7.54637 18.3242 5.78734 19.4455 5.00343 20.7579C5.00343 19.2607 3.8435 18.3242 2.86839 18.3242C1.63198 18.3242 0.625 19.369 0.625 20.605V41.7818C0.625 43.0177 1.63198 44.0243 2.86839 44.0243C4.1048 44.0243 5.15002 43.0177 5.15002 41.7818V33.1429C5.71087 34.2259 7.54636 35.4619 9.6368 35.4619C14.2447 35.4619 17.7627 31.6075 17.7627 26.893ZM13.2377 26.893C13.2377 29.3968 11.7782 31.4164 9.19704 31.4164C6.61587 31.4164 5.15639 29.3968 5.15639 26.893C5.15639 24.3893 6.61587 22.3697 9.19704 22.3697C11.7782 22.3697 13.2377 24.3893 13.2377 26.893Z" fill="black"/>
<path d="M127.489 43.0497C127.489 42.5273 127.017 42.2597 126.233 42.0049C125.443 41.7437 125.169 41.6481 125.169 41.285C125.169 40.9282 125.545 40.7626 126.086 40.7626C126.456 40.7626 126.807 40.8582 127.119 41.0493C127.151 41.0684 127.189 41.0748 127.227 41.0748C127.291 41.0748 127.361 41.0429 127.393 40.9792C127.406 40.9473 127.412 40.9155 127.412 40.8773C127.412 40.8136 127.38 40.7498 127.316 40.7116C126.96 40.4823 126.609 40.3549 126.055 40.3549C125.303 40.3549 124.71 40.6989 124.71 41.2723C124.71 41.8265 125.201 42.0559 125.838 42.2789C126.686 42.5592 127.023 42.7248 127.023 43.0497C127.023 43.483 126.513 43.6486 126.016 43.6486C125.589 43.6486 125.22 43.5148 124.863 43.2727C124.831 43.2472 124.793 43.2409 124.748 43.2409C124.691 43.2409 124.633 43.2663 124.595 43.3237C124.57 43.3492 124.563 43.3938 124.563 43.432C124.563 43.4893 124.595 43.553 124.64 43.5849C125.067 43.9034 125.577 44.0436 126.035 44.0436C126.921 44.05 127.489 43.6295 127.489 43.0497ZM123.524 42.2088C123.524 42.9797 122.944 43.6231 122.167 43.6231C121.383 43.6231 120.797 42.9797 120.797 42.2088C120.797 41.4315 121.383 40.7944 122.167 40.7944C122.944 40.7881 123.524 41.4315 123.524 42.2088ZM124.002 43.776V42.2088C124.002 41.1894 123.18 40.3676 122.16 40.3676C121.134 40.3676 120.319 41.1894 120.319 42.2088C120.319 43.2281 121.154 44.05 122.148 44.05C122.753 44.05 123.282 43.7187 123.524 43.3619V43.776C123.524 43.9098 123.633 44.0117 123.767 44.0117C123.9 44.0181 124.002 43.9162 124.002 43.776ZM123.397 39.0233C123.397 38.9851 123.378 38.9469 123.352 38.9087C123.32 38.8577 123.263 38.8322 123.206 38.8322C123.167 38.8322 123.123 38.8386 123.091 38.8641L122.052 39.6031C122.001 39.6413 121.982 39.6923 121.982 39.756C121.982 39.8006 122.001 39.8261 122.014 39.8579C122.046 39.9153 122.11 39.9407 122.173 39.9407C122.211 39.9407 122.237 39.9407 122.269 39.9153L123.308 39.1699C123.359 39.1444 123.397 39.087 123.397 39.0233ZM119.547 43.776V41.9603C119.547 41.0429 119.082 40.3612 118.133 40.3612C117.559 40.3612 117.005 40.6479 116.775 41.164C116.578 40.6925 116.157 40.3612 115.52 40.3612C114.978 40.3612 114.57 40.5906 114.302 41.0047V40.6352C114.302 40.5014 114.194 40.3931 114.06 40.3931C113.92 40.3931 113.818 40.5014 113.818 40.6352V43.776C113.818 43.9098 113.926 44.0117 114.06 44.0117C114.2 44.0117 114.302 43.9098 114.302 43.776V41.9858C114.302 41.336 114.729 40.7881 115.424 40.7881C116.131 40.7881 116.45 41.3041 116.45 41.9731V43.7824C116.45 43.9162 116.558 44.0181 116.692 44.0181C116.832 44.0181 116.941 43.9162 116.941 43.7824V41.8902C116.941 41.2531 117.4 40.7881 118.05 40.7881C118.808 40.7881 119.076 41.3041 119.076 41.9731V43.7824C119.076 43.9162 119.178 44.0181 119.318 44.0181C119.445 44.0181 119.547 43.9162 119.547 43.776ZM110.829 42.2088C110.829 42.9797 110.249 43.6231 109.465 43.6231C108.687 43.6231 108.095 42.9797 108.095 42.2088C108.095 41.4315 108.681 40.7944 109.465 40.7944C110.249 40.7881 110.829 41.4315 110.829 42.2088ZM111.313 43.776V42.2088C111.313 41.1894 110.491 40.3676 109.465 40.3676C108.439 40.3676 107.623 41.1894 107.623 42.2088C107.623 43.2281 108.458 44.05 109.452 44.05C110.058 44.05 110.587 43.7187 110.829 43.3619V43.776C110.829 43.9098 110.931 44.0117 111.065 44.0117C111.205 44.0181 111.313 43.9162 111.313 43.776ZM107.502 40.667C107.502 40.5524 107.413 40.4632 107.298 40.4632H106.584V39.2782C106.584 39.138 106.482 39.0361 106.348 39.0361C106.208 39.0361 106.1 39.138 106.1 39.2782V40.4632H105.463C105.348 40.4632 105.271 40.5524 105.271 40.667C105.271 40.7817 105.354 40.8645 105.463 40.8645H106.1V43.7824C106.1 43.9162 106.215 44.0117 106.348 44.0117C106.482 44.0117 106.584 43.9162 106.584 43.7824V40.8709H107.298C107.413 40.8709 107.502 40.7817 107.502 40.667ZM104.787 42.3999V40.6352C104.787 40.5014 104.679 40.3931 104.545 40.3931C104.405 40.3931 104.303 40.5014 104.303 40.6352V42.4445C104.303 43.1007 103.786 43.6231 103.124 43.6231C102.461 43.6231 101.944 43.1007 101.944 42.4445V40.6352C101.944 40.5014 101.843 40.3931 101.702 40.3931C101.562 40.3931 101.46 40.5014 101.46 40.6352V42.3999C101.46 43.3173 102.187 44.05 103.117 44.05C104.06 44.05 104.787 43.3173 104.787 42.3999ZM101.103 40.5778C101.103 40.4568 101.014 40.3612 100.893 40.3612C100.294 40.3612 99.8095 40.6033 99.529 41.0429V40.6288C99.529 40.495 99.4143 40.3867 99.2868 40.3867C99.1466 40.3867 99.051 40.495 99.051 40.6288V43.7696C99.051 43.9034 99.153 44.0054 99.2868 44.0054C99.4143 44.0054 99.529 43.8971 99.529 43.7696V42.0176C99.529 41.2786 100.179 40.7881 100.893 40.7881C101.014 40.7881 101.103 40.6989 101.103 40.5778ZM98.573 38.7303C98.573 38.6156 98.4838 38.5264 98.3755 38.5264H98.1269C97.2092 38.5264 96.9032 38.9787 96.9032 39.8579V40.4695H96.3615C96.2468 40.4695 96.1703 40.5587 96.1703 40.6734C96.1703 40.7881 96.2532 40.8709 96.3615 40.8709H96.9032V43.776C96.9032 43.9098 97.0116 44.0117 97.1454 44.0117C97.2856 44.0117 97.3876 43.9098 97.3876 43.776V40.8709H98.1269C98.2416 40.8709 98.3309 40.7817 98.3309 40.6734C98.3309 40.5587 98.2416 40.4695 98.1269 40.4695H97.3876V39.8006C97.3876 39.1635 97.5533 38.9341 98.1524 38.9341H98.3755C98.4838 38.9278 98.573 38.8386 98.573 38.7303ZM95.6413 43.0497C95.6413 42.5273 95.1697 42.2597 94.3858 42.0049C93.5955 41.7437 93.3215 41.6481 93.3215 41.285C93.3215 40.9282 93.6975 40.7626 94.2392 40.7626C94.6089 40.7626 94.953 40.8582 95.2717 41.0493C95.3036 41.0684 95.3482 41.0748 95.38 41.0748C95.4438 41.0748 95.5139 41.0429 95.5457 40.9792C95.5585 40.9473 95.5712 40.9155 95.5712 40.8773C95.5712 40.8136 95.5394 40.7498 95.4756 40.7116C95.1187 40.4823 94.7682 40.3549 94.2137 40.3549C93.4617 40.3549 92.8626 40.6989 92.8626 41.2723C92.8626 41.8265 93.3533 42.0559 93.9907 42.2789C94.8383 42.5592 95.1761 42.7248 95.1761 43.0497C95.1761 43.483 94.6662 43.6486 94.1691 43.6486C93.7421 43.6486 93.3725 43.5148 93.0156 43.2727C92.9837 43.2472 92.9454 43.2409 92.9008 43.2409C92.8435 43.2409 92.7861 43.2663 92.7479 43.3237C92.7224 43.3492 92.716 43.3938 92.716 43.432C92.716 43.4893 92.7479 43.553 92.7989 43.5849C93.2259 43.9034 93.7357 44.0436 94.1946 44.0436C95.0741 44.05 95.6413 43.6295 95.6413 43.0497ZM91.7473 43.776V40.6352C91.7473 40.5014 91.6517 40.3931 91.5115 40.3931C91.3776 40.3931 91.2629 40.5014 91.2629 40.6352V43.776C91.2629 43.9098 91.3776 44.0117 91.5115 44.0117C91.6517 44.0181 91.7473 43.9162 91.7473 43.776ZM91.7919 39.1699C91.7919 39.0106 91.6708 38.8832 91.5115 38.8832C91.3521 38.8832 91.2119 39.0106 91.2119 39.1699C91.2119 39.3291 91.3458 39.4629 91.5115 39.4629C91.6708 39.4629 91.7919 39.3291 91.7919 39.1699ZM89.523 42.2088C89.523 43.0051 88.9367 43.6231 88.1528 43.6231C87.3752 43.6231 86.7952 43.0434 86.7952 42.2088C86.7952 41.3678 87.3688 40.7944 88.1528 40.7944C88.9367 40.7881 89.523 41.406 89.523 42.2088ZM90.001 43.776V38.7558C90.001 38.6156 89.899 38.5137 89.7588 38.5137C89.625 38.5137 89.523 38.6156 89.523 38.7558V41.1257C89.2744 40.6925 88.7391 40.3612 88.1209 40.3612C87.1012 40.3612 86.3045 41.1448 86.3045 42.2024C86.3045 43.26 87.1012 44.0436 88.1209 44.0436C88.7327 44.0436 89.2617 43.7569 89.523 43.2791V43.776C89.523 43.9098 89.625 44.0117 89.7588 44.0117C89.899 44.0181 90.001 43.9162 90.001 43.776ZM83.8635 43.6932C83.8635 43.432 83.7297 43.2791 83.4939 43.2791C83.29 43.2791 83.1306 43.432 83.1306 43.6295C83.1306 43.8333 83.29 43.9926 83.4939 43.9926C83.5003 43.9926 83.513 43.9799 83.513 43.9799C83.513 44.3558 83.3855 44.6743 83.1115 45.0056C83.1051 45.012 83.0988 45.0311 83.0988 45.0566C83.0988 45.0948 83.1179 45.1457 83.1625 45.1712C83.1816 45.184 83.2071 45.184 83.2262 45.184C83.2708 45.184 83.2963 45.1649 83.3218 45.1394C83.717 44.6998 83.8635 44.1901 83.8635 43.6932ZM82.4933 43.0497C82.4933 42.5273 82.0217 42.2597 81.2378 42.0049C80.4475 41.7437 80.1734 41.6481 80.1734 41.285C80.1734 40.9282 80.5558 40.7626 81.0912 40.7626C81.4608 40.7626 81.805 40.8582 82.1236 41.0493C82.1555 41.0684 82.1938 41.0748 82.232 41.0748C82.2957 41.0748 82.3658 41.0429 82.4041 40.9792C82.4168 40.9473 82.4296 40.9155 82.4296 40.8773C82.4296 40.8136 82.3977 40.7498 82.334 40.7116C81.9834 40.4823 81.6265 40.3549 81.0721 40.3549C80.32 40.3549 79.7273 40.6989 79.7273 41.2723C79.7273 41.8265 80.218 42.0559 80.8554 42.2789C81.703 42.5592 82.0408 42.7248 82.0408 43.0497C82.0408 43.483 81.5373 43.6486 81.0338 43.6486C80.6068 43.6486 80.2372 43.5148 79.8803 43.2727C79.8484 43.2472 79.8101 43.2409 79.7655 43.2409C79.7146 43.2409 79.6572 43.2663 79.6126 43.3237C79.5871 43.3492 79.5807 43.3938 79.5807 43.432C79.5807 43.4893 79.6126 43.553 79.6636 43.5849C80.0906 43.9034 80.5941 44.0436 81.0529 44.0436C81.9261 44.05 82.4933 43.6295 82.4933 43.0497ZM78.5228 42.2088C78.5228 42.9797 77.9428 43.6231 77.1652 43.6231C76.3813 43.6231 75.795 42.9797 75.795 42.2088C75.795 41.4315 76.3813 40.7944 77.1652 40.7944C77.9428 40.7881 78.5228 41.4315 78.5228 42.2088ZM79.0071 43.776V42.2088C79.0071 41.1894 78.185 40.3676 77.1652 40.3676C76.1455 40.3676 75.317 41.1831 75.317 42.2088C75.317 43.2281 76.1519 44.05 77.1461 44.05C77.7516 44.05 78.2806 43.7187 78.5228 43.3619V43.776C78.5228 43.9098 78.6311 44.0117 78.7649 44.0117C78.9051 44.0181 79.0071 43.9162 79.0071 43.776ZM78.3953 39.0233C78.3953 38.9851 78.3762 38.9469 78.357 38.9087C78.3252 38.8577 78.2678 38.8322 78.2105 38.8322C78.1722 38.8322 78.134 38.8386 78.0957 38.8641L77.0569 39.6031C77.0059 39.6413 76.9868 39.6923 76.9868 39.756C76.9868 39.8006 76.9995 39.8261 77.0187 39.8579C77.0505 39.9153 77.1143 39.9407 77.178 39.9407C77.2226 39.9407 77.2417 39.9407 77.2736 39.9153L78.3124 39.1699C78.3634 39.1444 78.3953 39.087 78.3953 39.0233ZM74.5522 43.776V41.9603C74.5522 41.0429 74.087 40.3612 73.131 40.3612C72.5638 40.3612 72.0029 40.6479 71.7798 41.164C71.5759 40.6925 71.1553 40.3612 70.5243 40.3612C69.9826 40.3612 69.5747 40.5906 69.307 41.0047V40.6352C69.307 40.5014 69.1987 40.3931 69.0648 40.3931C68.931 40.3931 68.8226 40.5014 68.8226 40.6352V43.776C68.8226 43.9098 68.9246 44.0117 69.0648 44.0117C69.205 44.0117 69.307 43.9098 69.307 43.776V41.9858C69.307 41.336 69.734 40.7881 70.4287 40.7881C71.1361 40.7881 71.4548 41.3041 71.4548 41.9731V43.7824C71.4548 43.9162 71.5568 44.0181 71.697 44.0181C71.8372 44.0181 71.9392 43.9162 71.9392 43.7824V41.8902C71.9392 41.2531 72.398 40.7881 73.0481 40.7881C73.8065 40.7881 74.0678 41.3041 74.0678 41.9731V43.7824C74.0678 43.9162 74.1698 44.0181 74.31 44.0181C74.4502 44.0181 74.5522 43.9162 74.5522 43.776ZM65.8272 42.2088C65.8272 42.9797 65.2472 43.6231 64.4633 43.6231C63.6858 43.6231 63.0931 42.9797 63.0931 42.2088C63.0931 41.4315 63.6794 40.7944 64.4633 40.7944C65.2472 40.7881 65.8272 41.4315 65.8272 42.2088ZM66.3116 43.776V42.2088C66.3116 41.1894 65.4894 40.3676 64.4633 40.3676C63.4436 40.3676 62.6215 41.1894 62.6215 42.2088C62.6215 43.2281 63.4564 44.05 64.4506 44.05C65.056 44.05 65.585 43.7187 65.8272 43.3619V43.776C65.8272 43.9098 65.9292 44.0117 66.0694 44.0117C66.2096 44.0181 66.3116 43.9162 66.3116 43.776ZM62.5832 40.5778C62.5832 40.4568 62.494 40.3612 62.3729 40.3612C61.7738 40.3612 61.2958 40.6033 61.009 41.0429V40.6288C61.009 40.495 60.8943 40.3867 60.7668 40.3867C60.633 40.3867 60.531 40.495 60.531 40.6288V43.7696C60.531 43.9034 60.6394 44.0054 60.7668 44.0054C60.8943 44.0054 61.009 43.8971 61.009 43.7696V42.0176C61.009 41.2786 61.6591 40.7881 62.3729 40.7881C62.494 40.7881 62.5832 40.6989 62.5832 40.5778ZM59.8937 40.5778C59.8937 40.4568 59.8045 40.3612 59.6834 40.3612C59.0907 40.3612 58.6063 40.6033 58.3195 41.0429V40.6288C58.3195 40.495 58.2048 40.3867 58.0773 40.3867C57.9371 40.3867 57.8415 40.495 57.8415 40.6288V43.7696C57.8415 43.9034 57.9435 44.0054 58.0773 44.0054C58.2048 44.0054 58.3195 43.8971 58.3195 43.7696V42.0176C58.3195 41.2786 58.976 40.7881 59.6834 40.7881C59.8045 40.7881 59.8937 40.6989 59.8937 40.5778ZM56.5669 42.2088C56.5669 42.9797 55.9805 43.6231 55.1966 43.6231C54.4127 43.6231 53.8327 42.9797 53.8327 42.2088C53.8327 41.4315 54.4127 40.7944 55.1966 40.7944C55.9805 40.7881 56.5669 41.4315 56.5669 42.2088ZM57.0449 42.2088C57.0449 41.1894 56.2227 40.3676 55.203 40.3676C54.1833 40.3676 53.3547 41.1894 53.3547 42.2088C53.3547 43.2281 54.1769 44.05 55.203 44.05C56.2227 44.05 57.0449 43.2281 57.0449 42.2088ZM52.711 43.776V41.9794C52.711 41.062 52.1693 40.3612 51.2133 40.3612C50.6716 40.3612 50.149 40.6224 49.894 41.0365V38.7621C49.894 38.622 49.7793 38.52 49.6519 38.52C49.5117 38.52 49.4097 38.622 49.4097 38.7621V43.7824C49.4097 43.9162 49.5117 44.0181 49.6519 44.0181C49.7857 44.0181 49.894 43.9162 49.894 43.7824V41.9922C49.894 41.3423 50.423 40.7944 51.1177 40.7944C51.8953 40.7944 52.233 41.3105 52.233 41.9794V43.7888C52.233 43.9225 52.3478 44.0245 52.4816 44.0245C52.6154 44.0181 52.711 43.9162 52.711 43.776ZM47.9948 42.2088C47.9948 42.9797 47.4148 43.6231 46.6373 43.6231C45.8534 43.6231 45.2671 42.9797 45.2671 42.2088C45.2671 41.4315 45.8534 40.7944 46.6373 40.7944C47.4212 40.7881 47.9948 41.4315 47.9948 42.2088ZM48.4792 43.776V42.2088C48.4792 41.1894 47.657 40.3676 46.6373 40.3676C45.6112 40.3676 44.7891 41.1894 44.7891 42.2088C44.7891 43.2281 45.6303 44.05 46.6182 44.05C47.2237 44.05 47.7526 43.7187 47.9948 43.3619V43.776C47.9948 43.9098 48.1032 44.0117 48.237 44.0117C48.3772 44.0181 48.4792 43.9162 48.4792 43.776Z" fill="black"/>
</svg>
