<svg width="80" height="83" viewBox="0 0 80 83" fill="none" xmlns="http://www.w3.org/2000/svg">
<g clip-path="url(#clip0_4422_2152)">
<path d="M27.1503 56.6018C25.3088 53.7583 23.5865 50.9277 21.6806 48.2292C20.6729 46.7977 20.879 45.8789 22.0154 44.6183C27.2018 38.8603 30.7302 32.0352 34.1234 25.1456C35.6397 22.0699 36.95 18.8943 38.4309 15.7993C38.7239 15.1899 39.371 14.7515 39.8539 14.2324C40.3947 14.7483 41.1255 15.1674 41.4507 15.796C45.1368 22.9339 48.6202 30.1814 52.4673 37.229C54.0158 40.0693 56.2597 42.5421 58.304 45.089C59.0928 46.0724 59.1089 46.8106 58.4457 47.8036C56.6332 50.5279 54.8786 53.2876 53.1048 56.0377C52.9953 56.2053 52.9406 56.4052 52.8504 56.6115C54.5503 56.8522 55.4002 57.8151 55.4002 59.5002C55.4002 61.6474 55.4002 63.7977 55.4002 65.9449C55.3969 68.192 55.2295 68.3597 53.0533 68.379C52.6251 68.3822 52.2001 68.379 51.5369 68.379C51.5369 68.9529 51.5369 69.4655 51.5369 69.9781C51.5369 73.5212 51.5112 77.0676 51.5498 80.6107C51.5659 81.9519 51.0766 82.5838 49.6729 82.5774C43.1859 82.5484 36.6957 82.5484 30.2087 82.5774C28.805 82.5838 28.3221 81.9487 28.335 80.6107C28.3736 76.5937 28.3479 72.5766 28.3479 68.6369C28.129 68.5144 28.0421 68.4209 27.9551 68.4209C24.5619 68.3564 24.4235 68.753 24.4814 64.8197C24.5072 63.0466 24.4847 61.2766 24.4847 59.5034C24.4847 57.8162 25.3732 56.849 27.1503 56.6018ZM23.7893 46.6494C25.8593 49.8412 27.8457 52.962 29.9125 56.028C30.1733 56.4148 30.8429 56.734 31.3258 56.7372C37.0627 56.7856 42.8028 56.7824 48.5429 56.7437C49.0001 56.7437 49.6504 56.5212 49.879 56.1795C51.9909 53.0297 54.0319 49.8283 56.0923 46.6398C49.7373 39.3375 45.6069 30.8262 41.3573 22.3729C41.235 27.7473 41.2607 33.0636 41.2125 38.3767C41.2028 39.5374 41.3895 40.2531 42.5968 40.8431C44.6443 41.8425 45.5135 44.3379 44.9115 46.4979C44.2676 48.8063 42.2942 50.3312 39.9472 50.3344C37.6035 50.3377 35.6172 48.8127 34.9701 46.5108C34.3617 44.3411 35.2856 42.0005 37.2462 40.8012C37.6905 40.5303 38.1637 40.3079 38.5533 40.1016V21.9828C34.2844 30.8584 30.1282 39.3214 23.7893 46.6462V46.6494ZM48.8745 68.4983H31.0586V79.8983H48.8745V68.4983ZM52.741 59.4744H27.1471V65.7096H52.741V59.4744ZM39.9215 47.7295C41.3123 47.7391 42.4873 46.5785 42.497 45.1858C42.5066 43.7898 41.3509 42.6163 39.9537 42.6034C38.5694 42.5905 37.3846 43.7608 37.375 45.1503C37.3653 46.5463 38.5211 47.7198 39.9183 47.7295H39.9215Z" fill="black"/>
<path d="M24.4955 6.49027C19.9111 6.49027 15.3267 6.46448 10.7424 6.54186C10.3754 6.54831 9.94075 7.23179 9.67676 7.68314C8.5854 9.52403 6.60227 10.575 4.54188 10.3236C2.48149 10.0753 0.765572 8.58263 0.186088 6.53863C-0.3773 4.55589 0.366372 2.36682 2.04044 1.08367C4.59017 -0.866828 8.11537 -0.0350431 9.75724 2.83751C10.0148 3.29209 10.6168 3.84662 11.0643 3.84984C18.8906 3.9111 26.7168 3.89498 34.5495 3.89498C34.6397 3.69509 34.762 3.55646 34.7588 3.42105C34.5785 -0.695957 35.4831 0.0713479 38.4289 0.0294362C39.9291 0.00686845 41.4325 0.0197643 42.936 0.0294362C44.8257 0.0423321 45.0768 0.293802 45.0994 2.1637C45.1058 2.68599 45.0994 3.2115 45.0994 3.8305C45.6499 3.85629 46.0652 3.89498 46.4805 3.89498C53.7755 3.8982 61.0706 3.88531 68.3657 3.9111C69.2446 3.9111 69.7661 3.75312 70.2007 2.84396C71.2502 0.65811 73.6229 -0.383232 75.841 0.148723C78.1976 0.712918 79.8491 2.76659 79.862 5.15233C79.8749 7.54774 78.2716 9.58851 75.899 10.1946C73.6744 10.762 71.2889 9.74648 70.22 7.58642C69.7919 6.7224 69.3315 6.45803 68.414 6.46771C64.0775 6.51284 59.741 6.48705 55.3047 6.61923C60.8066 9.93025 64.6441 14.5534 66.6562 20.608C67.0747 20.6306 67.3934 20.6564 67.7122 20.6596C69.8026 20.6854 70.8478 21.7719 70.8478 23.9191C70.8478 25.6922 70.8285 27.4654 70.8542 29.2386C70.8703 30.4508 70.3231 31.0086 69.1061 30.9957C66.8011 30.9731 64.4928 30.9828 62.1877 30.9925C61.0449 30.9957 60.5298 30.4379 60.5362 29.3063C60.5491 27.2107 60.5362 25.1152 60.5394 23.0196C60.5426 20.8821 60.7165 20.7048 62.8026 20.6628C63.0666 20.6564 63.3306 20.6628 63.6042 20.6628C63.0087 14.2052 53.7144 7.08026 45.0961 6.58377C45.0961 7.2608 45.0768 7.93139 45.0994 8.59875C45.138 9.81096 44.5811 10.3752 43.3609 10.3623C41.1621 10.3397 38.96 10.3107 36.7644 10.3719C35.3061 10.4138 34.6751 9.80129 34.7781 8.35695C34.82 7.78309 34.7845 7.206 34.7845 6.62568C24.8882 6.93196 17.5738 14.7501 16.1799 20.6628C16.6306 20.6628 17.0555 20.6822 17.4773 20.6596C18.7489 20.5919 19.3702 21.1368 19.3509 22.4554C19.3155 24.7122 19.3252 26.9689 19.3509 29.2225C19.3638 30.4283 18.8423 31.0053 17.6157 30.9957C15.3106 30.9731 13.0024 30.9796 10.6973 30.9925C9.56086 30.9989 9.02645 30.4573 9.03289 29.3192C9.04576 27.0624 9.07152 24.8057 9.02323 22.5521C8.99426 21.1626 9.61881 20.4888 10.9613 20.6822C12.6675 20.9304 13.4177 20.2566 14.0486 18.6253C15.8547 13.9312 19.0612 10.2978 23.2914 7.57998C23.6971 7.31883 24.0995 7.05769 24.4987 6.78688C24.5212 6.77076 24.4987 6.69661 24.4987 6.4935L24.4955 6.49027ZM37.4502 2.67954V7.67347H42.408V2.67954H37.4502ZM11.7339 23.3226V28.2714H16.6692V23.3226H11.7339ZM63.2276 23.2807V28.2843H68.1403V23.2807H63.2276ZM2.61348 5.15555C2.59417 6.55153 3.74026 7.73473 5.13746 7.75407C6.52179 7.77664 7.71295 6.61278 7.73227 5.22648C7.75158 3.83372 6.60227 2.65052 5.20829 2.62796C3.81753 2.60539 2.6328 3.75957 2.61348 5.15555ZM77.2704 5.31675C77.3413 3.93044 76.2274 2.70211 74.8366 2.62796C73.4555 2.55703 72.2225 3.67575 72.1516 5.06528C72.0808 6.45159 73.1947 7.68314 74.5855 7.75407C75.9601 7.825 77.2028 6.69661 77.2704 5.31675Z" fill="black"/>
</g>
<defs>
<clipPath id="clip0_4422_2152">
<rect width="79.8626" height="82.5852" fill="white"/>
</clipPath>
</defs>
</svg>
