<svg width="1437" height="3115" viewBox="0 0 1437 3115" fill="none" xmlns="http://www.w3.org/2000/svg">
<rect width="708" height="558" fill="#606060" fill-opacity="0.36"/>
<rect y="2557" width="708" height="558" fill="#606060" fill-opacity="0.36"/>
<rect width="349" height="317" transform="matrix(-1 0 0 1 349 586)" fill="#606060" fill-opacity="0.36"/>
<rect width="349" height="317" transform="matrix(-1 0 0 1 1078 586)" fill="#606060" fill-opacity="0.36"/>
<rect x="729" width="708" height="558" fill="#D9D9D9"/>
<rect x="729" y="2557" width="708" height="558" fill="#D9D9D9"/>
<rect x="1" y="1736" width="1436" height="791" fill="#D9D9D9"/>
<rect width="339" height="317" transform="matrix(-1 0 0 1 708 586)" fill="#D9D9D9"/>
<rect width="339" height="317" transform="matrix(-1 0 0 1 1437 586)" fill="#D9D9D9"/>
<rect x="1" y="933" width="1435" height="775" fill="#D9D9D9"/>
<g clip-path="url(#clip0_5320_1394)">
<path d="M833.595 1656.28L810.432 1635.49C809.638 1634.78 808.423 1634.85 807.719 1635.64C807.01 1636.43 807.074 1637.65 807.868 1638.35L827.296 1655.79H731.981C730.92 1655.79 730.057 1656.65 730.057 1657.71C730.057 1658.77 730.92 1659.64 731.981 1659.64H827.291L807.863 1677.07C807.074 1677.78 807.005 1679 807.714 1679.78C808.096 1680.21 808.617 1680.42 809.147 1680.42C809.604 1680.42 810.065 1680.26 810.432 1679.93L833.595 1659.15C834.001 1658.78 834.235 1658.26 834.235 1657.72C834.235 1657.17 834.001 1656.65 833.595 1656.29V1656.28Z" fill="black"/>
</g>
<g clip-path="url(#clip1_5320_1394)">
<path d="M601.64 1656.28L624.802 1635.49C625.596 1634.78 626.811 1634.85 627.515 1635.64C628.225 1636.43 628.16 1637.65 627.367 1638.35L607.939 1655.79H703.253C704.315 1655.79 705.178 1656.65 705.178 1657.71C705.178 1658.77 704.315 1659.64 703.253 1659.64H607.944L627.372 1677.07C628.16 1677.78 628.23 1679 627.52 1679.78C627.139 1680.21 626.618 1680.42 626.087 1680.42C625.631 1680.42 625.169 1680.26 624.802 1679.93L601.64 1659.15C601.233 1658.78 601 1658.26 601 1657.72C601 1657.17 601.233 1656.65 601.64 1656.29V1656.28Z" fill="black"/>
</g>
<defs>
<clipPath id="clip0_5320_1394">
<rect width="104.178" height="45.4229" fill="white" transform="translate(730.057 1635)"/>
</clipPath>
<clipPath id="clip1_5320_1394">
<rect width="104.178" height="45.4229" fill="white" transform="matrix(-1 0 0 1 705.178 1635)"/>
</clipPath>
</defs>
</svg>
