<svg width="1149" height="183" viewBox="0 0 1149 183" fill="none" xmlns="http://www.w3.org/2000/svg">
<mask id="path-1-outside-1_6807_1441" maskUnits="userSpaceOnUse" x="0.0546875" y="0.253906" width="1149" height="183" fill="black">
<rect fill="white" x="0.0546875" y="0.253906" width="1149" height="183"/>
<path d="M39.5657 178H3.05469L39.9179 4.83669H98.7347C110.709 4.83669 120.493 7.02813 128.084 11.411C135.676 15.7156 141.272 21.5464 144.872 28.9034C148.551 36.1822 150.39 44.2435 150.39 53.0876C150.39 63.4969 148.434 72.9671 144.52 81.4981C140.685 89.9508 135.285 97.2687 128.319 103.452C121.432 109.556 113.37 114.291 104.135 117.657C94.9779 120.944 85.1556 122.588 74.6679 122.588H51.423L39.5657 178ZM53.771 111.083L40.9745 94.412H76.3115C83.9033 94.412 90.4776 92.7684 96.0345 89.4812C101.67 86.1158 106.013 81.5372 109.066 75.7455C112.118 69.9539 113.644 63.3013 113.644 55.7878C113.644 50.9353 112.744 46.8263 110.944 43.4609C109.144 40.0172 106.444 37.4344 102.844 35.7126C99.2434 33.9125 94.7431 33.0124 89.3428 33.0124H54.0058L74.0809 15.8722L53.771 111.083ZM148.657 178L185.52 4.83669H255.02C270.986 4.83669 282.53 8.16298 289.653 14.8156C296.853 21.3899 300.453 30.1165 300.453 40.9955C300.453 47.335 299.436 53.6354 297.401 59.8967C295.366 66.158 292.47 71.9496 288.713 77.2717C284.957 82.5155 280.535 86.8202 275.447 90.1856C270.36 93.551 264.842 95.5077 258.894 96.0555C262.807 96.2903 266.447 97.1904 269.812 98.7557C273.178 100.243 275.839 102.552 277.795 105.682C279.83 108.813 280.848 112.961 280.848 118.127C280.848 120.474 280.535 123.449 279.909 127.049C279.282 130.571 278.5 134.406 277.561 138.554C276.7 142.624 275.76 146.733 274.743 150.881C273.804 155.029 273.021 158.903 272.395 162.503C271.769 166.103 271.456 169.117 271.456 171.543C271.456 172.952 271.534 174.243 271.691 175.417C271.925 176.513 272.238 177.374 272.63 178H236.119C235.493 176.591 235.18 174.517 235.18 171.778C235.18 169.508 235.454 166.769 236.001 163.56C236.549 160.351 237.214 156.946 237.997 153.346C238.858 149.746 239.68 146.146 240.463 142.545C241.323 138.945 242.028 135.619 242.576 132.567C243.202 129.436 243.515 126.814 243.515 124.701C243.515 119.927 241.832 116.326 238.467 113.9C235.18 111.474 230.444 110.261 224.261 110.261H182.35L200.899 100.047L184.346 178H148.657ZM202.543 92.1814L188.22 82.0851H231.305C236.784 82.0851 241.832 80.7937 246.45 78.2109C251.068 75.6281 254.746 72.0671 257.485 67.5276C260.303 62.9882 261.712 57.8227 261.712 52.031C261.712 46.4741 260.107 41.8956 256.898 38.2953C253.689 34.6951 248.485 32.895 241.284 32.895H198.903L218.744 15.8722L202.543 92.1814ZM373.991 180.817C361.703 180.817 350.707 178.196 341.002 172.952C331.297 167.63 323.666 159.842 318.109 149.589C312.552 139.258 309.774 126.618 309.774 111.67C309.774 96.7208 312.083 82.6329 316.7 69.406C321.318 56.1791 327.853 44.5566 336.306 34.5386C344.837 24.4423 355.05 16.5374 366.947 10.824C378.843 5.11061 392.031 2.25391 406.51 2.25391C419.033 2.25391 430.107 4.87581 439.734 10.1196C449.439 15.2852 457.031 22.9552 462.509 33.1298C468.066 43.2261 470.845 55.7095 470.845 70.58C470.845 85.5288 468.536 99.6558 463.918 112.961C459.301 126.188 452.687 137.889 444.078 148.063C435.547 158.238 425.333 166.26 413.437 172.13C401.619 177.922 388.47 180.817 373.991 180.817ZM377.395 151.585C386.866 151.585 395.123 149.198 402.167 144.424C409.289 139.571 415.198 133.232 419.894 125.405C424.59 117.5 428.112 108.774 430.46 99.2253C432.808 89.5986 433.982 79.9719 433.982 70.3452C433.982 60.9533 432.612 53.4398 429.873 47.8046C427.212 42.0912 423.572 37.9431 418.955 35.3604C414.337 32.7776 409.015 31.4862 402.988 31.4862C393.518 31.4862 385.222 33.7951 378.1 38.4127C371.056 43.0304 365.186 49.2134 360.49 56.9617C355.872 64.7101 352.389 73.3193 350.041 82.7895C347.772 92.2596 346.637 101.886 346.637 111.67C346.637 125.992 349.533 136.245 355.324 142.428C361.116 148.533 368.473 151.585 377.395 151.585ZM617.951 115.426C613.333 137.341 604.333 153.737 590.949 164.616C577.644 175.417 561.404 180.817 542.229 180.817C524.228 180.817 510.375 176.943 500.67 169.195C490.965 161.368 486.112 149.707 486.112 134.21C486.112 128.732 486.582 123.175 487.521 117.54C488.538 111.826 490.025 104.391 491.982 95.2337L511.588 4.83669H548.099L527.436 100.399C526.341 105.487 525.441 109.791 524.736 113.313C524.032 116.835 523.523 119.966 523.21 122.705C522.897 125.366 522.741 128.105 522.741 130.923C522.741 138.123 524.541 143.367 528.141 146.654C531.819 149.942 537.454 151.585 545.046 151.585C554.986 151.585 562.852 148.728 568.643 143.015C574.513 137.223 578.74 128.223 581.323 116.013L605.037 4.83669H641.431L617.951 115.426ZM633.385 178L670.248 4.83669H725.426C739.279 4.83669 750.784 7.69339 759.941 13.4068C769.098 19.1202 775.946 26.9076 780.486 36.7691C785.025 46.5524 787.295 57.5487 787.295 69.7582C787.295 85.2548 784.712 99.6166 779.547 112.844C774.381 125.992 767.259 137.458 758.18 147.241C749.18 156.946 738.809 164.499 727.069 169.899C715.33 175.3 702.885 178 689.737 178H633.385ZM672.362 166.847L659.33 149.355H690.441C698.659 149.355 706.329 147.281 713.451 143.132C720.652 138.906 726.991 133.232 732.47 126.11C738.027 118.909 742.37 110.73 745.501 101.573C748.632 92.3379 750.197 82.6721 750.197 72.5758C750.197 64.7492 748.945 57.9401 746.44 52.1484C743.936 46.2784 740.14 41.6999 735.053 38.4127C729.965 35.1256 723.547 33.482 715.799 33.482H684.571L704.529 15.9896L672.362 166.847ZM994.849 33.0124H935.797L955.872 15.8722L921.357 178H885.081L919.479 15.8722L932.275 33.0124H873.458L879.446 4.83669H1000.84L994.849 33.0124ZM1050.41 180.817C1038.12 180.817 1027.13 178.196 1017.42 172.952C1007.72 167.63 1000.08 159.842 994.528 149.589C988.971 139.258 986.192 126.618 986.192 111.67C986.192 96.7208 988.501 82.6329 993.119 69.406C997.737 56.1791 1004.27 44.5566 1012.72 34.5386C1021.26 24.4423 1031.47 16.5374 1043.37 10.824C1055.26 5.11061 1068.45 2.25391 1082.93 2.25391C1095.45 2.25391 1106.53 4.87581 1116.15 10.1196C1125.86 15.2852 1133.45 22.9552 1138.93 33.1298C1144.49 43.2261 1147.26 55.7095 1147.26 70.58C1147.26 85.5288 1144.95 99.6558 1140.34 112.961C1135.72 126.188 1129.11 137.889 1120.5 148.063C1111.97 158.238 1101.75 166.26 1089.86 172.13C1078.04 177.922 1064.89 180.817 1050.41 180.817ZM1053.81 151.585C1063.28 151.585 1071.54 149.198 1078.59 144.424C1085.71 139.571 1091.62 133.232 1096.31 125.405C1101.01 117.5 1104.53 108.774 1106.88 99.2253C1109.23 89.5986 1110.4 79.9719 1110.4 70.3452C1110.4 60.9533 1109.03 53.4398 1106.29 47.8046C1103.63 42.0912 1099.99 37.9431 1095.37 35.3604C1090.76 32.7776 1085.43 31.4862 1079.41 31.4862C1069.94 31.4862 1061.64 33.7951 1054.52 38.4127C1047.47 43.0304 1041.6 49.2134 1036.91 56.9617C1032.29 64.7101 1028.81 73.3193 1026.46 82.7895C1024.19 92.2596 1023.06 101.886 1023.06 111.67C1023.06 125.992 1025.95 136.245 1031.74 142.428C1037.53 148.533 1044.89 151.585 1053.81 151.585Z"/>
</mask>
<path d="M39.5657 178H3.05469L39.9179 4.83669H98.7347C110.709 4.83669 120.493 7.02813 128.084 11.411C135.676 15.7156 141.272 21.5464 144.872 28.9034C148.551 36.1822 150.39 44.2435 150.39 53.0876C150.39 63.4969 148.434 72.9671 144.52 81.4981C140.685 89.9508 135.285 97.2687 128.319 103.452C121.432 109.556 113.37 114.291 104.135 117.657C94.9779 120.944 85.1556 122.588 74.6679 122.588H51.423L39.5657 178ZM53.771 111.083L40.9745 94.412H76.3115C83.9033 94.412 90.4776 92.7684 96.0345 89.4812C101.67 86.1158 106.013 81.5372 109.066 75.7455C112.118 69.9539 113.644 63.3013 113.644 55.7878C113.644 50.9353 112.744 46.8263 110.944 43.4609C109.144 40.0172 106.444 37.4344 102.844 35.7126C99.2434 33.9125 94.7431 33.0124 89.3428 33.0124H54.0058L74.0809 15.8722L53.771 111.083ZM148.657 178L185.52 4.83669H255.02C270.986 4.83669 282.53 8.16298 289.653 14.8156C296.853 21.3899 300.453 30.1165 300.453 40.9955C300.453 47.335 299.436 53.6354 297.401 59.8967C295.366 66.158 292.47 71.9496 288.713 77.2717C284.957 82.5155 280.535 86.8202 275.447 90.1856C270.36 93.551 264.842 95.5077 258.894 96.0555C262.807 96.2903 266.447 97.1904 269.812 98.7557C273.178 100.243 275.839 102.552 277.795 105.682C279.83 108.813 280.848 112.961 280.848 118.127C280.848 120.474 280.535 123.449 279.909 127.049C279.282 130.571 278.5 134.406 277.561 138.554C276.7 142.624 275.76 146.733 274.743 150.881C273.804 155.029 273.021 158.903 272.395 162.503C271.769 166.103 271.456 169.117 271.456 171.543C271.456 172.952 271.534 174.243 271.691 175.417C271.925 176.513 272.238 177.374 272.63 178H236.119C235.493 176.591 235.18 174.517 235.18 171.778C235.18 169.508 235.454 166.769 236.001 163.56C236.549 160.351 237.214 156.946 237.997 153.346C238.858 149.746 239.68 146.146 240.463 142.545C241.323 138.945 242.028 135.619 242.576 132.567C243.202 129.436 243.515 126.814 243.515 124.701C243.515 119.927 241.832 116.326 238.467 113.9C235.18 111.474 230.444 110.261 224.261 110.261H182.35L200.899 100.047L184.346 178H148.657ZM202.543 92.1814L188.22 82.0851H231.305C236.784 82.0851 241.832 80.7937 246.45 78.2109C251.068 75.6281 254.746 72.0671 257.485 67.5276C260.303 62.9882 261.712 57.8227 261.712 52.031C261.712 46.4741 260.107 41.8956 256.898 38.2953C253.689 34.6951 248.485 32.895 241.284 32.895H198.903L218.744 15.8722L202.543 92.1814ZM373.991 180.817C361.703 180.817 350.707 178.196 341.002 172.952C331.297 167.63 323.666 159.842 318.109 149.589C312.552 139.258 309.774 126.618 309.774 111.67C309.774 96.7208 312.083 82.6329 316.7 69.406C321.318 56.1791 327.853 44.5566 336.306 34.5386C344.837 24.4423 355.05 16.5374 366.947 10.824C378.843 5.11061 392.031 2.25391 406.51 2.25391C419.033 2.25391 430.107 4.87581 439.734 10.1196C449.439 15.2852 457.031 22.9552 462.509 33.1298C468.066 43.2261 470.845 55.7095 470.845 70.58C470.845 85.5288 468.536 99.6558 463.918 112.961C459.301 126.188 452.687 137.889 444.078 148.063C435.547 158.238 425.333 166.26 413.437 172.13C401.619 177.922 388.47 180.817 373.991 180.817ZM377.395 151.585C386.866 151.585 395.123 149.198 402.167 144.424C409.289 139.571 415.198 133.232 419.894 125.405C424.59 117.5 428.112 108.774 430.46 99.2253C432.808 89.5986 433.982 79.9719 433.982 70.3452C433.982 60.9533 432.612 53.4398 429.873 47.8046C427.212 42.0912 423.572 37.9431 418.955 35.3604C414.337 32.7776 409.015 31.4862 402.988 31.4862C393.518 31.4862 385.222 33.7951 378.1 38.4127C371.056 43.0304 365.186 49.2134 360.49 56.9617C355.872 64.7101 352.389 73.3193 350.041 82.7895C347.772 92.2596 346.637 101.886 346.637 111.67C346.637 125.992 349.533 136.245 355.324 142.428C361.116 148.533 368.473 151.585 377.395 151.585ZM617.951 115.426C613.333 137.341 604.333 153.737 590.949 164.616C577.644 175.417 561.404 180.817 542.229 180.817C524.228 180.817 510.375 176.943 500.67 169.195C490.965 161.368 486.112 149.707 486.112 134.21C486.112 128.732 486.582 123.175 487.521 117.54C488.538 111.826 490.025 104.391 491.982 95.2337L511.588 4.83669H548.099L527.436 100.399C526.341 105.487 525.441 109.791 524.736 113.313C524.032 116.835 523.523 119.966 523.21 122.705C522.897 125.366 522.741 128.105 522.741 130.923C522.741 138.123 524.541 143.367 528.141 146.654C531.819 149.942 537.454 151.585 545.046 151.585C554.986 151.585 562.852 148.728 568.643 143.015C574.513 137.223 578.74 128.223 581.323 116.013L605.037 4.83669H641.431L617.951 115.426ZM633.385 178L670.248 4.83669H725.426C739.279 4.83669 750.784 7.69339 759.941 13.4068C769.098 19.1202 775.946 26.9076 780.486 36.7691C785.025 46.5524 787.295 57.5487 787.295 69.7582C787.295 85.2548 784.712 99.6166 779.547 112.844C774.381 125.992 767.259 137.458 758.18 147.241C749.18 156.946 738.809 164.499 727.069 169.899C715.33 175.3 702.885 178 689.737 178H633.385ZM672.362 166.847L659.33 149.355H690.441C698.659 149.355 706.329 147.281 713.451 143.132C720.652 138.906 726.991 133.232 732.47 126.11C738.027 118.909 742.37 110.73 745.501 101.573C748.632 92.3379 750.197 82.6721 750.197 72.5758C750.197 64.7492 748.945 57.9401 746.44 52.1484C743.936 46.2784 740.14 41.6999 735.053 38.4127C729.965 35.1256 723.547 33.482 715.799 33.482H684.571L704.529 15.9896L672.362 166.847ZM994.849 33.0124H935.797L955.872 15.8722L921.357 178H885.081L919.479 15.8722L932.275 33.0124H873.458L879.446 4.83669H1000.84L994.849 33.0124ZM1050.41 180.817C1038.12 180.817 1027.13 178.196 1017.42 172.952C1007.72 167.63 1000.08 159.842 994.528 149.589C988.971 139.258 986.192 126.618 986.192 111.67C986.192 96.7208 988.501 82.6329 993.119 69.406C997.737 56.1791 1004.27 44.5566 1012.72 34.5386C1021.26 24.4423 1031.47 16.5374 1043.37 10.824C1055.26 5.11061 1068.45 2.25391 1082.93 2.25391C1095.45 2.25391 1106.53 4.87581 1116.15 10.1196C1125.86 15.2852 1133.45 22.9552 1138.93 33.1298C1144.49 43.2261 1147.26 55.7095 1147.26 70.58C1147.26 85.5288 1144.95 99.6558 1140.34 112.961C1135.72 126.188 1129.11 137.889 1120.5 148.063C1111.97 158.238 1101.75 166.26 1089.86 172.13C1078.04 177.922 1064.89 180.817 1050.41 180.817ZM1053.81 151.585C1063.28 151.585 1071.54 149.198 1078.59 144.424C1085.71 139.571 1091.62 133.232 1096.31 125.405C1101.01 117.5 1104.53 108.774 1106.88 99.2253C1109.23 89.5986 1110.4 79.9719 1110.4 70.3452C1110.4 60.9533 1109.03 53.4398 1106.29 47.8046C1103.63 42.0912 1099.99 37.9431 1095.37 35.3604C1090.76 32.7776 1085.43 31.4862 1079.41 31.4862C1069.94 31.4862 1061.64 33.7951 1054.52 38.4127C1047.47 43.0304 1041.6 49.2134 1036.91 56.9617C1032.29 64.7101 1028.81 73.3193 1026.46 82.7895C1024.19 92.2596 1023.06 101.886 1023.06 111.67C1023.06 125.992 1025.95 136.245 1031.74 142.428C1037.53 148.533 1044.89 151.585 1053.81 151.585Z" stroke="#FFFDF8" stroke-width="3.3695" mask="url(#path-1-outside-1_6807_1441)"/>
</svg>
