<svg width="86" height="67" viewBox="0 0 86 67" fill="none" xmlns="http://www.w3.org/2000/svg">
<path d="M10.1312 22.1747C9.95095 22.8056 9.79071 23.4065 9.65049 23.9874C9.47021 24.7186 9.30997 25.3796 9.15974 25.9805C9.00951 26.5614 8.90935 27.0321 8.84926 27.3726C8.72907 27.9836 8.32846 28.3642 7.69749 28.4844C7.14664 28.5945 6.56575 28.5444 5.95481 28.3542C5.35388 28.1639 4.81305 27.8233 4.34233 27.3526C3.84156 26.8518 3.59117 26.2309 3.59117 25.4998C3.59117 24.8988 3.7414 23.9574 4.05188 22.6153C4.35234 21.3033 4.78301 19.7409 5.34387 17.9882C5.89472 16.2455 6.56575 14.3226 7.32692 12.2694C7.98793 10.5067 8.71906 8.744 9.52029 6.9913C9.78069 6.42042 10.3215 6.02982 10.9525 5.9497C12.3647 5.78945 13.5966 5.82951 14.6382 6.06988C15.2691 6.22011 15.5996 6.90116 15.3392 7.48205C14.6682 8.98436 14.0473 10.4767 13.4964 11.9289C13.0457 13.1107 12.6251 14.2725 12.2144 15.4042C12.1744 15.5144 12.2845 15.6246 12.3947 15.5745C12.9355 15.3241 13.4664 15.0337 13.9872 14.7032C14.8385 14.1523 15.6197 13.5013 16.3007 12.7602C16.9818 12.019 17.5326 11.1777 17.9533 10.2764C18.3639 9.37497 18.5742 8.39346 18.5742 7.36187C18.5742 6.03984 18.2036 5.05833 17.4825 4.4574C16.7514 3.84646 15.7198 3.53599 14.4178 3.53599C13.0257 3.53599 11.7637 3.86649 10.652 4.5175C9.51028 5.17851 8.51875 5.99977 7.71752 6.95124C6.90627 7.9027 6.26529 8.92427 5.81459 9.98591C5.34387 11.0375 5.11351 11.9489 5.11351 12.7201C5.11351 13.271 4.82307 13.6616 4.30227 13.8318C3.84156 13.9821 3.33077 13.962 2.80997 13.7617C2.3092 13.5714 1.83848 13.2109 1.42785 12.67C1.0072 12.1292 0.796875 11.3881 0.796875 10.4867C0.796875 9.69546 1.09734 8.76403 1.70828 7.63229C2.3092 6.53059 3.20057 5.46896 4.35234 4.4574C5.50411 3.44585 6.94633 2.57451 8.65897 1.8534C10.3816 1.13229 12.3747 0.761719 14.5781 0.761719C15.83 0.761719 17.0919 0.91195 18.3138 1.2024C19.5457 1.49284 20.6674 1.94354 21.6389 2.52443C22.6204 3.11534 23.4317 3.86649 24.0426 4.73783C24.6636 5.6292 24.9741 6.67081 24.9741 7.84261C24.9741 9.10455 24.6936 10.2864 24.1528 11.348C23.612 12.4096 22.8708 13.3711 21.9394 14.2224C21.018 15.0637 19.9363 15.8049 18.7044 16.4258C17.6929 16.9366 16.6112 17.3773 15.4995 17.7278C15.4294 17.7478 15.3993 17.7879 15.4093 17.858C15.4294 18.4189 15.4694 18.9597 15.5295 19.4905C15.5896 20.1015 15.6798 20.6924 15.7799 21.2532C15.8801 21.8041 16.0003 22.3449 16.1405 22.8557C16.2506 23.2463 16.3708 23.6369 16.491 23.9975C16.5711 24.2278 16.6613 24.4582 16.7414 24.6685C16.9117 25.0991 17.112 25.5098 17.3123 25.8904C17.5126 26.2609 17.7329 26.6215 17.9633 26.952C18.1836 27.2725 18.424 27.573 18.6744 27.8434C18.9147 28.1038 19.1751 28.3542 19.4355 28.5745C19.6959 28.7848 19.9664 28.9751 20.2468 29.1454C20.5172 29.3056 20.7976 29.4458 21.0881 29.566C21.3685 29.6762 21.669 29.7763 21.9694 29.8364C22.2699 29.9065 22.5704 29.9466 22.8808 29.9666C23.1913 29.9867 23.5118 29.9767 23.8323 29.9566C24.1628 29.9266 24.4933 29.8765 24.8238 29.7964C25.1644 29.7162 25.5049 29.6061 25.8554 29.4759C26.206 29.3457 26.5665 29.1854 26.917 28.9951C27.0472 28.925 27.1875 28.8549 27.3177 28.7748C27.7583 28.5244 28.3192 28.6446 28.6097 29.0552C28.9001 29.4659 28.84 30.0367 28.4594 30.3673C28.2691 30.5275 28.0889 30.6877 27.8986 30.848C27.4479 31.2186 26.9972 31.5591 26.5565 31.8696C26.1358 32.16 25.7052 32.4304 25.2845 32.6708C25.0742 32.791 24.8539 32.9112 24.6235 33.0213C24.1929 33.2417 23.7522 33.432 23.3215 33.5922C22.8909 33.7525 22.4602 33.8827 22.0395 33.9928C21.6189 34.093 21.1983 34.1731 20.7776 34.2132C20.4872 34.2432 20.1867 34.2632 19.8962 34.2632C19.7761 34.2632 19.6659 34.2632 19.5457 34.2532C19.1451 34.2332 18.7445 34.1931 18.3639 34.113C18.1736 34.073 17.9833 34.0329 17.793 33.9728C17.6127 33.9227 17.4224 33.8626 17.2422 33.7925C16.8816 33.6623 16.5311 33.5021 16.1906 33.3118C15.86 33.1315 15.5295 32.9112 15.2191 32.6808C14.9687 32.4905 14.7183 32.2802 14.4879 32.0599C14.2075 31.7894 13.9271 31.499 13.6667 31.1785C13.4063 30.868 13.1659 30.5275 12.9355 30.177C12.7052 29.8264 12.4849 29.4458 12.2845 29.0653C12.0842 28.6746 11.8939 28.264 11.7237 27.8434C11.5534 27.4227 11.3932 26.982 11.253 26.5213C11.1127 26.0706 10.9825 25.5899 10.8724 25.0991C10.7622 24.6084 10.662 24.0976 10.5819 23.5768C10.5118 23.1161 10.4517 22.6454 10.4016 22.1646C10.3816 22.0545 10.1713 22.0344 10.1312 22.1747Z" fill="black"/>
<path d="M85.3782 3.74576C85.3782 5.81895 83.7057 7.49152 81.6325 7.49152C79.5593 7.49152 77.8867 5.81895 77.8867 3.74576C77.8867 1.67257 79.5593 0 81.6325 0C83.6957 0 85.3782 1.67257 85.3782 3.74576Z" fill="black"/>
<path d="M84.5388 18.8492C84.3586 18.5688 84.008 18.3785 83.6475 18.3785C83.3069 18.3785 82.9965 18.5387 82.8062 18.8192C82.5858 19.1397 82.3054 19.5202 81.9949 19.9509C81.6444 20.4216 81.2638 20.8823 80.8732 21.303C80.4826 21.7236 80.102 22.0842 79.7414 22.3846C79.3709 22.6951 79.1305 22.7552 78.9903 22.7552C78.8901 22.7552 78.7199 22.7552 78.6798 22.2845C78.6398 21.7937 78.7099 21.1527 78.9002 20.3715C79.0905 19.5803 79.3709 18.699 79.7214 17.7575C80.082 16.796 80.4425 15.8746 80.7931 15.0333C81.1636 14.152 81.4741 13.4209 81.7545 12.7899C82.035 12.1689 82.2052 11.7583 82.2753 11.578C82.4957 11.0672 82.4156 10.5564 82.035 10.1158C81.6844 9.70514 81.2237 9.42471 80.6529 9.26446C80.092 9.11423 79.4911 9.10422 78.8601 9.23442C78.179 9.37463 77.6482 9.77525 77.2676 10.3962C76.9271 10.9471 76.4965 11.8084 75.9656 12.9702C75.4348 14.1319 74.924 15.4139 74.4433 16.786C74.1529 17.6173 73.8824 18.4686 73.6421 19.3299C73.2415 20.7521 72.4102 22.0141 71.2684 22.9555C70.8578 23.286 70.4271 23.6065 69.9764 23.897C69.7761 24.0272 69.5758 24.1474 69.3755 24.2575C69.3154 24.2876 69.2453 24.2175 69.2854 24.1574C69.6359 23.7067 69.9664 23.2059 70.3069 22.6851C70.988 21.6034 71.6089 20.3014 72.1598 18.8292C72.7407 17.2668 73.1012 15.8446 73.2314 14.5927C73.3717 13.3307 73.3216 12.229 73.0912 11.3176C72.8509 10.3762 72.4302 9.63503 71.8393 9.12425C71.2284 8.58342 70.4672 8.313 69.5958 8.313C68.5643 8.313 67.6028 8.58342 66.7615 9.12425C66.1906 9.49482 65.6498 9.90545 65.169 10.3561C65.129 10.3962 65.0989 10.3862 65.0689 10.3461C64.9587 10.1759 64.8185 10.0156 64.6382 9.86539C64.2276 9.52486 63.7368 9.30452 63.176 9.19436C62.6151 9.08419 62.0442 9.12425 61.4834 9.30452C60.8824 9.50483 60.4418 9.90545 60.1613 10.5064C59.6205 11.6682 59.0496 13.0303 58.4687 14.5426C57.8878 16.0549 57.317 17.6373 56.7761 19.2398C56.716 19.4201 56.6559 19.6004 56.5959 19.7706C56.1452 21.1427 55.2838 22.3446 54.1421 23.2159C53.8416 23.4463 53.5311 23.6666 53.2106 23.8769C53.0103 24.0071 52.81 24.1273 52.6097 24.2375C52.5496 24.2675 52.4795 24.1974 52.5196 24.1373C52.8701 23.6866 53.2006 23.1859 53.5412 22.6651C54.2222 21.5834 54.8432 20.2914 55.394 18.8091C55.9749 17.2467 56.3355 15.8246 56.4657 14.5726C56.6059 13.3107 56.5558 12.209 56.3254 11.2976C56.0851 10.3561 55.6644 9.615 55.0735 9.10422C54.4626 8.56338 53.7014 8.29297 52.8301 8.29297C51.7885 8.29297 50.837 8.56338 49.9957 9.10422C49.4248 9.47479 48.884 9.88542 48.4033 10.3361C48.3632 10.3762 48.3331 10.3662 48.3031 10.3261C48.1929 10.1558 48.0527 9.99559 47.8724 9.84536C47.4618 9.50483 46.971 9.28449 46.4102 9.17432C45.8493 9.06415 45.2784 9.10422 44.7176 9.28449C44.1167 9.4848 43.676 9.88542 43.3955 10.4863C42.8547 11.6481 42.2838 13.0102 41.7029 14.5226C41.1521 15.9447 40.6213 17.417 40.1205 18.9093C39.7399 20.031 39.169 20.9424 38.3177 21.7737C38.0974 21.984 37.8871 22.1843 37.6768 22.3546C37.3062 22.6651 37.0658 22.7252 36.9256 22.7252C36.8254 22.7252 36.6552 22.7252 36.6151 22.2544C36.5751 21.7637 36.6452 21.1227 36.8355 20.3515C37.0258 19.5603 37.3062 18.6789 37.6567 17.7375C38.0173 16.786 38.3778 15.8646 38.7284 15.0133C39.0889 14.152 39.4094 13.3908 39.6898 12.7699C39.9703 12.1289 40.1506 11.7383 40.2106 11.558C40.431 11.0472 40.3509 10.5364 39.9703 10.0957C39.6197 9.68511 39.149 9.40468 38.5581 9.24443C37.9872 9.0942 37.3763 9.08419 36.7654 9.2244C36.1043 9.37463 35.5735 9.76523 35.1929 10.3862C35.1128 10.5064 35.0327 10.6466 34.9526 10.7968C34.9225 10.8469 34.8424 10.8369 34.8324 10.7768C34.7623 10.4363 34.6421 10.1158 34.4818 9.81531C34.2415 9.36462 33.8909 9.00406 33.4302 8.72363C32.9595 8.4432 32.3686 8.30298 31.6675 8.30298C30.015 8.30298 28.3324 9.06415 26.6698 10.5765C25.0473 12.0588 23.6952 14.4224 22.6637 17.5973C22.1829 19.1296 21.8925 20.5518 21.8224 21.8138C21.7422 23.0957 21.8524 24.1974 22.1328 25.0888C22.4233 26.0102 22.884 26.7413 23.505 27.2521C24.1459 27.7829 24.9171 28.0534 25.7885 28.0534C26.4395 28.0534 27.0504 27.9432 27.6213 27.7229C28.1721 27.5125 28.6929 27.2321 29.1436 26.9016C29.4942 26.6512 29.8247 26.3608 30.1251 26.0503C30.3355 25.8299 30.716 25.9201 30.7962 26.2105C30.8963 26.541 31.0265 26.8415 31.2068 27.0919C31.6375 27.7229 32.3285 28.0433 33.2399 28.0433C34.2615 28.0433 35.2831 27.6628 36.2946 26.9116C36.7653 26.5611 37.2261 26.1805 37.6667 25.7698C37.7669 25.6797 37.9271 25.7799 37.8871 25.9101C37.6267 26.7714 37.3963 27.5726 37.186 28.3238C36.8355 29.5857 36.545 30.6774 36.3247 31.5588C36.0342 32.7406 36.0042 33.0611 36.0042 33.2113C36.0042 33.9424 36.2345 34.5534 36.6752 35.0541C37.1059 35.5349 37.6066 35.8754 38.1575 36.0657C38.518 36.1959 38.8786 36.256 39.2191 36.256C39.4094 36.256 39.5897 36.2359 39.77 36.1959C40.1706 36.1057 40.6714 35.8453 40.8216 35.0942V35.0842C40.8817 34.6836 40.9918 34.1527 41.1521 33.4917C41.3224 32.8007 41.5227 32.0195 41.753 31.1682C41.9834 30.3168 42.2438 29.3654 42.5643 28.2737C42.7045 27.7629 42.8647 27.2321 43.025 26.6812C43.055 26.5711 43.2153 26.5511 43.2653 26.6512C43.3355 26.7814 43.4156 26.9016 43.5057 27.0218C44.0165 27.7028 44.8177 28.0433 45.9094 28.0433C46.1298 28.0534 46.3501 28.0534 46.5604 28.0534C48.1529 28.0534 49.6552 27.7829 51.0173 27.2421C52.3193 26.7213 53.5111 26.1004 54.5727 25.3692C54.6729 25.2991 54.8131 25.3993 54.773 25.5195C54.4726 26.521 54.1922 27.4625 53.9518 28.3238C53.5912 29.5957 53.3108 30.6874 53.0905 31.5588C52.8 32.7506 52.77 33.0711 52.77 33.2113C52.77 33.9324 53.0003 34.5534 53.441 35.0541C53.8717 35.5349 54.3724 35.8754 54.9233 36.0657C55.2838 36.1959 55.6444 36.256 55.9849 36.256C56.1752 36.256 56.3555 36.2359 56.5358 36.1959C56.9364 36.1057 57.4371 35.8453 57.5874 35.0942V35.0842C57.6475 34.6836 57.7576 34.1527 57.9179 33.4917C58.0881 32.8007 58.2885 32.0195 58.5188 31.1682C58.7492 30.3168 59.0196 29.3654 59.3301 28.2737C59.4703 27.7629 59.6305 27.2321 59.7908 26.6812C59.8208 26.5711 59.9811 26.5511 60.0311 26.6512C60.1012 26.7814 60.1814 26.9016 60.2715 27.0218C60.7723 27.7028 61.5835 28.0433 62.6752 28.0433C62.8955 28.0534 63.1159 28.0534 63.3262 28.0534C64.9187 28.0534 66.421 27.7829 67.7831 27.2421C69.3054 26.6412 70.6875 25.88 71.8794 24.9786C72.0797 24.8284 72.28 24.6682 72.4703 24.5179C72.5604 24.4478 72.6906 24.5079 72.6906 24.6281C72.6906 24.6782 72.6906 24.7282 72.6906 24.7783C72.6906 25.7298 72.8909 26.511 73.2815 27.0919C73.7122 27.7229 74.4032 28.0433 75.3146 28.0433C76.3262 28.0433 77.3678 27.6628 78.3894 26.9116C79.3609 26.2005 80.2823 25.3592 81.1236 24.4078C81.9549 23.4663 82.676 22.5349 83.2869 21.6335C83.8978 20.7221 84.3185 20.0911 84.5488 19.7205C84.7091 19.4601 84.7191 19.1296 84.5388 18.8492ZM32.7091 13.9717C32.639 14.6427 32.4988 15.4039 32.2885 16.2452C32.0781 17.0765 31.7977 17.9578 31.4472 18.8592C31.0966 19.7606 30.7261 20.6019 30.3355 21.3631C29.9549 22.1142 29.5743 22.7552 29.1937 23.266C28.8231 23.7668 28.4826 24.1373 28.1621 24.3677C27.9318 24.538 27.8016 24.558 27.7615 24.558C27.7415 24.558 27.7214 24.558 27.7014 24.548C27.6613 24.5279 27.5111 24.4278 27.441 23.9771C27.3709 23.5564 27.3609 23.0156 27.421 22.3746C27.4811 21.7136 27.6113 20.9625 27.8216 20.1312C28.0219 19.2999 28.3123 18.4185 28.6629 17.5172C29.0234 16.6058 29.394 15.7645 29.7746 15.0133C30.1552 14.2621 30.5358 13.6212 30.9164 13.0903C31.2869 12.5796 31.6274 12.209 31.9379 11.9686C32.1683 11.7984 32.2985 11.7783 32.3486 11.7783C32.3686 11.7783 32.3886 11.7783 32.3986 11.7883C32.4387 11.8084 32.5989 11.9085 32.6891 12.3692C32.7792 12.7799 32.7892 13.3207 32.7091 13.9717ZM50.857 14.0118C50.7368 14.6728 50.5566 15.434 50.3062 16.2652C50.0558 17.1065 49.7353 17.9879 49.3547 18.8793C48.9441 19.7806 48.5134 20.6319 48.0828 21.3931C47.6621 22.1443 47.2314 22.7953 46.8308 23.3161C46.4302 23.8269 46.0697 24.2074 45.7392 24.4378C45.4888 24.6181 45.3586 24.6381 45.3085 24.6381C45.2885 24.6381 45.2684 24.6381 45.2484 24.6281C45.2083 24.6081 45.0681 24.5179 45.008 24.0672C44.9479 23.6566 44.978 23.1158 45.0982 22.4548C45.2184 21.7837 45.3986 21.0125 45.649 20.1813C45.8994 19.35 46.2199 18.4686 46.6005 17.5572C46.9811 16.6558 47.4017 15.8145 47.8424 15.0634C48.2831 14.3022 48.7137 13.6612 49.1143 13.1605C49.515 12.6597 49.8755 12.2891 50.206 12.0487C50.4564 11.8685 50.5866 11.8484 50.6367 11.8484C50.6567 11.8484 50.6767 11.8484 50.6968 11.8585C50.7368 11.8785 50.8771 11.9686 50.9371 12.4193C50.9972 12.84 50.9672 13.3708 50.857 14.0118ZM67.6328 14.0118C67.5126 14.6728 67.3324 15.434 67.082 16.2652C66.8316 17.1065 66.5111 17.9879 66.1305 18.8793C65.7199 19.7806 65.2892 20.6319 64.8586 21.3931C64.4379 22.1443 64.0072 22.7953 63.6066 23.3161C63.206 23.8269 62.8455 24.2074 62.515 24.4378C62.2646 24.6181 62.1344 24.6381 62.0843 24.6381C62.0643 24.6381 62.0442 24.6381 62.0242 24.6281C61.9841 24.6081 61.8439 24.5179 61.7838 24.0672C61.7237 23.6566 61.7538 23.1158 61.874 22.4548C61.9942 21.7837 62.1744 21.0125 62.4248 20.1813C62.6752 19.35 62.9957 18.4686 63.3763 17.5572C63.7569 16.6558 64.1775 15.8145 64.6182 15.0634C65.0589 14.3022 65.4895 13.6612 65.8901 13.1605C66.2807 12.6597 66.6513 12.2891 66.9818 12.0588C67.2322 11.8785 67.3624 11.8585 67.4125 11.8585C67.4325 11.8585 67.4525 11.8585 67.4726 11.8685C67.5126 11.8885 67.6529 11.9786 67.7129 12.4293C67.773 12.84 67.743 13.3708 67.6328 14.0118Z" fill="black"/>
<path d="M84.5559 48.3538C80.079 52.2798 76.1029 52.5202 71.3255 49.0048C69.1321 47.3923 67.1691 45.4693 64.9657 43.8669C63.2631 42.625 61.4604 41.3931 59.5174 40.6219C56.1522 39.2898 52.747 39.7405 49.6722 41.6134C47.589 42.8854 45.6861 44.4578 43.7531 45.9601C43.4827 46.1704 43.2824 46.2806 43.0721 46.2706C42.8617 46.2806 42.6614 46.1604 42.391 45.9601C40.4581 44.4578 38.5551 42.8754 36.4719 41.6134C33.4072 39.7506 29.992 39.2999 26.6268 40.6219C24.6838 41.3931 22.881 42.625 21.1784 43.8669C18.975 45.4693 17.012 47.3923 14.8186 49.0048C10.0513 52.5202 6.07517 52.2698 1.58827 48.3538C1.2177 48.0333 0.847132 47.7028 0.476562 47.3823C1.17764 51.078 2.60984 54.3831 4.73311 57.3877C7.44728 61.2236 10.9927 63.9678 15.4596 65.4801C25.8856 69.0055 39.0559 64.088 43.0921 54.8237C47.1183 64.088 60.2886 69.0055 70.7146 65.4801C75.1714 63.9678 78.7269 61.2236 81.4411 57.3877C83.5643 54.3831 85.0066 51.078 85.6676 47.3823C85.297 47.7028 84.9264 48.0333 84.5559 48.3538Z" fill="black"/>
</svg>
