<svg width="81" height="79" viewBox="0 0 81 79" fill="none" xmlns="http://www.w3.org/2000/svg">
<g id="_&#195;&#131;&#226;&#128;&#152;&#195;&#131;&#194;&#171;&#195;&#131;&#194;&#174;&#195;&#131;&#194;&#169;_1">
<g id="Group 1597506">
<path id="Vector" d="M40.0212 72.0273C21.2508 72.0308 6 57.0245 6 38.5465C6 19.9744 21.2402 5.0134 40.1558 5.02735C58.8413 5.04131 74.0106 20.1244 74 38.6791C73.9858 57.0175 58.6996 72.0273 40.0248 72.0273H40.0212ZM9.50552 40.3259C9.88086 46.7632 12.1364 52.3422 16.0775 57.3001C18.4676 55.9882 20.7551 54.7322 22.7769 53.6227C21.8669 49.0555 20.9994 44.7012 20.1283 40.3225H9.50552V40.3259ZM63.9331 57.3001C67.8529 52.3282 70.1227 46.7562 70.4909 40.3504H59.8788C58.9652 44.8687 58.0871 49.2265 57.2018 53.6227C59.3299 54.7845 61.5855 56.0162 63.9331 57.2966V57.3001ZM20.0717 36.7148C20.9109 32.7722 21.7217 29.0982 22.4476 25.4103C22.5432 24.9253 22.3945 24.081 22.0617 23.8821C20.0115 22.6505 17.8727 21.5514 15.6172 20.3303C11.9629 25.1347 9.86669 30.5287 9.49844 36.7148H20.0717ZM64.3687 20.3373C62.1202 21.5549 59.9921 22.6679 57.9242 23.8716C57.6126 24.0531 57.3612 24.7195 57.4355 25.0893C58.2181 28.9307 59.0785 32.7582 59.9425 36.7148H70.498C70.1121 30.5357 68.0477 25.1312 64.3722 20.3373H64.3687ZM25.9638 52.1677C30.3085 51.3967 34.2141 50.7058 38.1623 50.008V40.3678H23.5984C24.4199 44.4639 25.1989 48.3507 25.9638 52.1677ZM56.3839 40.3608H41.8377V50.008C45.8284 50.7128 49.688 51.3967 54.0292 52.1643C54.7869 48.3647 55.5695 44.4465 56.3839 40.3608ZM23.6338 36.6904H38.1623V27.9015C34.0619 27.1618 30.0889 26.4431 25.7336 25.658C25.0573 29.2169 24.3703 32.8315 23.6338 36.6904ZM56.3839 36.7322C55.6332 32.8385 54.9286 29.1889 54.2452 25.6545C49.8119 26.4535 45.8461 27.1688 41.8342 27.891V36.7288H56.3839V36.7322ZM27.242 22.5284C31.0627 23.2087 34.5434 23.8263 38.1091 24.4613V9.73058C33.205 12.93 29.8694 17.0645 27.242 22.5284ZM52.7509 22.5179C50.1129 17.061 46.795 12.8847 41.8661 9.74104V24.4857C45.4991 23.8298 48.9444 23.2052 52.7509 22.5179ZM38.1269 67.3346V53.4168C34.5788 54.0553 31.222 54.6589 27.6174 55.3079C30.22 60.4193 33.4528 64.2921 38.1269 67.3346ZM41.8307 67.373C46.5755 64.2293 49.8721 60.3635 52.3614 55.2486C48.6646 54.6205 45.2972 54.0448 41.8307 53.4552V67.3695V67.373ZM32.1781 9.39912C26.9552 10.6936 22.1679 13.4185 17.9046 17.703C20.0752 18.9033 22.0404 19.9883 23.6551 20.8815C26.6684 16.8238 29.4941 13.0172 32.1781 9.39912ZM47.8361 9.40958C50.5449 13.0766 53.3953 16.9285 56.352 20.9269C58.0764 19.95 59.9921 18.8684 62.0883 17.6821C57.818 13.429 53.0448 10.6831 47.8396 9.40958H47.8361ZM47.7688 67.6626C52.8146 66.424 57.4355 63.849 61.6067 59.8332C59.4326 58.6922 57.5134 57.6839 55.9554 56.864C53.0696 60.6705 50.4174 64.17 47.7688 67.6626ZM18.4357 59.8506C22.5751 63.877 27.2031 66.4274 32.2524 67.6626C29.618 64.1979 26.8915 60.6077 24.0198 56.8326C22.391 57.7118 20.5107 58.7306 18.4357 59.8471V59.8506Z" fill="#FFFDF8"/>
<path id="Vector_2" d="M47.0264 41.2316L62 38.5273L47.0264 35.8231L55.7029 23.3245L43.2042 32.0009L40.5 17.0273L37.7958 32.0009L25.2971 23.3245L33.9736 35.8231L19 38.5273L33.9736 41.2316L25.2971 53.7302L37.7958 45.0538L40.5 60.0273L43.2042 45.0538L55.7029 53.7302L47.0264 41.2316Z" fill="#FFFDF8"/>
</g>
</g>
</svg>
