<svg width="105" height="46" viewBox="0 0 105 46" fill="none" xmlns="http://www.w3.org/2000/svg">
<g id="Layer_1" clip-path="url(#clip0_4479_2334)">
<path id="Vector" d="M103.976 21.8621L80.8128 1.07013C80.0192 0.360865 78.8041 0.425343 78.0998 1.21893C77.3905 2.00755 77.455 3.22769 78.2486 3.932L97.6765 21.3661H2.36194C1.30052 21.3661 0.4375 22.2291 0.4375 23.2905C0.4375 24.3519 1.30052 25.215 2.36194 25.215H97.6716L78.2436 42.6491C77.455 43.3583 77.3855 44.5735 78.0948 45.3621C78.4767 45.7837 78.9975 46.002 79.5282 46.002C79.9845 46.002 80.4458 45.8383 80.8128 45.5109L103.976 24.7239C104.382 24.3619 104.615 23.8411 104.615 23.2955C104.615 22.7499 104.382 22.2291 103.976 21.867V21.8621Z" fill="black"/>
</g>
<defs>
<clipPath id="clip0_4479_2334">
<rect width="104.178" height="45.4229" fill="white" transform="translate(0.4375 0.578125)"/>
</clipPath>
</defs>
</svg>
