<svg width="136" height="39" viewBox="0 0 136 39" fill="none" xmlns="http://www.w3.org/2000/svg">
<path d="M96.6005 22.7559L98.06 14.168L93.3438 22.7559H96.6005Z" fill="black"/>
<path d="M115.048 30.2289C115.048 30.0631 114.888 30.0312 114.748 30.0312H114.461V30.4457H114.71C114.888 30.4457 115.048 30.433 115.048 30.2289Z" fill="black"/>
<path d="M55.8476 12.1602L54.7514 12.3768L53.3047 16.6644H54.2033C55.2039 16.6644 56.9757 16.1101 57.6321 14.5237C57.7851 14.1542 57.8488 13.8357 57.8488 13.5745C57.8552 12.3959 56.5933 12.1602 55.8476 12.1602Z" fill="black"/>
<path d="M52.1022 21.1626L50.6172 25.4247L52.389 25.4311C53.7783 25.4311 55.0211 24.915 55.378 23.4179C55.7222 21.9016 54.3583 21.0607 52.1022 21.1626Z" fill="black"/>
<path d="M113.742 30.527C113.742 31.0876 114.169 31.4953 114.717 31.4953C115.259 31.4953 115.686 31.0812 115.686 30.527C115.686 29.9727 115.259 29.5586 114.717 29.5586C114.163 29.5586 113.742 29.9727 113.742 30.527ZM115.265 30.2403C115.265 30.4824 115.112 30.5843 114.908 30.6098L115.297 31.2023H115.061L114.698 30.6225H114.462V31.2023H114.252V29.858H114.775C115.106 29.8517 115.265 29.9727 115.265 30.2403Z" fill="black"/>
<path d="M135.467 13.2818L127.507 0.743899C127.277 0.38076 126.837 0.431732 126.704 0.839468L125.091 5.7514C124.874 5.74503 124.651 5.7514 124.416 5.75777C123.122 5.79599 121.178 5.96801 119.642 6.72614C117.66 7.70726 116.099 8.94958 114.142 10.9755L113.543 6.26744C113.511 6.06994 113.301 5.88519 113.097 5.88519L64.0481 5.85971C63.8377 5.85971 63.6274 6.03809 63.6019 6.24196L63.4936 7.1721C61.9576 6.15913 59.9437 5.77689 58.1018 5.77689L30.5247 5.84697C30.3654 5.84697 30.1487 5.99349 30.0977 6.14639L29.6197 7.19121C28.1028 6.38849 25.8021 5.69407 24.0558 5.61762C15.4392 5.24174 12.2015 11.4916 11.5897 14.0208C11.1946 15.6581 11.3348 18.2001 11.9275 19.7163C11.9594 19.8055 11.9976 19.9011 12.0422 19.9967L0.277161 24.6984C0.0158575 24.8003 -0.0797413 25.087 0.0732171 25.3227L8.15452 38.0836C8.39033 38.4467 8.82371 38.3957 8.95755 37.988L10.3533 33.7832C11.4686 34.0189 12.6413 34.1464 13.8395 34.1464C17.6889 34.1464 21.5129 32.7703 24.0112 30.4003C25.0628 32.6811 27.4846 34.1718 31.6018 34.1718C35.0816 34.1718 37.6819 33.1461 39.6257 31.7063L39.1923 33.1525C39.0904 33.4583 39.2879 33.9106 39.613 33.9106H51.4099C53.819 33.9106 57.8532 33.1844 60.7977 30.7188L60.4981 33.2162C60.4663 33.4774 60.6702 33.6558 60.9379 33.6558L89.7259 33.5985C89.847 33.5985 90.0637 33.4583 90.1211 33.3564L92.0713 29.8524H92.7979L92.0203 32.9614C91.9502 33.2544 92.1478 33.7259 92.4537 33.7259L113.587 33.9106H114.709C116.353 33.9106 117.692 32.3816 117.692 30.7698C117.692 29.1643 116.328 27.75 114.684 27.75L114.696 27.6481L114.817 27.2658C115.264 25.9725 116.946 22.545 118.265 20.8567C119.26 19.5953 120.248 18.4677 121.184 17.5566L120.789 18.7989C120.662 19.2067 120.974 19.487 121.382 19.3277L135.218 13.9061C135.518 13.8169 135.62 13.5239 135.467 13.2818ZM22.284 19.0474C23.6161 20.5637 24.674 22.1436 24.674 24.0294C24.674 28.4253 19.8303 31.9866 13.8586 31.9866C12.0741 31.9866 10.3915 31.6681 8.91931 31.1075L8.0398 33.7577L3.08777 25.9343L11.8 22.4558L10.8249 25.38C11.8893 26.0171 13.1767 26.221 14.3366 26.1445C15.3818 26.0872 16.5927 25.6413 16.9624 24.7876C17.2109 24.2078 16.8859 22.9782 16.0637 22.15C15.1205 21.188 14.4131 19.933 14.0243 18.9518C13.6037 17.8688 13.4698 15.7728 13.7694 14.5241C14.241 12.5682 16.8285 7.47791 23.9666 7.79008C25.528 7.85379 27.816 8.60555 28.9441 9.31909L26.2928 14.231C23.2719 12.4981 21.4619 13.1289 20.7672 14.728C20.098 16.3079 21.2388 17.8624 22.284 19.0474ZM31.6273 32.0121C24.1004 32.0121 25.4133 26.5013 26.3884 23.679L31.6527 8.54185H38.1599L33.0995 23.0865C32.8828 23.7045 32.5769 24.4244 32.5514 25.0488C32.5195 25.6986 32.7617 26.1573 33.6603 26.1573C34.5844 26.1573 35.1708 25.6349 35.5404 25.0169C35.9547 24.3671 36.2033 23.7236 36.4072 23.1311L41.4739 8.54185H47.9811L42.7167 23.679C41.7416 26.5013 39.1477 32.0121 31.6273 32.0121ZM61.6836 24.8003C60.0329 29.6167 54.7303 30.8717 51.4354 30.8717H42.1176L50.148 7.5225H58.1145C61.7664 7.5225 64.8829 8.73297 63.398 13.8233C62.8754 15.6199 61.0399 17.8433 59.1661 18.4931C60.906 19.3978 62.6396 22.0099 61.6836 24.8003ZM73.6462 31.8911C73.6462 31.8911 75.9278 18.8435 76.2592 17.2317L69.2741 31.8911H62.9582L65.6477 7.5225H72.0592L69.204 22.15C69.9943 20.4108 76.4696 7.5225 76.4696 7.5225H82.0462C82.0462 7.5225 79.7773 20.3471 79.4459 22.0545L86.4819 7.5225H92.8297L79.9302 31.8911H73.6462ZM94.7353 31.8911L95.6403 27.8265H90.7839L88.6998 31.8911H82.6644L95.583 7.5225H104.467L101.612 31.8911H94.7353ZM115.92 30.5277C115.92 31.203 115.359 31.6936 114.709 31.6936C114.053 31.6936 113.492 31.203 113.492 30.5277C113.492 29.8588 114.053 29.3618 114.709 29.3618C115.366 29.3618 115.92 29.8524 115.92 30.5277ZM124.059 15.9639L124.97 13.0779C122.332 12.9823 119.151 16.2124 116.532 19.5316C115.028 21.4429 113.237 25.3163 112.733 26.7753C112.587 27.2021 111 31.8911 111 31.8911H103.766L107.418 21.2772L105.334 7.5225H111.465L112.606 16.2506C112.606 16.2506 114.416 13.7596 115.448 12.6765C117.488 10.5423 118.896 9.47199 120.655 8.60555C122.81 7.54798 126.704 7.96846 126.704 7.96846L127.653 5.08884L132.459 12.6702L124.059 15.9639Z" fill="black"/>
<path d="M57.8497 13.5684C57.8497 13.8362 57.7795 14.1486 57.6328 14.5185C57.7923 14.1359 57.8561 13.8234 57.8497 13.5684Z" fill="black"/>
</svg>
