<svg width="207" height="33" viewBox="0 0 207 33" fill="none" xmlns="http://www.w3.org/2000/svg">
<g clip-path="url(#clip0_6367_185)">
<path d="M42.4438 20.1934V9.97741H40.785C40.6301 9.97463 40.509 9.84936 40.5118 9.69626V5.7602C40.5118 5.60432 40.6357 5.47905 40.785 5.47905H42.4438V0.410053C42.4438 0.25417 42.5649 0.128906 42.717 0.128906H47.2062C47.3583 0.128906 47.4794 0.25417 47.4794 0.410053V5.47905H50.8984C51.0476 5.47905 51.1716 5.60432 51.1716 5.7602V9.69626C51.1744 9.84936 51.0505 9.97463 50.8984 9.97741H47.4794V14.6818C47.4906 19.0966 47.1583 20.8837 48.9607 21.0758C49.7887 21.1621 50.1999 20.9477 51.0448 20.6081C51.1772 20.5552 51.3293 20.5942 51.3997 20.7195L53.1317 23.8065C53.2021 23.929 53.1768 24.0904 53.0641 24.174C51.9235 25.0174 49.8028 25.5379 47.8342 25.5379C44.3335 25.5407 42.4438 23.6785 42.4438 20.1934Z" fill="#323535"/>
<path d="M62.2341 9.08496C59.1277 9.08496 57.79 11.4761 57.5534 13.4219H66.9149C66.7994 11.5568 65.5405 9.08496 62.2341 9.08496ZM52.4023 15.2451C52.4023 9.5721 56.455 4.99023 62.237 4.99023C67.9006 4.99023 71.759 9.36889 71.759 15.7713V16.6258C71.7618 16.7789 71.6407 16.9042 71.4858 16.907H71.483H57.6351C57.9505 19.3788 59.8769 21.4471 63.1016 21.4471C64.6168 21.4471 66.6896 20.8041 67.9457 19.7157C68.0527 19.6182 68.2217 19.6238 68.3202 19.7296C68.3315 19.7407 68.3399 19.7546 68.3512 19.7686L70.241 22.619C70.3198 22.7387 70.3029 22.8974 70.1959 22.9948C68.3005 24.6678 65.4081 25.5418 62.5524 25.5418C56.7705 25.5418 52.4023 21.5278 52.4023 15.2451ZM85.1421 20.2501V18.0232C85.1421 17.9564 85.1224 17.8896 85.083 17.8395C84.2437 16.7594 82.706 16.2194 81.1317 16.2194C79.1659 16.2194 77.5521 17.2744 77.5521 19.1784C77.5521 21.0045 79.1659 22.0567 81.1317 22.0567C82.706 22.0567 84.2437 21.5167 85.083 20.4338C85.1196 20.381 85.1421 20.3169 85.1421 20.2501ZM85.1421 24.7735V23.0282C83.8438 24.6093 81.602 25.5418 79.1237 25.5418C76.0933 25.5418 72.5166 23.4346 72.5166 19.0559C72.5166 14.4769 76.0961 12.7343 79.1237 12.7343C81.6414 12.7343 83.8832 13.5833 85.1421 15.1227V12.4866C85.1421 10.5018 83.489 9.20466 80.9712 9.20466C79.0307 9.20466 77.2339 9.89778 75.6765 11.284C75.5695 11.3815 75.4005 11.3759 75.3019 11.2701C75.285 11.2534 75.2737 11.2339 75.2625 11.2144L73.6515 8.27771C73.5868 8.15801 73.6121 8.01048 73.7135 7.91862C76.0088 5.91719 78.9237 4.99302 81.8386 4.99302C86.1673 4.99302 90.1383 6.77455 90.1383 12.4086V24.7735C90.1411 24.9266 90.02 25.0519 89.8651 25.0547H85.4153C85.2604 25.0519 85.1393 24.9266 85.1421 24.7735ZM116.195 25.0547C116.04 25.0519 115.919 24.9266 115.922 24.7735V12.6926C115.922 10.8693 115.133 9.5721 113.091 9.5721C111.362 9.5721 109.934 10.7329 109.208 11.7656C109.174 11.8157 109.154 11.8742 109.157 11.9326V24.7735C109.16 24.9266 109.039 25.0519 108.884 25.0547H104.395C104.242 25.0519 104.119 24.9266 104.121 24.7735V12.6926C104.121 10.8693 103.336 9.5721 101.288 9.5721C99.5984 9.5721 98.1705 10.7329 97.4072 11.8074C97.3706 11.8575 97.3537 11.9159 97.3537 11.9772V24.7735C97.3566 24.9266 97.2355 25.0519 97.0806 25.0547H92.6308C92.4759 25.0519 92.3548 24.9266 92.3576 24.7735V5.75852C92.3576 5.60263 92.4787 5.47737 92.6308 5.47737H97.0806C97.2326 5.47737 97.3537 5.60263 97.3537 5.75852V8.03275C98.1395 6.85805 100.657 4.99302 103.569 4.99302C106.36 4.99302 108.132 6.32916 108.839 8.55886C109.94 6.77454 112.461 4.99302 115.37 4.99302C118.87 4.99302 120.955 6.89702 120.955 10.911V24.7735C120.957 24.9266 120.836 25.0519 120.681 25.0547H120.679H116.195Z" fill="#323535"/>
<mask id="mask0_6367_185" style="mask-type:luminance" maskUnits="userSpaceOnUse" x="0" y="0" width="35" height="7">
<path d="M34.7788 0.128906H0V6.60086H34.7788V0.128906Z" fill="white"/>
</mask>
<g mask="url(#mask0_6367_185)">
<path d="M34.5 6.59725H0.278863C0.121149 6.59446 -0.00276926 6.46641 4.7067e-05 6.31053V0.41479C4.7067e-05 0.258907 0.123965 0.130859 0.278863 0.130859H34.5C34.6549 0.130859 34.7789 0.26169 34.7789 0.417574V6.31331C34.7789 6.46641 34.6549 6.59446 34.5 6.59725Z" fill="black"/>
</g>
<path d="M34.5042 15.8837H8.96573C8.81365 15.8809 8.69254 15.7556 8.69536 15.6053V9.64833C8.69536 9.49245 8.81646 9.36719 8.96573 9.36719H34.5042C34.6534 9.36719 34.7774 9.49245 34.7774 9.64833V15.6053C34.7774 15.7556 34.6563 15.8809 34.5042 15.8837Z" fill="#45473E"/>
<path d="M34.5196 25.076H17.6526C17.5061 25.0732 17.3879 24.9535 17.3907 24.8088V18.9743C17.3907 18.8295 17.509 18.707 17.6526 18.707H34.5168C34.6576 18.707 34.7759 18.8267 34.7759 18.977V24.806C34.7815 24.9507 34.666 25.0704 34.5196 25.076Z" fill="#746F76"/>
<path d="M137.25 18.0307V11.8928C137.25 11.8344 137.233 11.7759 137.202 11.7258C136.357 10.4676 134.586 9.57127 132.964 9.57127C130.13 9.57127 128.165 11.5978 128.165 14.9604C128.165 18.323 130.13 20.3495 132.964 20.3495C134.583 20.3495 136.352 19.417 137.199 18.195C137.233 18.1504 137.25 18.092 137.25 18.0307ZM123.963 29.8723L125.897 26.66C125.971 26.5347 126.134 26.493 126.261 26.5654C126.283 26.5793 126.306 26.596 126.323 26.6155C127.824 28.166 129.744 28.7839 132.02 28.7839C134.42 28.7839 137.25 27.69 137.25 23.8402V21.8527C135.755 23.7984 133.71 24.9342 131.389 24.9342C126.63 24.9342 123.008 21.488 123.008 14.9632C123.008 8.55802 126.587 4.99219 131.389 4.99219C133.67 4.99219 135.715 6.00543 137.25 7.99295V5.76047C137.25 5.60459 137.371 5.47932 137.523 5.47932H142.012C142.164 5.47932 142.286 5.60459 142.286 5.76047V23.7177C142.286 31.1751 136.698 32.9983 132.02 32.9983C128.838 32.9983 126.365 32.2662 124.022 30.2425C123.915 30.1507 123.889 29.9948 123.963 29.8723ZM156.46 20.2521V18.0252C156.46 17.9584 156.44 17.8916 156.401 17.8414C155.562 16.7614 154.021 16.2214 152.45 16.2214C150.484 16.2214 148.87 17.2764 148.87 19.1804C148.87 21.0064 150.484 22.0587 152.45 22.0587C154.021 22.0587 155.562 21.5186 156.401 20.4358C156.44 20.3829 156.463 20.3189 156.46 20.2521ZM156.463 24.7755V23.0301C155.165 24.6113 152.923 25.5438 150.444 25.5438C147.414 25.5438 143.835 23.4366 143.835 19.0579C143.835 14.4788 147.414 12.7363 150.444 12.7363C152.962 12.7363 155.204 13.5853 156.463 15.1246V12.4885C156.463 10.5038 154.81 9.20661 152.292 9.20661C150.352 9.20661 148.555 9.89974 146.997 11.286C146.89 11.3834 146.721 11.3778 146.623 11.2721C146.606 11.2554 146.592 11.2359 146.583 11.2164L144.972 8.27966C144.908 8.15996 144.933 8.01243 145.031 7.92057C147.327 5.91914 150.245 4.99497 153.159 4.99497C157.485 4.99497 161.459 6.7765 161.459 12.4106V24.7755C161.462 24.9286 161.341 25.0539 161.186 25.0566H156.736C156.581 25.0539 156.46 24.9258 156.463 24.7755ZM176.777 25.0566C176.622 25.0539 176.501 24.9286 176.504 24.7755V13.2206C176.504 10.5038 175.127 9.57405 173.003 9.57405C171.08 9.57405 169.57 10.6597 168.731 11.8065C168.694 11.8566 168.675 11.9179 168.675 11.9791V24.7755C168.677 24.9286 168.556 25.0539 168.401 25.0566H163.952C163.797 25.0539 163.676 24.9286 163.678 24.7755V5.76047C163.678 5.60459 163.799 5.47932 163.952 5.47932H168.401C168.553 5.47932 168.675 5.60459 168.675 5.76047V8.0347C169.894 6.53432 172.215 4.99497 175.321 4.99497C179.492 4.99497 181.497 7.42787 181.497 11.2387V24.7755C181.5 24.9286 181.379 25.0539 181.224 25.0566H176.777Z" fill="black"/>
<path d="M184.408 20.0644V9.8485H182.758C182.603 9.84572 182.482 9.72046 182.484 9.56736V5.63129C182.484 5.47541 182.606 5.35015 182.758 5.35015H184.408V0.281147C184.408 0.125264 184.532 0 184.681 0H189.17C189.322 0 189.444 0.125264 189.444 0.281147V5.35015H192.863C193.012 5.35015 193.136 5.47541 193.136 5.63129V9.56736C193.139 9.72046 193.017 9.84572 192.863 9.8485H189.444V14.6391C189.463 18.9065 189.122 20.7548 190.925 20.9441C191.753 21.0331 192.164 20.8188 193.009 20.4764C193.141 20.4235 193.293 20.4625 193.364 20.5878L195.096 23.6748C195.166 23.7973 195.141 23.9588 195.028 24.0423C193.888 24.8857 191.767 25.4062 189.798 25.4062C186.295 25.4118 184.408 23.5496 184.408 20.0644Z" fill="black"/>
<path d="M196.278 20.0644V9.8485H194.625C194.47 9.84572 194.349 9.72046 194.352 9.56736V5.63129C194.352 5.47541 194.473 5.35015 194.625 5.35015H196.278V0.281147C196.278 0.125264 196.402 0 196.551 0H201.04C201.192 0 201.314 0.125264 201.314 0.281147V5.35015H204.733C204.882 5.35015 205.006 5.47541 205.006 5.63129V9.56736C205.009 9.72046 204.887 9.84572 204.733 9.8485H201.314V14.6391C201.336 18.9065 200.993 20.7548 202.795 20.9441C203.623 21.0331 204.034 20.8188 204.879 20.4764C205.011 20.4235 205.163 20.4625 205.234 20.5878L206.966 23.6748C207.036 23.7973 207.011 23.9588 206.898 24.0423C205.758 24.8857 203.637 25.4062 201.668 25.4062C198.165 25.4118 196.278 23.5496 196.278 20.0644Z" fill="black"/>
</g>
<defs>
<clipPath id="clip0_6367_185">
<rect width="207" height="33" fill="white"/>
</clipPath>
</defs>
</svg>
