<svg width="84" height="85" viewBox="0 0 84 85" fill="none" xmlns="http://www.w3.org/2000/svg">
<path d="M49.9654 32.0998C48.8249 30.7977 48.1963 29.1255 48.1968 27.3945H43.0411V48.0842C43.0013 49.2039 42.5286 50.2644 41.7225 51.0424C40.9165 51.8205 39.8399 52.2554 38.7196 52.2556C36.3503 52.2556 34.3814 50.3201 34.3814 47.9174C34.3814 45.0475 37.1512 42.8951 40.0043 43.7794V38.5069C34.2479 37.7394 29.209 42.211 29.209 47.9174C29.209 53.4736 33.8141 57.428 38.7029 57.428C43.9421 57.428 48.1968 53.1732 48.1968 47.9174V37.4224C50.2875 38.9238 52.7975 39.7293 55.3715 39.7249V34.5692C55.3715 34.5692 52.2346 34.7194 49.9654 32.0998Z" fill="black"/>
<circle cx="42.2893" cy="42.4065" r="40.6584" stroke="black" stroke-width="2.10949"/>
</svg>
