<svg width="44" height="44" viewBox="0 0 44 44" fill="none" xmlns="http://www.w3.org/2000/svg">
<path d="M26.3119 16.3158C25.7193 15.6393 25.3927 14.7705 25.393 13.8711H22.7142V24.621C22.6935 25.2027 22.4479 25.7537 22.0291 26.158C21.6103 26.5623 21.0509 26.7882 20.4688 26.7883C19.2378 26.7883 18.2148 25.7827 18.2148 24.5343C18.2148 23.0432 19.6539 21.9248 21.1364 22.3843V19.6448C18.1455 19.246 15.5273 21.5694 15.5273 24.5343C15.5273 27.4212 17.9201 29.4758 20.4602 29.4758C23.1823 29.4758 25.393 27.2651 25.393 24.5343V19.0813C26.4792 19.8614 27.7834 20.28 29.1208 20.2777V17.5989C29.1208 17.5989 27.4909 17.6769 26.3119 16.3158Z" fill="#FFFDF8"/>
<circle cx="22.3255" cy="21.6732" r="21.2397" stroke="#FFFDF8" stroke-width="0.866927"/>
</svg>
