<svg width="144" height="33" viewBox="0 0 144 33" fill="none" xmlns="http://www.w3.org/2000/svg">
<path fill-rule="evenodd" clip-rule="evenodd" d="M55.9563 5.03906H35.5534L34.3672 9.47889H41.315L36.7396 26.0859H43.2807L47.8222 9.47889H54.7362L55.9563 5.03906Z" fill="black"/>
<path fill-rule="evenodd" clip-rule="evenodd" d="M94.5233 5.03916H88.4228L85.4064 16.7657L69.7145 4.36133L64.1562 26.086H70.2568L73.2393 14.3255L88.9651 26.7638L94.5233 5.03916Z" fill="black"/>
<path fill-rule="evenodd" clip-rule="evenodd" d="M98.453 5.03906H104.96L99.2325 26.0859H92.6914L98.453 5.03906Z" fill="black"/>
<path fill-rule="evenodd" clip-rule="evenodd" d="M118.617 26.0859L110.314 15.5455L124.074 5.03906H116.075L102.451 15.5116L102.281 15.6133H102.349L102.824 16.2234L110.619 26.0859H118.617Z" fill="black"/>
<path fill-rule="evenodd" clip-rule="evenodd" d="M135.125 7.57943L133.566 4.05469L132.99 4.63085L128.483 9.03678H128.55L111.266 26.0844H118.552L130.821 13.9511L132.821 18.1198L128.788 18.2892L124.314 22.6952L134.888 22.5596L136.481 26.0844H143.836L135.125 7.57943Z" fill="black"/>
<path fill-rule="evenodd" clip-rule="evenodd" d="M57.6817 10.8672H64.2228L60.0202 26.0846H53.5469L57.6817 10.8672Z" fill="black"/>
<path fill-rule="evenodd" clip-rule="evenodd" d="M59.306 5.03906H65.8133L64.5932 9.41111H58.0859L59.306 5.03906Z" fill="black"/>
<path fill-rule="evenodd" clip-rule="evenodd" d="M0.472656 16.2227L0.506548 15.4093L0.574332 14.6298L0.676007 13.8503L0.811574 13.0708L1.01493 12.2912L1.21828 11.5117L1.45552 10.7661L1.72665 10.0544L2.06557 9.37655L2.40449 8.69871L2.81119 8.02088L3.184 7.37693L3.62459 6.73299L4.13297 6.15683L4.60746 5.58067L5.14973 5.0384L5.69199 4.49613L6.26816 4.02164L6.84432 3.51327L7.48826 3.07267L8.13221 2.69986L8.81004 2.32705L9.48788 1.95424L10.1657 1.61533L10.8774 1.34419L11.6231 1.10695L12.4026 0.903597L13.1821 0.700246L13.9616 0.564679L14.7411 0.463004L15.5206 0.39522L16.334 0.361328L17.1813 0.39522L17.9947 0.463004L18.7742 0.564679L19.5537 0.700246L20.3333 0.903597L21.0789 1.10695L21.7906 1.34419L22.5362 1.61533L23.2141 1.95424L23.8919 2.32705L24.5697 2.69986L25.2137 3.07267L25.8576 3.51327L26.4338 4.02164L27.0099 4.49613L27.5861 5.0384L28.0945 5.58067L28.6367 6.15683L29.0435 6.73299L29.484 7.37693L29.9246 8.02088L30.3313 8.69871L30.6703 9.37655L30.9414 10.0544L31.2464 10.7661L31.4837 11.5117L31.7209 12.2912L31.8904 13.0708L32.0259 13.8503L32.1276 14.6298L32.2293 15.4093V16.2227V17.07L32.1276 17.8834L32.0259 18.6629L31.8904 19.4424L31.7209 20.2219L31.4837 20.9675L31.2464 21.6793L30.9414 22.4249L30.6703 23.1027L30.3313 23.8145L29.9246 24.4584L29.484 25.1023L29.0435 25.7463L28.6367 26.3225L28.0945 26.8986L27.5861 27.4748L27.0099 27.9832L26.4338 28.4915L25.8576 28.9321L25.2137 29.3727L24.5697 29.8133L23.8919 30.22L23.2141 30.5589L22.5362 30.8301L21.7906 31.1351L21.0789 31.3723L20.3333 31.6096L19.5537 31.779L18.7742 31.9146L17.9947 32.0163L17.1813 32.118H16.334H15.5206L14.7411 32.0163L13.9616 31.9146L13.1821 31.779L12.4026 31.6096L11.6231 31.3723L10.8774 31.1351L10.1657 30.8301L9.48788 30.5589L8.81004 30.22L8.13221 29.8133L7.48826 29.3727L6.84432 28.9321L6.26816 28.4915L5.69199 27.9832L5.14973 27.4748L4.60746 26.8986L4.13297 26.3225L3.62459 25.7463L3.184 25.1023L2.81119 24.4584L2.40449 23.8145L2.06557 23.1027L1.72665 22.4249L1.45552 21.6793L1.21828 20.9675L1.01493 20.2219L0.811574 19.4424L0.676007 18.6629L0.574332 17.8834L0.506548 17.07L0.472656 16.2227Z" fill="black"/>
<path fill-rule="evenodd" clip-rule="evenodd" d="M3.72656 16.223L3.79435 15.6129L3.82824 14.969L3.89602 14.325L3.96381 13.715L4.13326 13.071L4.33661 12.4949L4.50607 11.9187L4.74332 11.3087L5.01445 10.7664L5.25169 10.258L5.59061 9.71576L5.89564 9.17349L6.60737 8.19063L7.42077 7.30944L8.30196 6.49604L9.28482 5.75042L9.82709 5.47928L10.3694 5.14037L10.8777 4.90312L11.42 4.63199L12.0301 4.39475L12.6062 4.22529L13.1824 4.02194L13.8263 3.92026L14.4364 3.78469L15.0803 3.71691L15.7243 3.68302L16.3343 3.61523L17.046 3.68302L17.6561 3.71691L18.3 3.78469L18.8762 3.92026L19.5201 4.02194L20.0963 4.22529L20.6725 4.39475L21.2486 4.63199L21.7909 4.90312L22.4009 5.14037L22.8754 5.47928L23.4177 5.75042L24.3667 6.49604L25.2479 7.30944L26.0952 8.19063L26.8069 9.17349L27.1458 9.71576L27.4508 10.258L27.7559 10.7664L27.9931 11.3087L28.1964 11.9187L28.4337 12.4949L28.5693 13.071L28.7048 13.715L28.8065 14.325L28.9082 14.969L28.976 15.6129V16.223V16.9008L28.9082 17.5448L28.8065 18.1887L28.7048 18.7649L28.5693 19.4088L28.4337 19.985L28.1964 20.5611L27.9931 21.1373L27.7559 21.7473L27.4508 22.2557L27.1458 22.798L26.8069 23.3064L26.0952 24.2553L25.2479 25.1365L24.3667 25.9838L23.4177 26.6956L22.8754 27.0345L22.4009 27.3395L21.7909 27.6445L21.2486 27.8818L20.6725 28.0851L20.0963 28.3224L19.5201 28.4579L18.8762 28.5935L18.3 28.6952L17.6561 28.7968L17.046 28.8646H16.3343H15.7243L15.0803 28.7968L14.4364 28.6952L13.8263 28.5935L13.1824 28.4579L12.6062 28.3224L12.0301 28.0851L11.42 27.8818L10.8777 27.6445L10.3694 27.3395L9.82709 27.0345L9.28482 26.6956L8.30196 25.9838L7.42077 25.1365L6.60737 24.2553L5.89564 23.3064L5.59061 22.798L5.25169 22.2557L5.01445 21.7473L4.74332 21.1373L4.50607 20.5611L4.33661 19.985L4.13326 19.4088L3.96381 18.7649L3.89602 18.1887L3.82824 17.5448L3.79435 16.9008L3.72656 16.223Z" fill="white"/>
<path fill-rule="evenodd" clip-rule="evenodd" d="M6.46875 16.2219L6.57043 15.2051L6.70599 14.2223L6.94324 13.3072L7.24826 12.3921L7.68885 11.5448L8.16334 10.7314L8.7395 9.95191L9.38344 9.27407L10.0613 8.63013L10.8408 8.05397L11.6542 7.57948L12.5015 7.13889L13.4166 6.83386L14.3655 6.59662L15.3145 6.46105L16.3313 6.35938L17.3819 6.46105L18.3309 6.59662L19.3137 6.83386L20.1949 7.13889L21.0761 7.57948L21.8895 8.05397L22.6351 8.63013L23.3469 9.27407L23.9908 9.95191L24.5331 10.7314L25.0076 11.5448L25.4482 12.3921L25.7871 13.3072L26.0243 14.2223L26.1938 15.2051L26.2277 16.2219L26.1938 17.2386L26.0243 18.2215L25.7871 19.2044L25.4482 20.0856L25.0076 20.9667L24.5331 21.7801L23.9908 22.5258L23.3469 23.2375L22.6351 23.8814L21.8895 24.4237L21.0761 24.8982L20.1949 25.3388L19.3137 25.6777L18.3309 25.9149L17.3819 26.0844L16.3313 26.1183L15.3145 26.0844L14.3655 25.9149L13.4166 25.6777L12.5015 25.3388L11.6542 24.8982L10.8408 24.4237L10.0613 23.8814L9.38344 23.2375L8.7395 22.5258L8.16334 21.7801L7.68885 20.9667L7.24826 20.0856L6.94324 19.2044L6.70599 18.2215L6.57043 17.2386L6.46875 16.2219Z" fill="black"/>
<path fill-rule="evenodd" clip-rule="evenodd" d="M9.42188 16.2225L9.48966 15.5447L9.59133 14.8669L9.7269 14.189L9.96414 13.5451L10.2692 12.935L10.6081 12.3927L10.9809 11.8505L11.4893 11.376L11.9638 10.8676L12.506 10.4948L13.0483 10.1559L13.6584 9.85086L14.3023 9.61362L14.9801 9.47805L15.658 9.37638L16.3358 9.30859L17.0814 9.37638L17.7593 9.47805L18.4371 9.61362L19.081 9.85086L19.6572 10.1559L20.2334 10.4948L20.7756 10.8676L21.2501 11.376L21.6907 11.8505L22.0974 12.3927L22.4363 12.935L22.7414 13.5451L22.9786 14.189L23.1819 14.8669L23.2497 15.5447L23.3175 16.2225L23.2497 16.9681L23.1819 17.646L22.9786 18.3238L22.7414 18.9678L22.4363 19.5439L22.0974 20.1201L21.6907 20.6623L21.2501 21.1368L20.7756 21.5774L20.2334 21.9841L19.6572 22.323L19.081 22.5942L18.4371 22.8653L17.7593 23.0348L17.0814 23.1364L16.3358 23.2042L15.658 23.1364L14.9801 23.0348L14.3023 22.8653L13.6584 22.5942L13.0483 22.323L12.506 21.9841L11.9638 21.5774L11.4893 21.1368L10.9809 20.6623L10.6081 20.1201L10.2692 19.5439L9.96414 18.9678L9.7269 18.3238L9.59133 17.646L9.48966 16.9681L9.42188 16.2225Z" fill="white"/>
<path fill-rule="evenodd" clip-rule="evenodd" d="M11.9258 16.2223L11.9597 15.7817L12.0275 15.375L12.0952 14.9345L12.2986 14.5278L12.4342 14.1549L12.7053 13.7482L12.9425 13.4093L13.2137 13.1043L13.5187 12.8332L13.8576 12.5959L14.2643 12.3248L14.6371 12.1892L15.0438 11.9859L15.4844 11.9181L15.8911 11.8503L16.3317 11.8164L16.8401 11.8503L17.2807 11.9181L17.6535 11.9859L18.0941 12.1892L18.5008 12.3248L18.8397 12.5959L19.1786 12.8332L19.4498 13.1043L19.7548 13.4093L20.0598 13.7482L20.2293 14.1549L20.4326 14.5278L20.5682 14.9345L20.6699 15.375L20.7715 15.7817V16.2223V16.7307L20.6699 17.1713L20.5682 17.5441L20.4326 17.9847L20.2293 18.3914L20.0598 18.7303L19.7548 19.0693L19.4498 19.3404L19.1786 19.6454L18.8397 19.9165L18.5008 20.1199L18.0941 20.3232L17.6535 20.4588L17.2807 20.5605L16.8401 20.6622H16.3317H15.8911L15.4844 20.5605L15.0438 20.4588L14.6371 20.3232L14.2643 20.1199L13.8576 19.9165L13.5187 19.6454L13.2137 19.3404L12.9425 19.0693L12.7053 18.7303L12.4342 18.3914L12.2986 17.9847L12.0952 17.5441L12.0275 17.1713L11.9597 16.7307L11.9258 16.2223Z" fill="black"/>
<path fill-rule="evenodd" clip-rule="evenodd" d="M16.3359 16.1895L27.5541 5.03906H35.5526L16.3359 16.1895Z" fill="black"/>
</svg>
