<svg width="155" height="50" viewBox="0 0 155 50" fill="none" xmlns="http://www.w3.org/2000/svg">
<g id="Group">
<path id="Vector" fill-rule="evenodd" clip-rule="evenodd" d="M77.4122 12.2738V15.8331H68.4225V39.4573H64.6985V15.8305H57.0625V12.2765L77.4122 12.2738ZM79.2284 18.7679H82.7041V22.4069C83.9036 19.9661 85.9969 18.2256 90.0305 18.4739V21.9495C85.4781 21.4792 82.7041 22.8616 82.7041 27.2441V39.4704H79.2415L79.2284 18.7679ZM102.582 39.8728C94.8415 39.8728 91.4521 35.4041 91.4521 29.0577C91.4521 22.808 94.9278 18.3406 101.219 18.3406C107.59 18.3406 110.154 22.7832 110.154 29.0577V30.6701H95.0545C95.551 34.1876 97.8285 36.4638 102.711 36.4638C104.858 36.4625 106.988 36.0848 109.003 35.344V38.6367C107.304 39.5448 104.695 39.8728 102.585 39.8728H102.582ZM95.0114 27.6465H106.556C106.349 23.7998 104.596 21.6046 101.055 21.6046C97.2876 21.5863 95.3838 24.0258 95.0127 27.623L95.0114 27.6465ZM119.925 39.5814C116.531 39.5814 114.381 37.969 114.381 34.1588V10.1074H117.94V33.7368C117.94 35.6184 119.182 36.2625 120.714 36.2625C121.06 36.2684 121.405 36.2545 121.749 36.2207V39.4037C121.15 39.5321 120.538 39.5874 119.925 39.5683V39.5814ZM130.722 39.5814C127.327 39.5814 125.178 37.969 125.178 34.1588V10.1074H128.737V33.7368C128.737 35.6184 129.979 36.2625 131.511 36.2625C131.857 36.2684 132.202 36.2545 132.546 36.2207V39.4037C131.947 39.5321 131.334 39.5874 130.722 39.5683V39.5814ZM134.531 29.0721C134.531 22.8655 138.17 18.355 144.378 18.355C150.586 18.355 154.145 22.8629 154.145 29.0721C154.145 35.2812 150.543 39.8872 144.378 39.8872C138.213 39.8872 134.531 35.2786 134.531 29.0721ZM138.007 29.0721C138.007 33.0051 139.967 36.5631 144.378 36.5631C148.789 36.5631 150.669 33.0038 150.669 29.0721C150.669 25.1404 148.788 21.666 144.382 21.666C139.976 21.666 138.018 25.1417 138.018 29.0721H138.007Z" fill="black"/>
<path id="Vector_2" fill-rule="evenodd" clip-rule="evenodd" d="M43.7431 0H6.24901C4.59167 6.03941e-07 3.00221 0.658377 1.8303 1.83029C1.24908 2.41151 0.788236 3.10168 0.474164 3.86128C0.160092 4.62088 -0.00103712 5.43497 5.02306e-06 6.25694V43.751C5.02306e-06 45.4083 0.658381 46.9978 1.8303 48.1697C3.00221 49.3416 4.59167 50 6.24901 50H43.7431C45.3949 49.9916 46.9762 49.3295 48.1413 48.1585C49.3063 46.9875 49.9604 45.4028 49.9603 43.751V6.26487C49.9604 4.61301 49.3063 3.02834 48.1413 1.85733C46.9762 0.686321 45.3949 0.0242455 43.7431 0.0158604V0ZM21.7446 37.8747C21.7363 38.6642 21.4168 39.4185 20.8555 39.9739C20.2943 40.5292 19.5366 40.8406 18.747 40.8406H9.51626C8.72396 40.8448 7.96221 40.5352 7.39753 39.9795C6.83284 39.4237 6.51115 38.667 6.50278 37.8747V9.51626C6.50173 9.1206 6.57901 8.72865 6.73018 8.363C6.88135 7.99736 7.1034 7.66526 7.38355 7.38586C7.66369 7.10645 7.99637 6.88527 8.36241 6.73507C8.72845 6.58486 9.12061 6.50861 9.51626 6.51071H18.747C19.542 6.51071 20.3045 6.82653 20.8667 7.38869C21.4288 7.95085 21.7446 8.71331 21.7446 9.50833V37.8747ZM43.4972 25.3767C43.4972 26.1717 43.1814 26.9342 42.6192 27.4963C42.0571 28.0585 41.2946 28.3743 40.4996 28.3743H31.245C30.45 28.3743 29.6876 28.0585 29.1254 27.4963C28.5632 26.9342 28.2474 26.1717 28.2474 25.3767V9.51626C28.2464 9.12194 28.3231 8.73129 28.4733 8.36668C28.6235 8.00208 28.8441 7.67069 29.1226 7.39149C29.4011 7.11229 29.7319 6.89078 30.0961 6.73964C30.4603 6.5885 30.8507 6.5107 31.245 6.51071H40.4996C41.2946 6.51071 42.0571 6.82653 42.6192 7.38869C43.1814 7.95085 43.4972 8.71331 43.4972 9.50833V25.3767Z" fill="black"/>
</g>
</svg>
