<svg width="226" height="226" viewBox="0 0 226 226" fill="none" xmlns="http://www.w3.org/2000/svg">
<g clip-path="url(#clip0_5193_1368)">
<path d="M90.1281 2.14648L93.7463 16.5822L92.0731 17.002L90.2438 9.69936L91.2068 10.3424L83.2521 12.3363L83.7982 11.3165L85.6275 18.6191L83.9542 19.0389L80.3359 4.60312L82.0092 4.18337L83.8573 11.564L82.8835 10.8725L90.8383 8.87869L90.3056 9.9496L88.4575 2.56893L90.1308 2.14918L90.1281 2.14648Z" fill="#FFFDF8"/>
<path d="M95.3398 16.2647L97.5996 0.954484L100.263 0.628906L106.106 14.949L104.344 15.1642L99.0576 1.90431H99.0765L97.1019 16.0495L95.3398 16.2647ZM96.9647 12.0941L96.7818 10.5927L103.37 9.78815L103.553 11.2896L96.9647 12.0941Z" fill="#FFFDF8"/>
<path d="M112.451 -0.000468621C113.371 -0.016613 114.157 0.0990883 114.802 0.338563C115.448 0.578038 115.946 0.960121 116.293 1.47943C116.64 1.99874 116.82 2.66066 116.833 3.46788C116.847 4.23474 116.699 4.87782 116.395 5.39713C116.091 5.91644 115.695 6.31467 115.214 6.58644C114.73 6.86089 114.227 7.01426 113.702 7.04924C114.272 7.05462 114.832 7.17301 115.373 7.4098C115.913 7.64658 116.363 8.02867 116.718 8.55874C117.073 9.08881 117.258 9.79647 117.272 10.6844C117.285 11.5508 117.124 12.2962 116.788 12.9177C116.451 13.5393 115.935 14.0155 115.241 14.3519C114.547 14.6855 113.667 14.8631 112.607 14.8793L107.746 14.9573L107.504 0.0748718L112.451 -0.000468621ZM109.285 7.01426L108.69 6.43845L111.746 6.39001C112.822 6.37387 113.656 6.14247 114.248 5.69849C114.84 5.25452 115.128 4.60875 115.114 3.76117C115.106 3.19612 114.974 2.74946 114.719 2.42119C114.463 2.09292 114.108 1.85882 113.654 1.71622C113.196 1.5763 112.666 1.50903 112.061 1.51979L108.419 1.57899L109.18 0.588801L109.285 7.01426ZM112.252 13.3751C113.274 13.359 114.079 13.1195 114.662 12.6594C115.246 12.1993 115.531 11.5212 115.518 10.6279C115.51 10.0844 115.405 9.63234 115.203 9.27447C115.001 8.91661 114.732 8.63677 114.393 8.43497C114.054 8.23316 113.667 8.08786 113.231 8.00445C112.795 7.92104 112.341 7.88337 111.862 7.89144L108.714 7.94256L109.29 7.34791L109.406 14.4003L108.612 13.4343L112.255 13.3751H112.252Z" fill="#FFFDF8"/>
<path d="M119.616 15.0646L121.19 0.265625L122.906 0.448595L121.389 14.7175L120.719 13.6628L127.329 14.3677L127.167 15.8718L119.613 15.0673L119.616 15.0646Z" fill="#FFFDF8"/>
<path d="M128.452 16.0024L135.659 2.30664L138.279 2.88246L139.043 18.3299L137.308 17.9478L136.716 3.68429L136.735 3.68968L130.184 16.3818L128.449 15.9998L128.452 16.0024ZM131.368 12.6041L131.694 11.1268L138.177 12.5529L137.851 14.0301L131.368 12.6041Z" fill="#FFFDF8"/>
<path d="M157.452 19.7791C157.221 20.3307 156.882 20.8554 156.436 21.3505C155.989 21.8456 155.456 22.2546 154.838 22.5748C154.219 22.895 153.533 23.0779 152.78 23.121C152.026 23.164 151.227 23.008 150.383 22.6555C149.223 22.1712 148.362 21.4581 147.8 20.511C147.238 19.5638 146.969 18.4741 146.985 17.2364C147.001 15.9986 147.297 14.6936 147.865 13.3294C148.438 11.9572 149.156 10.8297 150.022 9.94987C150.888 9.07 151.854 8.49688 152.92 8.23318C153.985 7.96949 155.096 8.07981 156.258 8.56414C157.226 8.96775 157.969 9.51128 158.485 10.192C159.002 10.8755 159.336 11.6074 159.481 12.3904C159.629 13.1734 159.629 13.916 159.481 14.621C159.411 14.9788 159.317 15.3044 159.196 15.595L157.603 14.9304C157.673 14.7636 157.738 14.5645 157.797 14.3331C157.939 13.7815 157.964 13.2245 157.864 12.6621C157.767 12.0998 157.539 11.5858 157.181 11.1203C156.82 10.6521 156.312 10.2835 155.655 10.0091C154.886 9.68887 154.125 9.61891 153.377 9.80188C152.626 9.98485 151.919 10.4261 151.252 11.123C150.584 11.8226 149.995 12.7832 149.487 14.0048C148.976 15.2291 148.707 16.3242 148.68 17.2929C148.65 18.2615 148.836 19.0768 149.231 19.7414C149.627 20.406 150.211 20.8984 150.98 21.2213C151.531 21.4527 152.061 21.555 152.567 21.5281C153.073 21.5012 153.541 21.3801 153.971 21.1621C154.402 20.9442 154.778 20.6563 155.101 20.3011C155.424 19.9432 155.677 19.5477 155.86 19.1145L157.452 19.7791Z" fill="#FFFDF8"/>
<path d="M161.916 28.4333C161.168 27.9947 160.568 27.4431 160.119 26.7812C159.67 26.1193 159.379 25.3713 159.25 24.5345C159.121 23.6976 159.169 22.7962 159.398 21.8303C159.627 20.8643 160.046 19.858 160.66 18.814C161.273 17.77 161.943 16.9143 162.675 16.247C163.406 15.5797 164.165 15.1008 164.956 14.8129C165.747 14.5249 166.538 14.4173 167.334 14.4954C168.13 14.5734 168.9 14.829 169.642 15.2649C170.39 15.7035 170.993 16.2524 171.45 16.9116C171.907 17.5682 172.2 18.3135 172.332 19.1449C172.464 19.9764 172.418 20.8724 172.192 21.8357C171.966 22.7989 171.547 23.8026 170.933 24.8466C170.32 25.8906 169.647 26.7489 168.916 27.4189C168.184 28.0889 167.42 28.5706 166.626 28.8665C165.833 29.1625 165.037 29.2728 164.238 29.2002C163.439 29.1275 162.664 28.8719 161.916 28.4333ZM162.704 27.0933C163.417 27.5131 164.162 27.688 164.934 27.618C165.706 27.5508 166.476 27.2144 167.242 26.6144C168.006 26.0144 168.733 25.1291 169.421 23.956C170.113 22.7774 170.53 21.7119 170.672 20.7594C170.815 19.8068 170.723 18.9808 170.401 18.2839C170.078 17.587 169.561 17.03 168.854 16.6156C168.152 16.204 167.417 16.0264 166.648 16.0802C165.879 16.1367 165.112 16.4569 164.351 17.0462C163.587 17.6354 162.86 18.518 162.169 19.6965C161.477 20.8751 161.058 21.9433 160.91 22.9066C160.762 23.8698 160.848 24.704 161.171 25.4116C161.494 26.1193 162.005 26.679 162.707 27.0907L162.704 27.0933Z" fill="#FFFDF8"/>
<path d="M170.089 33.4676L168.773 32.4317L177.971 20.7324L180.182 22.4733L176.561 37.2992L176.408 37.2804L185.043 26.2942L186.359 27.3301L177.161 39.0294L174.918 37.2643L178.541 22.4652L178.703 22.5029L170.086 33.4649L170.089 33.4676Z" fill="#FFFDF8"/>
<path d="M193.318 48.0514C191.874 49.3295 190.502 49.9403 189.208 49.8838C187.914 49.8273 186.733 49.195 185.667 47.9922C184.608 46.7921 184.126 45.5463 184.228 44.2548C184.328 42.9632 185.103 41.6771 186.547 40.3963C186.768 40.1998 187.005 39.9927 187.255 39.772C187.505 39.5514 187.766 39.3173 188.043 39.0724L193.582 34.1699L194.725 35.4615L189.073 40.4635C188.812 40.6949 188.567 40.9102 188.342 41.112C188.116 41.3138 187.906 41.4968 187.715 41.6663C186.596 42.6565 185.988 43.5767 185.885 44.4324C185.783 45.2853 186.101 46.1275 186.835 46.959C187.575 47.7958 188.376 48.2155 189.237 48.2209C190.098 48.2263 191.091 47.7339 192.207 46.7437L199.218 40.5389L200.353 41.8224L193.318 48.0487V48.0514Z" fill="#FFFDF8"/>
<path d="M191.631 54.9667L190.695 53.5783L203.03 45.2559L204.603 47.5887L196.619 60.5957L196.479 60.5311L208.063 52.7146L208.999 54.103L196.665 62.4254L195.067 60.0576L203.046 47.0775L203.188 47.1636L191.631 54.9613V54.9667Z" fill="#FFFDF8"/>
<path d="M201.305 71.4019L200.105 68.5901L213.793 62.7539L215.7 67.2286L205.007 77.2085L204.681 76.778L217.452 71.3319L218.646 74.1357L204.959 79.9719L203.04 75.4703L213.696 65.5065L214.038 65.9747L201.305 71.4046V71.4019Z" fill="#FFFDF8"/>
<path d="M217.994 80.2393L219.812 81.1999L213.875 82.8547L214.539 81.9372L216.014 87.2245L213.681 87.8756L212.207 82.5883L213.251 83.0296L207.265 84.6979L208.325 82.9354L210.289 89.9825L207.957 90.6336L205.527 81.9157L219.86 77.9199L222.29 86.6379L219.957 87.289L217.994 80.242V80.2393Z" fill="#FFFDF8"/>
<path d="M208.425 92.6286L223.137 90.3926L224.044 96.3579C224.278 97.8997 224.103 99.1052 223.516 99.9743C222.93 100.843 221.98 101.376 220.662 101.575C219.903 101.691 219.236 101.645 218.655 101.435C218.077 101.228 217.609 100.935 217.251 100.555C216.893 100.179 216.67 99.794 216.576 99.4065C216.611 99.8155 216.568 100.216 216.447 100.604C216.326 100.994 216.094 101.333 215.75 101.624C215.406 101.914 214.916 102.108 214.276 102.205C213.802 102.278 213.339 102.347 212.879 102.417C212.419 102.487 211.951 102.557 211.472 102.63C211.147 102.678 210.848 102.751 210.582 102.843C210.313 102.934 210.127 103.039 210.023 103.157L209.552 100.055C209.673 99.9474 209.861 99.8478 210.122 99.7536C210.383 99.6594 210.676 99.5868 211.002 99.5384C211.427 99.4738 211.836 99.4119 212.223 99.3527C212.613 99.2935 213.019 99.2316 213.444 99.167C214.023 99.0782 214.448 98.8603 214.717 98.5132C214.986 98.1661 215.072 97.6629 214.972 97.0037L214.51 93.9524L215.623 94.6305L208.882 95.6556L208.422 92.6232L208.425 92.6286ZM215.909 94.5928L216.909 93.5945L217.38 96.6862C217.442 97.0844 217.585 97.4261 217.81 97.7114C218.036 97.9966 218.332 98.2065 218.69 98.3383C219.051 98.4701 219.454 98.5024 219.898 98.4352C220.522 98.341 220.979 98.0773 221.267 97.6495C221.555 97.2216 221.649 96.6674 221.547 95.9893L221.076 92.8869L222.22 93.6322L215.906 94.5901L215.909 94.5928Z" fill="#FFFDF8"/>
<path d="M210.182 104.933L225.059 104.621L225.161 109.432C225.183 110.428 225.021 111.337 224.68 112.163C224.338 112.987 223.843 113.702 223.2 114.302C222.557 114.905 221.785 115.373 220.884 115.71C219.983 116.046 218.985 116.224 217.887 116.248C216.792 116.272 215.783 116.135 214.861 115.836C213.941 115.54 213.142 115.104 212.466 114.528C211.791 113.953 211.264 113.261 210.885 112.451C210.505 111.641 210.303 110.74 210.282 109.744L210.18 104.933H210.182ZM211.175 108.06L212.638 106.615L212.695 109.29C212.711 110.016 212.926 110.67 213.346 111.248C213.766 111.83 214.358 112.282 215.119 112.61C215.883 112.938 216.781 113.089 217.817 113.067C218.858 113.046 219.749 112.855 220.483 112.497C221.217 112.139 221.78 111.66 222.167 111.063C222.554 110.465 222.74 109.803 222.727 109.077L222.67 106.402L224.193 107.783L211.172 108.057L211.175 108.06Z" fill="#FFFDF8"/>
<path d="M220.176 146.276L205.789 142.471L206.23 140.803L213.507 142.727L212.479 143.259L214.575 135.33L215.205 136.301L207.928 134.377L208.369 132.709L222.756 136.514L222.315 138.182L214.96 136.237L216.036 135.717L213.94 143.647L213.262 142.665L220.617 144.61L220.176 146.278V146.276Z" fill="#FFFDF8"/>
<path d="M205.304 144.018L217.611 153.395L216.608 155.884L201.25 154.078L201.914 152.431L216.075 154.213L216.067 154.232L204.64 145.664L205.304 144.018ZM208.169 147.456L209.573 148.021L207.093 154.18L205.689 153.615L208.169 147.456Z" fill="#FFFDF8"/>
<path d="M211.149 167.059C210.705 167.867 210.215 168.491 209.685 168.932C209.155 169.373 208.577 169.615 207.953 169.659C207.329 169.702 206.664 169.529 205.957 169.139C205.284 168.768 204.8 168.321 204.501 167.799C204.203 167.277 204.055 166.739 204.058 166.182C204.06 165.628 204.176 165.114 204.407 164.64C204.119 165.135 203.737 165.558 203.264 165.91C202.788 166.263 202.234 166.462 201.599 166.508C200.964 166.553 200.256 166.36 199.479 165.932C198.72 165.512 198.153 165.004 197.781 164.404C197.41 163.804 197.252 163.117 197.308 162.351C197.362 161.581 197.647 160.733 198.161 159.802L200.509 155.543L213.54 162.73L211.154 167.059H211.149ZM199.643 160.238C199.151 161.134 198.957 161.95 199.065 162.684C199.172 163.419 199.619 164.005 200.402 164.436C200.878 164.7 201.322 164.831 201.731 164.834C202.14 164.837 202.516 164.743 202.863 164.549C203.207 164.355 203.525 164.089 203.813 163.755C204.101 163.421 204.362 163.042 204.593 162.622L206.113 159.864L206.342 160.658L200.168 157.252L201.4 157.044L199.64 160.233L199.643 160.238ZM206.635 160.825L207.428 160.596L205.951 163.273C205.432 164.215 205.217 165.055 205.309 165.787C205.4 166.521 205.817 167.092 206.557 167.501C207.052 167.772 207.504 167.88 207.915 167.823C208.327 167.767 208.706 167.576 209.056 167.248C209.406 166.922 209.726 166.494 210.016 165.964L211.776 162.776L212.257 163.93L206.629 160.825H206.635Z" fill="#FFFDF8"/>
<path d="M194.602 165.835L206.77 174.402L205.777 175.812L194.048 167.551L195.296 167.479L191.468 172.917L190.23 172.045L194.602 165.832V165.835Z" fill="#FFFDF8"/>
<path d="M189.49 173.105L197.964 186.053L196.188 188.066L182.312 181.237L183.488 179.905L196.245 186.309L196.231 186.325L188.314 174.437L189.49 173.105ZM191.045 177.306L192.18 178.307L187.787 183.284L186.652 182.284L191.045 177.306Z" fill="#FFFDF8"/>
<path d="M172.143 196.659C171.772 196.191 171.476 195.639 171.258 195.01C171.04 194.38 170.94 193.716 170.959 193.019C170.978 192.322 171.15 191.633 171.476 190.952C171.804 190.271 172.323 189.647 173.041 189.077C174.026 188.294 175.067 187.885 176.165 187.852C177.262 187.817 178.349 188.108 179.425 188.722C180.501 189.335 181.499 190.223 182.419 191.38C183.345 192.545 183.982 193.718 184.335 194.902C184.687 196.086 184.722 197.208 184.437 198.268C184.152 199.328 183.52 200.249 182.532 201.032C181.712 201.685 180.878 202.073 180.03 202.197C179.183 202.32 178.381 202.256 177.625 202.008C176.87 201.758 176.219 201.4 175.675 200.929C175.395 200.695 175.159 200.456 174.96 200.208L176.31 199.135C176.423 199.277 176.566 199.431 176.738 199.592C177.152 199.985 177.628 200.273 178.169 200.458C178.707 200.644 179.269 200.693 179.85 200.604C180.431 200.515 181.002 200.249 181.561 199.805C182.215 199.285 182.643 198.653 182.844 197.908C183.046 197.162 183.003 196.328 182.715 195.408C182.425 194.488 181.868 193.508 181.045 192.47C180.221 191.431 179.39 190.667 178.559 190.175C177.725 189.682 176.921 189.448 176.149 189.475C175.374 189.502 174.661 189.774 174.01 190.293C173.542 190.664 173.195 191.079 172.974 191.536C172.751 191.991 172.633 192.462 172.616 192.943C172.6 193.425 172.67 193.893 172.826 194.351C172.982 194.805 173.206 195.22 173.499 195.588L172.148 196.662L172.143 196.659Z" fill="#FFFDF8"/>
<path d="M162.407 196.397C163.152 195.953 163.924 195.694 164.721 195.619C165.517 195.544 166.313 195.651 167.107 195.942C167.901 196.232 168.667 196.711 169.404 197.376C170.141 198.041 170.817 198.896 171.435 199.935C172.054 200.976 172.479 201.977 172.711 202.938C172.942 203.898 172.993 204.797 172.867 205.628C172.737 206.46 172.45 207.205 171.995 207.867C171.543 208.526 170.946 209.078 170.206 209.517C169.461 209.961 168.689 210.224 167.892 210.305C167.096 210.388 166.303 210.286 165.512 210.001C164.721 209.716 163.957 209.242 163.222 208.58C162.488 207.918 161.813 207.065 161.194 206.024C160.575 204.983 160.15 203.982 159.916 203.016C159.682 202.05 159.628 201.151 159.752 200.314C159.876 199.477 160.164 198.727 160.613 198.059C161.062 197.392 161.659 196.838 162.405 196.394L162.407 196.397ZM163.201 197.731C162.491 198.154 161.977 198.721 161.665 199.432C161.353 200.142 161.272 200.976 161.428 201.937C161.584 202.897 162.009 203.96 162.703 205.128C163.4 206.301 164.134 207.181 164.898 207.765C165.665 208.349 166.432 208.669 167.198 208.72C167.965 208.774 168.702 208.588 169.407 208.171C170.106 207.754 170.618 207.197 170.94 206.495C171.263 205.795 171.352 204.967 171.204 204.014C171.056 203.062 170.634 201.999 169.934 200.823C169.238 199.65 168.503 198.764 167.731 198.172C166.959 197.578 166.187 197.252 165.412 197.193C164.637 197.134 163.9 197.311 163.201 197.728V197.731Z" fill="#FFFDF8"/>
<path d="M154.058 201.127L155.599 200.473L161.397 214.179L158.803 215.277L147.575 204.942L147.663 204.815L153.108 217.685L151.567 218.339L145.77 204.633L148.398 203.519L159.6 213.843L159.487 213.967L154.055 201.124L154.058 201.127Z" fill="#FFFDF8"/>
<path d="M130.046 214.392C129.629 212.506 129.761 211.012 130.439 209.909C131.117 208.806 132.242 208.079 133.813 207.732C135.376 207.385 136.696 207.571 137.778 208.286C138.859 209.002 139.607 210.302 140.024 212.185C140.089 212.473 140.156 212.783 140.229 213.106C140.301 213.431 140.377 213.773 140.457 214.136L142.055 221.358L140.371 221.729L138.741 214.359C138.666 214.018 138.596 213.7 138.528 213.404C138.464 213.108 138.402 212.837 138.348 212.586C138.025 211.128 137.517 210.148 136.82 209.643C136.123 209.139 135.233 209.008 134.149 209.247C133.059 209.489 132.303 209.984 131.878 210.735C131.456 211.486 131.405 212.592 131.728 214.05L133.751 223.193L132.077 223.564L130.049 214.392H130.046Z" fill="#FFFDF8"/>
<path d="M124.823 209.552L126.491 209.406L127.771 224.235L124.968 224.477L117.482 211.177L117.605 211.085L118.808 225.01L117.14 225.155L115.859 210.326L118.703 210.082L126.168 223.363L126.023 223.446L124.823 209.554V209.552Z" fill="#FFFDF8"/>
<path d="M105.758 210.043L108.798 210.352L107.289 225.159L102.452 224.667L98.8878 210.479L99.4231 210.401L98.0162 224.212L94.9844 223.903L96.4936 209.096L101.36 209.591L104.927 223.739L104.351 223.811L105.756 210.04L105.758 210.043Z" fill="#FFFDF8"/>
<path d="M89.9511 220.382L88.2321 221.509L89.6498 215.509L90.1314 216.537L84.7914 215.272L85.3483 212.915L90.6882 214.18L89.7978 214.882L91.2289 208.833L92.2593 210.612L85.1411 208.927L85.698 206.57L94.5029 208.653L91.0783 223.137L82.2734 221.054L82.8303 218.697L89.9484 220.382H89.9511Z" fill="#FFFDF8"/>
<path d="M83.7303 206.021L78.5786 219.983L72.9185 217.895C71.4551 217.354 70.484 216.617 70.0078 215.686C69.5316 214.752 69.5236 213.663 69.9836 212.414C70.2499 211.696 70.6131 211.131 71.0758 210.724C71.5385 210.318 72.02 210.049 72.5231 209.92C73.0262 209.791 73.47 209.777 73.8547 209.885C73.4781 209.718 73.1499 209.487 72.8674 209.193C72.585 208.9 72.3994 208.531 72.3133 208.09C72.2245 207.649 72.2917 207.124 72.5177 206.519C72.6818 206.069 72.8459 205.628 73.0073 205.192C73.1687 204.756 73.3328 204.312 73.4996 203.858C73.6126 203.548 73.696 203.255 73.7444 202.975C73.7929 202.695 73.7928 202.483 73.739 202.332L76.6821 203.419C76.717 203.575 76.7144 203.79 76.6686 204.065C76.6256 204.339 76.5449 204.63 76.4319 204.939C76.2839 205.343 76.1413 205.73 76.0042 206.099C75.867 206.468 75.7244 206.855 75.5764 207.259C75.3747 207.808 75.3585 208.284 75.5334 208.69C75.7055 209.094 76.1064 209.411 76.7305 209.643L79.6278 210.711L78.4952 211.359L80.8572 204.961L83.733 206.024L83.7303 206.021ZM78.3957 211.623L78.7858 212.982L75.8508 211.898C75.4715 211.758 75.103 211.717 74.7452 211.779C74.3847 211.841 74.0619 211.997 73.7713 212.247C73.4808 212.498 73.2575 212.837 73.1015 213.259C72.8836 213.851 72.8916 214.378 73.1257 214.839C73.3624 215.299 73.8009 215.646 74.4439 215.885L77.3869 216.972L76.1817 217.613L78.393 211.62L78.3957 211.623Z" fill="#FFFDF8"/>
<path d="M72.1256 201.619L65.1931 214.788L60.9346 212.544C60.0549 212.081 59.3366 211.497 58.7798 210.8C58.2256 210.101 57.8382 209.323 57.623 208.47C57.4078 207.614 57.3728 206.713 57.5154 205.763C57.658 204.813 57.9862 203.853 58.4973 202.881C59.0084 201.91 59.6164 201.095 60.3212 200.433C61.026 199.771 61.7954 199.284 62.624 198.972C63.4525 198.66 64.3134 198.533 65.2065 198.592C66.0997 198.651 66.9847 198.912 67.8671 199.378L72.1256 201.622V201.619ZM68.9082 200.974L69.4623 202.954L67.0977 201.708C66.4548 201.369 65.7795 201.243 65.0693 201.329C64.3591 201.415 63.6758 201.714 63.0194 202.222C62.363 202.731 61.7954 203.444 61.3112 204.361C60.8243 205.284 60.5606 206.153 60.5176 206.971C60.4746 207.789 60.6198 208.513 60.9534 209.14C61.287 209.77 61.7766 210.251 62.4195 210.59L64.7842 211.836L62.8392 212.498L68.9082 200.974Z" fill="#FFFDF8"/>
<path d="M31.1367 190.304L41.4373 179.562L42.6828 180.757L37.4747 186.19L37.507 185.033L43.4253 190.71L42.2713 190.791L47.4794 185.358L48.7249 186.553L38.4243 197.294L37.1788 196.1L42.4434 190.608L42.3762 191.8L36.4578 186.122L37.6469 186.004L32.3823 191.496L31.1367 190.301V190.304Z" fill="#FFFDF8"/>
<path d="M40.314 178.379L26.1557 184.621L24.4609 182.539L33.4676 169.965L34.5894 171.342L26.1853 182.88L26.1719 182.864L39.1922 176.998L40.314 178.376V178.379ZM35.9183 179.224L34.7454 180.179L30.5541 175.029L31.727 174.074L35.9183 179.224Z" fill="#FFFDF8"/>
<path d="M17.326 172.379C16.8337 171.598 16.5243 170.872 16.3925 170.194C16.2634 169.516 16.3279 168.894 16.5916 168.326C16.8525 167.759 17.326 167.261 18.0093 166.828C18.6576 166.419 19.2817 166.209 19.8843 166.198C20.4869 166.187 21.0303 166.319 21.5145 166.588C21.9988 166.86 22.3942 167.21 22.6955 167.638C22.4023 167.148 22.214 166.61 22.136 166.023C22.0553 165.437 22.1494 164.855 22.4184 164.277C22.6848 163.698 23.1932 163.171 23.9437 162.697C24.6782 162.235 25.3964 161.984 26.1012 161.949C26.8061 161.914 27.4813 162.105 28.1296 162.525C28.7753 162.945 29.3832 163.604 29.9508 164.503L32.5468 168.614L19.965 176.56L17.326 172.379ZM24.9606 171.434L24.7777 172.241L23.1448 169.656C22.5691 168.746 21.9396 168.154 21.2536 167.88C20.5676 167.605 19.8655 167.694 19.1499 168.146C18.671 168.447 18.359 168.792 18.211 169.182C18.0631 169.57 18.0469 169.995 18.1653 170.457C18.2837 170.92 18.5016 171.407 18.8271 171.919L20.7721 174.999L19.5292 174.865L24.9633 171.434H24.9606ZM28.8479 165.59C28.3018 164.726 27.6804 164.164 26.9836 163.903C26.2869 163.642 25.5605 163.752 24.8046 164.228C24.3446 164.519 24.0137 164.845 23.8146 165.2C23.6155 165.555 23.516 165.934 23.5187 166.33C23.5214 166.725 23.6021 167.132 23.7554 167.546C23.9088 167.96 24.1159 168.372 24.3715 168.776L26.0528 171.437L25.2458 171.254L31.2071 167.487L30.7956 168.665L28.8506 165.585L28.8479 165.59Z" fill="#FFFDF8"/>
<path d="M26.3814 158.477L13.0059 164.999L12.25 163.449L25.1439 157.161L24.6059 158.288L21.6924 152.312L23.0536 151.65L26.3814 158.479V158.477Z" fill="#FFFDF8"/>
<path d="M22.4855 150.487L7.05745 151.641L6.15625 149.112L18.843 140.268L19.4402 141.941L7.66542 150.008L7.65735 149.989L21.8882 148.811L22.4855 150.484V150.487ZM18.0602 149.817L16.6344 150.326L14.4043 144.072L15.83 143.564L18.0602 149.817Z" fill="#FFFDF8"/>
<path d="M10.2971 123.891C10.889 123.794 11.5104 123.802 12.1668 123.918C12.8232 124.034 13.4527 124.27 14.0526 124.623C14.6525 124.978 15.1717 125.462 15.6075 126.079C16.0433 126.695 16.3365 127.454 16.4845 128.358C16.6889 129.598 16.541 130.707 16.0379 131.683C15.5348 132.66 14.7547 133.47 13.6948 134.113C12.6349 134.756 11.3759 135.197 9.91513 135.44C8.44899 135.682 7.11199 135.671 5.9068 135.402C4.70161 135.136 3.70357 134.619 2.91536 133.857C2.12714 133.096 1.63215 132.092 1.42501 130.852C1.25284 129.816 1.3201 128.898 1.62408 128.099C1.92807 127.3 2.37195 126.627 2.9584 126.089C3.54485 125.549 4.17435 125.156 4.84957 124.908C5.18853 124.776 5.51404 124.685 5.8261 124.634L6.10856 126.337C5.92832 126.366 5.72656 126.418 5.50059 126.488C4.95718 126.66 4.47295 126.937 4.04791 127.316C3.62286 127.696 3.30812 128.164 3.10367 128.715C2.89921 129.267 2.85348 129.897 2.97185 130.599C3.10905 131.422 3.45339 132.103 4.00487 132.641C4.55904 133.179 5.3069 133.548 6.25383 133.742C7.20076 133.936 8.32525 133.925 9.63266 133.709C10.9401 133.494 12.0108 133.139 12.8474 132.649C13.684 132.16 14.2785 131.57 14.631 130.882C14.9834 130.193 15.091 129.437 14.9565 128.613C14.8596 128.024 14.6659 127.521 14.3754 127.104C14.0849 126.689 13.7324 126.356 13.3209 126.108C12.9093 125.861 12.4654 125.694 11.9892 125.608C11.5158 125.522 11.045 125.519 10.5823 125.594L10.2998 123.891H10.2971Z" fill="#FFFDF8"/>
<path d="M15.259 115.515C15.2859 116.381 15.1379 117.183 14.8151 117.915C14.495 118.647 14.0135 119.293 13.3732 119.847C12.7329 120.401 11.9447 120.837 11.0059 121.16C10.067 121.48 8.99094 121.658 7.78307 121.695C6.57519 121.733 5.49106 121.617 4.53875 121.354C3.58643 121.09 2.7767 120.7 2.11223 120.183C1.44776 119.669 0.936636 119.053 0.578846 118.337C0.221056 117.622 0.0300553 116.833 0.0031538 115.972C-0.0237477 115.106 0.12152 114.304 0.436268 113.567C0.751015 112.829 1.22448 112.186 1.85667 111.632C2.48885 111.078 3.27438 110.642 4.21055 110.322C5.14672 110.002 6.22009 109.824 7.42797 109.786C8.63584 109.749 9.71997 109.864 10.6777 110.128C11.6354 110.392 12.4478 110.782 13.1203 111.296C13.7929 111.81 14.3094 112.426 14.6725 113.142C15.0357 113.857 15.2321 114.648 15.259 115.518V115.515ZM13.7068 115.561C13.6826 114.735 13.4351 114.011 12.967 113.392C12.4989 112.773 11.8048 112.299 10.8902 111.968C9.97554 111.64 8.8403 111.495 7.48177 111.535C6.11786 111.576 4.99338 111.788 4.11101 112.176C3.22864 112.563 2.57763 113.077 2.15796 113.723C1.74099 114.369 1.54192 115.1 1.56613 115.921C1.59034 116.734 1.82977 117.452 2.28709 118.076C2.74173 118.698 3.42233 119.177 4.32891 119.511C5.23281 119.844 6.36805 119.989 7.73195 119.949C9.09586 119.909 10.2257 119.696 11.1189 119.309C12.012 118.921 12.6738 118.405 13.1015 117.756C13.5292 117.108 13.731 116.376 13.7068 115.563V115.561Z" fill="#FFFDF8"/>
<path d="M15.1687 105.906L14.9938 107.572L0.195312 106.022L0.488539 103.221L14.9615 98.3856L15.0288 98.5255L1.13417 97.0699L1.30903 95.4043L16.1075 96.9542L15.8089 99.7929L1.35746 104.609L1.30365 104.451L15.1687 105.904V105.906Z" fill="#FFFDF8"/>
<path d="M15.1576 78.4722C17.0084 79.0184 18.2539 79.8552 18.8942 80.9826C19.5344 82.11 19.6259 83.4446 19.1713 84.9864C18.7193 86.5228 17.9203 87.591 16.7717 88.1938C15.623 88.7965 14.1245 88.8234 12.271 88.2772C11.9859 88.1938 11.6846 88.105 11.3671 88.0108C11.047 87.9166 10.7107 87.8171 10.3556 87.7121L3.26172 85.6241L3.74864 83.9693L10.9878 86.1004C11.3241 86.1999 11.6362 86.2914 11.9267 86.3775C12.2172 86.4636 12.4836 86.5417 12.731 86.6143C14.1622 87.0367 15.2679 87.0637 16.0453 86.695C16.8228 86.3291 17.3689 85.6134 17.6809 84.5478C17.9957 83.4769 17.9284 82.5755 17.4738 81.841C17.0191 81.1091 16.0776 80.5306 14.6437 80.1081L5.66402 77.4631L6.14825 75.8164L15.1576 78.4695V78.4722Z" fill="#FFFDF8"/>
<path d="M21.9146 76.2333L21.234 77.7643L7.64062 71.7129L8.78394 69.1405L24.0425 69.0195L24.064 69.1728L11.2992 63.49L11.9798 61.959L25.5732 68.0104L24.4137 70.6204L9.18208 70.7334V70.5666L21.9173 76.236L21.9146 76.2333Z" fill="#FFFDF8"/>
<path d="M30.7194 59.3231L28.9708 61.8309L16.7656 53.3174L19.5472 49.3271L33.6759 53.1048L33.4822 53.6107L22.0975 45.6677L23.8407 43.168L36.0459 51.6814L33.2482 55.696L19.1518 51.9397L19.367 51.4016L30.7194 59.3204V59.3231Z" fill="#FFFDF8"/>
<path d="M29.3552 40.4894L29.2018 38.439L33.7589 42.5908L32.6264 42.5155L36.32 38.4579L38.1089 40.0885L34.4153 44.1461L34.2351 43.0267L38.8299 47.2108L36.7746 47.2512L41.6976 41.8428L43.4865 43.4734L37.3933 50.1652L26.3906 40.145L32.4838 33.4531L34.2728 35.0837L29.3498 40.4921L29.3552 40.4894Z" fill="#FFFDF8"/>
<path d="M44.9319 42.0077L35.207 30.7444L39.7722 26.7998C40.9532 25.78 42.0669 25.2876 43.1134 25.3198C44.1599 25.3548 45.1175 25.8741 45.9892 26.8832C46.4895 27.4644 46.807 28.0536 46.9388 28.6564C47.0706 29.2564 47.0733 29.8107 46.9415 30.3138C46.8123 30.817 46.6079 31.2099 46.3281 31.4951C46.6563 31.2475 47.0168 31.0699 47.4122 30.965C47.805 30.8601 48.2166 30.8762 48.647 31.0134C49.0748 31.1507 49.4998 31.4628 49.9222 31.9498C50.2342 32.3104 50.5409 32.6682 50.8449 33.018C51.1489 33.3705 51.4582 33.7284 51.7757 34.0943C51.9909 34.3446 52.2088 34.5571 52.4294 34.7347C52.65 34.9123 52.8383 35.0145 52.9943 35.0415L50.6189 37.0918C50.4656 37.046 50.2773 36.9384 50.0593 36.7689C49.8414 36.5967 49.6235 36.3868 49.4083 36.1393C49.1259 35.8137 48.8569 35.5016 48.6013 35.2029C48.343 34.9042 48.074 34.5921 47.7942 34.2665C47.4122 33.8226 47.0006 33.5804 46.5648 33.5373C46.1264 33.4943 45.6556 33.688 45.1525 34.1239L42.8175 36.142L42.7986 34.8396L47.2562 40.0032L44.9346 42.0077H44.9319ZM42.613 34.6271L41.233 34.3123L43.6003 32.2673C43.907 32.0036 44.1195 31.6996 44.2406 31.3552C44.3616 31.0107 44.3804 30.6502 44.3024 30.2762C44.2217 29.8995 44.0361 29.5416 43.7402 29.2026C43.3259 28.7236 42.8632 28.4761 42.3467 28.4599C41.8302 28.4438 41.3137 28.659 40.7945 29.1084L38.4191 31.1587L38.4406 29.7945L42.6157 34.6298L42.613 34.6271Z" fill="#FFFDF8"/>
<path d="M54.4061 33.9711L46.2227 21.5399L50.2417 18.8922C51.073 18.346 51.9285 17.9962 52.8081 17.8482C53.6878 17.7002 54.5541 17.7379 55.4068 17.9612C56.2596 18.1846 57.0666 18.5909 57.8307 19.1748C58.5947 19.7587 59.278 20.5094 59.8805 21.4242C60.4831 22.3391 60.9055 23.2674 61.1422 24.2037C61.3816 25.1428 61.4381 26.0496 61.309 26.9268C61.1826 27.8039 60.8759 28.6192 60.3944 29.3726C59.9128 30.126 59.2537 30.7745 58.4225 31.3234L54.4034 33.9711H54.4061ZM56.5232 31.466L54.5218 30.9951L56.7546 29.5233C57.3599 29.1251 57.7984 28.5923 58.0674 27.9277C58.3364 27.2631 58.4037 26.5231 58.2745 25.7025C58.1454 24.8818 57.7957 24.0396 57.2254 23.1732C56.6524 22.3014 56.0175 21.6502 55.3234 21.2197C54.6294 20.7865 53.9246 20.5659 53.2144 20.5551C52.5015 20.5443 51.8424 20.7381 51.2371 21.139L49.0043 22.6108L49.3621 20.5874L56.5232 31.466Z" fill="#FFFDF8"/>
<path d="M72.7861 14.3098L68.543 16.3223L70.5514 20.5739L74.7946 18.5614L72.7861 14.3098Z" fill="#FFFDF8"/>
<path d="M50.9327 195.252L48.1992 199.076L52.0159 201.815L54.7493 197.991L50.9327 195.252Z" fill="#FFFDF8"/>
<path d="M216.039 123.296L215.188 127.922L219.804 128.775L220.656 124.149L216.039 123.296Z" fill="#FFFDF8"/>
</g>
<defs>
<clipPath id="clip0_5193_1368">
<rect width="225.16" height="225.16" fill="white"/>
</clipPath>
</defs>
</svg>
