<svg width="72" height="72" viewBox="0 0 72 72" fill="none" xmlns="http://www.w3.org/2000/svg">
<g clip-path="url(#clip0_4422_2192)">
<path d="M69.7084 27.396C68.102 27.3607 66.4924 27.4313 64.8892 27.3575C64.4554 27.3382 63.8161 27.078 63.6554 26.7439C62.9711 25.3145 62.4281 23.8177 61.7855 22.2213C63.2153 20.8336 64.6353 19.4524 66.0554 18.0776C67.0642 17.0979 67.0161 16.115 66.0554 15.1514C62.9936 12.0806 59.9253 9.01618 56.857 5.94859C55.89 4.98173 54.9261 4.92713 53.9365 5.93895C52.7381 7.16277 51.6329 8.52151 50.2771 9.53975C48.4426 10.9145 47.196 8.5986 45.5446 8.43799C45.204 8.40587 44.6964 7.69278 44.6643 7.26235C44.5582 5.71731 44.6321 4.15943 44.6161 2.60797C44.5968 0.558625 44.0763 0.0254106 42.0747 0.0221985C38.7012 0.0157742 35.3277 0.035047 31.9542 0.0157742C27.6297 -0.00992285 27.1381 -0.38253 27.4273 4.58985C27.5751 7.1178 27.1639 8.8909 24.3365 9.36309C23.6779 9.4723 23.0707 9.91236 22.2289 10.2946C20.9277 8.93587 19.6233 7.52575 18.2643 6.1638C16.9695 4.86931 16.2819 4.85325 15.0161 6.10598C12.0088 9.08042 9.01446 12.0677 6.04257 15.0775C4.86667 16.2692 4.89558 16.9855 6.08755 18.2157C7.16707 19.3303 8.33012 20.3711 9.36466 21.5242C11.1542 23.5222 8.49719 24.7749 8.39759 26.4934C8.37831 26.8178 7.44016 27.2996 6.9004 27.3414C5.35502 27.457 3.79679 27.3543 2.24498 27.3928C0.606426 27.4313 0.0184739 28.0224 0.0120482 29.6381C-0.00401606 33.8685 -0.00401606 38.0989 0.0120482 42.326C0.0184739 44.0156 0.609639 44.5874 2.36386 44.6163C3.97028 44.6452 5.57992 44.5777 7.18313 44.6548C7.6008 44.6741 8.20161 44.9857 8.36867 45.3326C9.03695 46.7234 9.57028 48.1785 10.2161 49.7589C8.84418 51.1016 7.44337 52.4988 6.01365 53.864C4.93735 54.8919 4.97269 55.8844 5.99759 56.9059C9.02731 59.9317 12.0442 62.9768 15.0932 65.9834C16.2787 67.1526 16.992 67.1301 18.2225 65.8967C19.5815 64.5347 20.8827 63.1182 22.1325 61.8044C25.6302 62.9972 27.3802 65.2842 27.3823 68.6655C27.3823 69.0413 27.3695 69.4172 27.3855 69.7898C27.4626 71.4023 28.041 71.974 29.6795 71.9804C33.9108 71.9965 38.139 71.9965 42.3703 71.9804C43.9863 71.974 44.5775 71.3862 44.6161 69.748C44.6546 68.0906 44.5807 66.4267 44.661 64.7692C44.6803 64.3613 45.0273 63.7831 45.3839 63.6128C46.7687 62.9479 48.2177 62.4115 49.7245 61.7948C51.0064 63.0893 52.2787 64.3902 53.5671 65.6718C55.0771 67.1751 55.694 67.1912 57.1655 65.7296C60.0506 62.8612 62.9293 59.9831 65.7952 57.0954C67.1767 55.7013 67.1735 55.0236 65.7438 53.607C64.4169 52.2901 63.0418 51.0245 61.7566 49.8039C62.4024 48.2267 62.8811 46.8615 63.5269 45.5799C63.7486 45.1398 64.3783 44.6677 64.8506 44.6323C66.4474 44.5135 68.0602 44.6098 69.6667 44.5777C71.4209 44.5424 71.9831 43.9835 71.9895 42.265C72.0024 38.0892 72.0024 33.9134 71.9895 29.7377C71.9831 28.0063 71.4209 27.4185 69.7084 27.3799V27.396ZM68.4169 41.144C66.6819 41.144 64.9341 41.1953 63.1928 41.1279C61.7823 41.0733 61.1012 41.6707 60.6675 43.0166C60.0634 44.8861 59.3116 46.7331 58.3928 48.4676C57.6859 49.8071 57.8402 50.7482 58.9197 51.7087C60.1952 52.8458 61.4193 54.0375 62.5791 55.1264C60.0313 57.6768 57.6699 60.0409 55.1092 62.6042C53.9879 61.4061 52.7703 60.1309 51.5879 58.8268C50.7108 57.8599 49.8337 57.7218 48.6064 58.3257C46.698 59.2636 44.6932 60.0088 42.7012 60.7572C41.6699 61.1459 41.1108 61.7273 41.1333 62.874C41.1719 64.6825 41.143 66.4941 41.143 68.4053H30.8651C30.8651 66.7125 30.8137 64.9716 30.8811 63.2338C30.9357 61.8429 30.3928 61.1266 29.0369 60.6737C27.0707 60.0185 25.1622 59.1672 23.2956 58.2646C22.2128 57.7411 21.3775 57.8021 20.5647 58.6629C19.3181 59.9831 18.0618 61.2937 16.7896 62.6267C14.2193 60.0666 11.8739 57.7282 9.35181 55.2099C10.6305 53.9957 11.9382 52.7333 13.2651 51.4967C14.1775 50.6454 14.261 49.7942 13.702 48.6379C12.7735 46.7266 11.9992 44.7351 11.2635 42.7372C10.8522 41.6226 10.2225 41.0893 9.01767 41.1247C7.26024 41.1761 5.4996 41.1375 3.62008 41.1375V30.8619C5.44819 30.8619 7.2506 30.8298 9.05301 30.8748C10.2643 30.9037 10.8715 30.3319 11.2763 29.2301C12.012 27.2322 12.7992 25.2471 13.7245 23.3327C14.2835 22.1731 14.1743 21.3219 13.2618 20.4771C11.9349 19.2468 10.6369 17.9909 9.37108 16.7831C11.9124 14.2423 14.2578 11.9007 16.8506 9.30527C17.9912 10.5387 19.196 11.8139 20.3655 13.1213C21.2779 14.1427 22.1807 14.3033 23.4723 13.6449C25.3165 12.7069 27.2763 11.9778 29.2265 11.2711C30.3317 10.8696 30.91 10.2721 30.8779 9.05793C30.8329 7.29768 30.8651 5.53422 30.8651 3.63585H41.143C41.143 5.35755 41.188 7.10817 41.1269 8.85236C41.0819 10.1758 41.6088 10.8728 42.8908 11.3096C44.8538 11.981 46.7783 12.7904 48.6418 13.7027C49.7887 14.2648 50.6466 14.207 51.5044 13.2883C52.7414 11.9617 54.004 10.6576 55.212 9.38557C57.7213 11.9071 60.0538 14.252 62.7365 16.9469C61.4964 18.0551 60.163 19.2597 58.8137 20.4514C57.8241 21.3251 57.7373 22.2116 58.3478 23.429C59.2763 25.2792 60.0377 27.2258 60.7285 29.182C61.1494 30.3704 61.792 30.9326 63.0643 30.8908C64.8153 30.833 66.5727 30.878 68.4169 30.878V41.144Z" fill="black"/>
<path d="M36.1398 20.5841C27.5261 20.5552 20.5735 27.4323 20.5703 35.9863C20.5639 44.4824 27.4651 51.4206 35.9374 51.4334C44.4482 51.4463 51.4041 44.5659 51.4265 36.1115C51.449 27.5865 44.5864 20.613 36.143 20.5841H36.1398ZM35.947 47.945C29.2932 47.9258 24.0563 42.6643 24.0595 35.9991C24.0595 29.3371 29.3061 24.0853 35.9663 24.0725C42.7004 24.0596 47.9695 29.3532 47.9374 36.0955C47.9053 42.735 42.6169 47.9611 35.9502 47.945H35.947Z" fill="black"/>
</g>
<defs>
<clipPath id="clip0_4422_2192">
<rect width="72" height="72" fill="white"/>
</clipPath>
</defs>
</svg>
