<svg width="43" height="43" viewBox="0 0 43 43" fill="none" xmlns="http://www.w3.org/2000/svg">
<path id="Vector" d="M21.5134 43C9.64388 43.0022 0 33.3713 0 21.5123C0 9.59288 9.63716 -0.00895067 21.5985 6.26141e-06C33.4143 0.00896319 43.0067 9.68917 43 21.5974C42.991 33.3668 33.3248 43 21.5157 43H21.5134ZM2.21673 22.6543C2.45407 26.7857 3.88039 30.3662 6.37253 33.5482C7.88393 32.7062 9.3304 31.9001 10.6089 31.188C10.0335 28.2569 9.4849 25.4623 8.93408 22.6521H2.21673V22.6543ZM36.6342 33.5482C39.1129 30.3573 40.5482 26.7812 40.781 22.67H34.0704C33.4927 25.5698 32.9374 28.3666 32.3776 31.188C33.7233 31.9337 35.1497 32.7242 36.6342 33.546V33.5482ZM8.89825 20.3367C9.42892 17.8064 9.94168 15.4485 10.4007 13.0816C10.4612 12.7704 10.3671 12.2285 10.1566 12.1008C8.86018 11.3104 7.50776 10.605 6.08144 9.82128C3.77067 12.9047 2.44512 16.3666 2.21225 20.3367H8.89825ZM36.9096 9.82576C35.4878 10.6073 34.1421 11.3216 32.8344 12.0941C32.6374 12.2105 32.4784 12.6382 32.5254 12.8756C33.0203 15.341 33.5644 17.7974 34.1107 20.3367H40.7855C40.5414 16.371 39.236 12.9025 36.9118 9.82576H36.9096ZM12.6241 30.2543C15.3715 29.7594 17.8413 29.316 20.3379 28.8682V22.6812H11.1284C11.6479 25.3101 12.1405 27.8046 12.6241 30.2543ZM31.8604 22.6767H22.6621V28.8682C25.1856 29.3205 27.6262 29.7594 30.3714 30.252C30.8505 27.8135 31.3454 25.2989 31.8604 22.6767ZM11.1508 20.321H20.3379V14.6804C17.745 14.2057 15.2327 13.7444 12.4786 13.2406C12.0509 15.5246 11.6165 17.8445 11.1508 20.321ZM31.8604 20.3479C31.3857 17.8489 30.9401 15.5067 30.508 13.2384C27.7046 13.7511 25.1968 14.2102 22.6599 14.6737V20.3457H31.8604V20.3479ZM13.4325 11.232C15.8485 11.6686 18.0495 12.065 20.3043 12.4725V3.01849C17.2031 5.07187 15.0939 7.72536 13.4325 11.232ZM29.5631 11.2253C27.8949 7.72312 25.7969 5.04276 22.68 3.02521V12.4882C24.9773 12.0672 27.156 11.6664 29.5631 11.2253ZM20.3155 39.9882V31.0559C18.0719 31.4657 15.9492 31.8531 13.6698 32.2696C15.3156 35.5501 17.3599 38.0356 20.3155 39.9882ZM22.6576 40.0129C25.658 37.9953 27.7427 35.5142 29.3168 32.2315C26.9791 31.8285 24.8497 31.459 22.6576 31.0806V40.0106V40.0129ZM16.5538 2.80577C13.2511 3.63652 10.2238 5.38536 7.52791 8.13514C8.90049 8.90544 10.1432 9.60184 11.1642 10.1751C13.0697 7.57085 14.8565 5.12785 16.5538 2.80577ZM26.4552 2.81248C28.1681 5.16592 29.9706 7.63803 31.8402 10.2042C32.9307 9.57721 34.1421 8.88304 35.4676 8.1217C32.7672 5.39208 29.7489 3.6298 26.4574 2.81248H26.4552ZM26.4126 40.1987C29.6034 39.4038 32.5254 37.7512 35.1631 35.1739C33.7883 34.4417 32.5747 33.7945 31.5895 33.2683C29.7646 35.7113 28.0875 37.9572 26.4126 40.1987ZM7.86378 35.1851C10.4813 37.7692 13.4078 39.406 16.6008 40.1987C14.9349 37.9752 13.2108 35.671 11.3949 33.2481C10.3649 33.8124 9.1759 34.4663 7.86378 35.1828V35.1851Z" fill="black"/>
</svg>
